<svg width="36" height="36" viewBox="0 0 36 36" fill="none" xmlns="http://www.w3.org/2000/svg">
<path d="M34.5325 23.3822L30.4011 21.7297C30.3788 21.7207 30.3581 21.7093 30.3371 21.6984C33.1906 21.0491 34.5421 19.9633 34.602 19.9142C34.7447 19.7972 34.8159 19.6143 34.7898 19.4317C34.7839 19.3899 34.1926 15.2034 34.1926 11.0712C34.1926 7.12594 30.9829 3.91622 27.0376 3.91622C23.0924 3.91622 19.8827 7.12586 19.8827 11.0712C19.8827 12.1522 19.8337 13.4743 19.7538 14.726L18.6025 15.3016L15.2233 13.6121C15.2136 13.6072 15.2034 13.6037 15.1935 13.5995C15.3542 13.131 15.4593 12.637 15.4979 12.1243C16.2048 11.906 16.7198 11.2463 16.7198 10.4687C16.7198 9.94492 16.4858 9.47509 16.1173 9.15714V5.64852C16.1173 4.67926 15.6276 3.77236 14.8245 3.22743C14.5524 2.21633 13.6439 1.5061 12.5774 1.5061H7.75734C5.141 1.5061 3.01242 3.63469 3.01242 6.25103V9.15707C2.64391 9.47495 2.4099 9.94485 2.4099 10.4686C2.4099 11.2463 2.92495 11.9059 3.6318 12.1243C3.76498 13.8947 4.67736 15.4502 6.02497 16.4513V17.9089L1.66388 19.2172C0.668676 19.5158 0 20.4145 0 21.4536V27.3389C0 27.6301 0.236111 27.8662 0.527347 27.8662H0.602511V33.9665C0.602511 34.2577 0.838622 34.4938 1.12986 34.4938C1.42109 34.4938 1.6572 34.2577 1.6572 33.9665V27.8662H3.61507V33.9665C3.61507 34.2577 3.85118 34.4938 4.14242 34.4938C4.43365 34.4938 4.66976 34.2577 4.66976 33.9665V24.8736C4.66976 24.4111 4.53413 23.9632 4.27763 23.5785L3.37621 22.2263C3.21464 21.984 2.88719 21.9186 2.64496 22.08C2.40259 22.2415 2.33713 22.569 2.49871 22.8113L3.40012 24.1635C3.54075 24.3745 3.61514 24.62 3.61514 24.8736V26.8115H1.12986H1.05469V21.4536C1.05469 20.8839 1.42131 20.3912 1.96707 20.2274L3.77742 19.6843C4.40785 22.324 6.80207 24.2511 9.56502 24.2511C10.5576 24.2511 11.5216 24.0064 12.3848 23.5406C12.7003 23.971 13.2092 24.2511 13.7825 24.2511H13.8577V24.3263C13.8577 26.0942 14.8303 27.6383 16.2677 28.4545V29.3147C16.2677 29.347 16.2471 29.3757 16.2163 29.386L14.2492 30.0417C13.2943 30.36 12.6527 31.2502 12.6527 32.2568V33.9665C12.6527 34.2577 12.8888 34.4938 13.18 34.4938C13.4713 34.4938 13.7074 34.2577 13.7074 33.9665V32.2568C13.7074 31.7049 14.0591 31.2168 14.5827 31.0423L15.1611 30.8494C15.9264 31.9908 17.2135 32.6864 18.6025 32.6864C19.9931 32.6864 21.2789 31.9912 22.0441 30.8495L22.6224 31.0423C23.146 31.2168 23.4977 31.7049 23.4977 32.2568V33.9665C23.4977 34.2577 23.7338 34.4938 24.0251 34.4938C24.3163 34.4938 24.5524 34.2577 24.5524 33.9665V32.2568C24.5524 31.2502 23.9108 30.36 22.9559 30.0418L20.9888 29.386C20.958 29.3758 20.9374 29.3471 20.9374 29.3147V28.4546C22.0136 27.8434 22.8283 26.8242 23.17 25.6083C24.1665 26.651 25.5584 27.2638 27.0376 27.2638C29.3728 27.2638 31.4218 25.7543 32.1276 23.5564L34.1406 24.3615C34.6295 24.5571 34.9453 25.0237 34.9453 25.5501V28.0166H34.8701H32.9874V27.3389C32.9874 27.0477 32.7513 26.8116 32.4601 26.8116C32.1689 26.8116 31.9327 27.0477 31.9327 27.3389V33.9666C31.9327 34.2578 32.1689 34.4939 32.4601 34.4939C32.7513 34.4939 32.9874 34.2578 32.9874 33.9666V29.0713H34.3428V33.9666C34.3428 34.2578 34.5789 34.4939 34.8701 34.4939C35.1614 34.4939 35.3975 34.2578 35.3975 33.9666V29.0713H35.4727C35.6125 29.0713 35.7466 29.0158 35.8455 28.9169C35.9445 28.818 36 28.6839 36 28.544V25.5501C36.0002 24.5898 35.4241 23.7388 34.5325 23.3822ZM20.9375 11.0711C20.9375 7.70742 23.6741 4.97084 27.0378 4.97084C30.4015 4.97084 33.138 7.70742 33.138 11.0711C33.138 14.6123 33.5644 18.192 33.703 19.2611C33.2304 19.5703 32.0205 20.2512 29.9752 20.6987V19.8595C30.2553 19.7007 30.5235 19.5195 30.7756 19.3157C31.8133 18.477 32.5466 17.3023 32.8402 16.0081C32.9381 15.5768 32.9877 15.1321 32.9877 14.6863C32.9877 11.7056 30.8321 11.2777 28.7475 10.8638C27.4211 10.6005 26.0495 10.3282 24.9572 9.45442C24.7989 9.32779 24.5821 9.30311 24.3994 9.39093C24.2166 9.47875 24.1005 9.66346 24.1005 9.86624C24.1005 9.88023 24.0775 11.2678 22.0899 11.7647C21.8073 11.8354 21.6355 12.1217 21.7062 12.4043C21.7768 12.6868 22.0631 12.8585 22.3457 12.788C24.0093 12.3721 24.6879 11.4388 24.9647 10.7376C26.1082 11.4153 27.3893 11.6696 28.5421 11.8984C30.7703 12.3408 31.933 12.6657 31.933 14.6863C31.933 15.0538 31.8922 15.42 31.8117 15.7748C31.5701 16.8389 30.9668 17.8051 30.1126 18.4956C29.2336 19.2061 28.1704 19.5815 27.0378 19.5815C26.0053 19.5815 25.0227 19.2648 24.1888 18.6664C23.8833 17.8326 23.3925 17.0697 22.745 16.4411V14.0838C22.745 13.901 22.6504 13.7313 22.4949 13.6352C22.3395 13.5392 22.1454 13.5304 21.9819 13.6122L20.8433 14.1814C20.9057 13.0832 20.9375 12.0391 20.9375 11.0711ZM21.6903 14.9369V16.8454L19.7818 15.8912L21.6903 14.9369ZM15.5149 14.9369L17.4234 15.8912L15.5149 16.8454V14.9369ZM12.6527 20.7112V21.2121C12.2751 21.5381 12.0502 22.0153 12.0502 22.5187C11.2991 22.9624 10.4458 23.1964 9.56495 23.1964C7.27106 23.1964 5.28648 21.5822 4.79 19.3806L6.09282 18.9897C6.41423 20.6131 7.84868 21.8411 9.56502 21.8411C10.9279 21.8411 12.1125 21.0665 12.7039 19.9348C12.67 20.1909 12.6527 20.4502 12.6527 20.7112ZM7.07981 18.3003V17.0788C7.83651 17.4283 8.6783 17.6235 9.56502 17.6235C10.4517 17.6235 11.2935 17.4282 12.0502 17.0789V18.3011C12.0502 19.6715 10.9354 20.7863 9.56502 20.7863C8.19694 20.7863 7.08367 19.6751 7.07995 18.3079C7.07995 18.3053 7.07981 18.3028 7.07981 18.3003ZM9.56502 16.5688C6.8657 16.5688 4.66976 14.3729 4.66976 11.6736C4.66976 11.3824 4.43365 11.1463 4.14242 11.1463C3.76877 11.1463 3.46474 10.8423 3.46474 10.4686C3.46474 10.095 3.7687 9.79094 4.14242 9.79094H5.34744C5.57441 9.79094 5.77592 9.64574 5.84771 9.43037L6.33175 7.97827C7.54359 7.95092 11.3003 7.78055 13.4158 6.72276C13.6764 6.59247 13.782 6.27578 13.6517 6.01527C13.5215 5.75476 13.2048 5.64915 12.9442 5.77944C10.6744 6.91429 5.99678 6.92878 5.94981 6.92878C5.72284 6.92885 5.52132 7.07404 5.4496 7.28941L4.96733 8.73631H4.14242C4.11724 8.73631 4.09221 8.73716 4.06725 8.73821V6.25103C4.06725 4.21625 5.7227 2.5608 7.75748 2.5608H12.5776C13.2073 2.5608 13.7363 3.01467 13.8357 3.63989C13.8609 3.7988 13.9573 3.93745 14.0975 4.01649C14.6929 4.3523 15.0628 4.97759 15.0628 5.64845V8.73807C15.0378 8.73695 15.0129 8.73617 14.9876 8.73617H14.3851C14.0939 8.73617 13.8578 8.97228 13.8578 9.26352C13.8578 9.55476 14.0939 9.79087 14.3851 9.79087H14.9876C15.3613 9.79087 15.6653 10.0948 15.6653 10.4685C15.6653 10.8423 15.3613 11.1462 14.9876 11.1462C14.6964 11.1462 14.4603 11.3823 14.4603 11.6736C14.4603 14.3728 12.2643 16.5688 9.56502 16.5688ZM13.1048 18.3013V16.4513C13.6295 16.0616 14.088 15.5882 14.4602 15.0501V16.441C13.8696 17.0143 13.4093 17.6992 13.1011 18.4479C13.1032 18.3992 13.1048 18.3504 13.1048 18.3013ZM20.9918 30.4987C20.4112 31.2079 19.539 31.6316 18.6026 31.6316C17.6673 31.6316 16.7946 31.2076 16.2138 30.4986L16.5499 30.3866C17.012 30.2326 17.3225 29.8018 17.3225 29.3147V28.8944C17.73 29.0088 18.1591 29.0713 18.6027 29.0713C19.0463 29.0713 19.4753 29.0088 19.8829 28.8944V29.3147C19.8828 29.8017 20.1932 30.2325 20.6554 30.3865L20.9918 30.4987ZM22.8203 23.1964C22.529 23.1964 22.2929 23.4326 22.2929 23.7238V24.2481C22.2929 24.2527 22.2928 24.2573 22.2929 24.2618V24.3263C22.2928 26.3611 20.6374 28.0165 18.6026 28.0165C16.5678 28.0165 14.9125 26.3611 14.9125 24.3263V23.7238C14.9125 23.4326 14.6763 23.1964 14.3851 23.1964H13.7826C13.409 23.1964 13.1049 22.8925 13.1049 22.5188C13.1049 22.2783 13.2322 22.0607 13.4453 21.9367C13.4929 21.9089 13.5343 21.8739 13.5702 21.8342C14.8738 21.7964 19.0995 21.5511 21.8768 19.9641C22.1297 19.8196 22.2175 19.4975 22.073 19.2446C21.9286 18.9917 21.6063 18.9038 21.3535 19.0483C18.9206 20.4386 15.0975 20.7169 13.7074 20.7726V20.7112C13.7074 19.7304 14.0044 18.7806 14.5426 17.9798C14.5847 18.0465 14.641 18.1045 14.7104 18.1473C14.7951 18.1996 14.8912 18.226 14.9876 18.226C15.0682 18.226 15.149 18.2075 15.2234 18.1703L18.6027 16.4807L21.9819 18.1703C22.0564 18.2075 22.1372 18.226 22.2178 18.226C22.3142 18.226 22.4103 18.1996 22.495 18.1473C22.5643 18.1045 22.6206 18.0464 22.6627 17.9798C23.2009 18.7806 23.4979 19.7304 23.4979 20.7112V21.4809C23.4979 21.6686 23.5976 21.8422 23.76 21.9367C23.9732 22.0608 24.1005 22.2783 24.1005 22.5188C24.1005 22.8924 23.7964 23.1964 23.4228 23.1964H22.8203ZM27.0378 26.209C25.5778 26.209 24.2233 25.4657 23.4348 24.2509C24.3844 24.2443 25.1551 23.47 25.1551 22.5188C25.1551 22.0154 24.9301 21.5382 24.5526 21.2121V20.7113C24.5526 20.499 24.5411 20.288 24.5187 20.0788C25.3006 20.4455 26.1544 20.6361 27.0378 20.6361C27.6808 20.6361 28.3167 20.5295 28.9205 20.3282V21.1004C28.9205 21.8129 29.3479 22.4443 30.0094 22.7089L31.1466 23.1638C30.6016 24.9657 28.9373 26.209 27.0378 26.209Z" fill="#FBCF5E"/>
</svg>
