<svg width="36" height="36" viewBox="0 0 36 36" fill="none" xmlns="http://www.w3.org/2000/svg">
<path d="M33 24.1437V19.7155C32.9985 18.3575 31.8801 17.2569 30.5 17.2555H28.5001V12.3353C28.5001 12.0636 28.2762 11.8433 28.0001 11.8433H25.0001C24.724 11.8433 24.5001 12.0636 24.5001 12.3353V17.2555H20.0002V11.3513C20.0002 11.0796 19.7763 10.8593 19.5002 10.8593H16.5002C16.2241 10.8593 16.0002 11.0796 16.0002 11.3513V17.2555H11.5003V12.3353C11.5003 12.0636 11.2764 11.8433 11.0003 11.8433H8.00031C7.72419 11.8433 7.50031 12.0636 7.50031 12.3353V17.2555H5.50034C4.12047 17.2569 3.00208 18.3575 3.00037 19.7155V24.1437C2.98328 25.1995 3.56042 26.1785 4.50035 26.6883V32.0159H3.50036C3.22424 32.0159 3.00037 32.2362 3.00037 32.508C3.00037 32.7797 3.22424 33 3.50036 33H32.5C32.7761 33 33 32.7797 33 32.508C33 32.2362 32.7761 32.0159 32.5 32.0159H31.5V26.6958C32.4255 26.1677 32.9966 25.1962 33 24.1437ZM25.5001 12.8273H27.5001V17.2555H25.5001V12.8273ZM17.0002 11.8433H19.0002V17.2555H17.0002V11.8433ZM8.5003 12.8273H10.5003V17.2555H8.5003V12.8273ZM4.00036 19.7155C4.00036 18.9002 4.67198 18.2395 5.50034 18.2395H30.5C31.3286 18.2395 32 18.9002 32 19.7155V24.1437C31.9983 24.9252 31.5296 25.6325 30.8035 25.9493C30.0476 26.2626 29.1746 26.1014 28.5857 25.5395C28.2103 25.1688 27.9998 24.6667 28.0001 24.1437V22.1756C27.9976 21.4326 27.5692 20.7548 26.8931 20.424L26.8626 20.4077C26.7825 20.3704 26.7 20.3387 26.6156 20.3128C26.5658 20.2964 26.5201 20.2803 26.4705 20.2686C26.4066 20.2542 26.3419 20.2429 26.2767 20.2349C26.2327 20.2287 26.1908 20.2157 26.1461 20.2124C26.1222 20.2124 26.0992 20.2157 26.0758 20.2148C26.0521 20.2138 26.0262 20.2076 26.0001 20.2076C25.9447 20.2076 25.8912 20.2188 25.8363 20.2232C25.7811 20.2277 25.7227 20.2301 25.6666 20.2395C25.5802 20.2554 25.4947 20.277 25.4112 20.3039C25.3661 20.3176 25.3202 20.3274 25.2762 20.3443C25.183 20.3815 25.0929 20.4259 25.0067 20.4771C24.9752 20.4949 24.9417 20.5076 24.9107 20.5264C24.794 20.6008 24.6854 20.6871 24.5868 20.7837C24.2101 21.1517 23.9989 21.6531 24.0001 22.1756V23.1597C24.0001 24.2465 23.1049 25.1277 22.0001 25.1277C20.8957 25.1277 20.0002 24.2465 20.0002 23.1597V22.1756C19.9977 21.4326 19.5693 20.7548 18.8932 20.424L18.8627 20.4077C18.7826 20.3704 18.7001 20.3387 18.6157 20.3128C18.5659 20.2964 18.5202 20.2803 18.4706 20.2686C18.4067 20.2542 18.342 20.2429 18.2768 20.2349C18.2328 20.2287 18.1909 20.2157 18.1462 20.2124C18.1223 20.2124 18.0993 20.2157 18.0759 20.2148C18.0522 20.2138 18.0263 20.2076 18.0002 20.2076C17.9448 20.2076 17.8913 20.2188 17.8364 20.2232C17.7812 20.2277 17.7228 20.2301 17.6667 20.2395C17.5805 20.2554 17.4953 20.277 17.4118 20.3039C17.3662 20.3176 17.3203 20.3274 17.2763 20.3443C17.1835 20.3815 17.0937 20.4257 17.0078 20.4766C16.9758 20.4944 16.9418 20.5076 16.9108 20.5259C16.7941 20.6001 16.6855 20.6861 16.5869 20.7827C16.2099 21.151 15.9987 21.6529 16.0002 22.1756V25.1277C16.0002 26.2146 15.105 27.0958 14.0002 27.0958C12.8958 27.0958 12.0003 26.2146 12.0003 25.1277V22.1756C11.9978 21.4326 11.5694 20.7548 10.8933 20.424L10.8628 20.4077C10.7827 20.3704 10.7002 20.3387 10.6158 20.3128C10.5659 20.2964 10.5203 20.2803 10.4707 20.2686C10.4068 20.2542 10.3421 20.2429 10.2769 20.2349C10.2329 20.2287 10.191 20.2157 10.1463 20.2124C10.1018 20.209 10.0503 20.2076 10.0003 20.2076C8.8958 20.2076 8.00031 21.0885 8.00031 22.1756V24.1437C8.00104 24.665 7.79206 25.1654 7.41877 25.5354C6.92317 26.0048 6.22274 26.2004 5.55039 26.057C5.43076 26.032 5.31357 25.9964 5.20054 25.9503C4.97202 25.8511 4.76378 25.712 4.58604 25.5395C4.21056 25.1688 4.00011 24.6667 4.00036 24.1437V19.7155ZM5.50034 32.0159V27.0549C5.55039 27.0631 5.60043 27.0653 5.65048 27.071L5.68881 27.0751C6.12631 27.1196 6.56844 27.0691 6.98396 26.9274C7.11091 26.8834 7.23494 26.831 7.35481 26.771C7.38044 26.7587 7.40486 26.7453 7.43147 26.7316C7.52839 26.6797 7.62263 26.6227 7.71345 26.5608C7.7425 26.5413 7.77179 26.523 7.80036 26.5024C8.56573 25.9544 9.01299 25.0749 9.0003 24.1437V22.1756C8.99981 21.9145 9.10552 21.6641 9.29375 21.4804C9.3438 21.4316 9.39873 21.3879 9.45781 21.3504C9.46831 21.3441 9.47978 21.3396 9.49028 21.3338C9.53935 21.3043 9.59062 21.279 9.64384 21.2584C9.65947 21.2526 9.67534 21.249 9.69096 21.2442C9.73979 21.2279 9.78984 21.2156 9.84086 21.2072C9.86479 21.2034 9.89091 21.2024 9.91435 21.1998C9.95634 21.1959 9.99857 21.1945 10.0408 21.1954C10.0723 21.1969 10.1038 21.2 10.1348 21.2048C10.1724 21.2091 10.2098 21.2159 10.2464 21.225C10.2588 21.2279 10.2703 21.2324 10.2823 21.2358C10.718 21.3922 11.0059 21.8023 11.0003 22.2587V25.1277C11.0003 26.758 12.3435 28.0798 14.0002 28.0798C15.6572 28.0798 17.0002 26.758 17.0002 25.1277V22.1756C17.0002 21.8414 17.173 21.5303 17.4587 21.3499C17.4672 21.3446 17.4772 21.341 17.4858 21.3357C17.5366 21.3052 17.5898 21.279 17.6452 21.2579C17.6594 21.2526 17.6738 21.2495 17.6877 21.2452C17.7368 21.2288 17.7868 21.2159 17.8378 21.2067C17.8618 21.2034 17.8879 21.2019 17.9099 21.1998C17.9518 21.1957 17.9943 21.1942 18.0368 21.1954C18.0683 21.1969 18.0995 21.2 18.1308 21.2048C18.1684 21.2091 18.2055 21.2159 18.2424 21.225C18.2548 21.2279 18.2663 21.2324 18.2783 21.2358C18.7155 21.391 19.0053 21.8013 19.0002 22.2587V23.1597C19.0002 24.7899 20.3434 26.1117 22.0001 26.1117C23.6571 26.1117 25.0001 24.7899 25.0001 23.1597V22.1756C24.9996 21.9145 25.1053 21.6641 25.2936 21.4804C25.3436 21.4316 25.3985 21.3879 25.4576 21.3504C25.4681 21.3441 25.4796 21.3396 25.4906 21.3331C25.5394 21.304 25.5907 21.279 25.6436 21.2584C25.6593 21.2526 25.6756 21.249 25.6937 21.2442C25.7418 21.2279 25.7911 21.2156 25.8412 21.2072C25.8651 21.2034 25.8912 21.2024 25.9146 21.1998C25.9566 21.1959 25.9989 21.1945 26.0411 21.1954C26.0726 21.1969 26.1041 21.2 26.1351 21.2048C26.1727 21.2091 26.21 21.2159 26.2467 21.225C26.2591 21.2279 26.2706 21.2324 26.2826 21.2358C26.7181 21.3924 27.0059 21.8025 27.0001 22.2587V24.1437C26.9993 24.9278 27.3153 25.6803 27.8787 26.2352C27.9778 26.3304 28.0836 26.4188 28.1951 26.5C28.2276 26.523 28.261 26.5437 28.2952 26.5658C28.3792 26.6223 28.4642 26.6746 28.5525 26.7222C28.5877 26.7409 28.6226 26.7592 28.658 26.7763C28.7588 26.8255 28.8621 26.8692 28.9676 26.9072C28.9886 26.9146 29.0091 26.924 29.0306 26.931C29.305 27.023 29.5911 27.0761 29.8807 27.0883H29.8841C30.0235 27.0939 30.1631 27.0898 30.302 27.0761L30.3521 27.0706C30.4021 27.0653 30.4522 27.0631 30.5022 27.0549V32.0159H5.50034Z" fill="#FBCF5E"/>
<path d="M18.0002 9.87525C19.3803 9.87357 20.4987 8.77302 20.5002 7.41517C20.5002 6.23414 18.7607 3.69598 18.4118 3.1994C18.3134 3.07375 18.1616 3 18.0002 3C17.8391 3 17.687 3.07375 17.5888 3.1994C17.2397 3.69598 15.5002 6.23414 15.5002 7.41517C15.5019 8.77302 16.6203 9.87357 18.0002 9.87525ZM18.0002 4.36842C18.7197 5.47497 19.5002 6.87775 19.5002 7.41517C19.5002 8.23031 18.8288 8.89122 18.0002 8.89122C17.1718 8.89122 16.5002 8.23031 16.5002 7.41517C16.5002 6.87775 17.2807 5.47497 18.0002 4.36842Z" fill="#FBCF5E"/>
<path d="M26.5001 10.8593C27.8802 10.8576 28.9986 9.75709 29 8.39924C29 7.21821 27.2606 4.68005 26.9117 4.18347C26.8133 4.05782 26.6615 3.98407 26.5001 3.98407C26.339 3.98407 26.1869 4.05782 26.0887 4.18347C25.7396 4.68005 24.0001 7.21821 24.0001 8.39924C24.0018 9.75709 25.1202 10.8576 26.5001 10.8593ZM26.5001 5.35249C27.2196 6.45905 28.0001 7.86182 28.0001 8.39924C28.0001 9.21438 27.3287 9.87529 26.5001 9.87529C25.6717 9.87529 25.0001 9.21438 25.0001 8.39924C25.0001 7.86182 25.7806 6.45905 26.5001 5.35249Z" fill="#FBCF5E"/>
<path d="M9.50029 10.8593C10.8804 10.8576 11.9988 9.75709 12.0003 8.39924C12.0003 7.21821 10.2608 4.68005 9.9119 4.18347C9.81352 4.05782 9.66166 3.98407 9.50029 3.98407C9.33916 3.98407 9.18706 4.05782 9.08892 4.18347C8.7398 4.68005 7.00032 7.21821 7.00032 8.39924C7.00203 9.75709 8.12042 10.8576 9.50029 10.8593ZM9.50029 5.35249C10.2198 6.45905 11.0003 7.86182 11.0003 8.39924C11.0003 9.21438 10.3289 9.87529 9.50029 9.87529C8.67193 9.87529 8.00031 9.21438 8.00031 8.39924C8.00031 7.86182 8.78081 6.45905 9.50029 5.35249Z" fill="#FBCF5E"/>
</svg>
