<svg width="36" height="36" viewBox="0 0 36 36" fill="none" xmlns="http://www.w3.org/2000/svg">
<path d="M34.3125 34.3125V17.4375H33.1875V15.1875H32.0625V11.8125H30.9375V9.5625H29.8125V11.8125H28.6875V15.1875H27.5625V2.68875L24.1875 3.36375V1.6875H23.0625V3.58875L21.9375 3.81375V0.5625H20.8125V4.03875L19.6875 4.26375V1.6875H18.5625V4.48931L15.1875 5.16431V8.4375H5.0625V9.5625H6.1875V16.3637C6.003 16.3333 5.81625 16.3125 5.625 16.3125C3.45431 16.3125 1.6875 18.3313 1.6875 20.8125C1.6875 23.0749 3.15788 24.9474 5.0625 25.2613V25.9943C4.59169 25.5684 4.00837 25.3125 3.375 25.3125C1.82419 25.3125 0.5625 26.8262 0.5625 28.6875C0.5625 30.3176 1.53056 31.6806 2.8125 31.9944V34.3125H0.5625V35.4375H35.4375V34.3125H34.3125ZM9.5625 33.75C9.5625 32.8196 10.3196 32.0625 11.25 32.0625C11.8575 32.0625 12.4211 32.3916 12.7209 32.9214L12.8953 33.2303L13.5 33.1875C13.6654 33.1875 13.8398 33.2196 14.0332 33.2848L14.58 33.4682L14.7504 32.9175C15.1166 31.7334 16.1966 30.9375 17.4375 30.9375C18.4601 30.9375 19.404 31.4949 19.9007 32.3927L20.2523 33.0294L20.7799 32.5288C21.4138 31.9281 22.4606 31.9281 23.0946 32.5288L23.6222 33.0294L23.9737 32.3927C24.471 31.4949 25.4149 30.9375 26.4375 30.9375C27.6587 30.9375 28.7331 31.7182 29.1111 32.8804L29.2691 33.3658L29.7681 33.2556C30.8829 33.0081 31.9725 33.4671 32.6132 34.3125H9.67163C9.6075 34.1314 9.5625 33.9441 9.5625 33.75ZM33.1875 18.5625V33.2646C32.8613 32.9304 32.4827 32.6554 32.0625 32.454V19.6875H24.1875V30.5269C23.8719 30.7474 23.5845 31.0095 23.3426 31.3166C23.2526 31.2643 23.1581 31.2199 23.0625 31.1788V18.5625H33.1875ZM26.4375 29.8125C26.0505 29.8125 25.6731 29.8755 25.3125 29.9835V20.8125H27.5625V29.9756C27.2042 29.8693 26.8262 29.8125 26.4375 29.8125ZM28.6875 20.8125H30.9375V32.1154C30.6321 32.0709 30.321 32.0496 30.0032 32.0805C29.7056 31.4432 29.2455 30.9156 28.6875 30.5258V20.8125ZM24.1875 17.4375V16.3125H32.0625V17.4375H24.1875ZM29.8125 12.9375H30.9375V15.1875H29.8125V12.9375ZM26.4375 4.06125V15.1875H23.0625V17.4375H21.9375V30.9459C21.447 30.9459 20.9571 31.0697 20.5324 31.3166C19.7927 30.3767 18.6553 29.8125 17.4375 29.8125C17.0483 29.8125 16.6702 29.8687 16.3125 29.9739V6.08569L26.4375 4.06125ZM7.3125 9.5625H15.1875V30.5218C14.625 30.9133 14.1626 31.446 13.8651 32.0906C13.7464 32.0743 13.626 32.0653 13.5011 32.0642C12.9741 31.3616 12.1404 30.9375 11.25 30.9375C9.69919 30.9375 8.4375 32.1992 8.4375 33.75C8.4375 33.9401 8.46281 34.1274 8.5005 34.3125H6.1875V32.2701L9.5625 28.3331V26.9488C11.4671 26.6349 12.9375 24.7624 12.9375 22.5C12.9375 20.8069 12.114 19.3303 10.9018 18.5625H11.8125V17.4375H10.6875V18.4404C10.1751 18.1609 9.60413 18 9 18C8.90325 18 8.80425 18.0062 8.70413 18.0158C8.33231 17.4819 7.85644 17.0494 7.3125 16.7529V9.5625ZM9.5625 20.8125C9.5625 20.2219 9.45956 19.6588 9.27787 19.1419C10.6987 19.3101 11.8125 20.7517 11.8125 22.5C11.8125 24.3613 10.5508 25.875 9 25.875C8.29012 25.875 7.61569 25.5482 7.101 24.9812C8.54212 24.3124 9.5625 22.6969 9.5625 20.8125ZM6.1875 25.6393C6.79106 26.3469 7.578 26.8093 8.4375 26.9505V27.9174L6.1875 30.5426V25.6393ZM2.8125 20.8125C2.8125 18.9512 4.07419 17.4375 5.625 17.4375C7.17581 17.4375 8.4375 18.9512 8.4375 20.8125C8.4375 22.4426 7.46944 23.8056 6.1875 24.1194V20.25H5.0625V24.1194C3.78056 23.8056 2.8125 22.4426 2.8125 20.8125ZM1.6875 28.6875C1.6875 27.4466 2.44463 26.4375 3.375 26.4375C4.30538 26.4375 5.0625 27.4466 5.0625 28.6875C5.0625 29.9284 4.30538 30.9375 3.375 30.9375C2.44463 30.9375 1.6875 29.9284 1.6875 28.6875ZM3.9375 31.9944C4.35375 31.8926 4.73513 31.6772 5.0625 31.3813V34.3125H3.9375V31.9944Z" fill="#FBCF5E"/>
<path d="M20.8125 7.3125H17.4375V11.8125H20.8125V7.3125ZM19.6875 10.6875H18.5625V8.4375H19.6875V10.6875Z" fill="#FBCF5E"/>
<path d="M20.8125 12.9375H17.4375V17.4375H20.8125V12.9375ZM19.6875 16.3125H18.5625V14.0625H19.6875V16.3125Z" fill="#FBCF5E"/>
<path d="M20.8125 18.5625H17.4375V23.0625H20.8125V18.5625ZM19.6875 21.9375H18.5625V19.6875H19.6875V21.9375Z" fill="#FBCF5E"/>
<path d="M20.8125 24.1875H17.4375V28.6875H20.8125V24.1875ZM19.6875 27.5625H18.5625V25.3125H19.6875V27.5625Z" fill="#FBCF5E"/>
<path d="M25.3125 7.3125H21.9375V11.8125H25.3125V7.3125ZM24.1875 10.6875H23.0625V8.4375H24.1875V10.6875Z" fill="#FBCF5E"/>
<path d="M8.4375 10.6875H9.5625V11.8125H8.4375V10.6875Z" fill="#FBCF5E"/>
<path d="M10.6875 10.6875H11.8125V11.8125H10.6875V10.6875Z" fill="#FBCF5E"/>
<path d="M12.9375 10.6875H14.0625V11.8125H12.9375V10.6875Z" fill="#FBCF5E"/>
<path d="M8.4375 12.9375H9.5625V14.0625H8.4375V12.9375Z" fill="#FBCF5E"/>
<path d="M10.6875 12.9375H11.8125V14.0625H10.6875V12.9375Z" fill="#FBCF5E"/>
<path d="M12.9375 12.9375H14.0625V14.0625H12.9375V12.9375Z" fill="#FBCF5E"/>
<path d="M10.6875 15.1875H11.8125V16.3125H10.6875V15.1875Z" fill="#FBCF5E"/>
<path d="M8.4375 15.1875H9.5625V16.3125H8.4375V15.1875Z" fill="#FBCF5E"/>
<path d="M12.9375 15.1875H14.0625V16.3125H12.9375V15.1875Z" fill="#FBCF5E"/>
<path d="M12.9375 17.4375H14.0625V18.5625H12.9375V17.4375Z" fill="#FBCF5E"/>
</svg>
