<svg width="36" height="36" viewBox="0 0 36 36" fill="none" xmlns="http://www.w3.org/2000/svg">
<g clip-path="url(#clip0)">
<path d="M15.1822 24.7984H16.3094V25.8552H15.1822V24.7984Z" fill="#FBCF5E"/>
<path d="M17.4364 24.7984H18.5636V25.8552H17.4364V24.7984Z" fill="#FBCF5E"/>
<path d="M19.6908 24.7984H20.818V25.8552H19.6908V24.7984Z" fill="#FBCF5E"/>
<path d="M30.4565 15.4296C29.4447 13.499 27.9725 11.8042 26.1991 10.5285L25.5819 11.3863C26.8219 12.2784 27.9024 13.3921 28.7604 14.6537H25.2136C24.8743 13.7171 24.467 12.8418 23.9951 12.0451C24.8565 10.3767 25.2917 8.7864 25.2917 7.29158C25.2917 3.271 22.0207 0 18.0001 0C13.9795 0 10.7085 3.271 10.7085 7.29158C10.7085 8.7864 11.1437 10.3767 12.0052 12.0451C11.5333 12.8418 11.1259 13.7171 10.7867 14.6536H7.23991C8.09793 13.392 9.17835 12.2783 10.4183 11.3862L9.8012 10.5284C8.02783 11.8041 6.55563 13.4989 5.54376 15.4296C4.49807 17.4248 3.94532 19.6778 3.94532 21.9452C3.94532 29.6951 10.2502 36 18.0001 36C25.75 36 32.0549 29.6951 32.0549 21.9452C32.0549 19.6778 31.5022 17.4248 30.4565 15.4296ZM17.4717 34.9095C15.755 34.6906 14.14 33.4084 12.8771 31.2436C12.5154 30.6234 12.1943 29.9512 11.9163 29.2368H17.4717V34.9095ZM18.5285 34.9095V29.2368H24.0839C23.8059 29.9513 23.4849 30.6234 23.1231 31.2436C21.8602 33.4084 20.2452 34.6906 18.5285 34.9095ZM18.5285 28.18V27.0176H17.4717V28.18H11.5463C11.0005 26.4401 10.6906 24.4987 10.6446 22.4736H17.4717V23.636H18.5285V22.4736H25.3556C25.3096 24.4987 24.9997 26.4401 24.4539 28.18H18.5285ZM5.01369 22.4736H9.58766C9.63155 24.4833 9.92449 26.4203 10.4425 28.18H6.59797C5.66092 26.4732 5.09654 24.5344 5.01369 22.4736ZM14.4823 15.7104C15.7783 17.2761 17.0098 18.4011 17.4717 18.8059V21.4168H10.6449C10.6923 19.4091 11.0079 17.4558 11.5534 15.7104H14.4823ZM21.518 15.7104H24.4468C24.9923 17.4558 25.308 19.4091 25.3553 21.4168H18.5285V18.8059C18.9904 18.4011 20.222 17.2761 21.518 15.7104ZM26.4126 22.4736H30.9865C30.9037 24.5344 30.3393 26.4732 29.4022 28.18H25.5576C26.0757 26.4203 26.3687 24.4833 26.4126 22.4736ZM29.4065 15.7104C29.4448 15.7802 29.4835 15.8497 29.5205 15.9202C30.4059 17.6096 30.9077 19.4995 30.986 21.4168H26.4126C26.369 19.4001 26.0769 17.4661 25.5599 15.7104H29.4065ZM24.079 14.6536H22.3472C22.7307 14.137 23.077 13.6265 23.3861 13.1225C23.6396 13.6041 23.8711 14.1159 24.079 14.6536ZM18.0001 1.05675C21.438 1.05675 24.2349 3.85369 24.2349 7.29158C24.2349 11.9036 19.3446 16.644 17.9999 17.8601C16.6547 16.6449 11.7653 11.9091 11.7653 7.29158C11.7653 3.85369 14.5622 1.05675 18.0001 1.05675ZM12.6141 13.1225C12.9232 13.6265 13.2695 14.1369 13.6531 14.6536H11.9212C12.1291 14.1159 12.3607 13.6041 12.6141 13.1225ZM6.47976 15.9202C6.51667 15.8498 6.55542 15.7802 6.59375 15.7104H10.4404C9.92343 17.4661 9.63127 19.4001 9.58773 21.4168H5.01418C5.09253 19.4995 5.59427 17.6096 6.47976 15.9202ZM7.24527 29.2368H10.789C11.1182 30.1467 11.511 30.9989 11.9644 31.7761C12.5565 32.7911 13.2257 33.636 13.9514 34.2968C11.1968 33.3917 8.84547 31.5895 7.24527 29.2368ZM22.0488 34.2968C22.7745 33.636 23.4437 32.7911 24.0359 31.7761C24.4892 30.9989 24.882 30.1467 25.2112 29.2368H28.7549C27.1547 31.5895 24.8034 33.3917 22.0488 34.2968Z" fill="#FBCF5E"/>
<path d="M23.0373 7.29164C23.0373 4.51414 20.7776 2.25446 18.0001 2.25446C15.2226 2.25446 12.9629 4.51414 12.9629 7.29164C12.9629 10.0691 15.2226 12.3288 18.0001 12.3288C20.7776 12.3288 23.0373 10.0691 23.0373 7.29164ZM18.0001 3.31121C19.3739 3.31121 20.5872 4.01085 21.3029 5.07246H14.6973C15.413 4.01085 16.6263 3.31121 18.0001 3.31121ZM14.1933 6.12921H21.8069C21.9195 6.4971 21.9805 6.88732 21.9805 7.29164C21.9805 7.69595 21.9195 8.08617 21.8069 8.45406H14.1933C14.0807 8.08617 14.0197 7.69595 14.0197 7.29164C14.0197 6.88732 14.0807 6.4971 14.1933 6.12921ZM14.6973 9.51082H21.3029C20.5872 10.5724 19.3739 11.2721 18.0001 11.2721C16.6263 11.2721 15.413 10.5724 14.6973 9.51082Z" fill="#FBCF5E"/>
</g>
<defs>
<clipPath id="clip0">
<rect width="36" height="36" fill="white"/>
</clipPath>
</defs>
</svg>
