<svg width="36" height="36" viewBox="0 0 36 36" fill="none" xmlns="http://www.w3.org/2000/svg">
<g clip-path="url(#clip0)">
<path d="M22.1518 25.4312H20.1783C19.8871 25.4312 19.651 25.6673 19.651 25.9585C19.651 26.2498 19.8871 26.4858 20.1783 26.4858H22.1518C22.443 26.4858 22.6791 26.2498 22.6791 25.9585C22.6791 25.6673 22.443 25.4312 22.1518 25.4312Z" fill="#FBCF5E"/>
<path d="M33.7675 19.7856L30.8958 18.678L29.4317 17.2138C29.3377 17.1198 29.2166 17.0689 29.0928 17.061V15.896C29.7829 15.1602 30.2741 14.2285 30.4723 13.1789C30.5953 13.1844 30.7196 13.1745 30.8421 13.1495C31.5438 13.0058 32.0531 12.3548 32.0531 11.6016V11.2171C32.0531 10.7813 31.8764 10.3814 31.5886 10.0954C32.0543 7.56277 31.6708 5.49881 30.4745 4.11737C29.3173 2.78122 27.4531 2.14257 25.0834 2.27075C22.8942 2.38909 21.4809 3.39639 21.0331 3.7649C20.788 3.79401 20.3705 3.88007 19.9479 4.13362C19.3622 4.48504 18.6641 5.22325 18.6641 6.74433C18.6641 8.07127 18.8762 9.17912 19.0297 9.80765C18.515 10.0584 18.1707 10.6018 18.1707 11.223V11.6015C18.1707 12.3547 18.68 13.0058 19.3816 13.1494C19.5042 13.1745 19.6285 13.1843 19.7515 13.1788C19.9497 14.2284 20.441 15.1601 21.1309 15.8959V17.0609C21.0072 17.0688 20.886 17.1198 20.792 17.2138L19.3279 18.6779L16.4563 19.7855C16.2079 19.8813 15.9706 20.0055 15.751 20.1547C15.5101 20.3184 15.4476 20.6463 15.6112 20.8872C15.7132 21.0374 15.8791 21.1182 16.0478 21.1182C16.1498 21.1182 16.2529 21.0886 16.3437 21.027C16.4968 20.923 16.6624 20.8364 16.8358 20.7695L19.5009 19.7415L21.5385 22.7981C21.7911 23.177 22.196 23.4201 22.6491 23.4649C22.6996 23.4699 22.75 23.4724 22.8 23.4724C23.0624 23.4724 23.3169 23.4034 23.5422 23.2759L23.1049 33.1948C23.092 33.4858 23.3175 33.7321 23.6086 33.7449C23.6164 33.7452 23.6243 33.7454 23.6322 33.7454C23.9127 33.7454 24.1462 33.5242 24.1586 33.2412L24.5645 24.0344H25.6592L26.0651 33.2412C26.0775 33.5243 26.311 33.7454 26.5915 33.7454C26.5994 33.7454 26.6073 33.7452 26.6151 33.7449C26.9061 33.7321 27.1316 33.4858 27.1188 33.1948L26.6815 23.2759C26.9068 23.4034 27.1613 23.4724 27.4237 23.4724C27.4737 23.4724 27.5241 23.4699 27.5746 23.4649C28.0277 23.4201 28.4325 23.177 28.6851 22.7981L30.7228 19.7415L33.3879 20.7695C33.7617 20.9136 34.0834 21.1436 34.3364 21.4306L32.5131 23.2538C31.8544 23.9126 31.4916 24.7884 31.4916 25.7199V33.2181C31.4916 33.5093 31.7277 33.7454 32.019 33.7454C32.3102 33.7454 32.5463 33.5093 32.5463 33.2181V25.7199C32.5463 25.0702 32.7994 24.4591 33.2589 23.9996L34.859 22.3995C34.9233 22.6352 34.9533 22.8831 34.9432 23.1365L34.5347 33.1967C34.5229 33.4877 34.7493 33.7332 35.0402 33.7451C35.0475 33.7454 35.0548 33.7455 35.062 33.7455C35.3433 33.7455 35.5771 33.5232 35.5885 33.2396L35.9971 23.1791C36.0569 21.6868 35.1609 20.3231 33.7675 19.7856ZM20.7838 12.9614C20.6908 12.4551 20.2219 12.087 19.7159 12.1245C19.6759 12.1274 19.6347 12.1246 19.5932 12.1162C19.3835 12.0733 19.2254 11.852 19.2254 11.6016V11.2229C19.2254 10.9783 19.3889 10.7579 19.5975 10.7213C19.7736 10.6904 19.9422 10.755 20.0488 10.8941C20.1457 11.0203 20.2748 11.1106 20.4223 11.1551C20.6383 11.2203 20.8764 11.182 21.0595 11.0527C21.3893 10.8199 21.6802 10.5355 21.9243 10.2073C22.0981 9.97358 22.0494 9.64326 21.8158 9.46951C21.582 9.2957 21.2517 9.34429 21.0779 9.57801C20.9562 9.74169 20.8187 9.89026 20.6673 10.0217C20.5001 9.87873 20.3048 9.77537 20.0955 9.71638C19.96 9.19733 19.7188 8.08533 19.7188 6.74419C19.7188 5.93651 19.9678 5.36901 20.4588 5.05753C20.8419 4.81445 21.2474 4.80475 21.2471 4.80468C21.3819 4.80468 21.5131 4.7516 21.611 4.65899C21.6238 4.6469 22.9202 3.44385 25.1403 3.32382C27.1724 3.21414 28.7413 3.72714 29.677 4.8077C30.6202 5.89685 30.9343 7.56896 30.5936 9.66182C30.4523 9.65683 30.2977 9.66751 30.1438 9.69318L29.6484 8.50334C29.5472 8.26062 29.2824 8.12956 29.0281 8.19587C28.979 8.20866 24.1091 9.44322 22.0672 6.90099C21.8848 6.67395 21.553 6.63767 21.3258 6.82006C21.0987 7.00245 21.0625 7.33432 21.2449 7.56143C23.3301 10.1575 27.4676 9.59277 28.8449 9.31736L29.228 10.2374C29.3928 10.6329 29.8142 10.8489 30.2296 10.751C30.4001 10.7108 30.5631 10.7099 30.6242 10.722C30.8375 10.7645 30.9983 10.9772 30.9983 11.2169V11.6015C30.9983 11.852 30.8402 12.0732 30.6305 12.1161C30.5891 12.1246 30.5477 12.1274 30.5078 12.1245C30.0018 12.0876 29.533 12.4549 29.4399 12.9614C29.0563 15.05 27.2361 16.5659 25.1118 16.5659C22.9876 16.5659 21.1674 15.05 20.7838 12.9614ZM23.1232 22.2832C22.9895 22.4169 22.834 22.4234 22.7531 22.4154C22.6723 22.4075 22.5211 22.3705 22.4162 22.2131L20.3634 19.134L21.189 18.3085L24.3404 21.066L23.1232 22.2832ZM24.6109 22.9798L24.6429 22.255L25.1118 21.7861L25.5807 22.255L25.6126 22.9798H24.6109ZM25.1118 20.3395L22.1856 17.7791V16.7698C23.0364 17.3109 24.043 17.6206 25.1118 17.6206C26.1807 17.6206 27.1873 17.3109 28.0381 16.7698V17.7791L25.1118 20.3395ZM27.8076 22.2131C27.7027 22.3706 27.5514 22.4075 27.4707 22.4154C27.3898 22.4234 27.2343 22.4169 27.1006 22.2831L25.8834 21.0659L29.0348 18.3084L29.8604 19.1339L27.8076 22.2131Z" fill="#FBCF5E"/>
<path d="M16.7235 22.5493L14.1485 21.4253L12.7409 20.0177C12.6466 19.9234 12.5254 19.8727 12.402 19.8649V19.0352C13.605 18.2447 14.4853 16.9874 14.7681 15.4893C14.9067 15.4955 15.0465 15.4822 15.1843 15.4496C15.8591 15.29 16.3489 14.6433 16.3489 13.912V13.5276C16.3489 12.9933 16.0838 12.5127 15.6731 12.2308C15.7939 11.7522 15.8555 11.2626 15.8555 10.7698C15.8555 8.58507 14.6745 6.66075 12.8944 5.55585C12.8754 3.73243 11.319 2.25446 9.40771 2.25446C7.4964 2.25446 5.94003 3.73243 5.92104 5.55585C4.14101 6.66075 2.96003 8.58514 2.96003 10.7698C2.96003 11.2612 3.0212 11.7494 3.1413 12.2266C2.73081 12.5071 2.46665 12.99 2.46665 13.5333V13.912C2.46665 14.6433 2.95638 15.29 3.63117 15.4496C3.76898 15.4823 3.90876 15.4955 4.04735 15.4893C4.33022 16.9874 5.2106 18.2447 6.41359 19.0352V19.8649C6.29019 19.8727 6.16897 19.9234 6.07468 20.0177L4.66709 21.4253L2.09216 22.5493C0.782024 23.1212 -0.0575108 24.465 0.00302849 25.8933L0.314444 33.2405C0.326467 33.5238 0.559976 33.7455 0.840946 33.7455C0.848469 33.7455 0.856063 33.7454 0.863657 33.745C1.15468 33.7327 1.38053 33.4868 1.36822 33.1958L1.05674 25.8485C1.0367 25.3751 1.15974 24.9158 1.39107 24.5204L2.77518 26.1813C3.2126 26.7062 3.45342 27.3715 3.45342 28.0547V33.2182C3.45342 33.5094 3.68953 33.7455 3.98076 33.7455C4.272 33.7455 4.50811 33.5094 4.50811 33.2182V28.0547C4.50811 27.1253 4.18038 26.2202 3.58539 25.5062L2.11396 23.7404C2.23905 23.6542 2.37201 23.5779 2.51411 23.5159L4.75821 22.5363L6.34405 25.1103C6.50063 25.3645 6.75952 25.5369 7.05442 25.5833C7.10743 25.5916 7.16059 25.5957 7.21353 25.5957C7.45464 25.5957 7.68948 25.5103 7.87567 25.3514L8.88058 24.4939V33.2181C8.88058 33.5093 9.11669 33.7455 9.40792 33.7455C9.69916 33.7455 9.93527 33.5093 9.93527 33.2181V24.494L10.9401 25.3515C11.1263 25.5104 11.3611 25.5958 11.6022 25.5958C11.6551 25.5958 11.7083 25.5917 11.7614 25.5834C12.0563 25.537 12.3151 25.3647 12.4717 25.1105L14.0576 22.5363L16.3017 23.5159C16.4437 23.5779 16.5767 23.6543 16.7018 23.7405L15.2304 25.5063C14.6354 26.2202 14.3077 27.1254 14.3077 28.0548V33.2182C14.3077 33.5095 14.5438 33.7456 14.835 33.7456C15.1263 33.7456 15.3624 33.5095 15.3624 33.2182V28.0548C15.3624 27.3716 15.6033 26.7063 16.0406 26.1814L17.4247 24.5205C17.656 24.9158 17.7791 25.3752 17.759 25.8486L17.4476 33.1959C17.4353 33.4868 17.6612 33.7327 17.9522 33.7451C17.9598 33.7454 17.9673 33.7456 17.9749 33.7456C18.2559 33.7456 18.4894 33.524 18.5014 33.2405L18.8128 25.8933C18.8733 24.4651 18.0337 23.1212 16.7235 22.5493ZM9.40785 3.30915C10.5298 3.30915 11.4763 4.02486 11.7562 4.99462C11.0282 4.71983 10.2361 4.56873 9.40785 4.56873C8.57964 4.56873 7.7875 4.71983 7.05948 4.99462C7.33939 4.02486 8.28587 3.30915 9.40785 3.30915ZM5.07975 15.272C4.9868 14.7655 4.51718 14.3976 4.01191 14.435C3.96712 14.4382 3.92086 14.4344 3.87417 14.4233C3.67307 14.3757 3.52141 14.1559 3.52141 13.912V13.5333C3.52141 13.2887 3.68489 13.0684 3.8935 13.0317C4.06957 13.0008 4.23811 13.0655 4.3447 13.2045C4.44152 13.3308 4.57069 13.421 4.71827 13.4656C4.9342 13.5309 5.17249 13.4925 5.35545 13.3632C5.68022 13.134 5.96738 12.8546 6.20897 12.5329C6.38384 12.3 6.3368 11.9694 6.10393 11.7946C5.87098 11.6197 5.54044 11.6667 5.36557 11.8996C5.24597 12.0589 5.11132 12.2036 4.96324 12.3322C4.73761 12.1393 4.46093 12.0185 4.16744 11.9819C4.0664 11.5847 4.01472 11.1785 4.01472 10.7699C4.01472 7.93221 6.43405 5.62349 9.40785 5.62349C12.3816 5.62349 14.8009 7.93214 14.8009 10.7699C14.8009 11.1777 14.7495 11.5831 14.6488 11.9796C14.51 11.9906 14.369 12.0133 14.2384 12.0472L13.842 11.7212C13.6428 11.5574 13.3921 11.4754 13.1383 11.4905C12.3632 11.5363 8.39345 11.6411 6.35677 9.20368C6.17002 8.98023 5.83751 8.95041 5.61399 9.13716C5.39046 9.32391 5.36072 9.6565 5.54747 9.87995C6.55196 11.0821 8.02522 11.895 9.92627 12.296C11.3818 12.6031 12.6757 12.5733 13.1827 12.5444L13.8011 13.053C13.9714 13.1929 14.2101 13.2127 14.4007 13.1018C14.4901 13.053 14.7897 13.0065 14.9204 13.0326C15.1336 13.075 15.2944 13.2877 15.2944 13.5276V13.912C15.2944 14.156 15.1427 14.3757 14.9416 14.4233C14.895 14.4343 14.8487 14.4383 14.8039 14.435C14.2989 14.3982 13.829 14.7655 13.736 15.2719C13.3523 17.3605 11.5321 18.8765 9.40792 18.8765C7.28364 18.8765 5.46338 17.3605 5.07975 15.272ZM7.2212 24.5234L5.63508 21.9489L6.44762 21.1363L8.63139 23.3201L7.2212 24.5234ZM9.40785 22.6049L7.46835 20.6654V19.5745C8.07381 19.805 8.72807 19.9312 9.40785 19.9312C10.0876 19.9312 10.7419 19.805 11.3474 19.5745V20.6654L9.40785 22.6049ZM11.5945 24.5234L10.1843 23.3201L12.3681 21.1363L13.1806 21.9489L11.5945 24.5234Z" fill="#FBCF5E"/>
<path d="M7.43441 27.757H5.95432C5.66309 27.757 5.42698 27.9931 5.42698 28.2843C5.42698 28.5755 5.66309 28.8116 5.95432 28.8116H7.43441C7.72564 28.8116 7.96175 28.5755 7.96175 28.2843C7.96175 27.9931 7.72564 27.757 7.43441 27.757Z" fill="#FBCF5E"/>
</g>
<defs>
<clipPath id="clip0">
<rect width="36" height="36" fill="white"/>
</clipPath>
</defs>
</svg>
