<svg width="36" height="36" viewBox="0 0 36 36" fill="none" xmlns="http://www.w3.org/2000/svg">
<path d="M34.4104 24.621L32.4135 14.6359C32.2846 13.999 31.9398 13.4261 31.4372 13.0141C30.9347 12.6022 30.3052 12.3764 29.6554 12.375H18.5625V4.5C18.5625 3.60489 18.2069 2.74645 17.574 2.11351C16.9411 1.48058 16.0826 1.125 15.1875 1.125C14.2924 1.125 13.4339 1.48058 12.801 2.11351C12.1681 2.74645 11.8125 3.60489 11.8125 4.5C11.8125 5.09674 11.5754 5.66903 11.1535 6.09099C10.7315 6.51295 10.1592 6.75 9.5625 6.75C8.96576 6.75 8.39347 6.51295 7.97151 6.09099C7.54955 5.66903 7.3125 5.09674 7.3125 4.5V1.6875C7.3125 1.53832 7.25324 1.39524 7.14775 1.28975C7.04226 1.18426 6.89918 1.125 6.75 1.125C6.60082 1.125 6.45774 1.18426 6.35225 1.28975C6.24676 1.39524 6.1875 1.53832 6.1875 1.6875V4.5C6.1875 5.39511 6.54308 6.25355 7.17601 6.88649C7.80895 7.51942 8.66739 7.875 9.5625 7.875C10.4576 7.875 11.3161 7.51942 11.949 6.88649C12.5819 6.25355 12.9375 5.39511 12.9375 4.5C12.9375 3.90326 13.1746 3.33097 13.5965 2.90901C14.0185 2.48705 14.5908 2.25 15.1875 2.25C15.7842 2.25 16.3565 2.48705 16.7785 2.90901C17.2004 3.33097 17.4375 3.90326 17.4375 4.5V12.375H6.34458C5.69478 12.3764 5.0654 12.6022 4.56288 13.0142C4.06035 13.4261 3.7155 13.999 3.58664 14.6359L1.58977 24.621C1.28106 26.1662 1.12539 27.738 1.125 29.3137V29.3254C1.1252 30.6429 1.58959 31.9182 2.43661 32.9273C3.2829 33.9378 4.46716 34.6067 5.76942 34.8098C6.89264 34.9852 8.04258 34.8077 9.0607 34.302C10.0788 33.7962 10.915 32.9871 11.4538 31.9861L13.2952 28.5661C13.4584 28.2624 13.7009 28.0088 13.9969 27.832C14.2928 27.6553 14.6312 27.5622 14.9759 27.5625H21.0241C21.3688 27.5622 21.7071 27.6553 22.0031 27.8321C22.299 28.0088 22.5414 28.2625 22.7046 28.5661L24.5461 31.9861C25.0738 32.9618 25.8838 33.7555 26.87 34.2632C27.8562 34.771 28.9728 34.9691 30.0735 34.8318C32.8108 34.4886 34.875 32.1197 34.875 29.3214V29.3137C34.8747 27.738 34.719 26.1662 34.4104 24.621ZM14.0625 13.5H21.9375V15.75C21.937 16.1974 21.759 16.6263 21.4427 16.9427C21.1263 17.259 20.6974 17.437 20.25 17.4375H15.75C15.3026 17.437 14.8737 17.259 14.5573 16.9427C14.241 16.6263 14.063 16.1974 14.0625 15.75V13.5ZM8.85797 33.132C7.98093 33.6534 6.94982 33.8535 5.94141 33.698C3.83681 33.3737 2.25 31.494 2.25 29.3254V29.3137C2.2504 27.8121 2.39877 26.3143 2.69297 24.8418L2.78311 24.3912L10.2298 31.8375C9.8722 32.3637 9.40402 32.8055 8.85797 33.132ZM23.6953 28.0327C23.4359 27.5502 23.0505 27.1469 22.5802 26.866C22.1098 26.5851 21.572 26.437 21.0241 26.4375H14.9759C14.428 26.4371 13.8904 26.5852 13.42 26.8661C12.9497 27.147 12.5644 27.5502 12.305 28.0327L10.8039 30.8209L3.0484 23.0654L4.68984 14.8565C4.76715 14.4744 4.97406 14.1307 5.27557 13.8835C5.57708 13.6363 5.9547 13.5009 6.34458 13.5H12.9375V15.75C12.9383 16.4957 13.2349 17.2105 13.7622 17.7378C14.2895 18.2651 15.0043 18.5617 15.75 18.5625H20.25C20.9957 18.5617 21.7105 18.2651 22.2378 17.7378C22.7651 17.2105 23.0617 16.4957 23.0625 15.75V13.5H29.6554C30.0453 13.5009 30.4229 13.6363 30.7244 13.8835C31.0259 14.1307 31.2328 14.4744 31.3102 14.8565L32.9519 23.0651L25.1964 30.8206L23.6953 28.0327ZM33.75 29.3214C33.75 31.5537 32.1093 33.4427 29.9334 33.7155C29.1337 33.8172 28.3215 33.6956 27.5867 33.3641C26.8519 33.0327 26.2232 32.5043 25.7702 31.8375L33.217 24.3907L33.307 24.8414C33.6012 26.3139 33.7496 27.8117 33.75 29.3133V29.3214Z" fill="#FBCF5E"/>
<path d="M11.8125 19.125H10.125V17.4375C10.125 17.2883 10.0657 17.1452 9.96025 17.0398C9.85476 16.9343 9.71168 16.875 9.5625 16.875H7.3125C7.16332 16.875 7.02024 16.9343 6.91475 17.0398C6.80926 17.1452 6.75 17.2883 6.75 17.4375V19.125H5.0625C4.91332 19.125 4.77024 19.1843 4.66475 19.2898C4.55926 19.3952 4.5 19.5383 4.5 19.6875V21.9375C4.5 22.0867 4.55926 22.2298 4.66475 22.3352C4.77024 22.4407 4.91332 22.5 5.0625 22.5H6.75V24.1875C6.75 24.3367 6.80926 24.4798 6.91475 24.5852C7.02024 24.6907 7.16332 24.75 7.3125 24.75H9.5625C9.71168 24.75 9.85476 24.6907 9.96025 24.5852C10.0657 24.4798 10.125 24.3367 10.125 24.1875V22.5H11.8125C11.9617 22.5 12.1048 22.4407 12.2102 22.3352C12.3157 22.2298 12.375 22.0867 12.375 21.9375V19.6875C12.375 19.5383 12.3157 19.3952 12.2102 19.2898C12.1048 19.1843 11.9617 19.125 11.8125 19.125ZM11.25 21.375H9.5625C9.41332 21.375 9.27024 21.4343 9.16475 21.5398C9.05926 21.6452 9 21.7883 9 21.9375V23.625H7.875V21.9375C7.875 21.7883 7.81574 21.6452 7.71025 21.5398C7.60476 21.4343 7.46168 21.375 7.3125 21.375H5.625V20.25H7.3125C7.46168 20.25 7.60476 20.1907 7.71025 20.0852C7.81574 19.9798 7.875 19.8367 7.875 19.6875V18H9V19.6875C9 19.8367 9.05926 19.9798 9.16475 20.0852C9.27024 20.1907 9.41332 20.25 9.5625 20.25H11.25V21.375Z" fill="#FBCF5E"/>
<path d="M27.5625 24.75C28.3413 24.75 29.1025 24.5191 29.7501 24.0864C30.3976 23.6538 30.9023 23.0388 31.2003 22.3193C31.4983 21.5998 31.5763 20.8081 31.4243 20.0443C31.2724 19.2805 30.8974 18.5789 30.3467 18.0283C29.7961 17.4776 29.0945 17.1026 28.3307 16.9507C27.5669 16.7987 26.7752 16.8767 26.0557 17.1747C25.3362 17.4727 24.7212 17.9774 24.2886 18.6249C23.8559 19.2725 23.625 20.0337 23.625 20.8125C23.6262 21.8564 24.0414 22.8573 24.7796 23.5954C25.5177 24.3336 26.5186 24.7488 27.5625 24.75ZM27.5625 18C28.1188 18 28.6625 18.165 29.125 18.474C29.5876 18.783 29.948 19.2223 30.1609 19.7362C30.3738 20.2501 30.4295 20.8156 30.321 21.3612C30.2124 21.9068 29.9446 22.4079 29.5512 22.8012C29.1579 23.1946 28.6568 23.4624 28.1112 23.571C27.5656 23.6795 27.0001 23.6238 26.4862 23.4109C25.9723 23.198 25.533 22.8376 25.224 22.375C24.9149 21.9125 24.75 21.3688 24.75 20.8125C24.7508 20.0668 25.0474 19.352 25.5747 18.8247C26.102 18.2974 26.8168 18.0008 27.5625 18Z" fill="#FBCF5E"/>
<path d="M15.75 25.3125C15.4162 25.3125 15.09 25.2135 14.8125 25.0281C14.535 24.8427 14.3187 24.5791 14.191 24.2708C14.0632 23.9624 14.0298 23.6231 14.0949 23.2958C14.16 22.9684 14.3208 22.6678 14.5568 22.4318C14.7928 22.1958 15.0934 22.035 15.4208 21.9699C15.7481 21.9048 16.0874 21.9382 16.3958 22.066C16.7041 22.1937 16.9677 22.41 17.1531 22.6875C17.3385 22.965 17.4375 23.2912 17.4375 23.625C17.437 24.0724 17.259 24.5013 16.9427 24.8177C16.6263 25.134 16.1974 25.312 15.75 25.3125ZM15.75 23.0625C15.6387 23.0625 15.53 23.0955 15.4375 23.1573C15.345 23.2191 15.2729 23.307 15.2303 23.4097C15.1877 23.5125 15.1766 23.6256 15.1983 23.7347C15.22 23.8439 15.2736 23.9441 15.3523 24.0227C15.4309 24.1014 15.5311 24.155 15.6403 24.1767C15.7494 24.1984 15.8625 24.1873 15.9653 24.1447C16.068 24.1021 16.1559 24.03 16.2177 23.9375C16.2795 23.845 16.3125 23.7363 16.3125 23.625C16.3123 23.4759 16.253 23.3329 16.1476 23.2274C16.0421 23.122 15.8991 23.0627 15.75 23.0625Z" fill="#FBCF5E"/>
<path d="M20.25 25.3125C19.9162 25.3125 19.59 25.2135 19.3125 25.0281C19.035 24.8427 18.8187 24.5791 18.691 24.2708C18.5632 23.9624 18.5298 23.6231 18.5949 23.2958C18.66 22.9684 18.8208 22.6678 19.0568 22.4318C19.2928 22.1958 19.5934 22.035 19.9208 21.9699C20.2481 21.9048 20.5874 21.9382 20.8958 22.066C21.2041 22.1937 21.4677 22.41 21.6531 22.6875C21.8385 22.965 21.9375 23.2912 21.9375 23.625C21.937 24.0724 21.759 24.5013 21.4427 24.8177C21.1263 25.134 20.6974 25.312 20.25 25.3125ZM20.25 23.0625C20.1387 23.0625 20.03 23.0955 19.9375 23.1573C19.845 23.2191 19.7729 23.307 19.7303 23.4097C19.6877 23.5125 19.6766 23.6256 19.6983 23.7347C19.72 23.8439 19.7736 23.9441 19.8523 24.0227C19.9309 24.1014 20.0311 24.155 20.1403 24.1767C20.2494 24.1984 20.3625 24.1873 20.4653 24.1447C20.568 24.1021 20.6559 24.03 20.7177 23.9375C20.7795 23.845 20.8125 23.7363 20.8125 23.625C20.8123 23.4759 20.753 23.3329 20.6476 23.2274C20.5421 23.122 20.3991 23.0627 20.25 23.0625Z" fill="#FBCF5E"/>
</svg>
