<svg width="24" height="24" viewBox="0 0 24 24" fill="none" xmlns="http://www.w3.org/2000/svg">
<path d="M18 10.5C17.174 10.4986 16.3635 10.7249 15.6577 11.1542C14.952 11.5835 14.3782 12.199 13.9996 12.9331C13.6209 13.6673 13.452 14.4916 13.5114 15.3155C13.5708 16.1394 13.8562 16.931 14.3363 17.6033L10.5 21.4395L11.5605 22.5L15.3967 18.6638C15.9738 19.0739 16.6394 19.342 17.3396 19.4464C18.0398 19.5507 18.7548 19.4883 19.4263 19.2642C20.0978 19.0401 20.707 18.6607 21.2042 18.1568C21.7014 17.6528 22.0726 17.0387 22.2877 16.3642C22.5028 15.6897 22.5556 14.974 22.4419 14.2753C22.3282 13.5766 22.0511 12.9145 21.6333 12.3431C21.2155 11.7716 20.6686 11.3068 20.0373 10.9866C19.406 10.6663 18.7079 10.4996 18 10.5ZM18 18C17.4067 18 16.8266 17.8241 16.3333 17.4944C15.8399 17.1648 15.4554 16.6962 15.2284 16.1481C15.0013 15.5999 14.9419 14.9967 15.0576 14.4147C15.1734 13.8328 15.4591 13.2982 15.8787 12.8787C16.2982 12.4591 16.8328 12.1734 17.4147 12.0577C17.9967 11.9419 18.5999 12.0013 19.1481 12.2284C19.6962 12.4554 20.1648 12.8399 20.4944 13.3333C20.8241 13.8266 21 14.4067 21 15C20.999 15.7954 20.6826 16.5578 20.1202 17.1202C19.5578 17.6826 18.7953 17.999 18 18Z" fill="#7360F2"/>
<path d="M12.75 9C13.195 9 13.63 8.86804 14 8.62081C14.37 8.37357 14.6584 8.02217 14.8287 7.61104C14.999 7.1999 15.0436 6.7475 14.9568 6.31105C14.87 5.87459 14.6557 5.47368 14.341 5.15901C14.0263 4.84434 13.6254 4.63005 13.189 4.54323C12.7525 4.45642 12.3001 4.50097 11.889 4.67127C11.4778 4.84157 11.1264 5.12996 10.8792 5.49997C10.632 5.86998 10.5 6.30499 10.5 6.75C10.5006 7.34655 10.7378 7.91851 11.1597 8.34033C11.5815 8.76216 12.1534 8.9994 12.75 9ZM12.75 6C12.8983 6 13.0433 6.04399 13.1667 6.1264C13.29 6.20881 13.3861 6.32594 13.4429 6.46299C13.4997 6.60003 13.5145 6.75083 13.4856 6.89632C13.4567 7.0418 13.3852 7.17544 13.2803 7.28033C13.1754 7.38522 13.0418 7.45665 12.8963 7.48559C12.7508 7.51453 12.6 7.49968 12.463 7.44291C12.3259 7.38614 12.2088 7.29002 12.1264 7.16668C12.044 7.04334 12 6.89834 12 6.75C12 6.55109 12.079 6.36032 12.2197 6.21967C12.3603 6.07902 12.5511 6 12.75 6Z" fill="#7360F2"/>
<path d="M9 18H3V13.4977L6.75 9.75L10.9395 13.9395L12 12.876L7.8105 8.68725C7.52921 8.40604 7.14775 8.24807 6.75 8.24807C6.35225 8.24807 5.97079 8.40604 5.6895 8.68725L3 11.376V3H18V7.5H19.5V3C19.4996 2.6023 19.3414 2.221 19.0602 1.93978C18.779 1.65856 18.3977 1.5004 18 1.5H3C2.6023 1.5004 2.221 1.65856 1.93978 1.93978C1.65856 2.221 1.5004 2.6023 1.5 3V18C1.5004 18.3977 1.65856 18.779 1.93978 19.0602C2.221 19.3414 2.6023 19.4996 3 19.5H9V18Z" fill="#7360F2"/>
</svg>
