<svg width="24" height="24" viewBox="0 0 24 24" fill="none" xmlns="http://www.w3.org/2000/svg">
<path fill-rule="evenodd" clip-rule="evenodd" d="M21.7949 5.61261C20.9159 4.22563 19.85 3.08998 18.605 2.208C17.3606 1.32543 15.9352 0.695937 14.3376 0.320686C11.7143 -0.294262 9.16437 -0.0167498 6.70516 1.08399C5.34728 1.69195 4.14473 2.53031 3.10973 3.59672C1.81642 4.92901 0.883237 6.43758 0.313669 8.12243L0.299124 8.16781C0.279344 8.22715 0.261308 8.28766 0.242691 8.34758C-0.34084 10.2954 0.204875 11.3717 1.06301 10.4699C1.09617 10.4315 1.13108 10.3931 1.1654 10.3547C1.1782 10.339 1.191 10.3251 1.2038 10.3088C2.20738 9.04689 3.80438 7.99502 3.80438 7.99502L3.80496 7.9956C4.21221 7.71227 4.63401 7.44756 5.07326 7.20146C5.57534 6.90766 6.10011 6.63771 6.58939 6.45561C6.58939 6.45561 7.04435 6.24792 7.16536 5.61493L7.17292 5.58003C7.1735 5.57363 7.17525 5.56839 7.17641 5.56141C7.25786 5.03489 7.82219 3.58625 9.4192 3.49142C9.91953 3.42218 10.4158 3.51178 10.8539 3.72006C11.6242 4.08658 12.2153 4.81963 12.3351 5.70278C12.4299 6.405 12.2624 7.06707 11.904 7.59126C11.8848 7.62093 11.8627 7.65118 11.8383 7.68202L11.8173 7.70994C11.5171 8.09741 11.1064 8.39761 10.6165 8.56633C10.3233 8.67571 10.0248 8.7304 9.73918 8.73854H9.73801C9.55882 8.76181 9.35985 8.73854 9.1603 8.68967C8.93515 8.64371 8.72862 8.56808 8.55175 8.46859C8.24341 8.32373 7.99324 8.16025 7.90073 8.07589C7.82743 8.00898 7.74947 7.97233 7.67326 7.95371C7.50454 7.92637 7.36666 7.95837 7.26601 8.002L7.2631 8.00316C7.20725 8.0276 7.16419 8.05552 7.13278 8.07821C6.75054 8.39703 6.38693 8.73156 6.04193 9.08121C5.13609 10.0336 4.3757 11.114 4.01906 11.6481C3.83056 11.9506 3.65079 12.2607 3.48149 12.5795C3.32441 12.8745 3.17896 13.1729 3.04341 13.4749C2.83222 13.9519 2.63208 14.4651 2.45289 15.0166L2.42846 15.0922L2.39588 15.1969L2.36504 15.2999C1.26663 19.0641 3.2447 21.2365 4.90221 18.9669C4.99297 18.8232 5.08547 18.6813 5.17972 18.5399L5.18263 18.5352C6.91984 15.5291 10.4839 13.3591 10.4839 13.3591H10.4856C10.7038 13.22 10.9237 13.0862 11.1465 12.9576L11.1477 12.9565L11.189 12.9332C11.7999 12.5841 12.4282 12.27 13.0746 11.9965C13.6494 11.7406 14.2602 11.502 14.767 11.3787C14.767 11.3787 15.3604 11.2239 15.5198 10.4938L15.5204 10.4932C15.6344 9.9696 16.0132 9.20281 16.8719 8.7909C17.0737 8.68734 17.2849 8.61055 17.4979 8.56342C17.7288 8.51223 17.9586 8.49361 18.1826 8.50408L18.1844 8.5035C18.331 8.50117 18.4532 8.51746 18.5585 8.5483C19.647 8.75832 20.5394 9.65195 20.6692 10.8295C20.8263 12.2572 19.8337 13.5464 18.4148 13.7244C17.7067 13.8135 17.0656 13.6581 16.5193 13.2445C15.9061 12.9891 15.4343 13.1531 15.2644 13.2328C14.7297 13.5243 14.2166 13.8484 13.725 14.2033C12.8116 14.8816 12.0861 15.5896 11.7981 15.8817C11.1669 16.5362 10.6078 17.2309 10.1232 17.9657L10.0458 18.0867L10.0254 18.1193C9.52682 18.9146 8.99566 19.9327 8.55873 21.1643C8.52557 21.2597 8.49241 21.3551 8.46099 21.4523C7.99382 23.0324 9.00729 23.6619 10.1784 23.8911C10.1784 23.8911 11.0965 24.068 12.4183 23.9708C12.4957 23.9645 12.5649 23.9575 12.6243 23.9511C12.9582 23.9103 13.2933 23.8749 13.6238 23.8184C15.9044 23.4298 17.9208 22.4774 19.6429 20.9304C21.8101 18.9826 23.1162 16.5554 23.5217 13.6727C23.9278 10.7853 23.3576 8.0788 21.7949 5.61319" fill="#FFC40C"/>
</svg>
