<svg width="91" height="36" viewBox="0 0 91 36" fill="none" xmlns="http://www.w3.org/2000/svg">
<path d="M65.0714 11.7093C65.0714 11.5589 65.0714 11.3081 65.0714 11.0573C65.0714 10.9069 64.9711 10.7564 64.9711 10.5558C64.8206 9.75335 64.3692 9.1515 63.6671 8.70012C62.9649 8.29889 62.2126 8.29889 61.5105 8.70012C60.5074 9.25181 60.1563 10.1546 60.0058 11.2078C59.9055 11.8097 59.9557 12.4115 60.1563 12.9632C60.3068 13.5149 60.5575 13.9663 60.9588 14.3675C62.012 15.3204 63.6169 15.2201 64.5197 13.9663C64.9209 13.3143 65.0714 12.6121 65.0714 11.7093ZM60.2065 6.4432C60.3068 6.39305 60.4572 6.39305 60.5074 6.34289C61.4603 5.6909 62.5135 5.49028 63.6169 5.59059C64.3191 5.6909 64.9711 5.84136 65.5729 6.24259C66.1246 6.59366 66.576 6.99489 66.9772 7.49643C67.3784 7.99797 67.7295 8.54966 67.9803 9.1515C68.0806 9.40227 68.1307 9.7032 68.1809 10.0041C68.2812 10.3552 68.3314 10.7564 68.3314 11.1577C68.3314 11.7595 68.3314 12.3613 68.2812 12.913C68.2311 13.2641 68.1307 13.6152 68.0304 14.0164C67.8298 14.8189 67.3784 15.521 66.8268 16.1229C66.2249 16.825 65.5228 17.3767 64.6701 17.6776C63.9178 17.9786 63.1154 17.9284 62.3129 17.8783C61.7111 17.8281 61.2095 17.6776 60.7581 17.3266C60.6077 17.2263 60.5074 17.0758 60.3569 16.9755C60.2065 16.825 60.1062 16.825 59.9557 16.9755C59.9055 17.0758 59.8052 17.1259 59.7551 17.2263C59.4542 17.6776 59.0529 17.8783 58.5514 17.8281C58.2505 17.8281 57.9495 17.8783 57.6486 17.7278C57.448 17.6275 57.2975 17.5272 57.1972 17.3266C56.9966 16.9755 56.8462 16.6746 56.796 16.2733C56.796 15.822 56.7458 15.4207 56.7458 14.9693C56.7458 11.3081 56.7458 7.69705 56.7458 4.03582C56.7458 3.53429 56.796 3.0829 56.9966 2.63152C57.0969 2.38075 57.2474 2.07983 57.4982 1.97952C57.9495 1.72875 58.4511 1.6786 58.9526 1.7789C59.6548 1.97952 59.9055 2.53121 60.056 3.18321C60.2566 4.18628 60.1563 5.18936 60.1563 6.19243C60.2065 6.24259 60.2065 6.29274 60.2065 6.4432Z" fill="#7360F2"/>
<path d="M43.3047 12.0607C43.405 11.7597 43.5053 11.509 43.5554 11.3084C43.7561 10.7567 43.9567 10.205 44.1071 9.70343C44.3078 9.15174 44.5084 8.65021 44.709 8.09852C44.9096 7.54683 45.1102 6.94498 45.3108 6.39329C45.4613 5.99206 45.5616 5.59083 45.7121 5.1896C45.8124 4.88868 45.9628 4.5376 46.0631 4.23668C46.2136 3.7853 46.4142 3.38407 46.5647 2.93268C46.6148 2.78222 46.7151 2.63176 46.7653 2.4813C46.9659 2.08007 47.317 1.87945 47.7182 1.77915C48.4204 1.62868 49.4234 1.8293 49.7745 2.68191C49.8247 2.73207 49.8247 2.83237 49.8247 2.88253C49.8748 3.53453 49.8247 4.13637 49.5739 4.73822C49.273 5.39022 49.0724 6.04221 48.8216 6.69421C48.7213 6.99513 48.5207 7.29606 48.4204 7.59698C48.1696 8.24898 47.9188 8.90098 47.6681 9.55297C47.5176 9.90405 47.3671 10.2551 47.2167 10.6062C47.0161 11.0576 46.8656 11.5591 46.665 12.0105C46.4644 12.512 46.2638 13.0637 46.0631 13.5653C45.8625 14.0668 45.7121 14.5683 45.4613 15.0699C45.2105 15.7219 44.9096 16.3237 44.6087 16.9757C44.3579 17.5776 43.8062 17.8283 43.2044 17.8785C42.8533 17.9286 42.5524 17.8283 42.3016 17.728C42.0007 17.6277 41.8001 17.3268 41.6496 17.076C41.449 16.7751 41.3487 16.424 41.1982 16.073C41.0478 15.7219 40.8973 15.3207 40.7468 14.9696C40.5462 14.468 40.3456 14.0167 40.145 13.5151C39.9444 13.0136 39.7438 12.512 39.5432 12.0105C39.3927 11.7096 39.2924 11.3585 39.1419 11.0576C38.9413 10.556 38.7407 10.0545 38.5401 9.55297C38.3395 9.10159 38.1388 8.60005 37.9884 8.14867C37.8379 7.79759 37.7376 7.49667 37.5872 7.1456C37.3364 6.4936 37.0856 5.8416 36.8348 5.1896C36.7345 4.98899 36.6844 4.78837 36.5841 4.58776C36.2832 4.08622 36.3333 3.53453 36.4336 3.03299C36.5841 2.4813 36.9352 2.02992 37.537 1.92961C37.5872 1.92961 37.6373 1.87945 37.6875 1.87945C38.2893 1.67884 39.1419 1.87945 39.4428 2.58161C39.6936 3.18345 39.9444 3.83545 40.1951 4.43729C40.5462 5.28991 40.8471 6.14252 41.1481 6.99513C41.2484 7.29606 41.3487 7.64713 41.449 7.94805C41.6496 8.49975 41.8502 9.05144 42.0508 9.65328C42.2515 10.1548 42.4019 10.7065 42.6025 11.208C42.6527 11.4087 42.753 11.6093 42.8031 11.8099C43.0539 11.8099 43.1542 11.9102 43.3047 12.0607Z" fill="#7360F2"/>
<path d="M75.353 10.7565C75.5536 10.7565 75.7542 10.7565 75.9549 10.7565C76.5567 10.7565 77.1084 10.7565 77.7102 10.7565C77.961 10.7565 78.0613 10.6562 78.0112 10.4054C78.0112 10.3051 77.961 10.255 77.9109 10.1547C77.7604 9.50267 77.3592 9.00114 76.8075 8.59991C76.5065 8.39929 76.1555 8.34914 75.8546 8.24883C75.4032 8.14852 75.0521 8.24883 74.6509 8.34914C74.049 8.4996 73.5475 8.90083 73.2466 9.45252C73.0961 9.75344 72.9456 10.1045 72.8453 10.4556C72.7952 10.6562 72.8955 10.7565 73.0961 10.7565C73.7982 10.7565 74.5506 10.7565 75.353 10.7565ZM76.6069 12.6624C75.5035 12.6624 74.4001 12.6624 73.2967 12.6624C73.2466 12.6624 73.1964 12.6624 73.1462 12.6624C72.9456 12.6624 72.8453 12.8128 72.8955 13.0134C72.9958 13.2642 73.0961 13.515 73.2967 13.7156C73.6478 14.1168 74.049 14.518 74.5506 14.6685C75.1524 14.8691 75.7542 14.9694 76.4062 14.819C76.8075 14.7187 77.2087 14.6685 77.5598 14.4679C77.9109 14.3174 78.2619 14.167 78.613 14.0165C78.9139 13.866 79.2149 13.7156 79.5659 13.7156C80.2179 13.7156 80.7696 14.3174 80.7696 14.9694C80.8198 15.822 80.3182 16.3737 79.6662 16.8251C79.265 17.0759 78.8136 17.3768 78.3121 17.5273C77.8105 17.6777 77.309 17.778 76.7573 17.8783C76.2558 17.9285 75.7542 17.9285 75.2527 17.9285C74.5004 17.9285 73.7982 17.8282 73.1462 17.5273C72.5946 17.2765 72.093 16.9756 71.6416 16.6245C70.7389 15.9224 70.137 14.9193 69.7358 13.866C69.5853 13.4147 69.5352 12.9131 69.485 12.4116C69.3847 11.7596 69.485 11.1076 69.5853 10.4556C69.6355 9.85375 69.8863 9.30206 70.137 8.75037C70.6887 7.74729 71.441 6.94483 72.3939 6.29283C72.8955 5.99191 73.397 5.84145 73.9487 5.69099C74.4502 5.59068 75.0019 5.54053 75.5035 5.54053C76.0552 5.54053 76.6069 5.69099 77.1084 5.84145C77.8607 6.04206 78.4625 6.39314 79.0142 6.89468C79.6161 7.39622 80.1176 7.99806 80.4185 8.75037C80.7696 9.60298 81.0204 10.5057 81.0204 11.4587C81.0204 11.7596 80.9201 11.9602 80.8198 12.211C80.6693 12.5119 80.3684 12.6122 80.0173 12.6122C79.6161 12.6624 79.265 12.6122 78.8638 12.6122C78.2118 12.6624 77.4093 12.6624 76.6069 12.6624Z" fill="#7360F2"/>
<path d="M86.0858 6.7943C86.2363 6.64384 86.3366 6.59369 86.4369 6.49338C87.0388 5.94169 87.7911 5.69092 88.5935 5.69092C89.3458 5.69092 89.9477 6.24261 90.1483 6.94476C90.2988 7.4463 90.1985 7.94783 89.6969 8.29891C89.1954 8.64999 88.6938 8.95091 88.092 9.15152C87.5905 9.30199 87.0889 9.5026 86.6375 9.85368C86.2865 10.1546 86.0858 10.5558 86.0858 11.0072C86.0858 12.4617 86.0858 13.9161 86.0858 15.3706C86.0858 15.9223 85.9855 16.4238 85.7849 16.9254C85.484 17.6777 84.6815 17.9284 83.9794 17.8281C83.3274 17.7278 82.9763 17.3266 82.7757 16.6746C82.6754 16.3235 82.6252 15.9223 82.6252 15.5712C82.6252 13.0134 82.6252 10.5057 82.6252 7.94783C82.6252 7.5466 82.6754 7.09522 82.8259 6.69399C83.0265 6.09215 83.4779 5.79123 84.0797 5.74107C84.7819 5.69092 85.2834 5.94169 85.7348 6.44322C85.9354 6.59369 85.9855 6.69399 86.0858 6.7943Z" fill="#7360F2"/>
<path d="M51.4797 12.1109C51.4797 10.857 51.4797 9.55304 51.4797 8.24904C51.4797 7.89797 51.58 7.54689 51.6803 7.24597C51.9311 6.64412 52.5831 6.39335 53.3354 6.49366C54.0376 6.59397 54.5391 7.09551 54.5892 7.89797C54.6394 8.49981 54.6394 9.15181 54.6394 9.75365C54.6394 11.7097 54.6394 13.7158 54.6394 15.6718C54.6394 16.1232 54.6394 16.5746 54.4388 16.9758C54.188 17.5275 53.7366 17.7783 53.1348 17.8284C52.5831 17.8284 52.0816 17.7281 51.7806 17.2266C51.58 16.8755 51.4296 16.4743 51.4296 16.0229C51.4797 14.7189 51.4797 13.4149 51.4797 12.1109Z" fill="#7360F2"/>
<path d="M54.8902 3.53432C55.0406 4.48725 54.0877 5.2897 53.1849 5.2897C51.9813 5.2897 51.3292 4.43709 51.3794 3.48417C51.3794 2.43094 52.1317 1.72879 53.2351 1.72879C54.0375 1.67864 55.0406 2.4811 54.8902 3.53432Z" fill="#7360F2"/>
<path d="M47.7685 21.2388C47.1165 21.2388 46.7654 21.6902 46.7654 22.6431V26.4046L43.3549 21.8908C43.2045 21.6902 43.054 21.5397 42.9035 21.4394C42.7531 21.3391 42.5525 21.2889 42.3017 21.2889C41.9506 21.2889 41.75 21.3892 41.5995 21.64C41.4491 21.8908 41.3989 22.1917 41.3989 22.6431V28.5612C41.3989 29.464 41.75 29.9655 42.402 29.9655C43.054 29.9655 43.4051 29.5141 43.4051 28.5612V24.9L46.7654 29.3135C47.1165 29.7649 47.5177 30.0157 47.9189 30.0157C48.27 30.0157 48.4706 29.9154 48.6211 29.6646C48.7715 29.464 48.8217 29.1631 48.8217 28.7618V22.6431C48.7715 21.7403 48.4205 21.2388 47.7685 21.2388Z" fill="#7360F2"/>
<path d="M54.6896 27.9595H53.1348V26.505H54.4388C55.3416 26.505 55.8431 26.2041 55.8431 25.5521C55.8431 24.9503 55.3917 24.5992 54.4388 24.5992H53.1348V23.1949H54.6394C55.5923 23.1949 56.0437 22.894 56.0437 22.242C56.0437 21.59 55.5923 21.2891 54.6394 21.2891H52.4828C51.9311 21.2891 51.58 21.3894 51.3794 21.6401C51.1788 21.8408 51.1287 22.1918 51.1287 22.6934V28.5112C51.1287 28.9626 51.229 29.3137 51.4296 29.4641C51.6302 29.6647 51.9813 29.765 52.4828 29.765H54.6896C55.6425 29.765 56.0939 29.4641 56.0939 28.8121C56.0939 28.2604 55.5923 27.9595 54.6896 27.9595Z" fill="#7360F2"/>
<path d="M62.6139 21.3389H59.3037C58.3508 21.3389 57.8994 21.6398 57.8994 22.2918C57.8994 22.8936 58.3508 23.2447 59.3037 23.2447H59.9557V28.5109C59.9557 29.4136 60.3068 29.9152 60.9588 29.9152C61.6108 29.9152 61.9619 29.4638 61.9619 28.5109V23.2447H62.6139C63.5668 23.2447 64.0182 22.9438 64.0182 22.2918C64.0683 21.6899 63.5668 21.3389 62.6139 21.3389Z" fill="#7360F2"/>
<path d="M67.0274 27.6587C66.7265 27.6587 66.4758 27.759 66.225 28.0098C66.0244 28.2104 65.8739 28.5113 65.8739 28.8122C65.8739 29.1131 65.9742 29.4141 66.1748 29.6147C66.3754 29.8153 66.6764 29.9658 66.9773 29.9658C67.2782 29.9658 67.5791 29.8655 67.7797 29.6147C67.9804 29.4141 68.1308 29.1131 68.1308 28.8122C68.1308 28.5113 68.0305 28.2104 67.7797 28.0098C67.5791 27.759 67.3284 27.6587 67.0274 27.6587Z" fill="#7360F2"/>
<path d="M76.1053 21.2388C75.4533 21.2388 75.1022 21.6902 75.1022 22.6431V25.8028C75.1022 27.2572 74.5505 27.9594 73.4973 27.9594C72.3939 27.9594 71.8924 27.2572 71.8924 25.8028V22.6431C71.8924 21.6902 71.5413 21.2388 70.8893 21.2388C70.2373 21.2388 69.8862 21.6902 69.8862 22.6431V26.0034C69.8862 27.2572 70.2373 28.2603 70.8893 28.9123C71.5413 29.5643 72.4441 29.9154 73.5475 29.9154C74.6508 29.9154 75.5536 29.5643 76.2056 28.9123C76.8576 28.2603 77.2087 27.2572 77.2087 26.0034V22.6431C77.1084 21.7403 76.7573 21.2388 76.1053 21.2388Z" fill="#7360F2"/>
<path d="M83.2771 26.2541H81.5217L82.4245 23.4957L83.2771 26.2541ZM86.1359 28.7117C86.0857 28.6114 86.0857 28.5111 86.0356 28.3606L83.9291 22.3422C83.6784 21.5898 83.1768 21.2388 82.4747 21.2388C81.7725 21.2388 81.271 21.64 80.9701 22.4926L78.8134 28.4108C78.7633 28.5612 78.7131 28.7618 78.7131 28.9624C78.7131 29.2634 78.8134 29.464 78.9639 29.6646C79.1645 29.8151 79.3651 29.9154 79.6661 29.9154C80.1174 29.9154 80.4685 29.6144 80.619 29.0628L80.9701 28.0597H83.8288L84.1297 29.0126C84.3304 29.6144 84.6814 29.9655 85.183 29.9655C85.4839 29.9655 85.6845 29.8652 85.8851 29.7148C86.0857 29.5643 86.186 29.3135 86.186 29.0628C86.186 28.9123 86.1359 28.812 86.1359 28.7117Z" fill="#7360F2"/>
<path d="M29.6127 3.53453C28.7601 2.73207 25.1992 0.0739182 17.3251 0.0237645C17.3251 0.0237645 8.04662 -0.527926 3.53278 3.68499C1.02509 6.24283 0.122328 10.0545 0.0220204 14.7188C-0.0782871 19.3831 -0.178596 28.16 8.04662 30.5674V34.1785C8.04662 34.1785 7.99646 35.6329 8.94938 35.9338C10.1029 36.2849 10.7549 35.1815 11.8583 33.9778C12.4601 33.3258 13.2626 32.3228 13.9146 31.6206C19.582 32.1222 23.8952 30.9686 24.3967 30.8182C25.5503 30.4169 31.9699 29.6145 33.0232 20.8376C34.1266 11.8099 32.5216 6.09237 29.6127 3.53453ZM30.5656 20.2357C29.6629 27.5582 24.4469 28.0095 23.494 28.3606C23.0927 28.5111 19.2811 29.464 14.4663 29.1631L9.25031 34.8806V28.2102H9.20015C2.22879 26.204 2.4294 18.7813 2.52971 14.8693C2.63001 10.9573 3.33217 7.74744 5.43862 5.59083C9.25031 2.02991 17.1746 2.5816 17.1746 2.5816C23.845 2.63176 27.0549 4.68806 27.757 5.34006C30.2146 7.49667 31.4684 12.6625 30.5656 20.2357Z" fill="#7360F2"/>
<path fill-rule="evenodd" clip-rule="evenodd" d="M7 10C7 8.89543 8.09391 8 9.44331 8H24.5567C25.9061 8 27 8.89543 27 10C27 11.1046 25.9061 12 24.5567 12H9.44331C8.09391 12 7 11.1046 7 10Z" fill="#7360F2"/>
<path fill-rule="evenodd" clip-rule="evenodd" d="M7 16C7 14.8954 8.09391 14 9.44331 14H24.5567C25.9061 14 27 14.8954 27 16C27 17.1046 25.9061 18 24.5567 18H9.44331C8.09391 18 7 17.1046 7 16Z" fill="#7360F2"/>
<path fill-rule="evenodd" clip-rule="evenodd" d="M7 22C7 20.8954 8.06808 20 9.38563 20H16.6144C17.9319 20 19 20.8954 19 22C19 23.1046 17.9319 24 16.6144 24H9.38563C8.06808 24 7 23.1046 7 22Z" fill="#7360F2"/>
</svg>
