<svg width="91" height="36" viewBox="0 0 91 36" fill="none" xmlns="http://www.w3.org/2000/svg">
<path d="M65.0714 11.7096C65.0714 11.5591 65.0714 11.3084 65.0714 11.0576C65.0714 10.9071 64.9711 10.7567 64.9711 10.5561C64.8206 9.75359 64.3692 9.15175 63.6671 8.70036C62.9649 8.29913 62.2126 8.29913 61.5104 8.70036C60.5074 9.25205 60.1563 10.1548 60.0058 11.2081C59.9055 11.8099 59.9557 12.4117 60.1563 12.9634C60.3068 13.5151 60.5575 13.9665 60.9588 14.3677C62.012 15.3207 63.6169 15.2204 64.5197 13.9665C64.9209 13.3145 65.0714 12.6124 65.0714 11.7096ZM60.2065 6.44345C60.3068 6.39329 60.4572 6.39329 60.5074 6.34314C61.4603 5.69114 62.5135 5.49053 63.6169 5.59083C64.3191 5.69114 64.9711 5.8416 65.5729 6.24283C66.1246 6.59391 66.576 6.99514 66.9772 7.49668C67.3784 7.99821 67.7295 8.5499 67.9803 9.15175C68.0806 9.40252 68.1307 9.70344 68.1809 10.0044C68.2812 10.3554 68.3314 10.7567 68.3314 11.1579C68.3314 11.7597 68.3314 12.3616 68.2812 12.9133C68.231 13.2644 68.1307 13.6154 68.0304 14.0167C67.8298 14.8191 67.3784 15.5213 66.8267 16.1231C66.2249 16.8253 65.5227 17.377 64.6701 17.6779C63.9178 17.9788 63.1154 17.9287 62.3129 17.8785C61.7111 17.8283 61.2095 17.6779 60.7581 17.3268C60.6077 17.2265 60.5074 17.076 60.3569 16.9757C60.2064 16.8253 60.1061 16.8253 59.9557 16.9757C59.9055 17.076 59.8052 17.1262 59.7551 17.2265C59.4541 17.6779 59.0529 17.8785 58.5514 17.8283C58.2505 17.8283 57.9495 17.8785 57.6486 17.728C57.448 17.6277 57.2975 17.5274 57.1972 17.3268C56.9966 16.9757 56.8462 16.6748 56.796 16.2736C56.796 15.8222 56.7458 15.421 56.7458 14.9696C56.7458 11.3084 56.7458 7.69729 56.7458 4.03607C56.7458 3.53453 56.796 3.08315 56.9966 2.63176C57.0969 2.38099 57.2474 2.08007 57.4981 1.97976C57.9495 1.729 58.4511 1.67884 58.9526 1.77915C59.6548 1.97976 59.9055 2.53146 60.056 3.18345C60.2566 4.18653 60.1563 5.1896 60.1563 6.19268C60.2065 6.24283 60.2065 6.29299 60.2065 6.44345Z" fill="white"/>
<path d="M43.3047 12.0607C43.405 11.7597 43.5053 11.509 43.5554 11.3084C43.7561 10.7567 43.9567 10.205 44.1071 9.70343C44.3077 9.15174 44.5084 8.65021 44.709 8.09852C44.9096 7.54683 45.1102 6.94498 45.3108 6.39329C45.4613 5.99206 45.5616 5.59083 45.712 5.1896C45.8124 4.88868 45.9628 4.5376 46.0631 4.23668C46.2136 3.7853 46.4142 3.38407 46.5647 2.93268C46.6148 2.78222 46.7151 2.63176 46.7653 2.4813C46.9659 2.08007 47.317 1.87945 47.7182 1.77915C48.4203 1.62868 49.4234 1.8293 49.7745 2.68191C49.8247 2.73207 49.8247 2.83237 49.8247 2.88253C49.8748 3.53453 49.8247 4.13637 49.5739 4.73822C49.273 5.39022 49.0723 6.04221 48.8216 6.69421C48.7213 6.99513 48.5207 7.29606 48.4203 7.59698C48.1696 8.24898 47.9188 8.90098 47.668 9.55297C47.5176 9.90405 47.3671 10.2551 47.2167 10.6062C47.016 11.0576 46.8656 11.5591 46.665 12.0105C46.4644 12.512 46.2637 13.0637 46.0631 13.5653C45.8625 14.0668 45.712 14.5683 45.4613 15.0699C45.2105 15.7219 44.9096 16.3237 44.6087 16.9757C44.3579 17.5776 43.8062 17.8283 43.2044 17.8785C42.8533 17.9286 42.5524 17.8283 42.3016 17.728C42.0007 17.6277 41.8001 17.3268 41.6496 17.076C41.449 16.7751 41.3487 16.424 41.1982 16.073C41.0477 15.7219 40.8973 15.3207 40.7468 14.9696C40.5462 14.468 40.3456 14.0167 40.145 13.5151C39.9444 13.0136 39.7438 12.512 39.5431 12.0105C39.3927 11.7096 39.2924 11.3585 39.1419 11.0576C38.9413 10.556 38.7407 10.0545 38.5401 9.55297C38.3394 9.10159 38.1388 8.60005 37.9884 8.14867C37.8379 7.79759 37.7376 7.49667 37.5871 7.1456C37.3364 6.4936 37.0856 5.8416 36.8348 5.1896C36.7345 4.98899 36.6844 4.78837 36.5841 4.58776C36.2831 4.08622 36.3333 3.53453 36.4336 3.03299C36.5841 2.4813 36.9351 2.02992 37.537 1.92961C37.5871 1.92961 37.6373 1.87945 37.6874 1.87945C38.2893 1.67884 39.1419 1.87945 39.4428 2.58161C39.6936 3.18345 39.9444 3.83545 40.1951 4.43729C40.5462 5.28991 40.8471 6.14252 41.1481 6.99513C41.2484 7.29606 41.3487 7.64713 41.449 7.94805C41.6496 8.49975 41.8502 9.05144 42.0508 9.65328C42.2514 10.1548 42.4019 10.7065 42.6025 11.208C42.6527 11.4087 42.753 11.6093 42.8031 11.8099C43.0539 11.8099 43.1542 11.9102 43.3047 12.0607Z" fill="white"/>
<path d="M75.353 10.7567C75.5536 10.7567 75.7542 10.7567 75.9548 10.7567C76.5567 10.7567 77.1084 10.7567 77.7102 10.7567C77.961 10.7567 78.0613 10.6564 78.0111 10.4056C78.0111 10.3053 77.961 10.2551 77.9108 10.1548C77.7604 9.50283 77.3591 9.00129 76.8074 8.60006C76.5065 8.39944 76.1554 8.34929 75.8545 8.24898C75.4031 8.14867 75.0521 8.24898 74.6508 8.34929C74.049 8.49975 73.5475 8.90098 73.2465 9.45267C73.0961 9.75359 72.9456 10.1047 72.8453 10.4557C72.7951 10.6564 72.8955 10.7567 73.0961 10.7567C73.7982 10.7567 74.5505 10.7567 75.353 10.7567ZM76.6068 12.6625C75.5034 12.6625 74.4001 12.6625 73.2967 12.6625C73.2465 12.6625 73.1964 12.6625 73.1462 12.6625C72.9456 12.6625 72.8453 12.813 72.8954 13.0136C72.9958 13.2644 73.0961 13.5151 73.2967 13.7157C73.6478 14.117 74.049 14.5182 74.5505 14.6687C75.1524 14.8693 75.7542 14.9696 76.4062 14.8191C76.8074 14.7188 77.2087 14.6687 77.5597 14.468C77.9108 14.3176 78.2619 14.1671 78.613 14.0167C78.9139 13.8662 79.2148 13.7157 79.5659 13.7157C80.2179 13.7157 80.7696 14.3176 80.7696 14.9696C80.8197 15.8222 80.3182 16.3739 79.6662 16.8253C79.265 17.076 78.8136 17.377 78.3121 17.5274C77.8105 17.6779 77.309 17.7782 76.7573 17.8785C76.2558 17.9287 75.7542 17.9287 75.2527 17.9287C74.5004 17.9287 73.7982 17.8283 73.1462 17.5274C72.5945 17.2767 72.093 16.9757 71.6416 16.6247C70.7388 15.9225 70.137 14.9194 69.7358 13.8662C69.5853 13.4148 69.5352 12.9133 69.485 12.4117C69.3847 11.7597 69.485 11.1077 69.5853 10.4557C69.6355 9.8539 69.8862 9.30221 70.137 8.75052C70.6887 7.74744 71.441 6.94498 72.3939 6.29299C72.8954 5.99206 73.397 5.8416 73.9487 5.69114C74.4502 5.59083 75.0019 5.54068 75.5034 5.54068C76.0551 5.54068 76.6068 5.69114 77.1084 5.8416C77.8607 6.04222 78.4625 6.39329 79.0142 6.89483C79.6161 7.39637 80.1176 7.99821 80.4185 8.75052C80.7696 9.60313 81.0204 10.5059 81.0204 11.4588C81.0204 11.7597 80.92 11.9604 80.8197 12.2111C80.6693 12.512 80.3684 12.6124 80.0173 12.6124C79.6161 12.6625 79.265 12.6124 78.8637 12.6124C78.2117 12.6625 77.4093 12.6625 76.6068 12.6625Z" fill="white"/>
<path d="M86.0858 6.79451C86.2363 6.64405 86.3366 6.5939 86.4369 6.49359C87.0387 5.9419 87.791 5.69113 88.5935 5.69113C89.3458 5.69113 89.9477 6.24282 90.1483 6.94497C90.2987 7.44651 90.1984 7.94805 89.6969 8.29912C89.1953 8.6502 88.6938 8.95112 88.092 9.15174C87.5904 9.3022 87.0889 9.50282 86.6375 9.85389C86.2864 10.1548 86.0858 10.556 86.0858 11.0074C86.0858 12.4619 86.0858 13.9163 86.0858 15.3708C86.0858 15.9225 85.9855 16.424 85.7849 16.9256C85.484 17.6779 84.6815 17.9286 83.9794 17.8283C83.3274 17.728 82.9763 17.3268 82.7757 16.6748C82.6754 16.3237 82.6252 15.9225 82.6252 15.5714C82.6252 13.0136 82.6252 10.5059 82.6252 7.94805C82.6252 7.54682 82.6754 7.09544 82.8258 6.69421C83.0264 6.09236 83.4778 5.79144 84.0797 5.74129C84.7818 5.69113 85.2834 5.9419 85.7347 6.44344C85.9354 6.5939 85.9855 6.69421 86.0858 6.79451Z" fill="white"/>
<path d="M51.4798 12.1108C51.4798 10.857 51.4798 9.55298 51.4798 8.24898C51.4798 7.89791 51.5801 7.54683 51.6804 7.24591C51.9312 6.64406 52.5831 6.39329 53.3355 6.4936C54.0376 6.59391 54.5391 7.09545 54.5893 7.89791C54.6395 8.49975 54.6395 9.15175 54.6395 9.75359C54.6395 11.7096 54.6395 13.7157 54.6395 15.6717C54.6395 16.1231 54.6395 16.5745 54.4388 16.9757C54.1881 17.5274 53.7367 17.7782 53.1348 17.8283C52.5832 17.8283 52.0816 17.728 51.7807 17.2265C51.5801 16.8754 51.4296 16.4742 51.4296 16.0228C51.4798 14.7188 51.4798 13.4148 51.4798 12.1108Z" fill="white"/>
<path d="M54.8902 3.53452C55.0406 4.48744 54.0877 5.2899 53.185 5.2899C51.9813 5.2899 51.3293 4.43729 51.3794 3.48437C51.3794 2.43114 52.1317 1.72899 53.2351 1.72899C54.0376 1.67884 55.0406 2.48129 54.8902 3.53452Z" fill="white"/>
<path d="M47.7684 21.2388C47.1164 21.2388 46.7653 21.6902 46.7653 22.6431V26.4046L43.3549 21.8908C43.2044 21.6902 43.0539 21.5397 42.9035 21.4394C42.753 21.3391 42.5524 21.289 42.3016 21.289C41.9506 21.289 41.7499 21.3893 41.5995 21.64C41.449 21.8908 41.3989 22.1917 41.3989 22.6431V28.5612C41.3989 29.464 41.7499 29.9656 42.4019 29.9656C43.0539 29.9656 43.405 29.5142 43.405 28.5612V24.9L46.7653 29.3135C47.1164 29.7649 47.5176 30.0157 47.9189 30.0157C48.2699 30.0157 48.4705 29.9154 48.621 29.6646C48.7715 29.464 48.8216 29.1631 48.8216 28.7619V22.6431C48.7715 21.7403 48.4204 21.2388 47.7684 21.2388Z" fill="white"/>
<path d="M54.6896 27.9594H53.1348V26.5049H54.4388C55.3416 26.5049 55.8431 26.204 55.8431 25.552C55.8431 24.9502 55.3917 24.5991 54.4388 24.5991H53.1348V23.1948H54.6394C55.5923 23.1948 56.0437 22.8939 56.0437 22.2419C56.0437 21.5899 55.5923 21.289 54.6394 21.289H52.4828C51.9311 21.289 51.58 21.3893 51.3794 21.64C51.1788 21.8406 51.1286 22.1917 51.1286 22.6933V28.5111C51.1286 28.9625 51.229 29.3136 51.4296 29.464C51.6302 29.6646 51.9813 29.7649 52.4828 29.7649H54.6896C55.6425 29.7649 56.0939 29.464 56.0939 28.812C56.0939 28.2603 55.5923 27.9594 54.6896 27.9594Z" fill="white"/>
<path d="M62.6138 21.3391H59.3037C58.3508 21.3391 57.8994 21.64 57.8994 22.292C57.8994 22.8939 58.3508 23.2449 59.3037 23.2449H59.9557V28.5111C59.9557 29.4138 60.3068 29.9154 60.9588 29.9154C61.6108 29.9154 61.9619 29.464 61.9619 28.5111V23.2449H62.6138C63.5668 23.2449 64.0181 22.944 64.0181 22.292C64.0683 21.6902 63.5668 21.3391 62.6138 21.3391Z" fill="white"/>
<path d="M67.0275 27.6585C66.7265 27.6585 66.4758 27.7588 66.225 28.0096C66.0244 28.2102 65.8739 28.5111 65.8739 28.812C65.8739 29.1129 65.9742 29.4139 66.1748 29.6145C66.3755 29.8151 66.6764 29.9655 66.9773 29.9655C67.2782 29.9655 67.5791 29.8652 67.7798 29.6145C67.9804 29.4139 68.1308 29.1129 68.1308 28.812C68.1308 28.5111 68.0305 28.2102 67.7798 28.0096C67.5791 27.7588 67.3284 27.6585 67.0275 27.6585Z" fill="white"/>
<path d="M76.1053 21.2388C75.4533 21.2388 75.1022 21.6902 75.1022 22.6431V25.8028C75.1022 27.2572 74.5505 27.9594 73.4973 27.9594C72.3939 27.9594 71.8924 27.2572 71.8924 25.8028V22.6431C71.8924 21.6902 71.5413 21.2388 70.8893 21.2388C70.2373 21.2388 69.8862 21.6902 69.8862 22.6431V26.0034C69.8862 27.2572 70.2373 28.2603 70.8893 28.9123C71.5413 29.5643 72.444 29.9154 73.5474 29.9154C74.6508 29.9154 75.5536 29.5643 76.2056 28.9123C76.8576 28.2603 77.2087 27.2572 77.2087 26.0034V22.6431C77.1083 21.7403 76.7573 21.2388 76.1053 21.2388Z" fill="white"/>
<path d="M83.2772 26.2542H81.5218L82.4246 23.4957L83.2772 26.2542ZM86.1359 28.7117C86.0858 28.6114 86.0858 28.5111 86.0356 28.3606L83.9292 22.3422C83.6784 21.5899 83.1769 21.2388 82.4747 21.2388C81.7726 21.2388 81.271 21.64 80.9701 22.4926L78.8135 28.4108C78.7633 28.5612 78.7132 28.7619 78.7132 28.9625C78.7132 29.2634 78.8135 29.464 78.964 29.6646C79.1646 29.8151 79.3652 29.9154 79.6661 29.9154C80.1175 29.9154 80.4686 29.6145 80.619 29.0628L80.9701 28.0597H83.8289L84.1298 29.0126C84.3304 29.6145 84.6815 29.9656 85.183 29.9656C85.4839 29.9656 85.6846 29.8652 85.8852 29.7148C86.0858 29.5643 86.1861 29.3135 86.1861 29.0628C86.1861 28.9123 86.1359 28.812 86.1359 28.7117Z" fill="white"/>
<path d="M29.6127 3.53453C28.7601 2.73207 25.1992 0.0739182 17.3251 0.0237645C17.3251 0.0237645 8.04662 -0.527926 3.53278 3.68499C1.02509 6.24283 0.122328 10.0545 0.0220204 14.7188C-0.0782871 19.3831 -0.178596 28.16 8.04662 30.5674V34.1785C8.04662 34.1785 7.99646 35.6329 8.94938 35.9338C10.1029 36.2849 10.7549 35.1815 11.8583 33.9778C12.4601 33.3258 13.2626 32.3228 13.9146 31.6206C19.582 32.1222 23.8952 30.9686 24.3967 30.8182C25.5503 30.4169 31.9699 29.6145 33.0232 20.8376C34.1266 11.8099 32.5216 6.09237 29.6127 3.53453ZM30.5656 20.2357C29.6629 27.5582 24.4469 28.0095 23.494 28.3606C23.0927 28.5111 19.2811 29.464 14.4663 29.1631L9.25031 34.8806V28.2102H9.20015C2.22879 26.204 2.4294 18.7813 2.52971 14.8693C2.63001 10.9573 3.33217 7.74744 5.43862 5.59083C9.25031 2.02991 17.1746 2.5816 17.1746 2.5816C23.845 2.63176 27.0549 4.68806 27.757 5.34006C30.2146 7.49667 31.4684 12.6625 30.5656 20.2357Z" fill="white"/>
<path fill-rule="evenodd" clip-rule="evenodd" d="M7 10C7 8.89543 8.09391 8 9.44331 8H24.5567C25.9061 8 27 8.89543 27 10C27 11.1046 25.9061 12 24.5567 12H9.44331C8.09391 12 7 11.1046 7 10Z" fill="white"/>
<path fill-rule="evenodd" clip-rule="evenodd" d="M7 16C7 14.8954 8.09391 14 9.44331 14H24.5567C25.9061 14 27 14.8954 27 16C27 17.1046 25.9061 18 24.5567 18H9.44331C8.09391 18 7 17.1046 7 16Z" fill="white"/>
<path fill-rule="evenodd" clip-rule="evenodd" d="M7 22C7 20.8954 8.06808 20 9.38563 20H16.6144C17.9319 20 19 20.8954 19 22C19 23.1046 17.9319 24 16.6144 24H9.38563C8.06808 24 7 23.1046 7 22Z" fill="white"/>
</svg>
