<svg width="350" height="153" viewBox="0 0 350 153" fill="none" xmlns="http://www.w3.org/2000/svg">
<path d="M93.6047 92.7614H108.663V119.352H93.6047V150.955H59.3169V119.352H2.03488L0 98.2841L59.3169 2.35227V2.04545H93.6047V92.7614ZM32.6599 92.7614H59.3169V46.9432L57.1802 50.4205L32.6599 92.7614Z" fill="#FBCF5E"/>
<path d="M226.584 90.1023C226.584 110.216 222.074 125.727 213.052 136.636C204.099 147.545 191.449 153 175.102 153C158.619 153 145.867 147.511 136.846 136.534C127.825 125.557 123.314 110.08 123.314 90.1023V62.8977C123.314 42.7841 127.791 27.2727 136.744 16.3636C145.766 5.45455 158.484 0 174.898 0C191.313 0 204.031 5.48864 213.052 16.4659C222.074 27.4432 226.584 42.9545 226.584 63V90.1023ZM192.297 58.5C192.297 47.7955 190.906 39.8182 188.125 34.5682C185.344 29.25 180.935 26.5909 174.898 26.5909C168.997 26.5909 164.69 29.0455 161.977 33.9545C159.331 38.8636 157.907 46.2955 157.703 56.25V94.2954C157.703 105.409 159.094 113.557 161.875 118.739C164.656 123.852 169.065 126.409 175.102 126.409C180.935 126.409 185.242 123.92 188.023 118.943C190.804 113.898 192.229 106.023 192.297 95.3182V58.5Z" fill="#FBCF5E"/>
<path d="M334.942 92.7614H350V119.352H334.942V150.955H300.654V119.352H243.372L241.337 98.2841L300.654 2.35227V2.04545H334.942V92.7614ZM273.997 92.7614H300.654V46.9432L298.517 50.4205L273.997 92.7614Z" fill="#FBCF5E"/>
</svg>
