<svg width="99" height="81" viewBox="0 0 99 81" fill="none" xmlns="http://www.w3.org/2000/svg">
<mask id="path-1-inside-1_903_2311" fill="white">
<path d="M75.0519 0.03479L75.2901 0.228023L74.9195 0.772582L76.4108 1.94954L76.8167 2.9157L80.4876 3.97848L80.6552 5.10274L79.1022 5.47164L79.7022 6.10404L79.2434 6.81548L80.8846 8.8532L81.2023 8.80928L81.5023 7.96609L82.0318 8.38769L81.9347 8.99373L82.5348 9.09035L82.9671 11.5057L84.3613 12.4104L84.1054 13.5523L84.4584 13.8685L84.1584 13.9914L84.0172 15.0103L84.6261 15.7129L83.6554 16.3102L83.3113 15.8798L82.8083 16.3453L84.6613 18.7168L85.0761 19.9289L86.6556 19.5161L87.0439 20.9478L88.2263 21.1147L88.7381 21.9842L88.7734 24.2591L91.4118 25.1989L92.0295 26.0509L92.7795 26.2265L92.4619 26.7974L92.9119 28.2642L92.4442 28.7561L94.1914 30.0121L93.962 30.2493L94.0061 32.3748L92.8325 33.543L91.8177 33.5781L91.7383 35.8618L91.103 36.38L91.9765 36.9597L91.8618 38.0752L92.2677 38.7866L92.9384 38.7603L93.6178 39.2873L93.6972 40.2446L91.1383 40.1656L89.3999 39.1819L87.7321 38.9886L86.7791 37.8029L85.8703 40.0777L85.3761 40.5345L85.4467 40.798L85.8791 40.8243L85.5261 41.404L86.7174 42.3965L87.9351 42.7918L88.4116 43.4066L89.2234 43.7228L89.8323 44.8295L90.3882 44.4694L91.1471 45.0667L92.9913 44.6451L93.7943 44.9788L94.3502 45.8132L95.9386 45.0052L97.1386 45.1281L96.8475 45.8659L94.6679 47.8861L94.209 48.9752L94.7208 49.7481L98.1975 50.9339L98.1887 51.9264L95.8944 52.9189L96.3445 53.279L96.7239 55.0445L96.3356 55.7647L97.6063 56.3093L97.6416 56.5991L96.8121 56.6869L96.8033 57.1261L93.5031 57.8288L93.3972 57.293L92.4354 57.3984L92.3472 57.0646L91.7736 56.9768L91.5089 57.4423L91.853 58.1713L89.7529 58.3118L89.6735 57.899L88.9763 58.5051L88.7381 58.1274L87.7057 57.7761L87.9527 58.9794L87.1674 59.0145L86.4791 55.6241L85.7467 55.9579L85.5261 54.9478L85.7379 54.7195L85.1025 54.5087L84.829 53.9202L84.2113 54.9478L82.976 54.7722L82.6142 54.5526L82.7906 53.9905L82.5171 53.0243L82.1377 53.1385L82.0406 52.6378L80.4964 52.9716L80.0728 52.4446L80.011 52.6993L79.3669 52.7169L79.3316 53.5777L78.5198 53.6216L78.0698 56.8714L77.1256 56.3532L76.8785 57.4511L75.5902 57.8288L75.5549 58.4085L76.1726 58.874L76.1373 59.9894L75.899 60.209L74.7254 60.2617L74.5225 60.6306L74.1871 60.5164L74.2842 59.9192L73.0665 59.9455L72.387 59.3219L71.734 60.1212L69.9604 60.4725L69.078 61.5441L69.0956 60.4462L66.9249 59.2253L66.3778 59.1902L65.769 58.5402L65.4954 58.9794L64.0659 59.5591L62.6629 59.3658L62.2128 60.9117L60.2627 60.5428L59.0185 61.3772L59.4774 60.4725L59.1244 60.209L58.6126 60.7448L58.9568 60.9468L58.7008 61.1928L59.0714 61.9745L58.4273 62.5278L58.6567 62.8264L58.1979 63.6433L58.4626 63.9156L57.5008 64.5216L57.4831 65.1452L55.2506 66.1641L54.3858 66.9282L54.6947 67.3147L54.527 67.5694L54.0506 67.2708V67.7187L53.4593 68.2018L53.5211 67.6133L53.0887 68.4741L52.3475 68.0086L52.2681 68.518L51.5445 68.5443L50.9533 67.1829L49.5591 67.587L49.2502 66.814L48.2178 66.6647L47.8913 67.2444L46.8766 67.0336L46.2942 67.9207L45.95 67.6924L45.6412 68.0964L45.4471 67.9295L45.1735 68.518L44.5382 68.0261L44.3617 68.3335L43.8234 68.1052L43.3999 67.2796L43.1086 67.4113L42.4116 66.9634L41.7762 67.1302L41.5644 66.8228L40.6203 66.9634L40.2496 66.5857L40.0202 66.612L40.0996 67.1215L38.5907 66.9897L38.5378 67.5518L38.2024 67.6836L36.7288 67.4289L36.0847 66.656L35.8376 67.2356L34.3728 66.6823L34.2845 67.06L33.6933 67.1127L32.5815 66.7526L30.852 67.4904L30.799 68.0086L30.4637 67.8856L30.0137 68.9132L29.0166 68.8605L30.0401 69.9409L29.6607 71.4253L28.4342 71.8557L27.6841 73.015L28.8842 74.0251L28.5401 74.4467L28.7959 74.6663L28.7165 75.7115L26.2017 75.8608L25.3987 75.0176L23.9074 75.4041L23.4309 77.433L21.5602 77.7229L20.969 78.1972L19.4777 78.5134L19.513 79.2336L18.7365 79.5235L18.4012 79.5761L16.7157 78.5222L16.3452 78.8647L16.1951 79.8396L15.198 80.8936L14.5715 80.8322L13.2655 79.5761L10.8566 79.9802L10.8389 79.1809L11.8978 78.9174L12.0037 78.1357L11.5889 77.881L12.4184 77.9073L11.9596 75.4831L10.5654 75.0615L10.2477 74.517L10.3448 73.8758L11.4036 73.7353L11.6243 72.7428L11.1477 72.7164L11.0507 72.0577L10.1418 71.7678L10.2036 71.0564L9.42706 71.03L8.20933 69.8004L7.68871 69.774L7.84754 69.4051L7.48575 69.1328L7.81223 68.4126L8.39463 68.3072L7.71518 67.262L7.85637 66.9634L4.90029 66.006L4.60911 63.248L3.86786 62.7737L3.57667 61.4035L3.25899 61.0786L3.80611 60.4901L2.89723 60.0246L2.46484 60.2705L1.42359 59.1375L1.75891 58.628L1.41477 58.2767L2.72074 56.2829L2.42072 56.0984L2.39425 55.2728L1.13239 55.7998L0.0999756 53.9026L0.364701 53.7972V53.3493L0.744131 53.9553L1.43241 52.0494L2.50895 52.4007L2.33247 51.2676L3.88552 50.8109L3.85022 50.2927H3.48843L3.25019 49.792L3.62962 47.3064L2.98545 46.1821L3.61198 46.3227L3.89433 45.945L4.52086 46.0855L4.21201 46.7706L3.65609 46.9551L4.7944 48.2111L6.25921 47.9212L6.48862 48.2813L7.49458 47.8334L8.35052 47.9212L8.08578 47.2537L8.75642 47.0253L9.77118 45.0491L10.4948 44.7592L10.4595 43.5032L10.08 42.6161L10.2477 42.1155L10.6095 42.3087L11.7301 41.9925L12.2155 41.3338L12.6743 41.2196L14.0332 41.606L14.395 43.2749L15.0039 44.0127L15.4627 43.3188L15.0568 42.4668L15.6833 42.1857L16.1775 41.1405L16.2657 41.5621L17.81 41.4128L17.457 43.8019L22.6279 44.6978L22.6985 45.5234L22.9721 45.5673L23.7133 42.6337L24.331 42.4668L24.2251 41.3777L24.931 41.1669L24.9575 40.3149L25.9458 39.7089L27.3047 41.404H27.8871L28.8666 40.2183L29.2548 40.3676L29.9519 39.5156L30.8696 40.1304L31.9373 40.1392L33.6404 41.2371L34.2228 40.6487L35.2111 40.6574L35.767 40.2183L37.7171 40.3149L38.2289 39.8757L38.9525 39.9899L39.3319 38.9886L39.6496 38.9798L39.7731 37.7853L39.3319 37.3813L41.5644 37.0563L41.8909 36.6171L41.838 35.9057L42.5616 34.922L43.0292 35.5719L42.8969 34.8166L43.5499 34.5794L44.4764 33.6835L44.697 31.5755L45.05 31.031L45.3676 30.8729L45.8441 31.3647L45.9941 30.9344L46.2765 30.9695L45.8883 30.1702L46.1883 29.8716L45.6147 29.7837L45.7647 28.7737L47.8207 25.6556L47.7237 24.9178L48.1296 25.111L48.2796 24.7422L47.6531 24.3908L47.9619 23.0909L48.2796 22.8889L47.9002 22.0193L48.1296 20.9126L47.3795 20.3066L48.2707 18.4006L47.9707 17.4433L48.9943 16.7845L49.4796 17.2237L50.4238 15.994L52.9563 15.1947L53.027 14.8522L52.2151 13.6313L51.7828 13.4996L51.7651 13.1482L52.1357 12.8847L51.0239 12.2787L50.3621 12.5773L51.0768 11.7605L50.5562 11.699L50.8209 11.0666L53.2652 10.8558L54.377 11.0578L54.88 11.5057L55.0035 11.8659L54.3682 13.6489L54.4035 15.1859L54.9153 16.2663L55.6918 16.4419L55.9389 17.0831L56.5301 16.9865L56.7154 17.8034L57.0772 17.7067L57.2272 16.4947L58.3832 16.319L58.7008 15.4231L59.1685 15.2826L59.3185 14.8522L59.9892 14.8961L60.1303 17.2588L63.0864 17.5223L64.2247 15.59L64.7895 15.5373L64.7277 14.3515L65.5307 13.6313L66.1131 12.1821L68.2662 12.3314L68.6544 13.3239L69.1574 12.2435L68.6103 9.74909L70.5781 8.60727L71.0369 8.67753L71.1693 8.24715L69.4486 7.83434L68.8045 7.99244L68.9103 5.9108L70.7634 4.88316L70.3398 4.1805L70.0045 4.29468L69.678 3.35487L70.534 3.6008L71.5311 1.63335L71.3987 1.30836L72.0076 1.12391L73.2694 1.9232L74.1519 0.350989L74.7607 0.421256L75.0519 0.03479Z"/>
</mask>
<path d="M75.0519 0.03479L75.2901 0.228023L74.9195 0.772582L76.4108 1.94954L76.8167 2.9157L80.4876 3.97848L80.6552 5.10274L79.1022 5.47164L79.7022 6.10404L79.2434 6.81548L80.8846 8.8532L81.2023 8.80928L81.5023 7.96609L82.0318 8.38769L81.9347 8.99373L82.5348 9.09035L82.9671 11.5057L84.3613 12.4104L84.1054 13.5523L84.4584 13.8685L84.1584 13.9914L84.0172 15.0103L84.6261 15.7129L83.6554 16.3102L83.3113 15.8798L82.8083 16.3453L84.6613 18.7168L85.0761 19.9289L86.6556 19.5161L87.0439 20.9478L88.2263 21.1147L88.7381 21.9842L88.7734 24.2591L91.4118 25.1989L92.0295 26.0509L92.7795 26.2265L92.4619 26.7974L92.9119 28.2642L92.4442 28.7561L94.1914 30.0121L93.962 30.2493L94.0061 32.3748L92.8325 33.543L91.8177 33.5781L91.7383 35.8618L91.103 36.38L91.9765 36.9597L91.8618 38.0752L92.2677 38.7866L92.9384 38.7603L93.6178 39.2873L93.6972 40.2446L91.1383 40.1656L89.3999 39.1819L87.7321 38.9886L86.7791 37.8029L85.8703 40.0777L85.3761 40.5345L85.4467 40.798L85.8791 40.8243L85.5261 41.404L86.7174 42.3965L87.9351 42.7918L88.4116 43.4066L89.2234 43.7228L89.8323 44.8295L90.3882 44.4694L91.1471 45.0667L92.9913 44.6451L93.7943 44.9788L94.3502 45.8132L95.9386 45.0052L97.1386 45.1281L96.8475 45.8659L94.6679 47.8861L94.209 48.9752L94.7208 49.7481L98.1975 50.9339L98.1887 51.9264L95.8944 52.9189L96.3445 53.279L96.7239 55.0445L96.3356 55.7647L97.6063 56.3093L97.6416 56.5991L96.8121 56.6869L96.8033 57.1261L93.5031 57.8288L93.3972 57.293L92.4354 57.3984L92.3472 57.0646L91.7736 56.9768L91.5089 57.4423L91.853 58.1713L89.7529 58.3118L89.6735 57.899L88.9763 58.5051L88.7381 58.1274L87.7057 57.7761L87.9527 58.9794L87.1674 59.0145L86.4791 55.6241L85.7467 55.9579L85.5261 54.9478L85.7379 54.7195L85.1025 54.5087L84.829 53.9202L84.2113 54.9478L82.976 54.7722L82.6142 54.5526L82.7906 53.9905L82.5171 53.0243L82.1377 53.1385L82.0406 52.6378L80.4964 52.9716L80.0728 52.4446L80.011 52.6993L79.3669 52.7169L79.3316 53.5777L78.5198 53.6216L78.0698 56.8714L77.1256 56.3532L76.8785 57.4511L75.5902 57.8288L75.5549 58.4085L76.1726 58.874L76.1373 59.9894L75.899 60.209L74.7254 60.2617L74.5225 60.6306L74.1871 60.5164L74.2842 59.9192L73.0665 59.9455L72.387 59.3219L71.734 60.1212L69.9604 60.4725L69.078 61.5441L69.0956 60.4462L66.9249 59.2253L66.3778 59.1902L65.769 58.5402L65.4954 58.9794L64.0659 59.5591L62.6629 59.3658L62.2128 60.9117L60.2627 60.5428L59.0185 61.3772L59.4774 60.4725L59.1244 60.209L58.6126 60.7448L58.9568 60.9468L58.7008 61.1928L59.0714 61.9745L58.4273 62.5278L58.6567 62.8264L58.1979 63.6433L58.4626 63.9156L57.5008 64.5216L57.4831 65.1452L55.2506 66.1641L54.3858 66.9282L54.6947 67.3147L54.527 67.5694L54.0506 67.2708V67.7187L53.4593 68.2018L53.5211 67.6133L53.0887 68.4741L52.3475 68.0086L52.2681 68.518L51.5445 68.5443L50.9533 67.1829L49.5591 67.587L49.2502 66.814L48.2178 66.6647L47.8913 67.2444L46.8766 67.0336L46.2942 67.9207L45.95 67.6924L45.6412 68.0964L45.4471 67.9295L45.1735 68.518L44.5382 68.0261L44.3617 68.3335L43.8234 68.1052L43.3999 67.2796L43.1086 67.4113L42.4116 66.9634L41.7762 67.1302L41.5644 66.8228L40.6203 66.9634L40.2496 66.5857L40.0202 66.612L40.0996 67.1215L38.5907 66.9897L38.5378 67.5518L38.2024 67.6836L36.7288 67.4289L36.0847 66.656L35.8376 67.2356L34.3728 66.6823L34.2845 67.06L33.6933 67.1127L32.5815 66.7526L30.852 67.4904L30.799 68.0086L30.4637 67.8856L30.0137 68.9132L29.0166 68.8605L30.0401 69.9409L29.6607 71.4253L28.4342 71.8557L27.6841 73.015L28.8842 74.0251L28.5401 74.4467L28.7959 74.6663L28.7165 75.7115L26.2017 75.8608L25.3987 75.0176L23.9074 75.4041L23.4309 77.433L21.5602 77.7229L20.969 78.1972L19.4777 78.5134L19.513 79.2336L18.7365 79.5235L18.4012 79.5761L16.7157 78.5222L16.3452 78.8647L16.1951 79.8396L15.198 80.8936L14.5715 80.8322L13.2655 79.5761L10.8566 79.9802L10.8389 79.1809L11.8978 78.9174L12.0037 78.1357L11.5889 77.881L12.4184 77.9073L11.9596 75.4831L10.5654 75.0615L10.2477 74.517L10.3448 73.8758L11.4036 73.7353L11.6243 72.7428L11.1477 72.7164L11.0507 72.0577L10.1418 71.7678L10.2036 71.0564L9.42706 71.03L8.20933 69.8004L7.68871 69.774L7.84754 69.4051L7.48575 69.1328L7.81223 68.4126L8.39463 68.3072L7.71518 67.262L7.85637 66.9634L4.90029 66.006L4.60911 63.248L3.86786 62.7737L3.57667 61.4035L3.25899 61.0786L3.80611 60.4901L2.89723 60.0246L2.46484 60.2705L1.42359 59.1375L1.75891 58.628L1.41477 58.2767L2.72074 56.2829L2.42072 56.0984L2.39425 55.2728L1.13239 55.7998L0.0999756 53.9026L0.364701 53.7972V53.3493L0.744131 53.9553L1.43241 52.0494L2.50895 52.4007L2.33247 51.2676L3.88552 50.8109L3.85022 50.2927H3.48843L3.25019 49.792L3.62962 47.3064L2.98545 46.1821L3.61198 46.3227L3.89433 45.945L4.52086 46.0855L4.21201 46.7706L3.65609 46.9551L4.7944 48.2111L6.25921 47.9212L6.48862 48.2813L7.49458 47.8334L8.35052 47.9212L8.08578 47.2537L8.75642 47.0253L9.77118 45.0491L10.4948 44.7592L10.4595 43.5032L10.08 42.6161L10.2477 42.1155L10.6095 42.3087L11.7301 41.9925L12.2155 41.3338L12.6743 41.2196L14.0332 41.606L14.395 43.2749L15.0039 44.0127L15.4627 43.3188L15.0568 42.4668L15.6833 42.1857L16.1775 41.1405L16.2657 41.5621L17.81 41.4128L17.457 43.8019L22.6279 44.6978L22.6985 45.5234L22.9721 45.5673L23.7133 42.6337L24.331 42.4668L24.2251 41.3777L24.931 41.1669L24.9575 40.3149L25.9458 39.7089L27.3047 41.404H27.8871L28.8666 40.2183L29.2548 40.3676L29.9519 39.5156L30.8696 40.1304L31.9373 40.1392L33.6404 41.2371L34.2228 40.6487L35.2111 40.6574L35.767 40.2183L37.7171 40.3149L38.2289 39.8757L38.9525 39.9899L39.3319 38.9886L39.6496 38.9798L39.7731 37.7853L39.3319 37.3813L41.5644 37.0563L41.8909 36.6171L41.838 35.9057L42.5616 34.922L43.0292 35.5719L42.8969 34.8166L43.5499 34.5794L44.4764 33.6835L44.697 31.5755L45.05 31.031L45.3676 30.8729L45.8441 31.3647L45.9941 30.9344L46.2765 30.9695L45.8883 30.1702L46.1883 29.8716L45.6147 29.7837L45.7647 28.7737L47.8207 25.6556L47.7237 24.9178L48.1296 25.111L48.2796 24.7422L47.6531 24.3908L47.9619 23.0909L48.2796 22.8889L47.9002 22.0193L48.1296 20.9126L47.3795 20.3066L48.2707 18.4006L47.9707 17.4433L48.9943 16.7845L49.4796 17.2237L50.4238 15.994L52.9563 15.1947L53.027 14.8522L52.2151 13.6313L51.7828 13.4996L51.7651 13.1482L52.1357 12.8847L51.0239 12.2787L50.3621 12.5773L51.0768 11.7605L50.5562 11.699L50.8209 11.0666L53.2652 10.8558L54.377 11.0578L54.88 11.5057L55.0035 11.8659L54.3682 13.6489L54.4035 15.1859L54.9153 16.2663L55.6918 16.4419L55.9389 17.0831L56.5301 16.9865L56.7154 17.8034L57.0772 17.7067L57.2272 16.4947L58.3832 16.319L58.7008 15.4231L59.1685 15.2826L59.3185 14.8522L59.9892 14.8961L60.1303 17.2588L63.0864 17.5223L64.2247 15.59L64.7895 15.5373L64.7277 14.3515L65.5307 13.6313L66.1131 12.1821L68.2662 12.3314L68.6544 13.3239L69.1574 12.2435L68.6103 9.74909L70.5781 8.60727L71.0369 8.67753L71.1693 8.24715L69.4486 7.83434L68.8045 7.99244L68.9103 5.9108L70.7634 4.88316L70.3398 4.1805L70.0045 4.29468L69.678 3.35487L70.534 3.6008L71.5311 1.63335L71.3987 1.30836L72.0076 1.12391L73.2694 1.9232L74.1519 0.350989L74.7607 0.421256L75.0519 0.03479Z" fill="#7360F2" stroke="white" stroke-width="0.4" mask="url(#path-1-inside-1_903_2311)"/>
<path d="M71 19.2858C74.0772 19.2858 76.5714 21.7801 76.5714 24.8572C76.5714 27.2115 74.9172 29.7772 71.6514 32.5818C71.4699 32.7378 71.2383 32.8234 70.9989 32.8232C70.7596 32.823 70.5282 32.7369 70.3469 32.5806L70.1309 32.3932C67.0097 29.6618 65.4286 27.1589 65.4286 24.8572C65.4286 21.7801 67.9229 19.2858 71 19.2858ZM71 22.7143C70.4317 22.7143 69.8867 22.9401 69.4848 23.342C69.0829 23.7438 68.8572 24.2889 68.8572 24.8572C68.8572 25.4255 69.0829 25.9706 69.4848 26.3724C69.8867 26.7743 70.4317 27.0001 71 27.0001C71.5683 27.0001 72.1134 26.7743 72.5152 26.3724C72.9171 25.9706 73.1429 25.4255 73.1429 24.8572C73.1429 24.2889 72.9171 23.7438 72.5152 23.342C72.1134 22.9401 71.5683 22.7143 71 22.7143Z" fill="#FBE75E"/>
</svg>
