<svg width="80" height="44" viewBox="0 0 80 44" fill="none" xmlns="http://www.w3.org/2000/svg">
<mask id="path-1-inside-1_903_2320" fill="white">
<path d="M22.2748 0.978463L24.7897 1.47032L25.4868 2.78781L26.1398 1.44398L26.6163 0.899403L26.9604 0.890625L27.534 1.22439L29.0517 3.2621L28.9194 4.37758L29.6606 4.2634L30.6489 4.8431L31.4254 4.62351L32.6343 3.29725L34.0021 3.81546L34.3109 2.36622L34.8933 2.15542L35.1668 2.46284L35.3521 3.99112L34.6992 4.99241L36.1993 7.07405L37.1611 6.40652L37.1081 5.75656L36.2257 4.31611L36.3758 3.67492L36.8611 3.38507L37.6641 4.29854L37.7611 6.59975L38.3876 7.49565L39.2524 7.63618L41.379 6.97744L42.3761 8.36518L43.0909 8.02264L43.9115 8.41789L45.0675 7.18823L46.6029 7.06526L47.8824 6.75786L49.8766 10.6049L51.2973 10.8948L52.0915 10.438L51.5444 8.99758L51.6414 8.42667L52.3297 8.47059L53.0357 9.40162L54.2357 9.37527L54.7299 9.01515L54.5534 8.41789L53.6798 7.62739L53.521 6.93352L52.065 7.1531L51.7826 6.7842L51.9062 6.31869L52.3474 5.98492L53.0445 5.9937L54.3857 7.28484L55.1181 7.31119L55.4799 7.00379L55.577 6.38017L55.4446 5.7302L54.8887 5.18564L55.1534 4.79918L55.7535 5.19444L56.0623 6.58218L56.6624 6.67002L57.1653 5.76534L56.6359 4.45663L57.3948 3.80668L58.0389 4.05261L57.8624 5.0539L58.4537 6.12546L59.6273 6.90717L60.3067 6.59975L61.0744 5.41402L62.2568 5.35253L62.9363 4.7904L63.2187 5.58089L65.7688 6.18694L66.7395 6.14302L67.4101 5.35253L68.1249 5.0539L70.5603 5.83561L71.1251 5.03633L70.3221 3.93842L70.5603 3.2621L71.6104 3.24455L72.784 4.29854L73.4811 3.97355L73.7458 2.97226L74.3459 2.91956L76.7196 4.28975L77.602 6.93352L77.5137 8.40032L78.1049 9.5158L79.1285 10.0779L78.2108 10.7455L77.2931 10.8684L76.4901 12.7041L74.7783 12.7129L74.4694 12.2562L74.5312 11.6062L74.1606 11.2988L73.6752 11.0002V11.3779L73.3664 11.0353L73.2693 11.3866L72.7575 11.29L71.6722 14.4696L71.0809 14.0392L70.225 14.3554L69.5985 13.6703L68.9808 13.4858L68.1778 14.1534L67.3395 14.3642L65.963 12.7744L65.6718 11.6589L65.1159 12.265L63.6775 12.1859L64.3923 12.7393L64.657 14.0568L64.5599 14.2763L64.0393 13.9513L63.2804 14.1007L63.0069 15.0668L61.0921 14.4871L61.0127 14.8033L60.1126 13.9689L60.1567 13.2926L59.539 12.344L58.7625 12.6075L56.6271 12.3879L55.8858 13.2662L55.0564 12.7744L54.6769 13.0467L56.1859 15.2513L57.033 15.7256L57.4742 15.383L57.8889 15.708L58.0919 17.087L57.6683 17.939L57.1212 18.0268L56.4859 17.6491L56.0006 16.762L55.4888 17.087L54.1122 15.1459L53.8122 15.2161L54.1916 16.4282L53.618 16.5512L53.5828 16.9025L52.7974 17.4734V17.8072L51.8709 18.8173L52.2062 19.5726L52.1621 20.003L51.7473 19.8713L51.8797 20.3544L51.1914 20.3895L50.8649 20.0645L50.4767 20.2929L50.4237 21.2502L49.8237 20.9955L49.7001 21.4259L49.0295 21.7421L47.3706 21.2415L46.9647 21.8739L46.3205 22.0407L46.4176 22.3833L45.9587 22.0934L44.9175 22.7258L44.5469 22.2515L44.1057 22.7785L43.7615 22.5326L43.7086 22.8488L43.3027 22.84L43.1262 23.1474L43.3468 23.9379L42.2614 25.0622L41.5643 27.337L39.7377 28.6985L39.2877 30.6835L38.873 31.2368L36.5787 31.9483L35.2551 31.5267L31.9196 32.2996L30.8254 32.0185L30.5254 32.607L30.0753 32.7563L29.1753 32.3435L28.134 32.6334L27.684 33.1955L26.6163 33.6961L23.8896 33.5644L22.8131 33.2218L21.0571 33.7488L12.8419 34.7765L11.5535 35.7251L10.3976 35.7602L10.0887 37.2182L8.49157 39.414L8.44745 40.1958L7.89153 40.2748L7.45033 40.7228L6.965 41.8207L5.51785 42.4004L5.12076 42.172L4.66191 43.1206L3.71773 42.7253L3.40888 43.1206L1.14109 43.0503L1.89114 40.1079L2.96768 38.5972L3.38241 37.3851L2.93238 37.2182L3.0118 36.8933L1.92643 35.9007L1.82937 35.4616L2.26175 35.2859L2.16468 34.6184L1.0352 33.3799L1.28227 33.0813L0.9999 32.9408L1.14991 32.5894L0.717529 31.1841L1.08814 30.5693L0.876363 29.77L3.30299 27.1262L2.88826 26.1601L3.04709 25.8439L3.53242 25.6419L4.52954 26.0371L4.64425 25.2818L5.45608 25.0798L5.48255 23.9204L6.24142 23.7359L6.02082 22.9191L6.4885 22.7083L7.28267 23.0245L7.57386 22.8751L7.64446 22.2867L6.93853 21.707L7.01795 21.2327L6.68263 21.0043L7.78564 20.0382L8.95042 19.8186L11.2976 16.4546L13.4772 14.2324L15.4008 13.4244L16.5392 13.4419L17.4922 13.073L19.0981 13.3365L19.8129 13.9953H21.8248L22.1336 13.2487L21.4895 11.0529L21.5336 5.57211L21.1012 4.7377L21.1453 3.20063L20.9247 2.902L22.2748 0.978463Z"/>
</mask>
<path d="M22.2748 0.978463L24.7897 1.47032L25.4868 2.78781L26.1398 1.44398L26.6163 0.899403L26.9604 0.890625L27.534 1.22439L29.0517 3.2621L28.9194 4.37758L29.6606 4.2634L30.6489 4.8431L31.4254 4.62351L32.6343 3.29725L34.0021 3.81546L34.3109 2.36622L34.8933 2.15542L35.1668 2.46284L35.3521 3.99112L34.6992 4.99241L36.1993 7.07405L37.1611 6.40652L37.1081 5.75656L36.2257 4.31611L36.3758 3.67492L36.8611 3.38507L37.6641 4.29854L37.7611 6.59975L38.3876 7.49565L39.2524 7.63618L41.379 6.97744L42.3761 8.36518L43.0909 8.02264L43.9115 8.41789L45.0675 7.18823L46.6029 7.06526L47.8824 6.75786L49.8766 10.6049L51.2973 10.8948L52.0915 10.438L51.5444 8.99758L51.6414 8.42667L52.3297 8.47059L53.0357 9.40162L54.2357 9.37527L54.7299 9.01515L54.5534 8.41789L53.6798 7.62739L53.521 6.93352L52.065 7.1531L51.7826 6.7842L51.9062 6.31869L52.3474 5.98492L53.0445 5.9937L54.3857 7.28484L55.1181 7.31119L55.4799 7.00379L55.577 6.38017L55.4446 5.7302L54.8887 5.18564L55.1534 4.79918L55.7535 5.19444L56.0623 6.58218L56.6624 6.67002L57.1653 5.76534L56.6359 4.45663L57.3948 3.80668L58.0389 4.05261L57.8624 5.0539L58.4537 6.12546L59.6273 6.90717L60.3067 6.59975L61.0744 5.41402L62.2568 5.35253L62.9363 4.7904L63.2187 5.58089L65.7688 6.18694L66.7395 6.14302L67.4101 5.35253L68.1249 5.0539L70.5603 5.83561L71.1251 5.03633L70.3221 3.93842L70.5603 3.2621L71.6104 3.24455L72.784 4.29854L73.4811 3.97355L73.7458 2.97226L74.3459 2.91956L76.7196 4.28975L77.602 6.93352L77.5137 8.40032L78.1049 9.5158L79.1285 10.0779L78.2108 10.7455L77.2931 10.8684L76.4901 12.7041L74.7783 12.7129L74.4694 12.2562L74.5312 11.6062L74.1606 11.2988L73.6752 11.0002V11.3779L73.3664 11.0353L73.2693 11.3866L72.7575 11.29L71.6722 14.4696L71.0809 14.0392L70.225 14.3554L69.5985 13.6703L68.9808 13.4858L68.1778 14.1534L67.3395 14.3642L65.963 12.7744L65.6718 11.6589L65.1159 12.265L63.6775 12.1859L64.3923 12.7393L64.657 14.0568L64.5599 14.2763L64.0393 13.9513L63.2804 14.1007L63.0069 15.0668L61.0921 14.4871L61.0127 14.8033L60.1126 13.9689L60.1567 13.2926L59.539 12.344L58.7625 12.6075L56.6271 12.3879L55.8858 13.2662L55.0564 12.7744L54.6769 13.0467L56.1859 15.2513L57.033 15.7256L57.4742 15.383L57.8889 15.708L58.0919 17.087L57.6683 17.939L57.1212 18.0268L56.4859 17.6491L56.0006 16.762L55.4888 17.087L54.1122 15.1459L53.8122 15.2161L54.1916 16.4282L53.618 16.5512L53.5828 16.9025L52.7974 17.4734V17.8072L51.8709 18.8173L52.2062 19.5726L52.1621 20.003L51.7473 19.8713L51.8797 20.3544L51.1914 20.3895L50.8649 20.0645L50.4767 20.2929L50.4237 21.2502L49.8237 20.9955L49.7001 21.4259L49.0295 21.7421L47.3706 21.2415L46.9647 21.8739L46.3205 22.0407L46.4176 22.3833L45.9587 22.0934L44.9175 22.7258L44.5469 22.2515L44.1057 22.7785L43.7615 22.5326L43.7086 22.8488L43.3027 22.84L43.1262 23.1474L43.3468 23.9379L42.2614 25.0622L41.5643 27.337L39.7377 28.6985L39.2877 30.6835L38.873 31.2368L36.5787 31.9483L35.2551 31.5267L31.9196 32.2996L30.8254 32.0185L30.5254 32.607L30.0753 32.7563L29.1753 32.3435L28.134 32.6334L27.684 33.1955L26.6163 33.6961L23.8896 33.5644L22.8131 33.2218L21.0571 33.7488L12.8419 34.7765L11.5535 35.7251L10.3976 35.7602L10.0887 37.2182L8.49157 39.414L8.44745 40.1958L7.89153 40.2748L7.45033 40.7228L6.965 41.8207L5.51785 42.4004L5.12076 42.172L4.66191 43.1206L3.71773 42.7253L3.40888 43.1206L1.14109 43.0503L1.89114 40.1079L2.96768 38.5972L3.38241 37.3851L2.93238 37.2182L3.0118 36.8933L1.92643 35.9007L1.82937 35.4616L2.26175 35.2859L2.16468 34.6184L1.0352 33.3799L1.28227 33.0813L0.9999 32.9408L1.14991 32.5894L0.717529 31.1841L1.08814 30.5693L0.876363 29.77L3.30299 27.1262L2.88826 26.1601L3.04709 25.8439L3.53242 25.6419L4.52954 26.0371L4.64425 25.2818L5.45608 25.0798L5.48255 23.9204L6.24142 23.7359L6.02082 22.9191L6.4885 22.7083L7.28267 23.0245L7.57386 22.8751L7.64446 22.2867L6.93853 21.707L7.01795 21.2327L6.68263 21.0043L7.78564 20.0382L8.95042 19.8186L11.2976 16.4546L13.4772 14.2324L15.4008 13.4244L16.5392 13.4419L17.4922 13.073L19.0981 13.3365L19.8129 13.9953H21.8248L22.1336 13.2487L21.4895 11.0529L21.5336 5.57211L21.1012 4.7377L21.1453 3.20063L20.9247 2.902L22.2748 0.978463Z" fill="#7360F2" stroke="white" stroke-width="0.4" mask="url(#path-1-inside-1_903_2320)"/>
<path d="M27 6.28577C30.0772 6.28577 32.5714 8.78005 32.5714 11.8572C32.5714 14.2115 30.9172 16.7772 27.6514 19.5818C27.4699 19.7378 27.2383 19.8234 26.9989 19.8232C26.7596 19.823 26.5282 19.7369 26.3469 19.5806L26.1309 19.3932C23.0097 16.6618 21.4286 14.1589 21.4286 11.8572C21.4286 8.78005 23.9229 6.28577 27 6.28577ZM27 9.71434C26.4317 9.71434 25.8867 9.9401 25.4848 10.342C25.0829 10.7438 24.8572 11.2889 24.8572 11.8572C24.8572 12.4255 25.0829 12.9706 25.4848 13.3724C25.8867 13.7743 26.4317 14.0001 27 14.0001C27.5683 14.0001 28.1134 13.7743 28.5152 13.3724C28.9171 12.9706 29.1429 12.4255 29.1429 11.8572C29.1429 11.2889 28.9171 10.7438 28.5152 10.342C28.1134 9.9401 27.5683 9.71434 27 9.71434Z" fill="#FBE75E"/>
</svg>
