<svg width="120" height="78" viewBox="0 0 120 78" fill="none" xmlns="http://www.w3.org/2000/svg">
<mask id="path-1-inside-1_902_2299" fill="white">
<path d="M28.1202 13.6399L29.2232 14.6763L30.8381 15.3351L31.8793 15.3175L32.3823 16.31L33.3617 17.0478L34.906 17.2323L35.1001 17.5924L34.9324 18.5761L35.2325 19.068L35.956 19.3666L36.5561 19.1997L37.2796 19.9375L38.2062 20.1922L38.8239 20.7983L39.8651 20.8158L40.1563 21.0442L40.1122 21.7205L40.7475 20.6841L40.5975 19.7443L41.4358 18.9186L40.9858 18.5849L40.2092 18.8923L40.1034 17.3025L41.6564 17.1708L40.9681 16.7667L41.0122 16.3012L41.7005 16.231L41.7182 15.7567L41.3476 15.704L41.374 14.9925L40.571 14.4128L40.3416 13.8595L40.6858 11.8218L41.8682 9.99485L41.0828 9.23949L41.8682 8.53682L42.1947 7.72876L43.7477 6.75382L43.333 4.94447L45.1419 6.24439L45.4949 5.94576L46.139 6.43762L46.7038 6.01603L47.7627 6.71868L48.4068 6.38492L48.1862 5.51538L48.5039 4.85663L49.0069 5.01472L48.9628 4.16276L49.5452 4.20666L50.0569 3.62698L50.7452 3.44252L51.107 3.89046L51.5129 3.81142L51.9718 3.17902L52.4395 3.30199L53.4366 2.66959L54.1601 2.79255L54.1778 1.44871L54.7778 1.15009L55.5896 1.5102L55.9956 1.17644L55.8544 0.842666L56.975 0.675796L57.1074 0.965645L58.1663 1.29062L57.8927 1.71222L57.2486 1.65074L57.1603 1.97572L58.131 2.50272L58.6957 2.1426L59.0575 0.974424L59.7017 0.508911L61.4753 2.10746L61.4842 2.59932L61.7224 2.48515L62.4548 2.17773L62.7636 1.3521L63.5402 1.9318L63.7078 2.73986L63.9549 2.15138L64.8373 1.74736L65.4285 2.45001L66.055 1.94058L66.9375 2.01084L67.4316 2.37096L66.9728 2.52028L66.9375 2.80135L68.0052 3.55671L66.8051 3.79385L66.8404 4.28572L67.9787 4.558L68.2081 4.03979L68.8258 4.13639L69.3552 5.02351L70.3612 5.31336L70.4494 5.77008L70.1494 6.10385L71.473 6.74503L71.4113 7.09637L72.779 8.17671L73.1231 7.9747V8.5456L74.7997 9.45907L75.4174 10.1266L75.7262 10.0827L75.6292 10.5482L76.2292 10.3286L76.3263 9.90701L76.5028 10.2759L77.9764 10.5131L78.9206 9.97728L79.9001 9.98606L79.9706 10.759L81.5413 10.6536L82.3267 11.5583L82.7679 10.8907L83.165 10.882L83.3061 11.3387L83.9238 11.1542L84.6651 11.3475L84.8945 12.3136L85.1945 12.4981L85.7945 11.5407L86.4564 11.4968L86.7123 11.0928L87.4005 10.8732L87.5682 10.3637L88.4771 10.5833L89.2183 9.27462L90.6302 10.6272L90.3036 11.0488L92.3155 13.0075L91.4331 14.2987L92.2273 14.9574L91.6361 15.8357L93.2686 16.6614L92.9597 17.8559H94.7069L95.7746 18.8923L96.2423 18.7606L96.5776 19.0153L96.2952 19.7092L95.201 19.8058L95.8805 20.5787L95.3246 21.6678L99.5072 24.6102L98.6071 26.3405L100.557 27.7898L99.1542 29.8099L99.9219 30.372L100.743 29.3181L101.607 29.9505L101.634 30.2579L102.79 28.8789L102.419 28.6242L103.646 26.8851L104.422 26.6216L103.946 26.5337L104.255 26.0858L103.778 25.9101L103.902 25.7081L104.334 25.7784L105.463 24.4697L107.908 26.5601L108.322 26.5865L108.711 27.2189L110.67 26.9027L110.599 26.5952L111.217 26.4898L111.199 26.1736L113.158 26.0858L113.361 27.4121L114.341 27.2276L115.17 27.4209L115.311 28.6593L116.723 28.6681L117.076 29.4762L117.967 29.7484L118.117 30.7585L116.476 31.0484L116.599 32.3044L115.894 32.4976L116.035 34.3069L116.37 34.3333L116.502 35.5015L116.07 35.3785L115.646 35.642L115.938 35.844L115.576 36.0021L115.761 37.5128L115.355 37.8466L115.232 38.602L115.496 40.1478L117.041 39.9722L117.129 40.4377L118.258 40.2884L119.035 45.4617L118.258 45.4442L118.091 45.7428L117.729 45.5671L117.508 46.1995L117.111 45.9184L117.791 50.5209L117.2 51.7066L116.679 51.6978L116.529 52.5762L115.267 52.2336L115.046 51.7066L114.164 51.9613L113.776 51.4695L113.37 51.733L113.185 50.9249L112.479 50.2662L112.293 50.5472L111.234 50.0641L110.829 50.1608L110.555 49.6426L110.123 49.9675H110.44L109.62 50.4067L109.02 50.0202L109.073 50.275L108.358 50.4945L108.517 51.733L108.137 52.26L108.649 53.1471L108.031 53.5335L108.728 54.0781L108.296 54.2011L108.534 55.8787L109.823 55.7294L110.176 57.5475L108.711 57.5299V57.934L107.264 58.215L107.475 59.4183L108.305 59.3656L108.517 60.7358L106.699 61.1926L106.637 61.5615L104.793 61.7898L102.366 61.5439L102.278 61.1662L100.831 61.052L100.857 61.9128L99.3219 62.1324L98.9778 61.4561L96.9129 61.4473L96.5952 61.1662L96.8247 60.2528L95.6423 60.7622L93.2774 60.771L93.1715 59.9717H94.5039L94.8834 58.2941L94.3098 57.3894L94.6275 57.1171L94.301 56.6253L93.5774 57.0995L93.2421 55.5537L92.5979 55.7733L92.5538 55.5449L93.1715 55.2199L92.9421 53.9991L92.2891 53.8322L92.0773 53.2788L93.0215 52.9187L92.6421 51.3816L90.3478 51.9086L90.6919 51.3729L90.4801 51.1796L90.2419 51.3641L90.2066 50.8019L90.6125 50.5472L90.5772 50.2047L90.0566 49.8358L85.5475 50.9864L85.3004 49.5898L83.3944 49.7392L82.2473 47.8244L76.8116 50.5999L76.6969 49.7919L71.2701 48.5271L69.92 47.5697L68.5876 48.0089L67.7846 47.6224L66.3198 48.2109L64.2284 48.1494L62.9666 48.6149L62.2783 49.6426L60.9106 49.9939L60.7518 49.704L58.6781 49.9675L58.6869 48.1933L57.6545 48.3338L57.5927 48.0791L56.9309 48.1055L57.5221 51.5573L56.4632 51.7857L56.6662 53.3491L57.0015 53.3755L57.2662 54.7544L58.3604 54.6754L58.6781 56.8975L57.6192 57.1435L57.4339 56.6428L56.6927 56.9239L56.7633 57.486L55.2808 57.688L55.7308 59.9278L57.028 59.3305L57.328 60.525L58.1575 60.4899L58.2722 61.4385L57.5927 61.9304L57.981 64.5478L59.887 64.214L60.0723 65.3734L59.8164 65.47L59.8782 66.6382L59.137 66.726L59.3576 68.2016L58.3781 68.4827L58.6693 70.0724L59.137 70.0461L59.4987 71.5129L59.2605 71.9257L59.0752 71.6798L59.1193 72.1365L58.784 72.277L59.5164 72.6284L59.1722 73.05L59.8693 72.9358L60.0988 73.779L59.8517 74.5256L58.7046 75.0701L57.3015 75.1316L53.1365 74.1655L51.0894 73.3662L49.201 73.2256L44.6125 74.7452L40.8005 75.1492L38.0121 76.3789L35.4795 77.0025L31.2528 77.8456L30.4322 77.1605L29.2232 75.3248L20.6374 76.695L20.3815 75.439L19.0402 75.887L19.0579 73.5506L19.5079 73.3925L19.6138 72.8216L19.1461 72.7162L18.6873 71.6183L15.6694 72.2243L15.943 74.104L11.2044 74.9999L11.2662 75.5444L11.9015 76.3349L10.7809 76.8092L10.7279 75.9397L9.87199 75.4566L9.9514 74.2094L9.7308 74.0425L8.68073 74.6925L7.85129 74.631L7.95717 73.9898L8.49543 73.4364L8.38955 72.6723L6.48354 73.1115L4.18046 72.5669L4.22457 71.7237L0.271362 71.9345L1.33027 70.8542L0.615515 66.2869L3.56276 65.5315L3.43924 64.539L3.13039 64.4863L2.94506 63.6431L3.44804 63.4147L3.16567 61.4385L3.86278 61.2365L3.51865 59.2514L3.96866 59.067L3.80983 57.5651L1.9656 57.9164L1.57734 57.7232L1.21555 56.959L1.63028 56.7921L1.24202 55.053L1.55087 54.4909L2.05385 54.6841L2.11562 53.6126L2.52152 53.2788L2.67152 52.3829L4.70988 52.1458L4.604 51.0215L4.78932 51.2235L5.75115 51.0918L6.01586 52.0755L5.68937 50.5384L8.19541 49.8533L8.12483 49.3176L8.49543 49.2649L8.45132 48.9487L6.97768 49.3264L6.8718 48.7203L8.23952 48.3865L7.82479 46.3576L8.7072 46.2961L8.77781 47.2447L9.57197 47.1744L9.69552 49.3615L10.1279 49.4581L10.5073 48.6764L10.8956 48.6852L10.1808 47.3501L10.8426 47.2711L10.8779 46.9461L14.3193 46.4103L14.2576 45.6549L15.7753 45.3739L15.793 45.1016L16.3136 44.8996L16.4195 43.7665L17.7431 43.3889L17.3019 41.7113L16.7813 41.6322L16.843 39.331L15.6253 39.3925L15.6165 38.5229L15.1753 38.2594L15.5018 37.6797L15.4312 36.7399L16.3048 36.494L15.5547 29.6957L15.8812 29.5552L15.8547 29.1687L16.6754 29.1424L16.6489 28.6681L18.8637 28.3782L19.0314 29.037L20.0197 28.7296L19.6932 27.333L20.8492 27.3067L21.1139 27.8864L23.5935 26.4986L24.1935 26.0858L24.017 24.7683L25.3495 24.5136L25.4818 23.3191L23.8494 23.5914L23.7435 23.0556L23.2493 23.1171L21.8375 21.7469L20.8668 21.8347L19.9138 21.4922L19.5962 20.4382L19.1373 20.6226L18.9344 20.3328L18.8461 18.418L19.4373 18.3038L19.9138 18.7606L21.0345 18.5937L21.8198 17.5221L22.0845 17.8383L22.8875 17.8032L23.0905 18.6903L23.3905 18.7518L24.2111 18.3653L24.52 18.6288L25.1818 18.5146L25.1465 18.2511L25.6318 18.1369L25.826 19.4193L26.8143 19.5335L26.8054 18.1984L27.2555 16.512L27.5731 16.3539L28.1202 13.6399Z"/>
</mask>
<path d="M28.1202 13.6399L29.2232 14.6763L30.8381 15.3351L31.8793 15.3175L32.3823 16.31L33.3617 17.0478L34.906 17.2323L35.1001 17.5924L34.9324 18.5761L35.2325 19.068L35.956 19.3666L36.5561 19.1997L37.2796 19.9375L38.2062 20.1922L38.8239 20.7983L39.8651 20.8158L40.1563 21.0442L40.1122 21.7205L40.7475 20.6841L40.5975 19.7443L41.4358 18.9186L40.9858 18.5849L40.2092 18.8923L40.1034 17.3025L41.6564 17.1708L40.9681 16.7667L41.0122 16.3012L41.7005 16.231L41.7182 15.7567L41.3476 15.704L41.374 14.9925L40.571 14.4128L40.3416 13.8595L40.6858 11.8218L41.8682 9.99485L41.0828 9.23949L41.8682 8.53682L42.1947 7.72876L43.7477 6.75382L43.333 4.94447L45.1419 6.24439L45.4949 5.94576L46.139 6.43762L46.7038 6.01603L47.7627 6.71868L48.4068 6.38492L48.1862 5.51538L48.5039 4.85663L49.0069 5.01472L48.9628 4.16276L49.5452 4.20666L50.0569 3.62698L50.7452 3.44252L51.107 3.89046L51.5129 3.81142L51.9718 3.17902L52.4395 3.30199L53.4366 2.66959L54.1601 2.79255L54.1778 1.44871L54.7778 1.15009L55.5896 1.5102L55.9956 1.17644L55.8544 0.842666L56.975 0.675796L57.1074 0.965645L58.1663 1.29062L57.8927 1.71222L57.2486 1.65074L57.1603 1.97572L58.131 2.50272L58.6957 2.1426L59.0575 0.974424L59.7017 0.508911L61.4753 2.10746L61.4842 2.59932L61.7224 2.48515L62.4548 2.17773L62.7636 1.3521L63.5402 1.9318L63.7078 2.73986L63.9549 2.15138L64.8373 1.74736L65.4285 2.45001L66.055 1.94058L66.9375 2.01084L67.4316 2.37096L66.9728 2.52028L66.9375 2.80135L68.0052 3.55671L66.8051 3.79385L66.8404 4.28572L67.9787 4.558L68.2081 4.03979L68.8258 4.13639L69.3552 5.02351L70.3612 5.31336L70.4494 5.77008L70.1494 6.10385L71.473 6.74503L71.4113 7.09637L72.779 8.17671L73.1231 7.9747V8.5456L74.7997 9.45907L75.4174 10.1266L75.7262 10.0827L75.6292 10.5482L76.2292 10.3286L76.3263 9.90701L76.5028 10.2759L77.9764 10.5131L78.9206 9.97728L79.9001 9.98606L79.9706 10.759L81.5413 10.6536L82.3267 11.5583L82.7679 10.8907L83.165 10.882L83.3061 11.3387L83.9238 11.1542L84.6651 11.3475L84.8945 12.3136L85.1945 12.4981L85.7945 11.5407L86.4564 11.4968L86.7123 11.0928L87.4005 10.8732L87.5682 10.3637L88.4771 10.5833L89.2183 9.27462L90.6302 10.6272L90.3036 11.0488L92.3155 13.0075L91.4331 14.2987L92.2273 14.9574L91.6361 15.8357L93.2686 16.6614L92.9597 17.8559H94.7069L95.7746 18.8923L96.2423 18.7606L96.5776 19.0153L96.2952 19.7092L95.201 19.8058L95.8805 20.5787L95.3246 21.6678L99.5072 24.6102L98.6071 26.3405L100.557 27.7898L99.1542 29.8099L99.9219 30.372L100.743 29.3181L101.607 29.9505L101.634 30.2579L102.79 28.8789L102.419 28.6242L103.646 26.8851L104.422 26.6216L103.946 26.5337L104.255 26.0858L103.778 25.9101L103.902 25.7081L104.334 25.7784L105.463 24.4697L107.908 26.5601L108.322 26.5865L108.711 27.2189L110.67 26.9027L110.599 26.5952L111.217 26.4898L111.199 26.1736L113.158 26.0858L113.361 27.4121L114.341 27.2276L115.17 27.4209L115.311 28.6593L116.723 28.6681L117.076 29.4762L117.967 29.7484L118.117 30.7585L116.476 31.0484L116.599 32.3044L115.894 32.4976L116.035 34.3069L116.37 34.3333L116.502 35.5015L116.07 35.3785L115.646 35.642L115.938 35.844L115.576 36.0021L115.761 37.5128L115.355 37.8466L115.232 38.602L115.496 40.1478L117.041 39.9722L117.129 40.4377L118.258 40.2884L119.035 45.4617L118.258 45.4442L118.091 45.7428L117.729 45.5671L117.508 46.1995L117.111 45.9184L117.791 50.5209L117.2 51.7066L116.679 51.6978L116.529 52.5762L115.267 52.2336L115.046 51.7066L114.164 51.9613L113.776 51.4695L113.37 51.733L113.185 50.9249L112.479 50.2662L112.293 50.5472L111.234 50.0641L110.829 50.1608L110.555 49.6426L110.123 49.9675H110.44L109.62 50.4067L109.02 50.0202L109.073 50.275L108.358 50.4945L108.517 51.733L108.137 52.26L108.649 53.1471L108.031 53.5335L108.728 54.0781L108.296 54.2011L108.534 55.8787L109.823 55.7294L110.176 57.5475L108.711 57.5299V57.934L107.264 58.215L107.475 59.4183L108.305 59.3656L108.517 60.7358L106.699 61.1926L106.637 61.5615L104.793 61.7898L102.366 61.5439L102.278 61.1662L100.831 61.052L100.857 61.9128L99.3219 62.1324L98.9778 61.4561L96.9129 61.4473L96.5952 61.1662L96.8247 60.2528L95.6423 60.7622L93.2774 60.771L93.1715 59.9717H94.5039L94.8834 58.2941L94.3098 57.3894L94.6275 57.1171L94.301 56.6253L93.5774 57.0995L93.2421 55.5537L92.5979 55.7733L92.5538 55.5449L93.1715 55.2199L92.9421 53.9991L92.2891 53.8322L92.0773 53.2788L93.0215 52.9187L92.6421 51.3816L90.3478 51.9086L90.6919 51.3729L90.4801 51.1796L90.2419 51.3641L90.2066 50.8019L90.6125 50.5472L90.5772 50.2047L90.0566 49.8358L85.5475 50.9864L85.3004 49.5898L83.3944 49.7392L82.2473 47.8244L76.8116 50.5999L76.6969 49.7919L71.2701 48.5271L69.92 47.5697L68.5876 48.0089L67.7846 47.6224L66.3198 48.2109L64.2284 48.1494L62.9666 48.6149L62.2783 49.6426L60.9106 49.9939L60.7518 49.704L58.6781 49.9675L58.6869 48.1933L57.6545 48.3338L57.5927 48.0791L56.9309 48.1055L57.5221 51.5573L56.4632 51.7857L56.6662 53.3491L57.0015 53.3755L57.2662 54.7544L58.3604 54.6754L58.6781 56.8975L57.6192 57.1435L57.4339 56.6428L56.6927 56.9239L56.7633 57.486L55.2808 57.688L55.7308 59.9278L57.028 59.3305L57.328 60.525L58.1575 60.4899L58.2722 61.4385L57.5927 61.9304L57.981 64.5478L59.887 64.214L60.0723 65.3734L59.8164 65.47L59.8782 66.6382L59.137 66.726L59.3576 68.2016L58.3781 68.4827L58.6693 70.0724L59.137 70.0461L59.4987 71.5129L59.2605 71.9257L59.0752 71.6798L59.1193 72.1365L58.784 72.277L59.5164 72.6284L59.1722 73.05L59.8693 72.9358L60.0988 73.779L59.8517 74.5256L58.7046 75.0701L57.3015 75.1316L53.1365 74.1655L51.0894 73.3662L49.201 73.2256L44.6125 74.7452L40.8005 75.1492L38.0121 76.3789L35.4795 77.0025L31.2528 77.8456L30.4322 77.1605L29.2232 75.3248L20.6374 76.695L20.3815 75.439L19.0402 75.887L19.0579 73.5506L19.5079 73.3925L19.6138 72.8216L19.1461 72.7162L18.6873 71.6183L15.6694 72.2243L15.943 74.104L11.2044 74.9999L11.2662 75.5444L11.9015 76.3349L10.7809 76.8092L10.7279 75.9397L9.87199 75.4566L9.9514 74.2094L9.7308 74.0425L8.68073 74.6925L7.85129 74.631L7.95717 73.9898L8.49543 73.4364L8.38955 72.6723L6.48354 73.1115L4.18046 72.5669L4.22457 71.7237L0.271362 71.9345L1.33027 70.8542L0.615515 66.2869L3.56276 65.5315L3.43924 64.539L3.13039 64.4863L2.94506 63.6431L3.44804 63.4147L3.16567 61.4385L3.86278 61.2365L3.51865 59.2514L3.96866 59.067L3.80983 57.5651L1.9656 57.9164L1.57734 57.7232L1.21555 56.959L1.63028 56.7921L1.24202 55.053L1.55087 54.4909L2.05385 54.6841L2.11562 53.6126L2.52152 53.2788L2.67152 52.3829L4.70988 52.1458L4.604 51.0215L4.78932 51.2235L5.75115 51.0918L6.01586 52.0755L5.68937 50.5384L8.19541 49.8533L8.12483 49.3176L8.49543 49.2649L8.45132 48.9487L6.97768 49.3264L6.8718 48.7203L8.23952 48.3865L7.82479 46.3576L8.7072 46.2961L8.77781 47.2447L9.57197 47.1744L9.69552 49.3615L10.1279 49.4581L10.5073 48.6764L10.8956 48.6852L10.1808 47.3501L10.8426 47.2711L10.8779 46.9461L14.3193 46.4103L14.2576 45.6549L15.7753 45.3739L15.793 45.1016L16.3136 44.8996L16.4195 43.7665L17.7431 43.3889L17.3019 41.7113L16.7813 41.6322L16.843 39.331L15.6253 39.3925L15.6165 38.5229L15.1753 38.2594L15.5018 37.6797L15.4312 36.7399L16.3048 36.494L15.5547 29.6957L15.8812 29.5552L15.8547 29.1687L16.6754 29.1424L16.6489 28.6681L18.8637 28.3782L19.0314 29.037L20.0197 28.7296L19.6932 27.333L20.8492 27.3067L21.1139 27.8864L23.5935 26.4986L24.1935 26.0858L24.017 24.7683L25.3495 24.5136L25.4818 23.3191L23.8494 23.5914L23.7435 23.0556L23.2493 23.1171L21.8375 21.7469L20.8668 21.8347L19.9138 21.4922L19.5962 20.4382L19.1373 20.6226L18.9344 20.3328L18.8461 18.418L19.4373 18.3038L19.9138 18.7606L21.0345 18.5937L21.8198 17.5221L22.0845 17.8383L22.8875 17.8032L23.0905 18.6903L23.3905 18.7518L24.2111 18.3653L24.52 18.6288L25.1818 18.5146L25.1465 18.2511L25.6318 18.1369L25.826 19.4193L26.8143 19.5335L26.8054 18.1984L27.2555 16.512L27.5731 16.3539L28.1202 13.6399Z" fill="#7360F2" stroke="white" stroke-width="0.4" mask="url(#path-1-inside-1_902_2299)"/>
<path d="M62 18.2858C65.0771 18.2858 67.5714 20.7801 67.5714 23.8572C67.5714 26.2115 65.9171 28.7772 62.6514 31.5818C62.4698 31.7378 62.2383 31.8234 61.9989 31.8232C61.7595 31.823 61.5282 31.7369 61.3468 31.5806L61.1308 31.3932C58.0097 28.6618 56.4286 26.1589 56.4286 23.8572C56.4286 20.7801 58.9228 18.2858 62 18.2858ZM62 21.7143C61.4317 21.7143 60.8866 21.9401 60.4848 22.342C60.0829 22.7438 59.8571 23.2889 59.8571 23.8572C59.8571 24.4255 60.0829 24.9706 60.4848 25.3724C60.8866 25.7743 61.4317 26.0001 62 26.0001C62.5683 26.0001 63.1134 25.7743 63.5152 25.3724C63.9171 24.9706 64.1428 24.4255 64.1428 23.8572C64.1428 23.2889 63.9171 22.7438 63.5152 22.342C63.1134 21.9401 62.5683 21.7143 62 21.7143Z" fill="#FBE75E"/>
</svg>
