<svg width="77" height="106" viewBox="0 0 77 106" fill="none" xmlns="http://www.w3.org/2000/svg">
<mask id="path-1-inside-1_902_2295" fill="white">
<path d="M39.9278 0.585938L40.4837 1.77169L41.022 1.6575L41.8515 2.64122L40.5984 3.4405L40.8897 3.81818L40.6161 4.09047L41.075 4.51206L43.2722 5.46944L44.9046 5.54848L45.1252 4.45937L46.1577 4.64381L45.5841 8.34157L45.3282 8.62263L46.74 11.486L45.3635 11.9427L45.3723 12.8562L44.6487 12.4609L43.9517 13.7609L44.9311 13.796L45.0547 14.2L46.3253 14.1737L47.1195 14.5777L47.7372 14.6041L48.0637 14.2351L49.9344 14.5074L50.4903 14.2966L50.455 18.4599L51.4609 18.3545L51.9463 19.1801L53.1287 19.0747L53.1728 19.672L52.4051 19.7423L52.0875 20.1814L52.2374 21.3935L51.6286 22.4124L52.3257 23.1326L53.2964 23.238L53.517 23.8704L52.8904 24.1076L53.2081 24.5643L53.1993 25.4075L52.3787 25.6007L52.3169 25.996L51.5756 26.2419L51.9904 31.749L53.2522 33.2422L52.7316 34.0414L52.864 34.7705L52.5463 34.7792L53.314 35.315L53.1287 35.763L54.064 36.5095L54.92 36.3251L55.1671 36.8697L56.6936 36.1582L57.1525 39.2763L57.7172 39.1094L58.5114 39.8384L56.7554 40.9363L56.8789 41.8937L56.4907 42.3416L56.4377 43.3078L57.6907 43.9665L60.3733 43.6503L61.4587 44.6956L61.441 45.8989L62.1205 46.9616L62.0587 47.5326L61.6793 47.9014L61.9705 48.4548L62.8617 48.9291L64.5648 48.9642L64.4853 49.5176L68.315 50.8087L67.9797 52.0911L68.6062 52.4424L68.6327 53.1451L68.1562 53.9356L68.8444 55.3409L74.8713 55.7537L74.889 57.8705L75.4007 58.2745L75.8861 58.1515L76.4508 58.6434L75.639 60.7075L75.9037 61.7088L72.427 61.779L70.0622 61.4716L69.921 61.8756L68.765 62.0338L68.4473 63.1492L68.5532 64.1417L67.4061 64.1856L67.159 65.3363L67.5826 66.1092L67.4061 67.5584L66.8149 68.0766L66.9031 69.9211L65.8089 70.1144L65.7648 69.2975L63.7088 69.3063L63.7706 70.615L62.6323 70.6238L62.6411 71.265L62.2793 71.7217L57.5937 71.7568L57.479 72.8635L54.3464 72.9514L54.3376 74.6729L53.0846 74.6904L52.9434 76.0782L52.2992 76.1309L52.3257 77.6943L52.5904 77.9578L52.4228 79.0206L52.8816 79.2402L52.8375 82.8325L52.3698 82.8501L52.4051 83.5528L51.3374 83.7987L50.4197 85.6783L50.4815 86.504L53.9052 86.6094L53.614 87.7073L53.7376 88.4275L53.4728 88.7437L52.4669 88.7788L52.4051 89.4376L50.7727 89.824L51.1433 90.5882L50.9138 93.7853L50.252 95.1555L48.7343 96.9824L47.8519 97.1317L46.7753 95.3575L45.6723 95.0062L44.7105 95.9899L43.5987 95.6386L42.8398 95.7615L40.6161 95.0589L37.5542 96.148L34.9775 96.4203L32.6744 95.7703L30.0272 96.3588L29.4095 96.877L29.5948 97.6324L28.6153 98.0276L24.0356 104.624L22.8708 105.66H22.6326L23.6209 104.668L23.4532 103.763L22.4914 102.771L20.9825 102.059L19.5353 102.894L18.8206 103.658L17.647 103.939L15.8645 104.966L14.6115 102.99L16.7381 101.277L16.9234 101.479L18.1587 100.759L16.6587 99.5998L17.6823 98.1594L16.9587 97.3425L16.3674 97.8168L13.5084 96.473L14.3026 95.9899L13.9673 94.3123L13.4114 94.4528L12.3701 92.9245L12.1319 93.0211L12.0083 92.6698L11.6377 92.907L11.5407 92.3887L11.2142 92.7577L10.9406 92.3097L10.6141 92.4239L9.58171 91.2206L10.6141 91.1591L10.4906 90.922L12.829 91.1327L11.7348 86.0297L12.2642 85.9418L12.4054 86.3371L14.7703 86.1878L15.0791 86.7762L16.3586 86.2053L16.2969 85.8716L17.5411 85.0811L17.144 83.544L18.0087 83.3244L18.7676 85.0196L19.95 84.4223L19.703 83.6494L20.8501 80.8651L21.0972 80.8475L21.1766 79.4598L19.6059 79.3895L19.703 78.9591L19.2706 78.7659L18.5647 80.0658L16.4381 78.1862L16.2175 78.397L14.6115 75.7181L14.0026 76.368L13.3585 75.3404L12.9261 75.6478L12.3172 74.7783L10.7642 76.0167L8.82285 72.6791L6.8992 73.6013L6.35211 73.3466L6.27267 72.7318L6.8992 72.6L6.87273 72.1696L5.71677 72.3541L5.52264 71.1332L6.53741 70.9751L6.60799 70.6765L7.19038 70.8346L7.70219 69.965L5.38145 70.211L5.02849 68.0679L4.59609 68.0415L4.13725 65.1606L1.66651 65.5031L1.64001 64.133L2.0018 64.0539L2.24007 63.035L2.12535 62.6134L1.55179 62.7452L1.33999 61.375L0.519357 61.4277L0.307587 60.2244L1.74592 59.9433V59.5393L3.21073 59.5481L2.85774 57.7299L1.56943 57.8792L1.33119 56.2016L1.76356 56.0787L1.07528 55.5253L1.69298 55.1477L1.18116 54.2605L1.5606 53.7335L1.39293 52.4951L2.10771 52.2755L2.06358 52.0296L2.6548 52.416L3.47544 51.9769H3.16659L3.59896 51.6607L3.8637 52.1789L4.27844 52.0823L5.33731 52.5654L5.52264 52.2843L6.21972 52.9431L6.40505 53.7511L6.81095 53.4876L7.19921 53.9795L8.07279 53.7248L8.2934 54.2518L9.55524 54.5855L9.70526 53.716L10.2347 53.7248L10.8171 52.539L10.1376 47.9278L10.5347 48.2089L10.7465 47.5765L11.1083 47.7521L11.2759 47.4623L12.0525 47.4799L11.2759 42.3065L10.1553 42.4558L10.0582 41.9815L8.52283 42.1572L8.24929 40.6113L8.38164 39.856L8.78754 39.5222L8.61108 38.0115L8.96404 37.8534L8.67282 37.6514L9.09639 37.3967L9.52876 37.5196L9.39641 36.3514L9.05228 36.3251L8.91109 34.5157L9.61701 34.3225L9.49349 33.0665L11.1436 32.7766L10.9936 31.7666L10.1024 31.4943L9.74937 30.6862L8.33753 30.6687L8.19634 29.4302L7.36687 29.237L6.38738 29.4214L6.19325 28.0952L5.6903 26.927L5.46086 25.144L5.83146 25.0737L6.08737 24.5731L5.43439 22.8867L5.31084 21.7361L4.77258 21.7449L4.6755 21.4638L5.56675 20.1112L6.44916 20.3044L6.48446 20.8402L7.15508 21.1915L8.43458 21.2618L8.61988 21.5604L9.1317 21.4989L9.62584 20.2605L12.9702 20.5942L14.8762 22.5793L15.2292 21.859L14.6468 21.7975L14.6115 21.4462L13.8085 20.7875L14.1791 20.2166L14.4879 20.2429L14.6379 19.5578L15.9439 19.7423L16.1116 18.8552L16.4998 18.9254L16.8616 18.0734L18.3088 18.4511L18.1764 18.8815L19.65 19.7247L19.6853 16.8174L20.303 16.3958L20.7178 15.5439L21.8825 15.5702L21.9531 14.85L23.7091 14.9115L23.8503 14.1122L23.1885 13.9541L23.4973 13.2778L22.7561 12.6278L23.1003 12.2238L23.365 12.3907L23.5679 12.0832L23.2326 11.8988L24.0532 11.5299L24.1768 11.1259L24.6533 11.6704L25.0415 11.6177L25.1298 10.1773L25.5798 10.2212L25.4386 9.10571L26.0387 9.00032L26.3828 8.54358L27.3447 8.65777L27.3888 8.92127L27.8212 8.62263L28.2535 8.78074L28.1653 8.55236L29.0477 8.15712L28.8889 7.19974L28.4741 6.79571L28.7212 6.55857L30.1948 6.30385L32.895 4.86339L32.1097 3.9675L28.9065 2.77298L30.239 1.47304L30.636 1.0251L32.3126 0.787949L37.6953 2.17571L38.5777 1.98248L38.5954 2.21085L39.1689 2.26355L39.3719 1.20956L39.9278 0.585938Z"/>
</mask>
<path d="M39.9278 0.585938L40.4837 1.77169L41.022 1.6575L41.8515 2.64122L40.5984 3.4405L40.8897 3.81818L40.6161 4.09047L41.075 4.51206L43.2722 5.46944L44.9046 5.54848L45.1252 4.45937L46.1577 4.64381L45.5841 8.34157L45.3282 8.62263L46.74 11.486L45.3635 11.9427L45.3723 12.8562L44.6487 12.4609L43.9517 13.7609L44.9311 13.796L45.0547 14.2L46.3253 14.1737L47.1195 14.5777L47.7372 14.6041L48.0637 14.2351L49.9344 14.5074L50.4903 14.2966L50.455 18.4599L51.4609 18.3545L51.9463 19.1801L53.1287 19.0747L53.1728 19.672L52.4051 19.7423L52.0875 20.1814L52.2374 21.3935L51.6286 22.4124L52.3257 23.1326L53.2964 23.238L53.517 23.8704L52.8904 24.1076L53.2081 24.5643L53.1993 25.4075L52.3787 25.6007L52.3169 25.996L51.5756 26.2419L51.9904 31.749L53.2522 33.2422L52.7316 34.0414L52.864 34.7705L52.5463 34.7792L53.314 35.315L53.1287 35.763L54.064 36.5095L54.92 36.3251L55.1671 36.8697L56.6936 36.1582L57.1525 39.2763L57.7172 39.1094L58.5114 39.8384L56.7554 40.9363L56.8789 41.8937L56.4907 42.3416L56.4377 43.3078L57.6907 43.9665L60.3733 43.6503L61.4587 44.6956L61.441 45.8989L62.1205 46.9616L62.0587 47.5326L61.6793 47.9014L61.9705 48.4548L62.8617 48.9291L64.5648 48.9642L64.4853 49.5176L68.315 50.8087L67.9797 52.0911L68.6062 52.4424L68.6327 53.1451L68.1562 53.9356L68.8444 55.3409L74.8713 55.7537L74.889 57.8705L75.4007 58.2745L75.8861 58.1515L76.4508 58.6434L75.639 60.7075L75.9037 61.7088L72.427 61.779L70.0622 61.4716L69.921 61.8756L68.765 62.0338L68.4473 63.1492L68.5532 64.1417L67.4061 64.1856L67.159 65.3363L67.5826 66.1092L67.4061 67.5584L66.8149 68.0766L66.9031 69.9211L65.8089 70.1144L65.7648 69.2975L63.7088 69.3063L63.7706 70.615L62.6323 70.6238L62.6411 71.265L62.2793 71.7217L57.5937 71.7568L57.479 72.8635L54.3464 72.9514L54.3376 74.6729L53.0846 74.6904L52.9434 76.0782L52.2992 76.1309L52.3257 77.6943L52.5904 77.9578L52.4228 79.0206L52.8816 79.2402L52.8375 82.8325L52.3698 82.8501L52.4051 83.5528L51.3374 83.7987L50.4197 85.6783L50.4815 86.504L53.9052 86.6094L53.614 87.7073L53.7376 88.4275L53.4728 88.7437L52.4669 88.7788L52.4051 89.4376L50.7727 89.824L51.1433 90.5882L50.9138 93.7853L50.252 95.1555L48.7343 96.9824L47.8519 97.1317L46.7753 95.3575L45.6723 95.0062L44.7105 95.9899L43.5987 95.6386L42.8398 95.7615L40.6161 95.0589L37.5542 96.148L34.9775 96.4203L32.6744 95.7703L30.0272 96.3588L29.4095 96.877L29.5948 97.6324L28.6153 98.0276L24.0356 104.624L22.8708 105.66H22.6326L23.6209 104.668L23.4532 103.763L22.4914 102.771L20.9825 102.059L19.5353 102.894L18.8206 103.658L17.647 103.939L15.8645 104.966L14.6115 102.99L16.7381 101.277L16.9234 101.479L18.1587 100.759L16.6587 99.5998L17.6823 98.1594L16.9587 97.3425L16.3674 97.8168L13.5084 96.473L14.3026 95.9899L13.9673 94.3123L13.4114 94.4528L12.3701 92.9245L12.1319 93.0211L12.0083 92.6698L11.6377 92.907L11.5407 92.3887L11.2142 92.7577L10.9406 92.3097L10.6141 92.4239L9.58171 91.2206L10.6141 91.1591L10.4906 90.922L12.829 91.1327L11.7348 86.0297L12.2642 85.9418L12.4054 86.3371L14.7703 86.1878L15.0791 86.7762L16.3586 86.2053L16.2969 85.8716L17.5411 85.0811L17.144 83.544L18.0087 83.3244L18.7676 85.0196L19.95 84.4223L19.703 83.6494L20.8501 80.8651L21.0972 80.8475L21.1766 79.4598L19.6059 79.3895L19.703 78.9591L19.2706 78.7659L18.5647 80.0658L16.4381 78.1862L16.2175 78.397L14.6115 75.7181L14.0026 76.368L13.3585 75.3404L12.9261 75.6478L12.3172 74.7783L10.7642 76.0167L8.82285 72.6791L6.8992 73.6013L6.35211 73.3466L6.27267 72.7318L6.8992 72.6L6.87273 72.1696L5.71677 72.3541L5.52264 71.1332L6.53741 70.9751L6.60799 70.6765L7.19038 70.8346L7.70219 69.965L5.38145 70.211L5.02849 68.0679L4.59609 68.0415L4.13725 65.1606L1.66651 65.5031L1.64001 64.133L2.0018 64.0539L2.24007 63.035L2.12535 62.6134L1.55179 62.7452L1.33999 61.375L0.519357 61.4277L0.307587 60.2244L1.74592 59.9433V59.5393L3.21073 59.5481L2.85774 57.7299L1.56943 57.8792L1.33119 56.2016L1.76356 56.0787L1.07528 55.5253L1.69298 55.1477L1.18116 54.2605L1.5606 53.7335L1.39293 52.4951L2.10771 52.2755L2.06358 52.0296L2.6548 52.416L3.47544 51.9769H3.16659L3.59896 51.6607L3.8637 52.1789L4.27844 52.0823L5.33731 52.5654L5.52264 52.2843L6.21972 52.9431L6.40505 53.7511L6.81095 53.4876L7.19921 53.9795L8.07279 53.7248L8.2934 54.2518L9.55524 54.5855L9.70526 53.716L10.2347 53.7248L10.8171 52.539L10.1376 47.9278L10.5347 48.2089L10.7465 47.5765L11.1083 47.7521L11.2759 47.4623L12.0525 47.4799L11.2759 42.3065L10.1553 42.4558L10.0582 41.9815L8.52283 42.1572L8.24929 40.6113L8.38164 39.856L8.78754 39.5222L8.61108 38.0115L8.96404 37.8534L8.67282 37.6514L9.09639 37.3967L9.52876 37.5196L9.39641 36.3514L9.05228 36.3251L8.91109 34.5157L9.61701 34.3225L9.49349 33.0665L11.1436 32.7766L10.9936 31.7666L10.1024 31.4943L9.74937 30.6862L8.33753 30.6687L8.19634 29.4302L7.36687 29.237L6.38738 29.4214L6.19325 28.0952L5.6903 26.927L5.46086 25.144L5.83146 25.0737L6.08737 24.5731L5.43439 22.8867L5.31084 21.7361L4.77258 21.7449L4.6755 21.4638L5.56675 20.1112L6.44916 20.3044L6.48446 20.8402L7.15508 21.1915L8.43458 21.2618L8.61988 21.5604L9.1317 21.4989L9.62584 20.2605L12.9702 20.5942L14.8762 22.5793L15.2292 21.859L14.6468 21.7975L14.6115 21.4462L13.8085 20.7875L14.1791 20.2166L14.4879 20.2429L14.6379 19.5578L15.9439 19.7423L16.1116 18.8552L16.4998 18.9254L16.8616 18.0734L18.3088 18.4511L18.1764 18.8815L19.65 19.7247L19.6853 16.8174L20.303 16.3958L20.7178 15.5439L21.8825 15.5702L21.9531 14.85L23.7091 14.9115L23.8503 14.1122L23.1885 13.9541L23.4973 13.2778L22.7561 12.6278L23.1003 12.2238L23.365 12.3907L23.5679 12.0832L23.2326 11.8988L24.0532 11.5299L24.1768 11.1259L24.6533 11.6704L25.0415 11.6177L25.1298 10.1773L25.5798 10.2212L25.4386 9.10571L26.0387 9.00032L26.3828 8.54358L27.3447 8.65777L27.3888 8.92127L27.8212 8.62263L28.2535 8.78074L28.1653 8.55236L29.0477 8.15712L28.8889 7.19974L28.4741 6.79571L28.7212 6.55857L30.1948 6.30385L32.895 4.86339L32.1097 3.9675L28.9065 2.77298L30.239 1.47304L30.636 1.0251L32.3126 0.787949L37.6953 2.17571L38.5777 1.98248L38.5954 2.21085L39.1689 2.26355L39.3719 1.20956L39.9278 0.585938Z" fill="#7360F2" stroke="white" stroke-width="0.4" mask="url(#path-1-inside-1_902_2295)"/>
<path d="M37 43.2858C40.0772 43.2858 42.5714 45.7801 42.5714 48.8572C42.5714 51.2115 40.9172 53.7772 37.6514 56.5818C37.4699 56.7378 37.2383 56.8234 36.9989 56.8232C36.7596 56.823 36.5282 56.7369 36.3469 56.5806L36.1309 56.3932C33.0097 53.6618 31.4286 51.1589 31.4286 48.8572C31.4286 45.7801 33.9229 43.2858 37 43.2858ZM37 46.7143C36.4317 46.7143 35.8867 46.9401 35.4848 47.342C35.0829 47.7438 34.8572 48.2889 34.8572 48.8572C34.8572 49.4255 35.0829 49.9706 35.4848 50.3724C35.8867 50.7743 36.4317 51.0001 37 51.0001C37.5683 51.0001 38.1134 50.7743 38.5152 50.3724C38.9171 49.9706 39.1429 49.4255 39.1429 48.8572C39.1429 48.2889 38.9171 47.7438 38.5152 47.342C38.1134 46.9401 37.5683 46.7143 37 46.7143Z" fill="#FBE75E"/>
</svg>
