<svg width="108" height="80" viewBox="0 0 108 80" fill="none" xmlns="http://www.w3.org/2000/svg">
<mask id="path-1-inside-1_902_2301" fill="white">
<path d="M95.8628 70.121L97.1511 69.9366L96.9481 71.0433L95.9422 70.7534L94.6274 69.392L95.2539 69.4974L95.8628 70.121ZM31.3145 67.082L34.297 67.609L37.3501 68.5927L38.8414 68.3029L40.4297 67.3279L41.5063 68.215L42.3534 68.3556L42.724 67.9252L43.7476 68.6542L45.486 68.8035L46.2978 69.2866L45.186 69.6028L40.5798 69.2602L30.9527 67.1347L31.3145 67.082ZM88.274 64.6578L87.7534 65.0179L87.5769 65.6328L86.5533 66.1773L86.6769 67.3718H86.4563L86.1033 65.826L87.2681 64.7017L88.274 64.6578ZM98.9424 64.0693L100.063 71.1311L102.896 78.8253L102.41 79.08L101.731 76.7963L101.069 75.9004L100.54 76.0146L100.266 76.972L99.6748 77.5429L98.9865 77.6395L98.7483 77.0598L99.3659 75.6106L99.7277 73.0107L99.3395 72.5452L99.3218 71.7811L100.301 72.756L99.5424 70.8325L98.9689 70.5953L99.1189 69.6819L98.7747 69.717L98.5012 68.2765L97.9541 67.7056L97.3982 67.7847L96.9217 69.5501L96.2687 68.259L95.4039 67.8022L95.7128 67.0732L95.4657 66.4496L94.3185 65.9929L94.3097 65.5713L95.8187 65.8348L97.0011 65.3956L97.4776 66.6955L97.8041 66.8273L98.3512 66.0456L98.0865 64.0781L98.6865 63.5687L98.9424 64.0693ZM3.43029 59.4757L4.85979 59.2825L5.03629 59.502L4.42742 59.6865L4.33917 59.9939L13.2427 62.1809L5.5569 60.477L2.57435 59.3615L1.00366 58.0704L0.174196 56.6299L0.0594788 54.9786L0.42127 54.2409L0.703648 54.3023L0.659538 56.5069L0.977193 57.6312L1.72725 58.6061L3.43029 59.4757ZM47.1802 1.56749L49.4833 2.11207L51.3893 1.66411L51.4952 2.43704L50.9481 2.99039L50.8422 3.63157L51.6717 3.69305L52.7305 3.05187L52.9511 3.20998L52.8717 4.45719L53.7277 4.93149L53.7806 5.80103L54.9013 5.32675L54.266 4.54503L54.2042 4.00047L58.9427 3.10457L58.678 1.22495L61.6958 0.618896L62.1547 1.7256L62.6136 1.83099L62.5165 2.4019L62.0665 2.56001L62.0488 4.88759L63.3812 4.43963L63.6372 5.69563L72.223 4.32544L73.4319 6.16115L74.2525 6.84624L78.4793 6.00305L81.0294 7.32934L81.5413 7.89145L82.0884 11.0886L82.4854 11.071L83.0766 14.6019L83.4737 14.9269L84.1532 14.233L85.0091 14.1188L85.5121 14.5316L86.3151 14.3647L86.2269 13.908L86.8269 13.785L86.7122 12.7925L89.73 12.204L89.5976 12.9243L88.6358 13.2141L88.9358 14.6721L89.783 14.5404L90.0212 15.2343L90.1271 15.9457L88.9711 16.1565L89.8359 22.3048L90.8154 22.217L91.2389 25.8796L91.9096 25.7918L92.1831 27.1181L92.7567 27.1444L92.8626 28.0052L94.698 27.7768L94.8127 28.6903L96.2687 28.4619L96.7805 32.0279L98.3071 31.8962L98.6688 34.2413L96.8687 34.5136L97.107 36.3756L96.6658 36.3932L96.6569 37.3242L96.2422 37.3506L96.251 37.7371L93.895 38.062L93.948 38.6329L92.9685 38.7735L93.2067 40.372L94.6186 40.214L94.7068 40.7936L96.5687 40.5565L96.8511 43.0246L95.5804 43.3847L95.854 44.9393L96.6393 44.913L96.8775 46.2744L100.875 45.642L101.034 46.8102L100.628 46.9244L100.901 48.2419L102.49 48.0047L104.775 49.41L105.772 49.2783L106.311 57.1305L107.166 57.0515L106.408 58.0177L105.181 58.773L101.034 59.6513L99.1453 61.1884L98.5365 63.0329L97.3982 63.0856L96.9481 62.5059L96.1187 62.7343L94.7244 62.0667L93.0302 62.5235L92.8537 63.5599L93.4979 65.8524L92.3949 68.6015L91.8213 69.5501L90.5507 70.7095L90.2859 70.2176L89.88 70.0332L89.5888 70.244L89.1123 70.6744L88.6623 71.8952L88.3711 70.4636L88.6358 69.8839L88.2211 69.4886L86.7475 69.1197L86.8004 68.5927L87.2681 67.9076L88.627 68.1184V67.8462L87.5946 67.6617L87.3299 66.2476L88.0093 65.7206L88.4417 64.895L88.3005 64.5436L88.6535 64.5963L88.9711 66.0983L89.3418 64.8862L90.586 64.3855L91.1948 65.5098L91.1595 65.7469L90.7624 65.6767L90.8066 66.0631L91.3095 66.2476L91.8654 64.9916L91.9272 62.8748L91.2213 62.4356L90.5595 61.4958L90.1448 61.5222L89.8271 61.9701V62.6025L90.3212 63.5599L89.5006 63.7707L89.377 64.1221L88.5211 63.9376L87.8152 63.2876H87.4181L87.1887 62.6816L86.8357 62.6728L85.6268 61.4256L84.7532 61.6452L84.2414 60.8547L84.3032 60.0115L83.8002 58.9311L83.3237 58.8081L83.7826 60.0817L83.3502 61.6276L83.712 62.7255L84.2855 62.5147L84.515 62.8573L83.9414 63.8322L83.809 65.3254L83.2002 65.4747L83.1031 63.1646L82.0795 62.0053L81.3824 59.9851L80.7206 59.4405L80.3323 58.4129L79.4764 57.438L79.0352 57.4643L78.6028 58.6852L77.8969 58.0704L77.5174 58.5095L78.8234 58.8872L79.7235 61.6188L80.5706 62.3829L80.4382 62.9187L79.1323 63.9376L78.8234 63.5599L79.3882 62.1722L78.947 60.9776L78.3999 60.8107L78.0204 62.0404L77.2527 62.2951L77.3763 62.5059L77.9852 62.2161L78.3999 62.585L78.6734 63.1032L78.5587 63.7268L79.2646 64.2099L78.8323 65.0531L78.3999 64.2187L77.9234 63.9288L77.3498 64.6666L76.9262 64.6051L76.8733 63.7004L76.2291 63.1032L75.6115 64.0518L75.6379 64.8598L73.5643 61.1182L72.6907 60.4331L71.9847 60.2486L71.1465 60.5472L70.6876 59.8358L70.3523 60.2925L69.4699 60.4419L67.5992 58.9575L67.3433 59.5284L66.0549 59.5635L65.8697 60.1696L66.5315 61.3553L65.9402 61.4695L65.1372 61.0567L64.6608 60.6614L64.5725 60.1696L64.2548 60.3189L63.5136 59.5986L63.646 60.1168L62.7812 60.2662L63.4254 63.9815L62.8077 64.2011L62.5694 63.5775L61.8106 63.1822L61.237 64.1308H60.7693L60.5046 64.9037L60.0987 65.0091L59.7016 64.7105L59.8516 65.7382L61.2194 66.7307L59.8957 66.4584L59.3133 66.7394L59.1633 67.6705L59.8869 68.6893L59.1016 68.6279L58.1927 67.8813L57.2044 68.2414L57.0985 68.6981L54.4866 65.1936L54.2395 65.097L53.8159 65.4922L53.6483 66.7219L52.8982 66.5989L52.8365 66.028H53.3924L53.6483 64.7896L52.9511 64.2714L52.0599 64.0166L50.9746 64.3065L50.7098 64.4734L50.701 65.4747L50.4186 65.3166L50.551 64.2274L51.2128 63.4018L50.5863 62.4971L51.1599 60.6614L50.4981 61.8208L50.0127 61.6715L50.2598 62.2951L49.8804 63.314L48.2567 64.649L46.8537 64.1308L46.4302 63.3755L45.3801 63.2701L45.0889 63.595L45.3624 64.043L44.9124 64.7017L45.2742 65.1321L44.8506 65.299L43.3858 65.22L42.5122 65.4922L40.1562 65.0179L39.3444 65.2727L37.5266 64.7369L36.7854 64.9916L36.6266 65.3517L34.7912 65.7469L34.0764 65.422L32.6028 65.7557L30.8556 66.5901L30.6968 66.9942L30.9262 67.1699L29.3996 66.8185L20.6726 64.1045L21.3432 64.2274L21.705 63.6829L21.4403 62.7694L21.555 62.5586L21.6874 62.8573L21.9521 62.7518L21.705 62.1107L20.752 61.8296L20.3373 62.2073L20.6902 62.4796L20.3637 62.4444L19.2166 61.2499L18.4401 61.2587L17.2841 60.3979L16.8694 59.2649L16.0576 58.9135L15.6517 59.3L13.7986 58.9838L13.1986 58.3953L12.8721 57.4907L11.5396 57.2008L10.9661 58.3953L8.32769 58.2636L8.01 58.5974L7.86881 57.3589L7.33936 57.2535L7.51586 56.7617L8.31885 56.1293L9.57186 55.6374L12.2368 55.5671L13.4192 55.207L14.681 54.6009L15.1311 53.7929L15.9164 53.749L16.4194 53.3362L15.484 51.114L14.9899 50.587L14.5751 50.4904L13.7986 51.1052L13.1986 51.1316L8.80417 49.4276L9.28068 48.6195L9.98659 48.5844L10.3219 47.8027L10.9308 48.0398L11.6808 47.7412L11.8485 48.075L14.1604 48.9094L15.987 49.006L16.9312 48.6459L18.3783 48.6108L20.6285 49.4276L22.4551 49.5242L24.8993 50.1478L26.6642 49.7877L27.3171 49.1729L27.3966 48.804L26.6994 48.6986L25.5788 48.927L24.8023 49.3486L24.7317 49.6735H24.2022L23.1698 48.9972L23.8316 48.7952L23.7875 48.4878L22.861 48.3121L23.9552 48.2419L23.4257 48.0223L23.2757 47.4689L23.7346 47.0298L23.2492 46.6257L23.664 46.5467L23.6993 45.6859L23.4169 45.3346L21.9521 44.588L18.7225 46.0285L17.6636 43.6658L16.1988 43.5691L14.1163 41.8213L14.2663 41.4085L15.5193 41.3382L15.1752 40.8551L17.1783 40.5301L16.8959 38.6066L16.4988 38.6681L16.34 37.9566L17.7959 37.5965L18.0695 37.8337L19.5784 37.579L19.7461 37.1047L21.1756 36.7885L20.9902 35.2777L22.0845 34.7244L21.352 33.4596L25.0317 35.7872L25.8347 35.7081L25.6141 34.1974L28.5084 33.7231L28.7113 34.7947L30.5556 34.5575L30.3703 33.4596L30.7585 33.3718L30.5203 31.9928L30.8468 31.9489L30.9262 32.4934L31.7468 32.3617L32.1086 33.161L35.2588 32.9326L35.4883 34.6453L37.2707 34.3643L37.5884 34.6541L37.7119 34.1974L38.9032 34.0569L38.9385 33.7319L42.9888 33.0029L42.9093 32.511L42.1505 32.6427L42.0093 31.8874L40.165 32.2036L39.7856 32.0367L39.6974 31.2725L42.3446 30.6753L42.2387 29.9726L43.9594 29.7531L43.827 29.0767L43.0152 29.1646L42.4593 27.3816L43.0593 26.8458L45.2036 28.0228L46.5625 25.906L42.5122 23.4379L41.771 21.4001L42.9976 19.7137L43.2535 18.6071H44.5947L44.6565 18.326L44.9918 19.0199L45.636 19.1253L45.5919 18.73L46.4655 18.1767L46.4831 17.3247L47.4449 17.1842L47.895 17.9483L48.3891 18.0274L48.7862 17.7639L48.3979 17.4213L48.442 16.745L49.898 16.5254L48.6362 15.0938L48.0361 14.6107L47.639 14.6282L47.5861 12.8189L48.5479 12.3885L48.1773 9.95553L45.6889 10.3508L45.5389 10.017L45.4154 7.43473L46.0772 7.22394L46.0507 6.42466L46.5184 6.24019L46.6419 8.89276L48.6097 8.59413L48.2214 4.7734L48.8921 4.41328L48.7509 3.42077L48.6273 3.15726L47.2861 3.96534L47.1802 1.56749Z"/>
</mask>
<path d="M95.8628 70.121L97.1511 69.9366L96.9481 71.0433L95.9422 70.7534L94.6274 69.392L95.2539 69.4974L95.8628 70.121ZM31.3145 67.082L34.297 67.609L37.3501 68.5927L38.8414 68.3029L40.4297 67.3279L41.5063 68.215L42.3534 68.3556L42.724 67.9252L43.7476 68.6542L45.486 68.8035L46.2978 69.2866L45.186 69.6028L40.5798 69.2602L30.9527 67.1347L31.3145 67.082ZM88.274 64.6578L87.7534 65.0179L87.5769 65.6328L86.5533 66.1773L86.6769 67.3718H86.4563L86.1033 65.826L87.2681 64.7017L88.274 64.6578ZM98.9424 64.0693L100.063 71.1311L102.896 78.8253L102.41 79.08L101.731 76.7963L101.069 75.9004L100.54 76.0146L100.266 76.972L99.6748 77.5429L98.9865 77.6395L98.7483 77.0598L99.3659 75.6106L99.7277 73.0107L99.3395 72.5452L99.3218 71.7811L100.301 72.756L99.5424 70.8325L98.9689 70.5953L99.1189 69.6819L98.7747 69.717L98.5012 68.2765L97.9541 67.7056L97.3982 67.7847L96.9217 69.5501L96.2687 68.259L95.4039 67.8022L95.7128 67.0732L95.4657 66.4496L94.3185 65.9929L94.3097 65.5713L95.8187 65.8348L97.0011 65.3956L97.4776 66.6955L97.8041 66.8273L98.3512 66.0456L98.0865 64.0781L98.6865 63.5687L98.9424 64.0693ZM3.43029 59.4757L4.85979 59.2825L5.03629 59.502L4.42742 59.6865L4.33917 59.9939L13.2427 62.1809L5.5569 60.477L2.57435 59.3615L1.00366 58.0704L0.174196 56.6299L0.0594788 54.9786L0.42127 54.2409L0.703648 54.3023L0.659538 56.5069L0.977193 57.6312L1.72725 58.6061L3.43029 59.4757ZM47.1802 1.56749L49.4833 2.11207L51.3893 1.66411L51.4952 2.43704L50.9481 2.99039L50.8422 3.63157L51.6717 3.69305L52.7305 3.05187L52.9511 3.20998L52.8717 4.45719L53.7277 4.93149L53.7806 5.80103L54.9013 5.32675L54.266 4.54503L54.2042 4.00047L58.9427 3.10457L58.678 1.22495L61.6958 0.618896L62.1547 1.7256L62.6136 1.83099L62.5165 2.4019L62.0665 2.56001L62.0488 4.88759L63.3812 4.43963L63.6372 5.69563L72.223 4.32544L73.4319 6.16115L74.2525 6.84624L78.4793 6.00305L81.0294 7.32934L81.5413 7.89145L82.0884 11.0886L82.4854 11.071L83.0766 14.6019L83.4737 14.9269L84.1532 14.233L85.0091 14.1188L85.5121 14.5316L86.3151 14.3647L86.2269 13.908L86.8269 13.785L86.7122 12.7925L89.73 12.204L89.5976 12.9243L88.6358 13.2141L88.9358 14.6721L89.783 14.5404L90.0212 15.2343L90.1271 15.9457L88.9711 16.1565L89.8359 22.3048L90.8154 22.217L91.2389 25.8796L91.9096 25.7918L92.1831 27.1181L92.7567 27.1444L92.8626 28.0052L94.698 27.7768L94.8127 28.6903L96.2687 28.4619L96.7805 32.0279L98.3071 31.8962L98.6688 34.2413L96.8687 34.5136L97.107 36.3756L96.6658 36.3932L96.6569 37.3242L96.2422 37.3506L96.251 37.7371L93.895 38.062L93.948 38.6329L92.9685 38.7735L93.2067 40.372L94.6186 40.214L94.7068 40.7936L96.5687 40.5565L96.8511 43.0246L95.5804 43.3847L95.854 44.9393L96.6393 44.913L96.8775 46.2744L100.875 45.642L101.034 46.8102L100.628 46.9244L100.901 48.2419L102.49 48.0047L104.775 49.41L105.772 49.2783L106.311 57.1305L107.166 57.0515L106.408 58.0177L105.181 58.773L101.034 59.6513L99.1453 61.1884L98.5365 63.0329L97.3982 63.0856L96.9481 62.5059L96.1187 62.7343L94.7244 62.0667L93.0302 62.5235L92.8537 63.5599L93.4979 65.8524L92.3949 68.6015L91.8213 69.5501L90.5507 70.7095L90.2859 70.2176L89.88 70.0332L89.5888 70.244L89.1123 70.6744L88.6623 71.8952L88.3711 70.4636L88.6358 69.8839L88.2211 69.4886L86.7475 69.1197L86.8004 68.5927L87.2681 67.9076L88.627 68.1184V67.8462L87.5946 67.6617L87.3299 66.2476L88.0093 65.7206L88.4417 64.895L88.3005 64.5436L88.6535 64.5963L88.9711 66.0983L89.3418 64.8862L90.586 64.3855L91.1948 65.5098L91.1595 65.7469L90.7624 65.6767L90.8066 66.0631L91.3095 66.2476L91.8654 64.9916L91.9272 62.8748L91.2213 62.4356L90.5595 61.4958L90.1448 61.5222L89.8271 61.9701V62.6025L90.3212 63.5599L89.5006 63.7707L89.377 64.1221L88.5211 63.9376L87.8152 63.2876H87.4181L87.1887 62.6816L86.8357 62.6728L85.6268 61.4256L84.7532 61.6452L84.2414 60.8547L84.3032 60.0115L83.8002 58.9311L83.3237 58.8081L83.7826 60.0817L83.3502 61.6276L83.712 62.7255L84.2855 62.5147L84.515 62.8573L83.9414 63.8322L83.809 65.3254L83.2002 65.4747L83.1031 63.1646L82.0795 62.0053L81.3824 59.9851L80.7206 59.4405L80.3323 58.4129L79.4764 57.438L79.0352 57.4643L78.6028 58.6852L77.8969 58.0704L77.5174 58.5095L78.8234 58.8872L79.7235 61.6188L80.5706 62.3829L80.4382 62.9187L79.1323 63.9376L78.8234 63.5599L79.3882 62.1722L78.947 60.9776L78.3999 60.8107L78.0204 62.0404L77.2527 62.2951L77.3763 62.5059L77.9852 62.2161L78.3999 62.585L78.6734 63.1032L78.5587 63.7268L79.2646 64.2099L78.8323 65.0531L78.3999 64.2187L77.9234 63.9288L77.3498 64.6666L76.9262 64.6051L76.8733 63.7004L76.2291 63.1032L75.6115 64.0518L75.6379 64.8598L73.5643 61.1182L72.6907 60.4331L71.9847 60.2486L71.1465 60.5472L70.6876 59.8358L70.3523 60.2925L69.4699 60.4419L67.5992 58.9575L67.3433 59.5284L66.0549 59.5635L65.8697 60.1696L66.5315 61.3553L65.9402 61.4695L65.1372 61.0567L64.6608 60.6614L64.5725 60.1696L64.2548 60.3189L63.5136 59.5986L63.646 60.1168L62.7812 60.2662L63.4254 63.9815L62.8077 64.2011L62.5694 63.5775L61.8106 63.1822L61.237 64.1308H60.7693L60.5046 64.9037L60.0987 65.0091L59.7016 64.7105L59.8516 65.7382L61.2194 66.7307L59.8957 66.4584L59.3133 66.7394L59.1633 67.6705L59.8869 68.6893L59.1016 68.6279L58.1927 67.8813L57.2044 68.2414L57.0985 68.6981L54.4866 65.1936L54.2395 65.097L53.8159 65.4922L53.6483 66.7219L52.8982 66.5989L52.8365 66.028H53.3924L53.6483 64.7896L52.9511 64.2714L52.0599 64.0166L50.9746 64.3065L50.7098 64.4734L50.701 65.4747L50.4186 65.3166L50.551 64.2274L51.2128 63.4018L50.5863 62.4971L51.1599 60.6614L50.4981 61.8208L50.0127 61.6715L50.2598 62.2951L49.8804 63.314L48.2567 64.649L46.8537 64.1308L46.4302 63.3755L45.3801 63.2701L45.0889 63.595L45.3624 64.043L44.9124 64.7017L45.2742 65.1321L44.8506 65.299L43.3858 65.22L42.5122 65.4922L40.1562 65.0179L39.3444 65.2727L37.5266 64.7369L36.7854 64.9916L36.6266 65.3517L34.7912 65.7469L34.0764 65.422L32.6028 65.7557L30.8556 66.5901L30.6968 66.9942L30.9262 67.1699L29.3996 66.8185L20.6726 64.1045L21.3432 64.2274L21.705 63.6829L21.4403 62.7694L21.555 62.5586L21.6874 62.8573L21.9521 62.7518L21.705 62.1107L20.752 61.8296L20.3373 62.2073L20.6902 62.4796L20.3637 62.4444L19.2166 61.2499L18.4401 61.2587L17.2841 60.3979L16.8694 59.2649L16.0576 58.9135L15.6517 59.3L13.7986 58.9838L13.1986 58.3953L12.8721 57.4907L11.5396 57.2008L10.9661 58.3953L8.32769 58.2636L8.01 58.5974L7.86881 57.3589L7.33936 57.2535L7.51586 56.7617L8.31885 56.1293L9.57186 55.6374L12.2368 55.5671L13.4192 55.207L14.681 54.6009L15.1311 53.7929L15.9164 53.749L16.4194 53.3362L15.484 51.114L14.9899 50.587L14.5751 50.4904L13.7986 51.1052L13.1986 51.1316L8.80417 49.4276L9.28068 48.6195L9.98659 48.5844L10.3219 47.8027L10.9308 48.0398L11.6808 47.7412L11.8485 48.075L14.1604 48.9094L15.987 49.006L16.9312 48.6459L18.3783 48.6108L20.6285 49.4276L22.4551 49.5242L24.8993 50.1478L26.6642 49.7877L27.3171 49.1729L27.3966 48.804L26.6994 48.6986L25.5788 48.927L24.8023 49.3486L24.7317 49.6735H24.2022L23.1698 48.9972L23.8316 48.7952L23.7875 48.4878L22.861 48.3121L23.9552 48.2419L23.4257 48.0223L23.2757 47.4689L23.7346 47.0298L23.2492 46.6257L23.664 46.5467L23.6993 45.6859L23.4169 45.3346L21.9521 44.588L18.7225 46.0285L17.6636 43.6658L16.1988 43.5691L14.1163 41.8213L14.2663 41.4085L15.5193 41.3382L15.1752 40.8551L17.1783 40.5301L16.8959 38.6066L16.4988 38.6681L16.34 37.9566L17.7959 37.5965L18.0695 37.8337L19.5784 37.579L19.7461 37.1047L21.1756 36.7885L20.9902 35.2777L22.0845 34.7244L21.352 33.4596L25.0317 35.7872L25.8347 35.7081L25.6141 34.1974L28.5084 33.7231L28.7113 34.7947L30.5556 34.5575L30.3703 33.4596L30.7585 33.3718L30.5203 31.9928L30.8468 31.9489L30.9262 32.4934L31.7468 32.3617L32.1086 33.161L35.2588 32.9326L35.4883 34.6453L37.2707 34.3643L37.5884 34.6541L37.7119 34.1974L38.9032 34.0569L38.9385 33.7319L42.9888 33.0029L42.9093 32.511L42.1505 32.6427L42.0093 31.8874L40.165 32.2036L39.7856 32.0367L39.6974 31.2725L42.3446 30.6753L42.2387 29.9726L43.9594 29.7531L43.827 29.0767L43.0152 29.1646L42.4593 27.3816L43.0593 26.8458L45.2036 28.0228L46.5625 25.906L42.5122 23.4379L41.771 21.4001L42.9976 19.7137L43.2535 18.6071H44.5947L44.6565 18.326L44.9918 19.0199L45.636 19.1253L45.5919 18.73L46.4655 18.1767L46.4831 17.3247L47.4449 17.1842L47.895 17.9483L48.3891 18.0274L48.7862 17.7639L48.3979 17.4213L48.442 16.745L49.898 16.5254L48.6362 15.0938L48.0361 14.6107L47.639 14.6282L47.5861 12.8189L48.5479 12.3885L48.1773 9.95553L45.6889 10.3508L45.5389 10.017L45.4154 7.43473L46.0772 7.22394L46.0507 6.42466L46.5184 6.24019L46.6419 8.89276L48.6097 8.59413L48.2214 4.7734L48.8921 4.41328L48.7509 3.42077L48.6273 3.15726L47.2861 3.96534L47.1802 1.56749Z" fill="#7360F2" stroke="white" stroke-width="0.4" mask="url(#path-1-inside-1_902_2301)"/>
<path d="M39 31.2858C42.0771 31.2858 44.5714 33.7801 44.5714 36.8572C44.5714 39.2115 42.9171 41.7772 39.6514 44.5818C39.4698 44.7378 39.2383 44.8234 38.9989 44.8232C38.7595 44.823 38.5282 44.7369 38.3468 44.5806L38.1308 44.3932C35.0097 41.6618 33.4286 39.1589 33.4286 36.8572C33.4286 33.7801 35.9228 31.2858 39 31.2858ZM39 34.7143C38.4317 34.7143 37.8866 34.9401 37.4848 35.342C37.0829 35.7438 36.8571 36.2889 36.8571 36.8572C36.8571 37.4255 37.0829 37.9706 37.4848 38.3724C37.8866 38.7743 38.4317 39.0001 39 39.0001C39.5683 39.0001 40.1134 38.7743 40.5152 38.3724C40.9171 37.9706 41.1428 37.4255 41.1428 36.8572C41.1428 36.2889 40.9171 35.7438 40.5152 35.342C40.1134 34.9401 39.5683 34.7143 39 34.7143Z" fill="#FBE75E"/>
</svg>
