<svg width="126" height="78" viewBox="0 0 126 78" fill="none" xmlns="http://www.w3.org/2000/svg">
<mask id="path-1-inside-1_902_2302" fill="white">
<path d="M125.228 35.899L125.29 36.1538L124.822 36.426L124.16 37.5678L122.413 37.603L120.948 36.9091L120.278 37.278L120.084 38.2178L121.169 38.9292L120.666 39.4475L119.395 39.8076L118.778 40.3785L119.034 41.3973L119.219 40.7122L119.395 41.2041L118.328 43.4527L118.892 46.7112L119.907 48.3976L117.428 50.0489L114.03 50.3212L112.918 51.3576L107.033 50.3914L105.991 50.5759L105.48 51.2698L104.694 51.6738L103.3 51.4191L101.244 52.2798L100.988 51.6738L100.379 51.3313L100.388 50.5671L99.2852 49.3638L96.7791 47.7213L93.6201 46.7464L91.0699 47.2822L89.3051 48.2571L87.6991 50.0489L87.7609 51.1204L88.8374 51.6562L86.8432 52.6751L86.7108 53.2109L87.0373 53.7379L87.7785 54.1067L87.6197 54.3527L85.7313 53.4743L83.9224 53.6676L83.5518 54.1331L83.6753 54.8094L83.2429 55.6438L81.8399 55.9864L80.931 56.5397L80.2163 58.1295L80.0398 59.5875L78.6191 60.8787L77.622 60.5273L77.6749 59.9301L77.1014 59.3416L76.219 59.1132L75.8748 59.3504L75.1777 58.8936L73.7482 59.3152L73.7394 59.6754L73.0511 59.8949L72.3628 59.6578L68.1184 60.0794L66.3536 61.0807L64.5182 61.6604L59.9738 64.3041L58.7031 65.8851L57.3707 69.293L56.7354 69.618L56.6824 71.0585L55.447 70.8565L54.5734 71.401L53.7704 72.8327L51.3085 73.3421L50.1084 76.0562L48.1142 76.4163L47.3112 77.0487L45.8994 77.1453L45.414 77.5054L42.6874 77.0048L42.7227 76.2845L43.0227 75.9947H43.6669L44.0904 75.2217L41.8314 71.5415L41.4873 69.5214L38.9724 68.2742L38.7165 67.7999L38.7607 66.2628L39.7842 65.6568L39.9078 65.3142L39.696 64.348L38.2047 63.461L36.0693 64.2953L35.3104 63.5839L35.2222 62.9252L35.6016 62.5036L36.4576 62.6265L37.0488 62.3279L36.7576 61.0192L36.2899 60.6064L34.3662 60.5361L33.5986 60.0618L32.8397 60.1672L32.972 58.9288L33.5368 58.9903L34.1456 58.6302L34.5427 57.7342L34.7368 55.9952L34.3486 53.2284L34.481 52.3413L33.2544 48.6435L31.8073 46.5883L29.8836 44.8228L27.9952 43.9269L26.8834 44.8755L25.5245 44.937L24.8627 46.0174L24.1744 45.9998L23.239 44.9019L21.9596 44.4715L20.883 43.681L18.3328 40.5893L16.0298 38.4989L13.6472 36.9969L12.1295 36.6983L9.18225 36.8388L6.00557 38.9907L1.31998 37.6205L1.8759 37.0145L1.9112 36.4436L0.887604 35.5301L2.74067 33.0445L4.11723 31.9378L6.49091 30.5237L7.29391 30.2865L7.69098 30.471L7.8057 29.9088L10.1529 28.5035L10.5853 28.8724L11.0088 28.644L11.2206 28.8724L11.7854 27.915L11.6089 27.5901L11.0353 27.6076L11.1236 27.3705L13.762 25.1922L19.2859 22.1181L20.5565 21.9073L21.0418 20.9762L21.6419 18.2095L21.4213 18.9561L21.7919 19.606L22.8684 20.4229L23.5567 20.5371L26.8658 19.1142L29.063 16.9886L29.7689 17.4366L29.9718 17.0325L30.5013 16.8832V16.365L30.8631 16.1454L31.1543 16.1191L31.3396 16.7339L32.1955 16.4177L32.3897 16.9623L32.6279 16.9535L33.3338 15.5306L33.7044 15.5921L34.7368 14.6171L35.4516 15.3462L35.9987 15.4603L36.8017 16.6724L36.7135 13.9057L37.1723 13.9321L38.0989 13.0713L38.9813 13.247L39.1136 13.001L38.6812 12.0437L36.1752 11.8768L35.4781 12.149L35.4252 12.4301L34.8428 12.2281L35.2663 11.5254L34.7633 7.68715L35.6016 6.39601L34.7898 4.18261L35.4075 3.96303L34.7633 0.238927L35.6369 0.0895996L36.8899 1.31928L37.3576 1.43344L37.64 2.77731L37.9577 2.47865L38.24 2.59284L38.1253 3.35698L38.4783 3.84008L39.0695 4.05966L39.396 3.76979L40.1019 4.7711L40.296 4.84135L41.2138 3.5151L40.7108 3.32187L40.5078 2.37326L41.0196 2.03072L41.6197 2.46989L42.2462 3.41847V3.92791L41.4696 4.8765L41.6814 5.25417L41.0284 5.02582L40.9579 5.45619L41.8314 5.54403L42.9168 6.44871L43.3492 7.9682L43.2257 8.22292L42.8639 8.02969L42.7491 8.74992L43.0403 8.36346L43.4286 8.74992L43.5874 8.60939L43.5609 7.48513L43.9404 7.04597L44.3904 6.87029L44.6552 7.07231L44.3728 7.19529L44.461 7.63446L44.814 8.53034L45.0787 8.58304L45.3434 8.42495L44.7081 7.52904L46.2964 7.25676L45.8905 6.83518L45.2199 7.06352L44.3022 6.42236L44.664 5.90415L46.9494 5.57038L48.3172 6.73855L48.7495 6.74734L49.0672 7.99455L50.1967 8.37225L51.3262 9.71609L51.8821 9.88297L50.5496 11.2619L50.3114 11.2356L50.179 10.6647L49.3496 10.7262L49.9584 11.9383L50.9203 11.9822L50.8144 12.5619L52.1292 12.193L52.385 11.8329L52.7557 12.1842L52.8792 11.8943L52.491 11.622L52.2262 9.82148L51.7056 9.42623L51.8909 8.94316L51.2644 8.78506L51.5556 9.23299L51.2291 9.32962L50.329 8.00334L49.7908 7.63446L49.429 7.83645L49.6496 6.98448L50.6555 7.78376L51.2379 7.48513L52.3939 8.04727L52.7557 7.93308L53.5057 8.57425L53.4969 9.11004L53.0734 9.23299L53.5146 10.1816L53.6999 9.99713L53.4263 9.29448L54.3881 7.7662L54.8205 8.13508L54.4852 9.05734L54.7235 9.78634L55.8882 10.0938L55.9235 10.4363L56.3736 9.99713L56.153 9.59311L56.3383 9.25934L55.6411 9.04855L55.6853 8.76748L56.453 8.69723L56.9118 8.32832L57.9442 9.64581L58.5002 11.1917L60.8915 13.124L60.5562 14.3537L60.8209 15.3286L61.668 14.8631L62.3122 13.2206L63.3093 13.7828L63.7593 13.4929L62.8946 11.2971L63.2917 10.7876L62.9299 10.4363L65.4271 12.0437L65.7448 12.6409L65.1006 14.7401L62.8857 15.7853L62.8769 16.6724L61.7386 17.6649L61.6151 18.2095L60.1238 18.2973L60.5032 19.1493L62.6828 18.6926L64.5359 16.6549L66.0007 15.5394L68.1979 14.8367L68.8508 14.3361L69.3185 15.1529L68.992 15.7063L68.2684 15.1178L66.4683 16.084L65.9918 18.4642L68.8156 17.4805L68.9302 18.3325L69.2656 18.2446L69.7244 18.7541L69.1244 19.6412L68.692 19.8169L68.5773 20.5283L67.4655 20.6776L66.4154 21.8194L66.936 21.9863L67.086 22.443L68.7096 21.714L69.1332 21.8019L69.848 21.2661L72.5481 20.5283L70.8627 21.8897L71.3039 22.0214L71.2775 22.9437L72.4864 22.1532L72.9629 22.768L72.5923 22.9876L72.5834 23.4795L73.0864 23.9538L73.6776 23.5322L75.1866 23.2511L75.0277 24.147L75.6366 24.8145L76.9514 25.2186L78.7515 28.6704L79.4574 31.7709L78.7338 32.6492L77.4543 33.1323L77.0131 33.7559L77.8955 35.8639L78.7956 37.1287L80.2692 38.1739L80.7281 38.13L81.0634 37.7259L81.9811 37.8753L84.3636 39.4123L86.6579 40.317L86.9844 40.7474L86.0931 41.5555L86.8079 42.0561L86.7726 42.548L87.3462 41.494L89.5787 41.0109L89.8698 41.2832L89.9757 39.7637L88.5904 39.5968L87.6462 37.9368L86.5079 37.2341L85.7313 35.7146L85.2637 35.8639L82.8282 31.7445L81.4958 29.9352L80.6575 29.2676L78.4603 25.9915L77.8691 25.5962L77.1984 24.0767L76.6866 23.5058H76.316L75.2307 20.2384L74.4012 19.0791L74.8953 18.8243L78.2044 25.2361L85.2548 34.9504L88.255 38.2002L89.914 39.4387L91.6523 40.2819L94.2731 39.0171L97.6439 38.1651L97.8557 37.4537L98.8087 36.549L98.8704 36.145L98.5086 35.6882L100.706 33.8964L100.635 32.781L101.518 32.2627L102.215 32.5702L101.403 33.3343L102.065 34.5201L103.768 36.0132L105.25 36.6368L106.662 36.5226L107.686 35.8024L108.224 35.0471L108.153 33.6944L108.559 33.3167L110.809 32.4823L114.542 31.9466L115.574 32.4033L116.21 32.1573L117.083 32.4823L118.319 33.4046L119.501 32.9654L120.26 33.0181L121.795 34.2214L122.563 34.4059L122.969 34.2214L123.154 33.6944L123.807 33.7735L124.337 34.4849L124.213 35.0998L125.228 35.899Z"/>
</mask>
<path d="M125.228 35.899L125.29 36.1538L124.822 36.426L124.16 37.5678L122.413 37.603L120.948 36.9091L120.278 37.278L120.084 38.2178L121.169 38.9292L120.666 39.4475L119.395 39.8076L118.778 40.3785L119.034 41.3973L119.219 40.7122L119.395 41.2041L118.328 43.4527L118.892 46.7112L119.907 48.3976L117.428 50.0489L114.03 50.3212L112.918 51.3576L107.033 50.3914L105.991 50.5759L105.48 51.2698L104.694 51.6738L103.3 51.4191L101.244 52.2798L100.988 51.6738L100.379 51.3313L100.388 50.5671L99.2852 49.3638L96.7791 47.7213L93.6201 46.7464L91.0699 47.2822L89.3051 48.2571L87.6991 50.0489L87.7609 51.1204L88.8374 51.6562L86.8432 52.6751L86.7108 53.2109L87.0373 53.7379L87.7785 54.1067L87.6197 54.3527L85.7313 53.4743L83.9224 53.6676L83.5518 54.1331L83.6753 54.8094L83.2429 55.6438L81.8399 55.9864L80.931 56.5397L80.2163 58.1295L80.0398 59.5875L78.6191 60.8787L77.622 60.5273L77.6749 59.9301L77.1014 59.3416L76.219 59.1132L75.8748 59.3504L75.1777 58.8936L73.7482 59.3152L73.7394 59.6754L73.0511 59.8949L72.3628 59.6578L68.1184 60.0794L66.3536 61.0807L64.5182 61.6604L59.9738 64.3041L58.7031 65.8851L57.3707 69.293L56.7354 69.618L56.6824 71.0585L55.447 70.8565L54.5734 71.401L53.7704 72.8327L51.3085 73.3421L50.1084 76.0562L48.1142 76.4163L47.3112 77.0487L45.8994 77.1453L45.414 77.5054L42.6874 77.0048L42.7227 76.2845L43.0227 75.9947H43.6669L44.0904 75.2217L41.8314 71.5415L41.4873 69.5214L38.9724 68.2742L38.7165 67.7999L38.7607 66.2628L39.7842 65.6568L39.9078 65.3142L39.696 64.348L38.2047 63.461L36.0693 64.2953L35.3104 63.5839L35.2222 62.9252L35.6016 62.5036L36.4576 62.6265L37.0488 62.3279L36.7576 61.0192L36.2899 60.6064L34.3662 60.5361L33.5986 60.0618L32.8397 60.1672L32.972 58.9288L33.5368 58.9903L34.1456 58.6302L34.5427 57.7342L34.7368 55.9952L34.3486 53.2284L34.481 52.3413L33.2544 48.6435L31.8073 46.5883L29.8836 44.8228L27.9952 43.9269L26.8834 44.8755L25.5245 44.937L24.8627 46.0174L24.1744 45.9998L23.239 44.9019L21.9596 44.4715L20.883 43.681L18.3328 40.5893L16.0298 38.4989L13.6472 36.9969L12.1295 36.6983L9.18225 36.8388L6.00557 38.9907L1.31998 37.6205L1.8759 37.0145L1.9112 36.4436L0.887604 35.5301L2.74067 33.0445L4.11723 31.9378L6.49091 30.5237L7.29391 30.2865L7.69098 30.471L7.8057 29.9088L10.1529 28.5035L10.5853 28.8724L11.0088 28.644L11.2206 28.8724L11.7854 27.915L11.6089 27.5901L11.0353 27.6076L11.1236 27.3705L13.762 25.1922L19.2859 22.1181L20.5565 21.9073L21.0418 20.9762L21.6419 18.2095L21.4213 18.9561L21.7919 19.606L22.8684 20.4229L23.5567 20.5371L26.8658 19.1142L29.063 16.9886L29.7689 17.4366L29.9718 17.0325L30.5013 16.8832V16.365L30.8631 16.1454L31.1543 16.1191L31.3396 16.7339L32.1955 16.4177L32.3897 16.9623L32.6279 16.9535L33.3338 15.5306L33.7044 15.5921L34.7368 14.6171L35.4516 15.3462L35.9987 15.4603L36.8017 16.6724L36.7135 13.9057L37.1723 13.9321L38.0989 13.0713L38.9813 13.247L39.1136 13.001L38.6812 12.0437L36.1752 11.8768L35.4781 12.149L35.4252 12.4301L34.8428 12.2281L35.2663 11.5254L34.7633 7.68715L35.6016 6.39601L34.7898 4.18261L35.4075 3.96303L34.7633 0.238927L35.6369 0.0895996L36.8899 1.31928L37.3576 1.43344L37.64 2.77731L37.9577 2.47865L38.24 2.59284L38.1253 3.35698L38.4783 3.84008L39.0695 4.05966L39.396 3.76979L40.1019 4.7711L40.296 4.84135L41.2138 3.5151L40.7108 3.32187L40.5078 2.37326L41.0196 2.03072L41.6197 2.46989L42.2462 3.41847V3.92791L41.4696 4.8765L41.6814 5.25417L41.0284 5.02582L40.9579 5.45619L41.8314 5.54403L42.9168 6.44871L43.3492 7.9682L43.2257 8.22292L42.8639 8.02969L42.7491 8.74992L43.0403 8.36346L43.4286 8.74992L43.5874 8.60939L43.5609 7.48513L43.9404 7.04597L44.3904 6.87029L44.6552 7.07231L44.3728 7.19529L44.461 7.63446L44.814 8.53034L45.0787 8.58304L45.3434 8.42495L44.7081 7.52904L46.2964 7.25676L45.8905 6.83518L45.2199 7.06352L44.3022 6.42236L44.664 5.90415L46.9494 5.57038L48.3172 6.73855L48.7495 6.74734L49.0672 7.99455L50.1967 8.37225L51.3262 9.71609L51.8821 9.88297L50.5496 11.2619L50.3114 11.2356L50.179 10.6647L49.3496 10.7262L49.9584 11.9383L50.9203 11.9822L50.8144 12.5619L52.1292 12.193L52.385 11.8329L52.7557 12.1842L52.8792 11.8943L52.491 11.622L52.2262 9.82148L51.7056 9.42623L51.8909 8.94316L51.2644 8.78506L51.5556 9.23299L51.2291 9.32962L50.329 8.00334L49.7908 7.63446L49.429 7.83645L49.6496 6.98448L50.6555 7.78376L51.2379 7.48513L52.3939 8.04727L52.7557 7.93308L53.5057 8.57425L53.4969 9.11004L53.0734 9.23299L53.5146 10.1816L53.6999 9.99713L53.4263 9.29448L54.3881 7.7662L54.8205 8.13508L54.4852 9.05734L54.7235 9.78634L55.8882 10.0938L55.9235 10.4363L56.3736 9.99713L56.153 9.59311L56.3383 9.25934L55.6411 9.04855L55.6853 8.76748L56.453 8.69723L56.9118 8.32832L57.9442 9.64581L58.5002 11.1917L60.8915 13.124L60.5562 14.3537L60.8209 15.3286L61.668 14.8631L62.3122 13.2206L63.3093 13.7828L63.7593 13.4929L62.8946 11.2971L63.2917 10.7876L62.9299 10.4363L65.4271 12.0437L65.7448 12.6409L65.1006 14.7401L62.8857 15.7853L62.8769 16.6724L61.7386 17.6649L61.6151 18.2095L60.1238 18.2973L60.5032 19.1493L62.6828 18.6926L64.5359 16.6549L66.0007 15.5394L68.1979 14.8367L68.8508 14.3361L69.3185 15.1529L68.992 15.7063L68.2684 15.1178L66.4683 16.084L65.9918 18.4642L68.8156 17.4805L68.9302 18.3325L69.2656 18.2446L69.7244 18.7541L69.1244 19.6412L68.692 19.8169L68.5773 20.5283L67.4655 20.6776L66.4154 21.8194L66.936 21.9863L67.086 22.443L68.7096 21.714L69.1332 21.8019L69.848 21.2661L72.5481 20.5283L70.8627 21.8897L71.3039 22.0214L71.2775 22.9437L72.4864 22.1532L72.9629 22.768L72.5923 22.9876L72.5834 23.4795L73.0864 23.9538L73.6776 23.5322L75.1866 23.2511L75.0277 24.147L75.6366 24.8145L76.9514 25.2186L78.7515 28.6704L79.4574 31.7709L78.7338 32.6492L77.4543 33.1323L77.0131 33.7559L77.8955 35.8639L78.7956 37.1287L80.2692 38.1739L80.7281 38.13L81.0634 37.7259L81.9811 37.8753L84.3636 39.4123L86.6579 40.317L86.9844 40.7474L86.0931 41.5555L86.8079 42.0561L86.7726 42.548L87.3462 41.494L89.5787 41.0109L89.8698 41.2832L89.9757 39.7637L88.5904 39.5968L87.6462 37.9368L86.5079 37.2341L85.7313 35.7146L85.2637 35.8639L82.8282 31.7445L81.4958 29.9352L80.6575 29.2676L78.4603 25.9915L77.8691 25.5962L77.1984 24.0767L76.6866 23.5058H76.316L75.2307 20.2384L74.4012 19.0791L74.8953 18.8243L78.2044 25.2361L85.2548 34.9504L88.255 38.2002L89.914 39.4387L91.6523 40.2819L94.2731 39.0171L97.6439 38.1651L97.8557 37.4537L98.8087 36.549L98.8704 36.145L98.5086 35.6882L100.706 33.8964L100.635 32.781L101.518 32.2627L102.215 32.5702L101.403 33.3343L102.065 34.5201L103.768 36.0132L105.25 36.6368L106.662 36.5226L107.686 35.8024L108.224 35.0471L108.153 33.6944L108.559 33.3167L110.809 32.4823L114.542 31.9466L115.574 32.4033L116.21 32.1573L117.083 32.4823L118.319 33.4046L119.501 32.9654L120.26 33.0181L121.795 34.2214L122.563 34.4059L122.969 34.2214L123.154 33.6944L123.807 33.7735L124.337 34.4849L124.213 35.0998L125.228 35.899Z" fill="#7360F2" stroke="white" stroke-width="0.4" mask="url(#path-1-inside-1_902_2302)"/>
<path d="M50 40.2858C53.0772 40.2858 55.5715 42.7801 55.5715 45.8572C55.5715 48.2115 53.9172 50.7772 50.6515 53.5818C50.4699 53.7378 50.2384 53.8234 49.999 53.8232C49.7596 53.823 49.5282 53.7369 49.3469 53.5806L49.1309 53.3932C46.0098 50.6618 44.4286 48.1589 44.4286 45.8572C44.4286 42.7801 46.9229 40.2858 50 40.2858ZM50 43.7143C49.4317 43.7143 48.8867 43.9401 48.4848 44.342C48.083 44.7438 47.8572 45.2889 47.8572 45.8572C47.8572 46.4255 48.083 46.9706 48.4848 47.3724C48.8867 47.7743 49.4317 48.0001 50 48.0001C50.5684 48.0001 51.1134 47.7743 51.5153 47.3724C51.9171 46.9706 52.1429 46.4255 52.1429 45.8572C52.1429 45.2889 51.9171 44.7438 51.5153 44.342C51.1134 43.9401 50.5684 43.7143 50 43.7143Z" fill="#FBE75E"/>
<path d="M28.2863 70.2993L27.8696 69.6995L28.277 69.4912L28.284 70.0941L28.2863 70.2993ZM28.4478 70.5317L28.2888 70.3028L28.4481 70.1696L28.5202 70.1094L28.5313 70.2501L28.7286 70.2643L28.8912 69.5456L29.2494 70.194L29.4331 70.1182L29.1509 69.1266L29.4182 68.9025L31.7016 68.3667L34.0431 68.5063L34.1004 68.3207L33.2357 67.8025L33.2195 67.7928L33.201 67.7897L31.9425 67.576L32.4118 67.2502L32.4397 67.2308L32.4501 67.1984L32.856 65.9249L32.8618 65.9067L32.8605 65.8876L32.5185 60.9036L32.9015 60.2602L33.5771 60.1664L34.3141 60.6218L34.3366 60.6357L34.363 60.6366L36.251 60.7056L36.6675 61.0732L36.9347 62.2743L36.441 62.5236L35.6163 62.4052L35.5634 62.3976L35.5277 62.4373L35.1483 62.8588L35.1174 62.8932L35.1235 62.939L35.2118 63.5978L35.2165 63.6331L35.2425 63.6574L36.0013 64.3689L36.0474 64.412L36.1061 64.3891L38.1961 63.5725L39.6081 64.4124L39.8044 65.308L39.7028 65.5896L38.7102 66.1774L38.6627 66.2054L38.6612 66.2605L38.617 67.7976L38.6162 67.8244L38.629 67.848L38.8849 68.3222L38.9 68.3502L38.9284 68.3643L41.3977 69.589L41.7333 71.5589L41.7365 71.578L41.7467 71.5944L43.9753 75.2252L43.6081 75.8953H43.0231H42.9827L42.9537 75.9233L42.6536 76.2132L42.6252 76.2407L42.6232 76.2802L42.5927 76.9039L41.498 76.8878L41.479 76.8875L41.4612 76.8942L39.7109 77.5563L38.4782 77.6226L37.5743 76.2306L37.5412 76.1797L37.4808 76.1856L36.3318 76.2965L35.9102 76.0371L35.4787 74.2503L35.4735 74.2288L35.4597 74.2114L34.8861 73.4912L34.8717 73.4731L34.8508 73.4632L34.4625 73.2787L34.4363 73.2663L34.4074 73.2698L33.0133 73.4422L31.5467 72.8203L31.5051 72.8026L31.4643 72.8222L31.0109 73.0404L30.0979 71.7565L30.0887 71.7435L30.0758 71.734L28.4478 70.5317Z" fill="#7360F2" stroke="white" stroke-width="0.2"/>
</svg>
