<svg width="88" height="111" viewBox="0 0 88 111" fill="none" xmlns="http://www.w3.org/2000/svg">
<path d="M45.0637 49.0167L45.0555 49.0323L45.0531 49.0499L44.8854 50.2883L44.8798 50.3296L44.9052 50.3626L45.2287 50.7836V51.5489V51.5935L45.2618 51.6233L46.7069 52.9239L46.8664 54.4366L45.7136 55.9835L44.0834 56.7402L42.7619 55.8916L42.7318 55.8722L42.6961 55.8764L41.9549 55.9642L41.9143 55.969L41.8887 56.0009L41.6064 56.3522L41.5873 56.3759L41.5847 56.4063L41.47 57.7325L41.4652 57.7872L41.5088 57.8205L41.8189 58.058L41.9255 59.0456L41.4831 59.8077L41.4696 59.831V59.8579V60.745V60.757L41.4724 60.7687L41.8041 62.1313L41.0915 62.9194L40.2771 62.6046L39.4452 61.3156L38.7731 59.3954L38.4832 57.2011L38.4706 57.1053L38.3745 57.1146L37.5093 57.1982L36.7478 56.5161L36.7263 56.4968L36.6979 56.492L36.2451 56.4143L35.5228 54.2576L35.5 54.1893H35.428H34.5536L34.1589 53.8812L33.7696 52.1419L33.7547 52.0753L33.6873 52.0649L32.549 51.8893L32.5262 51.8858L32.5042 51.8925L31.3659 52.2439L31.353 52.2479L31.3416 52.2551L30.7769 52.6152L30.7487 52.6332L30.737 52.6646L30.5284 53.2236L30.0466 53.2912L29.851 52.6171L30.8087 50.2514L30.816 50.2334V50.2139V49.3557L31.2442 48.6787L32.106 47.8375L32.8474 48.0015L32.9204 48.0177L32.9566 47.9522L33.2478 47.4253L33.2714 47.3825L33.2521 47.3375L33.0227 46.8017L33.0111 46.7746L32.9865 46.7581L31.8325 45.9838L31.7857 45.6445L31.9921 45.5161L34.3468 45.3432L36.4018 45.6869L39.0524 48.5081L39.107 48.5662L39.1758 48.526L40.5201 47.7404H43.052H43.0869L43.1142 47.7187L43.6789 47.2708L43.6964 47.257L43.7063 47.2371L44.2618 46.1227L45.2152 45.7873L46.8092 46.3048L47.2759 46.7934V47.9364L46.7866 48.2436L46.2028 48.0799L46.1667 48.0698L46.1329 48.0858L45.3917 48.4371L45.3616 48.4514L45.3461 48.4809L45.0637 49.0167Z" fill="#7360F2" stroke="white" stroke-width="0.2"/>
<mask id="path-2-inside-1_903_2310" fill="white">
<path d="M37.9689 12.6916L36.3718 13.0517L36.6365 11.4707L34.8717 11.339L32.7804 9.23975L32.5509 8.85329L33.4775 8.05401L32.9833 6.14804L33.2921 5.95481L32.7804 5.83184L31.4567 4.08397L30.1861 3.03876L28.8536 2.58203L28.0153 1.78275L27.6447 2.83674L26.5947 1.9672L26.4005 2.06381L26.6035 2.75769L26.3564 2.89823L23.2856 2.11652L23.1444 2.8104L22.5179 3.20564L22.112 3.07389L21.7855 3.70629L20.6472 2.82796L19.6854 3.07389L19.3324 3.40766L19.5265 3.67116L19.1559 4.92716L18.097 4.37382L17.2852 4.72515L16.9587 4.25085L16.6146 4.36504V5.10283L15.1675 4.34747L14.638 2.85431L15.1851 2.60838L15.1322 1.61587L14.9115 0.913208L14.2939 0.92199L14.0821 1.32602L13.0144 1.80032L12.882 2.20435L12.529 2.06381L12.1055 2.37123L11.8143 2.10773L11.4878 2.6523L11.0731 2.74013L11.0554 3.52184L10.3318 4.10154L9.03469 3.26713L8.37289 4.84811L8.4523 5.95481L7.89638 7.14055L5.20504 6.49937L4.3491 6.93854L3.66964 7.77294L3.67846 8.21211L4.71971 8.05401L4.85206 10.6802L3.56375 13.0605L2.79605 13.1747L2.8137 12.8848L0.942993 13.4821L1.75481 17.4872L2.46074 19.9817L2.71663 20.052L2.86664 18.6203L3.36079 18.4973L5.27562 19.806L6.65219 21.7998L8.12581 23.1349L6.76689 25.2341L6.83749 26.7009L7.1375 27.0171L6.10509 26.6131L5.2668 26.6658L5.22267 28.3697L5.94626 28.6157L6.67866 29.3534L7.314 30.9257L8.24935 31.681L8.49642 32.2256L7.84343 33.6836L8.68172 34.2457L9.07882 34.0613L9.29942 34.7727L8.07287 34.5356L7.68461 34.7464L7.77284 35.4051L8.41701 35.8004L8.04639 36.0727L8.16994 36.5645L7.01397 36.7138L8.08169 36.9598L8.81409 36.5118L10.023 36.7051L10.0495 37.6712L10.7907 38.6725L10.1642 40.1217L8.82291 41.0967L8.79644 41.7291L8.09051 42.1419L7.57871 41.896L7.32282 42.0629L7.15516 42.2736L7.41988 42.6689L6.89926 43.2047L6.99633 43.4682L6.51982 43.3803L6.62572 43.6438L6.23745 43.8107L7.65814 45.0667L7.99344 45.9451L7.88756 47.0605L7.49048 47.6929L6.67866 47.6227L6.89926 48.1321L6.68748 48.6942L8.02875 49.3617L8.15228 50.688L7.35811 51.2765L6.53747 50.7583L6.33452 51.5839L7.72873 51.7508L7.84343 52.2251L6.95221 53.3406L6.14921 53.2791L6.61688 54.0081L7.21693 53.8676L7.52577 53.4021L9.74062 53.0244L10.5436 54.1926L10.5789 55.2026L11.1701 55.3519L11.3995 55.756L11.9731 55.4749L11.3201 56.8363L11.6201 57.3545L12.9879 57.741L13.6409 57.5829L13.1379 58.8653L13.4909 59.6557L12.8026 59.9192L13.888 61.9657L13.4644 62.1502L13.1202 63.1866L12.2114 64.1967L13.632 65.5405L12.6437 66.7439L12.5908 67.1391L13.1467 67.183L12.3261 67.7627L13.7291 69.3964L13.6585 70.7051L13.1467 71.1091L13.7732 72.3564L13.5526 72.7165L14.3909 73.6739L14.2497 73.9549L14.9027 75.1231L14.638 75.7116L13.0232 76.5987L13.7203 76.9852L12.4231 78.1885L12.8202 78.3817L12.4143 78.8209L12.0878 78.6276L11.479 79.4357L10.9672 79.26L10.7907 79.7782L9.30824 80.1559L9.07882 80.8937L8.09934 80.1823L7.63166 80.5687L7.78167 80.9991L7.34929 81.6491L6.9875 81.1221L6.37863 81.6491L5.99038 81.5437L6.7316 83.5199L6.02567 85.0921L6.2904 85.8036L7.69343 85.8211L7.57871 87.771L8.31111 88.0784L8.00228 88.702L8.84938 89.2905L8.12581 89.9844L7.89638 91.2141L8.78762 92.9004L9.12293 94.578L9.96123 95.351L10.4289 95.2456L10.3671 95.7111L9.28177 96.2117L9.38765 96.7475L10.676 97.7752L9.63473 99.5494L8.03757 100.322L7.89638 101.271L8.44348 101.719L8.58466 103.028L9.06116 103.678L10.0495 103.634L11.4613 104.442L11.2231 105.144L11.3466 105.812L11.6819 105.847L11.2495 106.356L12.1143 107.121L12.8026 106.998L13.5173 107.516L13.8085 106.673L14.2233 106.462L14.4791 107.709L14.8939 107.946L15.5292 108.087L15.2116 108.763L14.6645 108.956L15.8028 110.212L17.2676 109.922L17.5058 110.283L18.5118 109.835L19.3589 109.914L19.0942 109.255L19.7648 109.027L20.7796 107.05L21.5032 106.76L21.4679 105.504L21.0884 104.626L21.2649 104.125L21.6179 104.319L22.7385 104.011L23.215 103.344L23.6739 103.23L25.0328 103.616L25.3946 105.294L26.0035 106.023L26.4623 105.329L26.0564 104.477L26.6829 104.196L27.177 103.142L27.2653 103.572L28.8095 103.414L28.4566 105.803L33.6363 106.69L33.7069 107.516L33.9804 107.56L34.7216 104.635L35.3393 104.459L35.2335 103.37L35.9394 103.159L35.9658 102.316L36.9541 101.71L38.3131 103.396H38.8955L39.8749 102.219L40.2632 102.369L40.9603 101.517L41.878 102.123L42.9457 102.132L44.64 103.23L45.2312 102.641L46.2194 102.65L46.7754 102.219L48.7167 102.307L49.2373 101.868L49.9609 101.982L50.3492 100.981L50.658 100.972L50.7815 99.7777L50.3403 99.3737L52.5816 99.04L52.9081 98.6008L52.8552 97.8981L53.5876 96.9056L54.0553 97.5644L53.9141 96.8002L54.5671 96.5719L55.4936 95.676L55.7142 93.568L56.0672 93.0234L56.3848 92.8741L56.8613 93.366L57.0202 92.9356L57.2937 92.9707L56.9143 92.1714L57.2055 91.8728L56.6319 91.785L56.7907 90.7749L58.8468 87.6568L58.7585 86.9278L59.1556 87.121L59.3056 86.7522L58.6791 86.4008L58.9968 85.1009L59.3144 84.8989L58.8997 84.0206L59.1291 82.9139L58.3791 82.3078L59.2703 80.4018L58.9791 79.4445L60.0027 78.7945L60.488 79.2249L61.4322 78.004L63.9647 77.2047L64.0353 76.8622L63.2235 75.6413L62.7911 75.5096L62.7735 75.1582L63.1441 74.9035L62.0323 74.2975L61.3704 74.5961L62.0852 73.7793L61.5734 73.7178L61.8293 73.0854L64.2736 72.8834L65.3854 73.0766L65.8884 73.5333L66.0119 73.8934L65.3854 75.6764L65.4119 77.2047L65.9237 78.2851L66.7002 78.4607L66.9561 79.1019L67.5473 78.9965L67.7238 79.8134L68.0856 79.7168L68.2356 78.5134L69.3916 78.3378L69.7092 77.4419L70.1769 77.3014L70.3269 76.871L70.9975 76.9149L71.1387 79.2776L74.0948 79.5411L75.2331 77.6088L75.7979 77.5648L75.7361 76.3703L76.5391 75.6501L77.1126 74.2009L79.2746 74.3502L79.6628 75.3427L80.1658 74.2623L79.6187 71.7679L81.5776 70.6261L82.0453 70.6963L82.1777 70.2659L80.457 69.8531L79.8128 70.0112L79.9275 67.9296L81.7806 66.9019L81.357 66.2081L81.0217 66.3223L80.6952 65.3824L81.5512 65.6284L82.5483 63.6609L82.4159 63.3359L83.016 63.1515L84.2778 63.9508L85.1602 62.3786L85.7691 62.4488L86.0603 62.0624L85.2573 61.1753L85.7161 59.6206L85.5397 59.4098L86.7927 58.5754L86.4662 58.0572L87.1104 57.1349L86.8986 56.5992L86.828 56.283L87.3398 55.6154L87.2339 55.2465L86.122 55.0445L85.1249 55.3344L84.8867 54.4824L85.5485 53.4548L84.066 54.1399L83.3072 51.4522L81.6041 50.8725L81.9218 50.3543L81.4982 50.1259L82.0806 50.1962L82.1512 49.6604L82.6012 49.6077L82.8218 50.0908L83.8984 49.7482L84.4455 48.9577L84.1455 48.4044L84.4455 47.5612L81.1541 47.4206L80.2364 45.0667L79.0716 44.5046L78.3392 43.3979L76.9185 43.7844L76.9009 44.4782L76.1332 44.6188L76.2744 45.7343L75.939 45.9275L76.0185 46.718L73.2212 46.5687L72.6388 47.1659L72.03 46.9815L72.0211 47.9037L71.5623 48.4395L69.7622 48.2024L69.3033 48.6064L68.3238 48.1057L68.165 48.4571L67.4061 48.4395L65.8354 49.4408L65.1736 49.3793L65.0501 48.6767L63.753 47.8862L62.5264 49.4496L62.2087 48.2463L60.3733 47.5524L60.391 46.7795L60.1439 46.8058L60.0292 46.2788L58.3173 45.9626L58.3085 45.339L57.7173 45.3302L57.7349 44.3992L59.2174 44.5046L59.4821 44.206L59.2438 43.881L59.4468 43.556L58.6791 42.7919L59.3409 41.5359L59.2174 40.4028L58.882 40.2886L58.8644 39.8934L58.3967 40.0515L58.3614 39.0151L57.6643 38.9624L57.6908 38.532L56.3848 37.7327L56.4466 36.6172L54.9994 36.3801L54.6906 37.1179L51.4345 37.153L51.2227 37.4516L49.7403 37.0388L49.4138 36.6875L49.0167 36.9422L48.9108 37.9259L48.249 38.0489L47.7549 38.0225L47.6313 37.5131L48.0196 37.5746L48.046 37.0827L48.9108 36.3976L47.7107 37.2935L45.9636 36.4679L44.8606 36.749L44.7899 36.1693L45.1694 35.4403L44.7017 34.6937L45.1076 34.5444L45.5665 34.9045L45.6812 34.2721L46.0959 33.912L45.7341 31.8655L44.8517 31.3648L44.6929 30.9432L43.3163 30.5743L42.6192 28.5015L42.0633 27.7373L42.0457 26.0509L40.8897 25.5679L40.7662 24.8037L37.8013 24.9882L37.6071 23.5828L38.0219 22.564L37.3159 21.5803L38.1454 21.185L38.2778 20.8337L37.563 19.7885L37.4571 18.1284L37.7836 17.6805L38.5601 17.7859L38.9308 17.5487L38.2248 17.1974L38.6572 16.3806L37.8719 15.3266L38.1278 15.0367L39.169 15.1421L39.4425 14.9225L39.3984 14.2111L38.9308 13.5787L37.9689 12.6916ZM47.3754 47.9916L46.8107 48.3429L46.1842 48.1672L45.443 48.5186L44.9841 49.6692L45.4959 51.8825L46.8018 52.8575L46.9695 54.4473L45.7782 56.037L44.0752 56.8363L42.7075 55.9492L41.9663 56.037L41.6839 56.3884L41.5692 57.7146L41.9133 57.9781L42.028 59.0409L41.5692 59.8314V60.7185L41.9133 62.1326L41.1191 63.011L40.2102 62.6596L39.3543 61.3334L38.6749 59.3922L38.3925 57.1789L37.4836 57.2667L36.6894 56.5553L36.1776 56.4674L35.4364 54.254H34.5275L34.0687 53.9027L33.6716 52.1285L32.5333 51.9528L31.395 52.3041L30.8302 52.6555L30.6008 53.2791L29.9743 53.3669L29.7449 52.5676L30.7155 50.1698V49.2827L32.0832 47.6841L32.8774 47.8598L33.1598 47.324L32.9304 46.7882L31.7391 45.989L31.6862 45.541L31.9685 45.3654L34.3599 45.1897L36.46 45.541L39.1337 48.3868L40.5014 47.5875H43.0604L43.6252 47.1396L44.1899 45.989L45.2135 45.6376L46.8636 46.1734L47.3754 46.7092V47.9916Z"/>
</mask>
<path d="M37.9689 12.6916L36.3718 13.0517L36.6365 11.4707L34.8717 11.339L32.7804 9.23975L32.5509 8.85329L33.4775 8.05401L32.9833 6.14804L33.2921 5.95481L32.7804 5.83184L31.4567 4.08397L30.1861 3.03876L28.8536 2.58203L28.0153 1.78275L27.6447 2.83674L26.5947 1.9672L26.4005 2.06381L26.6035 2.75769L26.3564 2.89823L23.2856 2.11652L23.1444 2.8104L22.5179 3.20564L22.112 3.07389L21.7855 3.70629L20.6472 2.82796L19.6854 3.07389L19.3324 3.40766L19.5265 3.67116L19.1559 4.92716L18.097 4.37382L17.2852 4.72515L16.9587 4.25085L16.6146 4.36504V5.10283L15.1675 4.34747L14.638 2.85431L15.1851 2.60838L15.1322 1.61587L14.9115 0.913208L14.2939 0.92199L14.0821 1.32602L13.0144 1.80032L12.882 2.20435L12.529 2.06381L12.1055 2.37123L11.8143 2.10773L11.4878 2.6523L11.0731 2.74013L11.0554 3.52184L10.3318 4.10154L9.03469 3.26713L8.37289 4.84811L8.4523 5.95481L7.89638 7.14055L5.20504 6.49937L4.3491 6.93854L3.66964 7.77294L3.67846 8.21211L4.71971 8.05401L4.85206 10.6802L3.56375 13.0605L2.79605 13.1747L2.8137 12.8848L0.942993 13.4821L1.75481 17.4872L2.46074 19.9817L2.71663 20.052L2.86664 18.6203L3.36079 18.4973L5.27562 19.806L6.65219 21.7998L8.12581 23.1349L6.76689 25.2341L6.83749 26.7009L7.1375 27.0171L6.10509 26.6131L5.2668 26.6658L5.22267 28.3697L5.94626 28.6157L6.67866 29.3534L7.314 30.9257L8.24935 31.681L8.49642 32.2256L7.84343 33.6836L8.68172 34.2457L9.07882 34.0613L9.29942 34.7727L8.07287 34.5356L7.68461 34.7464L7.77284 35.4051L8.41701 35.8004L8.04639 36.0727L8.16994 36.5645L7.01397 36.7138L8.08169 36.9598L8.81409 36.5118L10.023 36.7051L10.0495 37.6712L10.7907 38.6725L10.1642 40.1217L8.82291 41.0967L8.79644 41.7291L8.09051 42.1419L7.57871 41.896L7.32282 42.0629L7.15516 42.2736L7.41988 42.6689L6.89926 43.2047L6.99633 43.4682L6.51982 43.3803L6.62572 43.6438L6.23745 43.8107L7.65814 45.0667L7.99344 45.9451L7.88756 47.0605L7.49048 47.6929L6.67866 47.6227L6.89926 48.1321L6.68748 48.6942L8.02875 49.3617L8.15228 50.688L7.35811 51.2765L6.53747 50.7583L6.33452 51.5839L7.72873 51.7508L7.84343 52.2251L6.95221 53.3406L6.14921 53.2791L6.61688 54.0081L7.21693 53.8676L7.52577 53.4021L9.74062 53.0244L10.5436 54.1926L10.5789 55.2026L11.1701 55.3519L11.3995 55.756L11.9731 55.4749L11.3201 56.8363L11.6201 57.3545L12.9879 57.741L13.6409 57.5829L13.1379 58.8653L13.4909 59.6557L12.8026 59.9192L13.888 61.9657L13.4644 62.1502L13.1202 63.1866L12.2114 64.1967L13.632 65.5405L12.6437 66.7439L12.5908 67.1391L13.1467 67.183L12.3261 67.7627L13.7291 69.3964L13.6585 70.7051L13.1467 71.1091L13.7732 72.3564L13.5526 72.7165L14.3909 73.6739L14.2497 73.9549L14.9027 75.1231L14.638 75.7116L13.0232 76.5987L13.7203 76.9852L12.4231 78.1885L12.8202 78.3817L12.4143 78.8209L12.0878 78.6276L11.479 79.4357L10.9672 79.26L10.7907 79.7782L9.30824 80.1559L9.07882 80.8937L8.09934 80.1823L7.63166 80.5687L7.78167 80.9991L7.34929 81.6491L6.9875 81.1221L6.37863 81.6491L5.99038 81.5437L6.7316 83.5199L6.02567 85.0921L6.2904 85.8036L7.69343 85.8211L7.57871 87.771L8.31111 88.0784L8.00228 88.702L8.84938 89.2905L8.12581 89.9844L7.89638 91.2141L8.78762 92.9004L9.12293 94.578L9.96123 95.351L10.4289 95.2456L10.3671 95.7111L9.28177 96.2117L9.38765 96.7475L10.676 97.7752L9.63473 99.5494L8.03757 100.322L7.89638 101.271L8.44348 101.719L8.58466 103.028L9.06116 103.678L10.0495 103.634L11.4613 104.442L11.2231 105.144L11.3466 105.812L11.6819 105.847L11.2495 106.356L12.1143 107.121L12.8026 106.998L13.5173 107.516L13.8085 106.673L14.2233 106.462L14.4791 107.709L14.8939 107.946L15.5292 108.087L15.2116 108.763L14.6645 108.956L15.8028 110.212L17.2676 109.922L17.5058 110.283L18.5118 109.835L19.3589 109.914L19.0942 109.255L19.7648 109.027L20.7796 107.05L21.5032 106.76L21.4679 105.504L21.0884 104.626L21.2649 104.125L21.6179 104.319L22.7385 104.011L23.215 103.344L23.6739 103.23L25.0328 103.616L25.3946 105.294L26.0035 106.023L26.4623 105.329L26.0564 104.477L26.6829 104.196L27.177 103.142L27.2653 103.572L28.8095 103.414L28.4566 105.803L33.6363 106.69L33.7069 107.516L33.9804 107.56L34.7216 104.635L35.3393 104.459L35.2335 103.37L35.9394 103.159L35.9658 102.316L36.9541 101.71L38.3131 103.396H38.8955L39.8749 102.219L40.2632 102.369L40.9603 101.517L41.878 102.123L42.9457 102.132L44.64 103.23L45.2312 102.641L46.2194 102.65L46.7754 102.219L48.7167 102.307L49.2373 101.868L49.9609 101.982L50.3492 100.981L50.658 100.972L50.7815 99.7777L50.3403 99.3737L52.5816 99.04L52.9081 98.6008L52.8552 97.8981L53.5876 96.9056L54.0553 97.5644L53.9141 96.8002L54.5671 96.5719L55.4936 95.676L55.7142 93.568L56.0672 93.0234L56.3848 92.8741L56.8613 93.366L57.0202 92.9356L57.2937 92.9707L56.9143 92.1714L57.2055 91.8728L56.6319 91.785L56.7907 90.7749L58.8468 87.6568L58.7585 86.9278L59.1556 87.121L59.3056 86.7522L58.6791 86.4008L58.9968 85.1009L59.3144 84.8989L58.8997 84.0206L59.1291 82.9139L58.3791 82.3078L59.2703 80.4018L58.9791 79.4445L60.0027 78.7945L60.488 79.2249L61.4322 78.004L63.9647 77.2047L64.0353 76.8622L63.2235 75.6413L62.7911 75.5096L62.7735 75.1582L63.1441 74.9035L62.0323 74.2975L61.3704 74.5961L62.0852 73.7793L61.5734 73.7178L61.8293 73.0854L64.2736 72.8834L65.3854 73.0766L65.8884 73.5333L66.0119 73.8934L65.3854 75.6764L65.4119 77.2047L65.9237 78.2851L66.7002 78.4607L66.9561 79.1019L67.5473 78.9965L67.7238 79.8134L68.0856 79.7168L68.2356 78.5134L69.3916 78.3378L69.7092 77.4419L70.1769 77.3014L70.3269 76.871L70.9975 76.9149L71.1387 79.2776L74.0948 79.5411L75.2331 77.6088L75.7979 77.5648L75.7361 76.3703L76.5391 75.6501L77.1126 74.2009L79.2746 74.3502L79.6628 75.3427L80.1658 74.2623L79.6187 71.7679L81.5776 70.6261L82.0453 70.6963L82.1777 70.2659L80.457 69.8531L79.8128 70.0112L79.9275 67.9296L81.7806 66.9019L81.357 66.2081L81.0217 66.3223L80.6952 65.3824L81.5512 65.6284L82.5483 63.6609L82.4159 63.3359L83.016 63.1515L84.2778 63.9508L85.1602 62.3786L85.7691 62.4488L86.0603 62.0624L85.2573 61.1753L85.7161 59.6206L85.5397 59.4098L86.7927 58.5754L86.4662 58.0572L87.1104 57.1349L86.8986 56.5992L86.828 56.283L87.3398 55.6154L87.2339 55.2465L86.122 55.0445L85.1249 55.3344L84.8867 54.4824L85.5485 53.4548L84.066 54.1399L83.3072 51.4522L81.6041 50.8725L81.9218 50.3543L81.4982 50.1259L82.0806 50.1962L82.1512 49.6604L82.6012 49.6077L82.8218 50.0908L83.8984 49.7482L84.4455 48.9577L84.1455 48.4044L84.4455 47.5612L81.1541 47.4206L80.2364 45.0667L79.0716 44.5046L78.3392 43.3979L76.9185 43.7844L76.9009 44.4782L76.1332 44.6188L76.2744 45.7343L75.939 45.9275L76.0185 46.718L73.2212 46.5687L72.6388 47.1659L72.03 46.9815L72.0211 47.9037L71.5623 48.4395L69.7622 48.2024L69.3033 48.6064L68.3238 48.1057L68.165 48.4571L67.4061 48.4395L65.8354 49.4408L65.1736 49.3793L65.0501 48.6767L63.753 47.8862L62.5264 49.4496L62.2087 48.2463L60.3733 47.5524L60.391 46.7795L60.1439 46.8058L60.0292 46.2788L58.3173 45.9626L58.3085 45.339L57.7173 45.3302L57.7349 44.3992L59.2174 44.5046L59.4821 44.206L59.2438 43.881L59.4468 43.556L58.6791 42.7919L59.3409 41.5359L59.2174 40.4028L58.882 40.2886L58.8644 39.8934L58.3967 40.0515L58.3614 39.0151L57.6643 38.9624L57.6908 38.532L56.3848 37.7327L56.4466 36.6172L54.9994 36.3801L54.6906 37.1179L51.4345 37.153L51.2227 37.4516L49.7403 37.0388L49.4138 36.6875L49.0167 36.9422L48.9108 37.9259L48.249 38.0489L47.7549 38.0225L47.6313 37.5131L48.0196 37.5746L48.046 37.0827L48.9108 36.3976L47.7107 37.2935L45.9636 36.4679L44.8606 36.749L44.7899 36.1693L45.1694 35.4403L44.7017 34.6937L45.1076 34.5444L45.5665 34.9045L45.6812 34.2721L46.0959 33.912L45.7341 31.8655L44.8517 31.3648L44.6929 30.9432L43.3163 30.5743L42.6192 28.5015L42.0633 27.7373L42.0457 26.0509L40.8897 25.5679L40.7662 24.8037L37.8013 24.9882L37.6071 23.5828L38.0219 22.564L37.3159 21.5803L38.1454 21.185L38.2778 20.8337L37.563 19.7885L37.4571 18.1284L37.7836 17.6805L38.5601 17.7859L38.9308 17.5487L38.2248 17.1974L38.6572 16.3806L37.8719 15.3266L38.1278 15.0367L39.169 15.1421L39.4425 14.9225L39.3984 14.2111L38.9308 13.5787L37.9689 12.6916ZM47.3754 47.9916L46.8107 48.3429L46.1842 48.1672L45.443 48.5186L44.9841 49.6692L45.4959 51.8825L46.8018 52.8575L46.9695 54.4473L45.7782 56.037L44.0752 56.8363L42.7075 55.9492L41.9663 56.037L41.6839 56.3884L41.5692 57.7146L41.9133 57.9781L42.028 59.0409L41.5692 59.8314V60.7185L41.9133 62.1326L41.1191 63.011L40.2102 62.6596L39.3543 61.3334L38.6749 59.3922L38.3925 57.1789L37.4836 57.2667L36.6894 56.5553L36.1776 56.4674L35.4364 54.254H34.5275L34.0687 53.9027L33.6716 52.1285L32.5333 51.9528L31.395 52.3041L30.8302 52.6555L30.6008 53.2791L29.9743 53.3669L29.7449 52.5676L30.7155 50.1698V49.2827L32.0832 47.6841L32.8774 47.8598L33.1598 47.324L32.9304 46.7882L31.7391 45.989L31.6862 45.541L31.9685 45.3654L34.3599 45.1897L36.46 45.541L39.1337 48.3868L40.5014 47.5875H43.0604L43.6252 47.1396L44.1899 45.989L45.2135 45.6376L46.8636 46.1734L47.3754 46.7092V47.9916Z" fill="#7360F2" stroke="white" stroke-width="0.4" mask="url(#path-2-inside-1_903_2310)"/>
<path d="M39 38.2858C42.0772 38.2858 44.5715 40.7801 44.5715 43.8572C44.5715 46.2115 42.9172 48.7772 39.6515 51.5818C39.4699 51.7378 39.2384 51.8234 38.999 51.8232C38.7596 51.823 38.5282 51.7369 38.3469 51.5806L38.1309 51.3932C35.0098 48.6618 33.4286 46.1589 33.4286 43.8572C33.4286 40.7801 35.9229 38.2858 39 38.2858ZM39 41.7143C38.4317 41.7143 37.8867 41.9401 37.4848 42.342C37.083 42.7438 36.8572 43.2889 36.8572 43.8572C36.8572 44.4255 37.083 44.9706 37.4848 45.3724C37.8867 45.7743 38.4317 46.0001 39 46.0001C39.5684 46.0001 40.1134 45.7743 40.5153 45.3724C40.9171 44.9706 41.1429 44.4255 41.1429 43.8572C41.1429 43.2889 40.9171 42.7438 40.5153 42.342C40.1134 41.9401 39.5684 41.7143 39 41.7143Z" fill="#FBE75E"/>
</svg>
