<svg width="84" height="90" viewBox="0 0 84 90" fill="none" xmlns="http://www.w3.org/2000/svg">
<mask id="path-1-inside-1_903_2317" fill="white">
<path d="M43.265 0.851621L44.8092 0.755005L45.921 2.79272L46.4769 2.95082L46.7858 3.75888L47.9417 4.56694L50.0331 4.94462L50.4478 3.88185L51.5861 3.89063L52.0008 3.40755L52.8832 4.34736L52.5832 4.91828L52.7774 5.61215L54.0127 6.47291L54.5775 6.49048L55.8658 5.77904L56.3776 5.9547L57.1982 7.47421L57.1453 8.69508L57.4365 8.95858L58.0453 8.80927L58.1424 8.37888L58.4513 8.54577L58.2307 8.80927L58.5219 10.0038L58.2042 10.2322L58.4777 10.4254L58.3983 12.4895L60.1278 12.6388V12.955L62.1486 14.1671L61.9015 15.669L63.7987 15.9149L64.231 15.5812L66.2959 15.344L66.5606 14.9839L67.1342 15.0366L67.1165 15.6514L68.6078 15.6602L68.4313 14.1495L68.7755 13.6488L71.0786 15.7832L72.058 15.8183L72.3316 16.4771L72.2345 17.654L73.8758 18.3216L74.2552 18.506L75.5083 18.1283L76.673 18.6729L76.6289 20.1836H76.1965L75.773 20.8072L75.9142 21.2903L75.5259 21.5362L75.5965 22.3092L76.9554 23.2929L76.5495 23.8989L76.3819 25.6205L79.8144 30.5303L80.9174 31.3999L82.444 32.3045L82.7352 33.0423L82.5146 33.9031L83.1676 34.3247L82.0293 34.7024L81.7028 35.651L82.1616 36.3448L81.6057 37.7589L79.4173 38.3299L79.0997 39.542L78.2526 39.0764L77.8819 39.173V39.6473L77.3878 39.7264L75.87 39.0501L75.623 39.3311L74.9523 39.2872L74.5464 40.0689L72.9669 39.5771L73.2052 41.4128L72.7551 42.1594L73.9817 43.4154L72.5081 44.9173L71.8374 43.9951L71.1227 43.7404L70.4785 45.5058L70.1344 48.0969L69.4814 48.3077L69.049 49.2123L68.5284 49.1508L68.6519 49.5022L67.8225 49.2299L67.5048 49.5197L67.6813 49.9765L66.7018 49.4846L66.3753 49.9589L65.6517 49.9677L65.7223 50.7582L65.3694 50.24L64.4517 50.5825L64.2928 51.171L62.025 51.2764L62.3603 52.3392L62.2103 54.6843L61.5309 54.7897L60.2161 54.21L59.6955 54.5526L58.4424 53.8323L57.7365 52.9364L56.8276 53.4898L56.1217 53.4195L55.804 52.8925L56.2364 52.6115L55.6187 52.023L54.8334 51.8561L54.9569 52.1635L54.5951 52.0405L54.5686 52.3128L53.6598 52.8837L53.9598 54.2627L52.9627 54.3418L52.645 54.8161L53.0509 55.8086L52.8656 57.0382L52.0185 57.1875L51.6655 57.7145L52.2038 59.3921L53.598 60.0421L52.3362 61.1664L52.5479 62.0096L51.8685 63.1163L51.3479 62.6771L50.8008 63.1953L49.6095 62.8967L49.5742 63.5466L49.6536 64.3811L50.6684 64.1966L51.4714 64.5567L51.1184 65.8127L50.7213 66.1816L51.0125 66.6735L52.1244 66.9282L54.0657 66.7964L53.7215 67.4728L53.9245 67.7889L53.5274 68.518L53.5451 69.3612L53.0068 69.5895L52.0097 68.7288L51.2949 68.8429L48.9653 69.5983L47.527 70.7226L46.8123 70.5293L46.5122 70.9949L45.7798 70.7489L45.5592 71.4955L45.1092 71.4252L44.7915 70.9246L42.4179 70.5732L41.1913 71.9786L40.9001 71.4077L39.753 70.9509L37.9705 72.2069L37.7234 72.6812L35.8439 72.084L34.6526 72.4353L34.1408 71.8468L33.8938 71.9786L33.4349 71.6448L32.376 72.8393L32.0142 72.6022L31.4142 72.9272L30.7877 75.6939L30.2053 76.1331L29.7641 75.852L29.4552 76.0979L29.3052 76.704L27.7081 78.4431L28.3258 79.3917L27.5581 81.3152L27.8669 82.1408L28.8287 82.4834L28.9523 82.8171L27.9463 83.2826L27.9022 84.161L27.3375 85.1886L28.061 87.0068L26.9933 88.8864L27.1698 89.5188L25.9344 89.2641L24.8314 89.8877L23.4107 89.4573L22.043 88.8161L21.593 87.6216L20.4988 88.333L19.2987 87.3669L18.6722 87.9378L16.8015 88.0081L15.2837 84.767L14.7719 84.6616L14.7278 83.9502L13.7042 83.3793L12.5306 84.0995L12.0012 83.915L11.3394 84.161L10.8187 84.8373L10.4393 84.6968L9.99809 84.1434L9.75984 82.7469L8.75389 82.3428L7.61558 81.3855L6.99789 79.9099L7.02436 79.1633L7.73912 78.6187L8.33915 78.61L7.85383 77.1607L8.92155 76.4229L7.22732 75.4743L6.79494 75.448L7.03319 74.8858L6.75082 74.2183L7.48322 72.8657L6.54786 72.6022L6.35373 72.0576L5.69192 72.1718L5.24189 71.3462L4.60656 70.9597L4.49185 70.0902L3.38001 70.301L2.99175 70.0463L3.4859 68.9659L2.85939 68.9747L2.39171 69.7828L2.04757 69.3085L2.83291 67.7099L3.22117 67.4815L2.40936 67.2444L2.26817 66.7877L2.4623 66.287L3.00939 66.0147L3.34471 62.8879L3.20352 60.8326L1.74755 54.8248L0.697478 54.4735L0.0444946 53.1648L0.732776 52.7432L1.72107 50.7231L4.28007 47.403L4.42125 46.4544L4.8801 45.7868L5.49779 45.6112L6.13313 44.9524L6.90965 43.6437L7.59793 43.0992L8.31268 41.6412L9.57453 40.6047L9.84808 39.0676L10.6599 38.8393L14.1807 33.6835L17.128 30.2053L17.2691 29.3446L17.9927 29.0459L19.1222 27.6494L19.0957 26.8501L19.5369 26.8852L20.1899 26.3846L24.8579 21.5538L28.1316 19.3053L29.7641 16.8723L31.2024 16.2926L31.6436 14.3691L32.4113 13.6928L34.8115 12.8935L38.8176 12.4455L40.556 12.5509L40.7677 11.4706L41.6325 10.97L43.1414 6.47291L43.5915 3.53052L43.362 2.89813L43.5297 2.06371L43.2032 2.05493L43.0002 1.6509L43.265 0.851621Z"/>
</mask>
<path d="M43.265 0.851621L44.8092 0.755005L45.921 2.79272L46.4769 2.95082L46.7858 3.75888L47.9417 4.56694L50.0331 4.94462L50.4478 3.88185L51.5861 3.89063L52.0008 3.40755L52.8832 4.34736L52.5832 4.91828L52.7774 5.61215L54.0127 6.47291L54.5775 6.49048L55.8658 5.77904L56.3776 5.9547L57.1982 7.47421L57.1453 8.69508L57.4365 8.95858L58.0453 8.80927L58.1424 8.37888L58.4513 8.54577L58.2307 8.80927L58.5219 10.0038L58.2042 10.2322L58.4777 10.4254L58.3983 12.4895L60.1278 12.6388V12.955L62.1486 14.1671L61.9015 15.669L63.7987 15.9149L64.231 15.5812L66.2959 15.344L66.5606 14.9839L67.1342 15.0366L67.1165 15.6514L68.6078 15.6602L68.4313 14.1495L68.7755 13.6488L71.0786 15.7832L72.058 15.8183L72.3316 16.4771L72.2345 17.654L73.8758 18.3216L74.2552 18.506L75.5083 18.1283L76.673 18.6729L76.6289 20.1836H76.1965L75.773 20.8072L75.9142 21.2903L75.5259 21.5362L75.5965 22.3092L76.9554 23.2929L76.5495 23.8989L76.3819 25.6205L79.8144 30.5303L80.9174 31.3999L82.444 32.3045L82.7352 33.0423L82.5146 33.9031L83.1676 34.3247L82.0293 34.7024L81.7028 35.651L82.1616 36.3448L81.6057 37.7589L79.4173 38.3299L79.0997 39.542L78.2526 39.0764L77.8819 39.173V39.6473L77.3878 39.7264L75.87 39.0501L75.623 39.3311L74.9523 39.2872L74.5464 40.0689L72.9669 39.5771L73.2052 41.4128L72.7551 42.1594L73.9817 43.4154L72.5081 44.9173L71.8374 43.9951L71.1227 43.7404L70.4785 45.5058L70.1344 48.0969L69.4814 48.3077L69.049 49.2123L68.5284 49.1508L68.6519 49.5022L67.8225 49.2299L67.5048 49.5197L67.6813 49.9765L66.7018 49.4846L66.3753 49.9589L65.6517 49.9677L65.7223 50.7582L65.3694 50.24L64.4517 50.5825L64.2928 51.171L62.025 51.2764L62.3603 52.3392L62.2103 54.6843L61.5309 54.7897L60.2161 54.21L59.6955 54.5526L58.4424 53.8323L57.7365 52.9364L56.8276 53.4898L56.1217 53.4195L55.804 52.8925L56.2364 52.6115L55.6187 52.023L54.8334 51.8561L54.9569 52.1635L54.5951 52.0405L54.5686 52.3128L53.6598 52.8837L53.9598 54.2627L52.9627 54.3418L52.645 54.8161L53.0509 55.8086L52.8656 57.0382L52.0185 57.1875L51.6655 57.7145L52.2038 59.3921L53.598 60.0421L52.3362 61.1664L52.5479 62.0096L51.8685 63.1163L51.3479 62.6771L50.8008 63.1953L49.6095 62.8967L49.5742 63.5466L49.6536 64.3811L50.6684 64.1966L51.4714 64.5567L51.1184 65.8127L50.7213 66.1816L51.0125 66.6735L52.1244 66.9282L54.0657 66.7964L53.7215 67.4728L53.9245 67.7889L53.5274 68.518L53.5451 69.3612L53.0068 69.5895L52.0097 68.7288L51.2949 68.8429L48.9653 69.5983L47.527 70.7226L46.8123 70.5293L46.5122 70.9949L45.7798 70.7489L45.5592 71.4955L45.1092 71.4252L44.7915 70.9246L42.4179 70.5732L41.1913 71.9786L40.9001 71.4077L39.753 70.9509L37.9705 72.2069L37.7234 72.6812L35.8439 72.084L34.6526 72.4353L34.1408 71.8468L33.8938 71.9786L33.4349 71.6448L32.376 72.8393L32.0142 72.6022L31.4142 72.9272L30.7877 75.6939L30.2053 76.1331L29.7641 75.852L29.4552 76.0979L29.3052 76.704L27.7081 78.4431L28.3258 79.3917L27.5581 81.3152L27.8669 82.1408L28.8287 82.4834L28.9523 82.8171L27.9463 83.2826L27.9022 84.161L27.3375 85.1886L28.061 87.0068L26.9933 88.8864L27.1698 89.5188L25.9344 89.2641L24.8314 89.8877L23.4107 89.4573L22.043 88.8161L21.593 87.6216L20.4988 88.333L19.2987 87.3669L18.6722 87.9378L16.8015 88.0081L15.2837 84.767L14.7719 84.6616L14.7278 83.9502L13.7042 83.3793L12.5306 84.0995L12.0012 83.915L11.3394 84.161L10.8187 84.8373L10.4393 84.6968L9.99809 84.1434L9.75984 82.7469L8.75389 82.3428L7.61558 81.3855L6.99789 79.9099L7.02436 79.1633L7.73912 78.6187L8.33915 78.61L7.85383 77.1607L8.92155 76.4229L7.22732 75.4743L6.79494 75.448L7.03319 74.8858L6.75082 74.2183L7.48322 72.8657L6.54786 72.6022L6.35373 72.0576L5.69192 72.1718L5.24189 71.3462L4.60656 70.9597L4.49185 70.0902L3.38001 70.301L2.99175 70.0463L3.4859 68.9659L2.85939 68.9747L2.39171 69.7828L2.04757 69.3085L2.83291 67.7099L3.22117 67.4815L2.40936 67.2444L2.26817 66.7877L2.4623 66.287L3.00939 66.0147L3.34471 62.8879L3.20352 60.8326L1.74755 54.8248L0.697478 54.4735L0.0444946 53.1648L0.732776 52.7432L1.72107 50.7231L4.28007 47.403L4.42125 46.4544L4.8801 45.7868L5.49779 45.6112L6.13313 44.9524L6.90965 43.6437L7.59793 43.0992L8.31268 41.6412L9.57453 40.6047L9.84808 39.0676L10.6599 38.8393L14.1807 33.6835L17.128 30.2053L17.2691 29.3446L17.9927 29.0459L19.1222 27.6494L19.0957 26.8501L19.5369 26.8852L20.1899 26.3846L24.8579 21.5538L28.1316 19.3053L29.7641 16.8723L31.2024 16.2926L31.6436 14.3691L32.4113 13.6928L34.8115 12.8935L38.8176 12.4455L40.556 12.5509L40.7677 11.4706L41.6325 10.97L43.1414 6.47291L43.5915 3.53052L43.362 2.89813L43.5297 2.06371L43.2032 2.05493L43.0002 1.6509L43.265 0.851621Z" fill="#7360F2" stroke="white" stroke-width="0.4" mask="url(#path-1-inside-1_903_2317)"/>
<path d="M42 31.2858C45.0772 31.2858 47.5714 33.7801 47.5714 36.8572C47.5714 39.2115 45.9172 41.7772 42.6514 44.5818C42.4699 44.7378 42.2383 44.8234 41.9989 44.8232C41.7596 44.823 41.5282 44.7369 41.3469 44.5806L41.1309 44.3932C38.0097 41.6618 36.4286 39.1589 36.4286 36.8572C36.4286 33.7801 38.9229 31.2858 42 31.2858ZM42 34.7143C41.4317 34.7143 40.8867 34.9401 40.4848 35.342C40.0829 35.7438 39.8572 36.2889 39.8572 36.8572C39.8572 37.4255 40.0829 37.9706 40.4848 38.3724C40.8867 38.7743 41.4317 39.0001 42 39.0001C42.5683 39.0001 43.1134 38.7743 43.5152 38.3724C43.9171 37.9706 44.1429 37.4255 44.1429 36.8572C44.1429 36.2889 43.9171 35.7438 43.5152 35.342C43.1134 34.9401 42.5683 34.7143 42 34.7143Z" fill="#FBE75E"/>
</svg>
