<svg width="72" height="103" viewBox="0 0 72 103" fill="none" xmlns="http://www.w3.org/2000/svg">
<mask id="path-1-inside-1_902_2296" fill="white">
<path d="M15.6846 1.25492L16.3817 3.47709L16.2935 4.32029L18.2083 5.39184L18.6936 4.61012L19.779 4.82093L19.7173 5.36549L20.0967 5.40063L20.3879 6.21747L21.535 6.57758L23.2381 5.67291L24.2175 5.87492L25.1176 6.6742L26.0971 5.85736L26.0618 4.65404H26.3353L27.0589 5.54116L26.3001 6.39314L26.4853 7.68427L27.3854 8.04439L28.0737 9.33553L28.7884 9.44093L29.3443 10.2051L30.3326 10.1963L31.1974 10.8726L32.6887 10.6442L33.2446 11.1537L32.874 11.6192L33.1122 12.4272L32.9093 12.6029L33.6329 13.9907L34.1711 14.017L36.3772 12.7347L37.6478 13.0157L38.892 12.1023L39.6509 10.8638L41.0451 9.70443L42.3864 11.9442L42.5099 13.49L43.1188 14.7285L44.1776 15.7649L46.9308 16.5554L48.9603 15.598L50.2222 15.8L51.7928 16.6432L53.7959 16.8452L53.4871 17.9871L55.2695 22.2909L57.9785 23.1165L59.6904 24.9083L62.2494 24.7765L63.2466 24.4164L64.2084 23.1253L66.9791 22.7915L67.5086 23.0726L69.6087 22.2996L69.644 23.2043L70.5352 24.4164L66.7938 26.621L66.5027 29.1945L67.9057 31.689L69.7411 32.9801L71.2147 34.5611L70.7823 36.9941L72.0001 38.2413L71.8942 39.2075L71.4353 39.4534L69.5911 39.4446L67.7909 41.8249L66.432 42.185L63.7583 46.48L63.6789 47.7536L61.9229 47.4462L59.7963 47.5428L58.6492 48.465L56.3549 47.9468L55.7549 48.4387L56.0902 48.7022L55.5255 50.3007L55.8872 50.7136L56.4784 50.2568L57.1756 50.7926L58.0933 50.8629L58.2698 51.7588L59.2228 53.006L58.7816 53.6647L59.3463 54.2708L59.5845 54.0863L60.1052 54.4816L60.3963 55.4565L60.9258 54.7802L61.1729 55.2018L63.1583 54.9647L64.1642 55.9835L65.3114 56.2119L65.6644 54.71L66.5644 53.9985L67.2615 54.3938L67.8439 56.1153L64.8526 59.611L59.5669 57.4416L59.3375 57.6787L59.4875 58.1706L59.1522 58.1969L58.9492 58.7678L59.0463 59.6461L58.5521 60.2698L58.5962 60.8319L57.6962 60.867L57.705 61.842L57.3256 62.0001L57.2815 62.6061L56.7079 62.8608L56.9285 63.177L56.6814 63.5196L57.1138 63.6425L57.2197 64.4857L56.6285 65.1445L56.902 65.285L56.8755 65.7769L56.3373 66.0404L56.4167 66.5059L55.4108 67.8146L56.2314 68.851L57.9344 68.6578L58.1462 69.0091L59.3375 68.5524L59.8051 68.9213L60.2993 68.8774L60.2199 69.176L61.0317 69.5976L61.5435 72.2677L60.9434 72.6278L60.9699 73.9278L62.4612 75.0257L62.2583 75.5439L62.8406 76.1851L62.7259 76.9404L63.0701 77.2127L62.7259 77.5377L63.2201 78.2403L63.7583 77.7309L63.573 78.4775L63.9084 79.3295L62.2318 80.1024L61.0493 80.12L60.8111 81.1828L62.0288 81.2179L62.2759 81.7185L62.5759 81.5956L62.9818 82.1226L62.8054 82.6232L63.0789 82.9131L64.1201 81.4814L64.6054 81.6395L64.4113 81.499L64.7378 81.0071L65.1349 80.8753L66.1585 83.686L65.7879 84.1866L65.7967 84.9947L63.8025 84.819L63.6348 86.927L62.823 87.0324L62.5494 88.6661L61.7023 89.7728L61.5611 91.4065L60.6346 91.9423L62.0377 92.7767L62.0641 93.1631L58.8345 93.2158L59.3904 94.4631L60.0169 94.911L59.7963 95.5258L60.114 95.7894V97.0541L59.7345 97.1595L59.3375 98.4243L59.3463 100.567L58.4197 100.769L58.4286 101.718L57.6432 102.64L54.246 102.113L52.5164 102.201L51.9252 102.702L51.5281 102.394L51.0869 102.623L49.8604 101.103L48.8368 101.402L48.5191 102.166L47.9897 102.456L47.1514 100.655L42.8276 100.831L42.607 101.419L40.0921 101.586L39.995 101.955L38.1773 101.525V100.699L37.8508 100.69L37.5861 99.6979L38.3979 97.6338L37.8331 97.1332L37.3478 97.2562L36.836 96.8521L36.8272 94.7353L30.8003 94.3225L30.112 92.9172L30.5886 92.1267L30.5532 91.4153L29.9356 91.0639L30.2709 89.7816L26.4412 88.4992L26.5207 87.9459L24.8176 87.9107L23.9264 87.4364L23.6352 86.8831L24.0234 86.523L24.0852 85.9521L23.3969 84.8893L23.4146 83.686L22.3292 82.6496L19.6466 82.9658L18.3936 82.307L18.4554 81.3408L18.8437 80.8929L18.7201 79.9355L20.4761 78.8376L19.682 78.1086L19.1172 78.2755L18.6583 75.1574L17.1406 75.8689L16.8847 75.3243L16.0376 75.5088L15.1023 74.7622L15.2875 74.3054L14.5198 73.7784L14.8375 73.7697L14.7052 73.0406L15.2346 72.2326L13.9728 70.7482L13.558 65.2411L14.2992 64.9952L14.361 64.5999L15.1905 64.4067V63.5635L14.8817 63.1155L15.5081 62.8784L15.2875 62.246L14.3169 62.1406L13.6198 61.4116L14.2286 60.4015L14.0786 59.1894L14.3963 58.7503L15.164 58.68L15.1199 58.0915L13.9286 58.1881L13.4433 57.3625L12.4374 57.4679L12.4726 53.3046L11.9167 53.5154L10.046 53.2431L9.71953 53.612L9.10183 53.5769L8.3077 53.1817L7.03702 53.208L6.91347 52.804L5.93401 52.7688L6.6311 51.4689L7.35468 51.8642L7.34585 50.9507L8.7224 50.494L7.31057 47.6306L7.56645 47.3496L8.14004 43.643L7.10763 43.4586L6.88703 44.5477L5.26337 44.4686L3.06618 43.5113L2.60731 43.0897L2.88085 42.8086L2.58964 42.4397L3.85154 41.6404L3.02207 40.6567L2.48376 40.7709L1.92784 39.5851L1.77784 39.1723L3.14557 38.5399L2.7838 38.0656L4.52212 37.4069L4.22213 36.5813L2.3161 36.1684L2.14844 35.3604L2.72203 31.9173L2.13966 31.2674L2.15727 29.9938L1.18664 30.0026L1.36313 28.1493L0.983704 27.798L1.31902 26.5683L2.39554 26.6474L3.51622 25.8042L3.63971 25.4002L2.38671 25.2157L2.82791 24.2232L4.31035 24.3462L3.98387 23.2658L4.14269 22.4929L5.01627 22.4314L5.10454 21.922L5.72224 21.7287L5.31631 20.8416L7.14291 20.341L6.61348 20.1038L6.19872 18.6458L5.83696 18.3823L6.32227 18.1276L6.21639 17.7675L5.52808 17.6884L5.06043 17.9871L4.38096 16.9594L5.08688 15.3345L5.73985 15.9845L6.84287 14.6055L7.39879 14.5177L7.40762 14.1751L6.09284 13.2441L6.41933 12.1462L7.98121 12.1374L8.51947 11.628L6.75465 9.20379L7.46056 8.1498L9.46365 7.33295L9.5607 8.25519L10.8843 7.34172L10.6725 6.83231L11.5902 6.39314L11.6079 6.0418L12.2697 5.61142L11.3608 3.64397L11.1138 0.929935L13.8757 1.29005L15.1375 0.569824L15.6317 0.727923L15.6846 1.25492Z"/>
</mask>
<path d="M15.6846 1.25492L16.3817 3.47709L16.2935 4.32029L18.2083 5.39184L18.6936 4.61012L19.779 4.82093L19.7173 5.36549L20.0967 5.40063L20.3879 6.21747L21.535 6.57758L23.2381 5.67291L24.2175 5.87492L25.1176 6.6742L26.0971 5.85736L26.0618 4.65404H26.3353L27.0589 5.54116L26.3001 6.39314L26.4853 7.68427L27.3854 8.04439L28.0737 9.33553L28.7884 9.44093L29.3443 10.2051L30.3326 10.1963L31.1974 10.8726L32.6887 10.6442L33.2446 11.1537L32.874 11.6192L33.1122 12.4272L32.9093 12.6029L33.6329 13.9907L34.1711 14.017L36.3772 12.7347L37.6478 13.0157L38.892 12.1023L39.6509 10.8638L41.0451 9.70443L42.3864 11.9442L42.5099 13.49L43.1188 14.7285L44.1776 15.7649L46.9308 16.5554L48.9603 15.598L50.2222 15.8L51.7928 16.6432L53.7959 16.8452L53.4871 17.9871L55.2695 22.2909L57.9785 23.1165L59.6904 24.9083L62.2494 24.7765L63.2466 24.4164L64.2084 23.1253L66.9791 22.7915L67.5086 23.0726L69.6087 22.2996L69.644 23.2043L70.5352 24.4164L66.7938 26.621L66.5027 29.1945L67.9057 31.689L69.7411 32.9801L71.2147 34.5611L70.7823 36.9941L72.0001 38.2413L71.8942 39.2075L71.4353 39.4534L69.5911 39.4446L67.7909 41.8249L66.432 42.185L63.7583 46.48L63.6789 47.7536L61.9229 47.4462L59.7963 47.5428L58.6492 48.465L56.3549 47.9468L55.7549 48.4387L56.0902 48.7022L55.5255 50.3007L55.8872 50.7136L56.4784 50.2568L57.1756 50.7926L58.0933 50.8629L58.2698 51.7588L59.2228 53.006L58.7816 53.6647L59.3463 54.2708L59.5845 54.0863L60.1052 54.4816L60.3963 55.4565L60.9258 54.7802L61.1729 55.2018L63.1583 54.9647L64.1642 55.9835L65.3114 56.2119L65.6644 54.71L66.5644 53.9985L67.2615 54.3938L67.8439 56.1153L64.8526 59.611L59.5669 57.4416L59.3375 57.6787L59.4875 58.1706L59.1522 58.1969L58.9492 58.7678L59.0463 59.6461L58.5521 60.2698L58.5962 60.8319L57.6962 60.867L57.705 61.842L57.3256 62.0001L57.2815 62.6061L56.7079 62.8608L56.9285 63.177L56.6814 63.5196L57.1138 63.6425L57.2197 64.4857L56.6285 65.1445L56.902 65.285L56.8755 65.7769L56.3373 66.0404L56.4167 66.5059L55.4108 67.8146L56.2314 68.851L57.9344 68.6578L58.1462 69.0091L59.3375 68.5524L59.8051 68.9213L60.2993 68.8774L60.2199 69.176L61.0317 69.5976L61.5435 72.2677L60.9434 72.6278L60.9699 73.9278L62.4612 75.0257L62.2583 75.5439L62.8406 76.1851L62.7259 76.9404L63.0701 77.2127L62.7259 77.5377L63.2201 78.2403L63.7583 77.7309L63.573 78.4775L63.9084 79.3295L62.2318 80.1024L61.0493 80.12L60.8111 81.1828L62.0288 81.2179L62.2759 81.7185L62.5759 81.5956L62.9818 82.1226L62.8054 82.6232L63.0789 82.9131L64.1201 81.4814L64.6054 81.6395L64.4113 81.499L64.7378 81.0071L65.1349 80.8753L66.1585 83.686L65.7879 84.1866L65.7967 84.9947L63.8025 84.819L63.6348 86.927L62.823 87.0324L62.5494 88.6661L61.7023 89.7728L61.5611 91.4065L60.6346 91.9423L62.0377 92.7767L62.0641 93.1631L58.8345 93.2158L59.3904 94.4631L60.0169 94.911L59.7963 95.5258L60.114 95.7894V97.0541L59.7345 97.1595L59.3375 98.4243L59.3463 100.567L58.4197 100.769L58.4286 101.718L57.6432 102.64L54.246 102.113L52.5164 102.201L51.9252 102.702L51.5281 102.394L51.0869 102.623L49.8604 101.103L48.8368 101.402L48.5191 102.166L47.9897 102.456L47.1514 100.655L42.8276 100.831L42.607 101.419L40.0921 101.586L39.995 101.955L38.1773 101.525V100.699L37.8508 100.69L37.5861 99.6979L38.3979 97.6338L37.8331 97.1332L37.3478 97.2562L36.836 96.8521L36.8272 94.7353L30.8003 94.3225L30.112 92.9172L30.5886 92.1267L30.5532 91.4153L29.9356 91.0639L30.2709 89.7816L26.4412 88.4992L26.5207 87.9459L24.8176 87.9107L23.9264 87.4364L23.6352 86.8831L24.0234 86.523L24.0852 85.9521L23.3969 84.8893L23.4146 83.686L22.3292 82.6496L19.6466 82.9658L18.3936 82.307L18.4554 81.3408L18.8437 80.8929L18.7201 79.9355L20.4761 78.8376L19.682 78.1086L19.1172 78.2755L18.6583 75.1574L17.1406 75.8689L16.8847 75.3243L16.0376 75.5088L15.1023 74.7622L15.2875 74.3054L14.5198 73.7784L14.8375 73.7697L14.7052 73.0406L15.2346 72.2326L13.9728 70.7482L13.558 65.2411L14.2992 64.9952L14.361 64.5999L15.1905 64.4067V63.5635L14.8817 63.1155L15.5081 62.8784L15.2875 62.246L14.3169 62.1406L13.6198 61.4116L14.2286 60.4015L14.0786 59.1894L14.3963 58.7503L15.164 58.68L15.1199 58.0915L13.9286 58.1881L13.4433 57.3625L12.4374 57.4679L12.4726 53.3046L11.9167 53.5154L10.046 53.2431L9.71953 53.612L9.10183 53.5769L8.3077 53.1817L7.03702 53.208L6.91347 52.804L5.93401 52.7688L6.6311 51.4689L7.35468 51.8642L7.34585 50.9507L8.7224 50.494L7.31057 47.6306L7.56645 47.3496L8.14004 43.643L7.10763 43.4586L6.88703 44.5477L5.26337 44.4686L3.06618 43.5113L2.60731 43.0897L2.88085 42.8086L2.58964 42.4397L3.85154 41.6404L3.02207 40.6567L2.48376 40.7709L1.92784 39.5851L1.77784 39.1723L3.14557 38.5399L2.7838 38.0656L4.52212 37.4069L4.22213 36.5813L2.3161 36.1684L2.14844 35.3604L2.72203 31.9173L2.13966 31.2674L2.15727 29.9938L1.18664 30.0026L1.36313 28.1493L0.983704 27.798L1.31902 26.5683L2.39554 26.6474L3.51622 25.8042L3.63971 25.4002L2.38671 25.2157L2.82791 24.2232L4.31035 24.3462L3.98387 23.2658L4.14269 22.4929L5.01627 22.4314L5.10454 21.922L5.72224 21.7287L5.31631 20.8416L7.14291 20.341L6.61348 20.1038L6.19872 18.6458L5.83696 18.3823L6.32227 18.1276L6.21639 17.7675L5.52808 17.6884L5.06043 17.9871L4.38096 16.9594L5.08688 15.3345L5.73985 15.9845L6.84287 14.6055L7.39879 14.5177L7.40762 14.1751L6.09284 13.2441L6.41933 12.1462L7.98121 12.1374L8.51947 11.628L6.75465 9.20379L7.46056 8.1498L9.46365 7.33295L9.5607 8.25519L10.8843 7.34172L10.6725 6.83231L11.5902 6.39314L11.6079 6.0418L12.2697 5.61142L11.3608 3.64397L11.1138 0.929935L13.8757 1.29005L15.1375 0.569824L15.6317 0.727923L15.6846 1.25492Z" fill="#7360F2" stroke="white" stroke-width="0.4" mask="url(#path-1-inside-1_902_2296)"/>
<path d="M46.0001 56.2858C49.0772 56.2858 51.5715 58.7801 51.5715 61.8572C51.5715 64.2115 49.9172 66.7772 46.6515 69.5818C46.4699 69.7378 46.2384 69.8234 45.999 69.8232C45.7596 69.823 45.5282 69.7369 45.3469 69.5806L45.1309 69.3932C42.0098 66.6618 40.4286 64.1589 40.4286 61.8572C40.4286 58.7801 42.9229 56.2858 46.0001 56.2858ZM46.0001 59.7143C45.4317 59.7143 44.8867 59.9401 44.4848 60.342C44.083 60.7438 43.8572 61.2889 43.8572 61.8572C43.8572 62.4255 44.083 62.9706 44.4848 63.3724C44.8867 63.7743 45.4317 64.0001 46.0001 64.0001C46.5684 64.0001 47.1134 63.7743 47.5153 63.3724C47.9172 62.9706 48.1429 62.4255 48.1429 61.8572C48.1429 61.2889 47.9172 60.7438 47.5153 60.342C47.1134 59.9401 46.5684 59.7143 46.0001 59.7143Z" fill="#FBE75E"/>
</svg>
