<svg width="102" height="85" viewBox="0 0 102 85" fill="none" xmlns="http://www.w3.org/2000/svg">
<mask id="path-1-inside-1_902_2298" fill="white">
<path d="M29.4839 2.46652L30.5163 2.60705L30.9575 3.14283L32.6076 2.29964L33.1459 2.98473L34.0283 3.2131L34.5224 2.9496L34.646 1.59697L35.7225 0.938232L36.3932 1.76386L36.8697 1.90439L36.9755 2.4226L38.5992 2.45773L38.6874 3.50295L39.7375 3.45903L39.9757 4.21439L40.3905 4.53059L40.4169 4.10899L41.2552 3.78401L41.6965 3.92454L41.8641 4.46911L42.3847 3.55564L43.0907 4.33735L43.5319 3.89819L44.5202 3.65226L48.8175 4.84679L49.497 5.35621L50.097 5.3123L51.103 4.46911L52.6648 3.85427L52.8325 3.50295L52.5854 3.16918L51.8001 3.07256L51.6677 2.69488L53.5296 1.90439H54.0767L54.8003 2.69488L55.9386 1.23686L58.1887 2.93203L58.074 3.47659L59.1947 2.71245L60.3948 3.18675L59.8653 3.90698L60.2712 4.29344L60.836 3.81914L60.8889 2.98473L62.4772 2.22058L63.342 2.36112L63.8715 1.82534L64.7274 2.54557L65.0539 6.4629L68.8659 9.59853L68.61 10.0026L69.5454 10.9687L69.2365 11.8822L69.6071 12.2599L70.7278 13.2348L72.5632 13.4807L72.7838 15.2198L73.1103 15.457L73.1809 15.1056L73.7633 15.2374L74.3986 16.1245L74.0368 17.0292L72.925 18.2588L73.3662 18.7331L73.1544 19.4446L73.6309 20.4547L74.4339 21.0519L74.9192 20.7445L76.1634 21.4647L76.7811 21.1661L77.0459 21.5087L77.4782 20.9992L77.7341 21.1573L77.6194 21.4472L78.2459 21.4911L78.2548 19.7696L79.2342 19.1723L79.7019 19.3743L79.4901 19.9101L81.202 19.4885L81.3079 19.2338L82.305 19.3041L82.6492 18.9966L85.4288 19.55L85.1287 20.5074L85.217 21.8512L86.0906 23.0369L82.9227 27.2002L83.7346 29.4839L84.0169 29.7561L84.6346 29.5893L85.4376 31.1966L86.2847 31.8905L86.8053 31.7851L87.4583 32.5229L88.1554 31.8729L88.8084 31.8905L89.2408 33.1201L90.8909 33.3836L91.4645 33.1377L93.6617 34.4201L93.8117 35.597L93.2028 35.8254L93.494 36.5368L93.4411 38.1617L93.9617 38.7326L94.7735 38.8293L94.8617 39.4968L94.4205 39.7779L94.8176 39.9711L94.4294 40.6738L95.1882 41.0953L97.0854 41.3062L97.7119 42.0264L100.121 41.6663L99.8738 42.325L100.474 43.1243L101.7 46.2599L99.4768 46.743L99.2826 47.0855L99.9621 47.2349L99.9974 48.3415L101.665 48.93L101.568 50.2827L97.209 49.4482L96.6089 51.5474L97.9943 52.0217L97.6061 53.9804L98.409 54.3142L95.5853 57.8363L95.8236 58.9517L95.4618 59.7686L94.2264 59.022L94.5706 58.7497L94.3588 58.5828L91.8615 58.8727L91.0321 58.5477L89.885 58.618L89.4084 57.8714L88.2701 57.3005L87.9172 57.5728L86.62 61.0158L87.723 65.4865L87.4848 65.6007L87.476 65.1088L85.7023 63.5103L85.0582 63.9758L84.6964 65.144L84.1316 65.5041L83.161 64.9771L83.2492 64.6521L83.8934 64.7136L84.1669 64.292L83.108 63.967L82.9757 63.6771L81.855 63.844L81.9962 64.1778L81.5903 64.5116L80.7785 64.1514L80.1784 64.4501L80.1608 65.7939L79.4372 65.6709L78.4401 66.3033L77.9724 66.1804L77.5135 66.8128L77.1076 66.8918L76.7458 66.4439L76.0576 66.6283L75.5458 67.208L74.9634 67.1641L75.0075 68.0161L74.5045 67.858L74.1869 68.5167L74.4075 69.3863L73.7633 69.72L72.7044 69.0174L72.1396 69.439L71.4955 68.9471L71.1425 69.2457L69.3336 67.9458L69.7483 69.7552L68.1953 70.7301L67.8688 71.5382L67.0834 72.2408L67.8688 72.9962L66.6864 74.8231L66.3422 76.8608L66.5716 77.4142L67.3746 77.9939L67.3482 78.7053L67.7188 78.758L67.7011 79.2323L67.0128 79.3026L66.9687 79.7681L67.657 80.1721L66.104 80.3039L66.2098 81.8936L66.9864 81.5862L67.4364 81.92L66.5981 82.7456L66.7481 83.6854L66.1128 84.7219L66.1569 84.0455L65.8657 83.8172L64.8244 83.7996L64.2068 83.1936L63.2802 82.9389L62.5567 82.2011L61.9566 82.368L61.2331 82.0693L60.933 81.5774L61.1007 80.5937L60.9065 80.2336L59.3623 80.0492L58.3829 79.3114L57.8799 78.3189L56.8386 78.3364L55.2238 77.6777L54.1208 76.6413L51.7824 75.0603L50.1323 74.6914L48.7469 74.9373L47.8557 74.1907L47.2821 73.1982L46.4527 73.4178L46.3821 73.9536L45.3497 74.8319L45.7026 75.0251L45.1643 75.842L44.3349 75.9386L44.5202 76.2197L43.7966 76.1845L43.4701 75.3677L41.5906 76.044L41.6788 74.4103L41.4759 74.3576L40.3287 74.2171L40.1258 74.4718L40.1081 74.1907L39.5787 74.1995L39.411 75.4994L37.9374 74.3576L36.9755 74.5069L36.8079 74.1732L37.2579 74.0063L36.3755 72.0915L37.3197 71.0727L36.8697 70.0889L37.0109 69.439L36.4726 68.9822L36.5785 68.6924L35.8373 68.5431L35.3431 68.0951L36.0579 67.8492L36.4373 66.883L35.6343 66.1452L35.3607 66.2682L35.2725 65.5743L34.6901 64.8629L34.4871 64.898L34.7607 65.8115L34.7784 68.7627L33.4459 68.868L32.9782 68.3938L32.2105 68.5343L32.0958 67.0675L31.7605 66.5405L32.0164 65.9432L30.7457 63.9582L28.4691 63.8616L27.9132 63.1326L27.2426 63.0535L26.9425 62.588L27.0573 61.5692L26.6337 61.1827L25.3365 61.7448L24.1453 61.6131L23.1393 61.13L21.9393 61.007L20.3509 61.8151L19.795 60.9807L18.992 60.6469L17.1478 61.0685L16.3889 60.4712L15.833 60.8314L15.2241 59.7247L14.4123 59.4085L13.9358 58.7936L12.7181 58.3984L11.5268 57.4059L11.8798 56.8262L11.4474 56.7998L11.3768 56.5363L11.871 56.0796L12.7798 53.8047L13.7328 54.9905L15.4006 55.1837L17.139 56.1674L19.6979 56.2465L19.6185 55.2891L18.9391 54.7621L18.2684 54.7885L17.8625 54.077L17.9772 52.9615L17.1037 52.3819L17.739 51.8636L17.8184 49.58L18.8332 49.5449L20.0068 48.3767L19.9627 46.2511L20.1921 46.014L18.4449 44.758L18.9126 44.2661L18.4626 42.7993L18.7802 42.2284L18.0302 42.0527L17.4125 41.2007L14.7741 40.2609L14.7388 37.9861L14.227 37.1165L13.0446 36.9496L12.6563 35.518L11.0768 35.9308L10.662 34.7187L8.80899 32.3472L9.31195 31.8817L9.6561 32.3121L10.6268 31.7148L10.0179 31.0122L10.1591 29.9933L10.4591 29.8703L10.1061 29.5541L10.362 28.4123L8.96782 27.5076L8.53545 25.0922L7.93539 24.9956L8.03247 24.3896L7.50301 23.968L7.203 24.8112L6.88531 24.8551L5.24404 22.8174L5.70289 22.1059L5.10285 21.4735L6.65591 21.1046L6.48825 19.9804L2.81741 18.9176L2.41151 17.9514L0.920231 16.7745L1.29083 16.2299L1.05259 16.0367L0.258423 15.1408L0.717267 13.5861L0.540801 13.3841L1.79381 12.5497L1.46732 12.0315L2.11149 11.1093L1.8997 10.5735L4.06161 10.0904L4.37046 10.4505L4.67048 10.1958L5.13816 10.5471L5.46464 9.83568L5.1558 9.32625L6.25881 9.01884L6.36469 8.26348L7.2383 7.86823L7.0177 7.3061L7.2383 6.9372L8.53545 6.81424L8.6678 7.42906L9.35608 7.77161L9.58552 7.56081L10.8385 8.15808L12.268 8.13173L12.0827 9.50192L13.2563 10.6525L14.3593 9.985L16.4242 10.1343L16.5213 9.60732L17.686 9.44922L17.6419 10.0553H19.6626L19.7685 10.3012L19.9627 9.985L20.3862 10.4505L20.5715 10.2309L21.198 10.5296L21.4804 10.1343L21.0745 9.8796L21.1804 9.458L22.5834 9.31747L24.9571 7.70135L24.8512 6.9899L25.6895 6.71762L25.4601 6.40142L25.8748 6.02374L26.3072 6.09401L26.4925 5.34743L26.819 5.21568L26.6514 4.64477L27.8514 4.68869L28.1691 3.32728L28.7427 3.26579L29.4839 2.46652Z"/>
</mask>
<path d="M29.4839 2.46652L30.5163 2.60705L30.9575 3.14283L32.6076 2.29964L33.1459 2.98473L34.0283 3.2131L34.5224 2.9496L34.646 1.59697L35.7225 0.938232L36.3932 1.76386L36.8697 1.90439L36.9755 2.4226L38.5992 2.45773L38.6874 3.50295L39.7375 3.45903L39.9757 4.21439L40.3905 4.53059L40.4169 4.10899L41.2552 3.78401L41.6965 3.92454L41.8641 4.46911L42.3847 3.55564L43.0907 4.33735L43.5319 3.89819L44.5202 3.65226L48.8175 4.84679L49.497 5.35621L50.097 5.3123L51.103 4.46911L52.6648 3.85427L52.8325 3.50295L52.5854 3.16918L51.8001 3.07256L51.6677 2.69488L53.5296 1.90439H54.0767L54.8003 2.69488L55.9386 1.23686L58.1887 2.93203L58.074 3.47659L59.1947 2.71245L60.3948 3.18675L59.8653 3.90698L60.2712 4.29344L60.836 3.81914L60.8889 2.98473L62.4772 2.22058L63.342 2.36112L63.8715 1.82534L64.7274 2.54557L65.0539 6.4629L68.8659 9.59853L68.61 10.0026L69.5454 10.9687L69.2365 11.8822L69.6071 12.2599L70.7278 13.2348L72.5632 13.4807L72.7838 15.2198L73.1103 15.457L73.1809 15.1056L73.7633 15.2374L74.3986 16.1245L74.0368 17.0292L72.925 18.2588L73.3662 18.7331L73.1544 19.4446L73.6309 20.4547L74.4339 21.0519L74.9192 20.7445L76.1634 21.4647L76.7811 21.1661L77.0459 21.5087L77.4782 20.9992L77.7341 21.1573L77.6194 21.4472L78.2459 21.4911L78.2548 19.7696L79.2342 19.1723L79.7019 19.3743L79.4901 19.9101L81.202 19.4885L81.3079 19.2338L82.305 19.3041L82.6492 18.9966L85.4288 19.55L85.1287 20.5074L85.217 21.8512L86.0906 23.0369L82.9227 27.2002L83.7346 29.4839L84.0169 29.7561L84.6346 29.5893L85.4376 31.1966L86.2847 31.8905L86.8053 31.7851L87.4583 32.5229L88.1554 31.8729L88.8084 31.8905L89.2408 33.1201L90.8909 33.3836L91.4645 33.1377L93.6617 34.4201L93.8117 35.597L93.2028 35.8254L93.494 36.5368L93.4411 38.1617L93.9617 38.7326L94.7735 38.8293L94.8617 39.4968L94.4205 39.7779L94.8176 39.9711L94.4294 40.6738L95.1882 41.0953L97.0854 41.3062L97.7119 42.0264L100.121 41.6663L99.8738 42.325L100.474 43.1243L101.7 46.2599L99.4768 46.743L99.2826 47.0855L99.9621 47.2349L99.9974 48.3415L101.665 48.93L101.568 50.2827L97.209 49.4482L96.6089 51.5474L97.9943 52.0217L97.6061 53.9804L98.409 54.3142L95.5853 57.8363L95.8236 58.9517L95.4618 59.7686L94.2264 59.022L94.5706 58.7497L94.3588 58.5828L91.8615 58.8727L91.0321 58.5477L89.885 58.618L89.4084 57.8714L88.2701 57.3005L87.9172 57.5728L86.62 61.0158L87.723 65.4865L87.4848 65.6007L87.476 65.1088L85.7023 63.5103L85.0582 63.9758L84.6964 65.144L84.1316 65.5041L83.161 64.9771L83.2492 64.6521L83.8934 64.7136L84.1669 64.292L83.108 63.967L82.9757 63.6771L81.855 63.844L81.9962 64.1778L81.5903 64.5116L80.7785 64.1514L80.1784 64.4501L80.1608 65.7939L79.4372 65.6709L78.4401 66.3033L77.9724 66.1804L77.5135 66.8128L77.1076 66.8918L76.7458 66.4439L76.0576 66.6283L75.5458 67.208L74.9634 67.1641L75.0075 68.0161L74.5045 67.858L74.1869 68.5167L74.4075 69.3863L73.7633 69.72L72.7044 69.0174L72.1396 69.439L71.4955 68.9471L71.1425 69.2457L69.3336 67.9458L69.7483 69.7552L68.1953 70.7301L67.8688 71.5382L67.0834 72.2408L67.8688 72.9962L66.6864 74.8231L66.3422 76.8608L66.5716 77.4142L67.3746 77.9939L67.3482 78.7053L67.7188 78.758L67.7011 79.2323L67.0128 79.3026L66.9687 79.7681L67.657 80.1721L66.104 80.3039L66.2098 81.8936L66.9864 81.5862L67.4364 81.92L66.5981 82.7456L66.7481 83.6854L66.1128 84.7219L66.1569 84.0455L65.8657 83.8172L64.8244 83.7996L64.2068 83.1936L63.2802 82.9389L62.5567 82.2011L61.9566 82.368L61.2331 82.0693L60.933 81.5774L61.1007 80.5937L60.9065 80.2336L59.3623 80.0492L58.3829 79.3114L57.8799 78.3189L56.8386 78.3364L55.2238 77.6777L54.1208 76.6413L51.7824 75.0603L50.1323 74.6914L48.7469 74.9373L47.8557 74.1907L47.2821 73.1982L46.4527 73.4178L46.3821 73.9536L45.3497 74.8319L45.7026 75.0251L45.1643 75.842L44.3349 75.9386L44.5202 76.2197L43.7966 76.1845L43.4701 75.3677L41.5906 76.044L41.6788 74.4103L41.4759 74.3576L40.3287 74.2171L40.1258 74.4718L40.1081 74.1907L39.5787 74.1995L39.411 75.4994L37.9374 74.3576L36.9755 74.5069L36.8079 74.1732L37.2579 74.0063L36.3755 72.0915L37.3197 71.0727L36.8697 70.0889L37.0109 69.439L36.4726 68.9822L36.5785 68.6924L35.8373 68.5431L35.3431 68.0951L36.0579 67.8492L36.4373 66.883L35.6343 66.1452L35.3607 66.2682L35.2725 65.5743L34.6901 64.8629L34.4871 64.898L34.7607 65.8115L34.7784 68.7627L33.4459 68.868L32.9782 68.3938L32.2105 68.5343L32.0958 67.0675L31.7605 66.5405L32.0164 65.9432L30.7457 63.9582L28.4691 63.8616L27.9132 63.1326L27.2426 63.0535L26.9425 62.588L27.0573 61.5692L26.6337 61.1827L25.3365 61.7448L24.1453 61.6131L23.1393 61.13L21.9393 61.007L20.3509 61.8151L19.795 60.9807L18.992 60.6469L17.1478 61.0685L16.3889 60.4712L15.833 60.8314L15.2241 59.7247L14.4123 59.4085L13.9358 58.7936L12.7181 58.3984L11.5268 57.4059L11.8798 56.8262L11.4474 56.7998L11.3768 56.5363L11.871 56.0796L12.7798 53.8047L13.7328 54.9905L15.4006 55.1837L17.139 56.1674L19.6979 56.2465L19.6185 55.2891L18.9391 54.7621L18.2684 54.7885L17.8625 54.077L17.9772 52.9615L17.1037 52.3819L17.739 51.8636L17.8184 49.58L18.8332 49.5449L20.0068 48.3767L19.9627 46.2511L20.1921 46.014L18.4449 44.758L18.9126 44.2661L18.4626 42.7993L18.7802 42.2284L18.0302 42.0527L17.4125 41.2007L14.7741 40.2609L14.7388 37.9861L14.227 37.1165L13.0446 36.9496L12.6563 35.518L11.0768 35.9308L10.662 34.7187L8.80899 32.3472L9.31195 31.8817L9.6561 32.3121L10.6268 31.7148L10.0179 31.0122L10.1591 29.9933L10.4591 29.8703L10.1061 29.5541L10.362 28.4123L8.96782 27.5076L8.53545 25.0922L7.93539 24.9956L8.03247 24.3896L7.50301 23.968L7.203 24.8112L6.88531 24.8551L5.24404 22.8174L5.70289 22.1059L5.10285 21.4735L6.65591 21.1046L6.48825 19.9804L2.81741 18.9176L2.41151 17.9514L0.920231 16.7745L1.29083 16.2299L1.05259 16.0367L0.258423 15.1408L0.717267 13.5861L0.540801 13.3841L1.79381 12.5497L1.46732 12.0315L2.11149 11.1093L1.8997 10.5735L4.06161 10.0904L4.37046 10.4505L4.67048 10.1958L5.13816 10.5471L5.46464 9.83568L5.1558 9.32625L6.25881 9.01884L6.36469 8.26348L7.2383 7.86823L7.0177 7.3061L7.2383 6.9372L8.53545 6.81424L8.6678 7.42906L9.35608 7.77161L9.58552 7.56081L10.8385 8.15808L12.268 8.13173L12.0827 9.50192L13.2563 10.6525L14.3593 9.985L16.4242 10.1343L16.5213 9.60732L17.686 9.44922L17.6419 10.0553H19.6626L19.7685 10.3012L19.9627 9.985L20.3862 10.4505L20.5715 10.2309L21.198 10.5296L21.4804 10.1343L21.0745 9.8796L21.1804 9.458L22.5834 9.31747L24.9571 7.70135L24.8512 6.9899L25.6895 6.71762L25.4601 6.40142L25.8748 6.02374L26.3072 6.09401L26.4925 5.34743L26.819 5.21568L26.6514 4.64477L27.8514 4.68869L28.1691 3.32728L28.7427 3.26579L29.4839 2.46652Z" fill="#7360F2" stroke="white" stroke-width="0.4" mask="url(#path-1-inside-1_902_2298)"/>
<path d="M74 33.2858C77.0771 33.2858 79.5714 35.7801 79.5714 38.8572C79.5714 41.2115 77.9171 43.7772 74.6514 46.5818C74.4698 46.7378 74.2383 46.8234 73.9989 46.8232C73.7595 46.823 73.5282 46.7369 73.3468 46.5806L73.1308 46.3932C70.0097 43.6618 68.4286 41.1589 68.4286 38.8572C68.4286 35.7801 70.9228 33.2858 74 33.2858ZM74 36.7143C73.4317 36.7143 72.8866 36.9401 72.4848 37.342C72.0829 37.7438 71.8571 38.2889 71.8571 38.8572C71.8571 39.4255 72.0829 39.9706 72.4848 40.3724C72.8866 40.7743 73.4317 41.0001 74 41.0001C74.5683 41.0001 75.1134 40.7743 75.5152 40.3724C75.9171 39.9706 76.1428 39.4255 76.1428 38.8572C76.1428 38.2889 75.9171 37.7438 75.5152 37.342C75.1134 36.9401 74.5683 36.7143 74 36.7143Z" fill="#FBE75E"/>
</svg>
