<svg width="18" height="18" viewBox="0 0 18 18" fill="none" xmlns="http://www.w3.org/2000/svg">
<path d="M1.28632 10.2993L0.869575 9.69947L1.27698 9.49122L1.28395 10.0941L1.28632 10.2993ZM1.44781 10.5317L1.28878 10.3028L1.44809 10.1696L1.52017 10.1094L1.53133 10.2501L1.72855 10.2643L1.89117 9.54561L2.24941 10.194L2.43312 10.1182L2.15085 9.1266L2.41825 8.90246L4.70161 8.36668L7.04306 8.50632L7.10041 8.32072L6.23567 7.80251L6.21954 7.79284L6.201 7.78969L4.94247 7.57601L5.41182 7.25022L5.43975 7.23084L5.45007 7.19844L5.85598 5.92485L5.86177 5.90668L5.86046 5.88764L5.51848 0.903559L5.90146 0.260238L6.57708 0.166383L7.31413 0.621755L7.33662 0.635651L7.36304 0.636616L9.25097 0.705592L9.66747 1.07324L9.93473 2.27428L9.44104 2.52364L8.61628 2.40517L8.56344 2.39758L8.52773 2.43726L8.1483 2.85884L8.11738 2.8932L8.12352 2.93901L8.21176 3.59776L8.21649 3.63307L8.24248 3.65744L9.00134 4.36888L9.04737 4.41203L9.10613 4.38907L11.1961 3.57246L12.6081 4.4124L12.8044 5.30801L12.7028 5.58961L11.7102 6.17735L11.6627 6.20543L11.6612 6.26053L11.617 7.7976L11.6162 7.82438L11.629 7.84796L11.8849 8.32224L11.9 8.35021L11.9284 8.36434L14.3977 9.58896L14.7333 11.5589L14.7365 11.578L14.7467 11.5944L16.9753 15.2252L16.6081 15.8953H16.0231H15.9827L15.9537 15.9233L15.6536 16.2132L15.6252 16.2407L15.6232 16.2802L15.5927 16.9039L14.498 16.8878L14.479 16.8875L14.4612 16.8942L12.7109 17.5563L11.4782 17.6226L10.5743 16.2306L10.5412 16.1797L10.4808 16.1856L9.33182 16.2965L8.91019 16.0371L8.47867 14.2503L8.47347 14.2288L8.45969 14.2114L7.88612 13.4912L7.87171 13.4731L7.85081 13.4632L7.46254 13.2787L7.43625 13.2663L7.40736 13.2698L6.01331 13.4422L4.54673 12.8203L4.50509 12.8026L4.46433 12.8222L4.01087 13.0404L3.09791 11.7565L3.08866 11.7435L3.07582 11.734L1.44781 10.5317Z" fill="#7360F2" stroke="white" stroke-width="0.2"/>
</svg>
