<svg width="83" height="108" viewBox="0 0 83 108" fill="none" xmlns="http://www.w3.org/2000/svg">
<mask id="path-1-inside-1_902_2307" fill="white">
<path d="M27.4437 0.896247L27.9643 2.22252L27.5584 2.89005L28.5291 3.53123L29.4556 3.82108L29.6233 3.47853L29.9145 3.6542L30.6733 4.76967L30.5233 6.41214L31.0616 6.52633L31.1587 7.05332L32.2882 7.29047L32.6058 8.45865L33.8677 8.63431L34.1677 9.53021L34.053 10.3031L35.7472 11.524L35.5884 12.578L34.953 13.2104L35.2354 13.9131L34.15 14.9056L34.6795 14.9495L35.2442 16.3285L35.0501 17.0223L35.2266 17.9797L36.4178 18.3662L36.2149 19.2006L36.5855 19.8769L37.9268 19.833L38.4474 21.1856L39.0386 21.7565L38.8886 22.1869L40.0445 22.6436L40.0357 23.6801L39.7357 24.0665L40.2034 24.1631L40.6446 23.724H41.2358L42.1358 24.6287L43.0271 24.9888L43.3359 25.6739L43.8566 25.8056L44.7125 26.6664L44.4919 28.4494L45.339 29.5561L45.4625 30.6013L44.9066 31.6201L43.2036 32.112L41.527 31.7431L40.9799 32.4721L39.3386 32.8498L38.6503 32.5951L38.3503 32.9903L37.1061 33.3856L36.1266 33.2538L34.7765 34.2903L35.006 34.5713L35.4384 34.4659L35.6325 35.0808L36.1972 35.1247L36.2061 35.4936L37.2649 35.3794L37.7415 37.6016L38.6503 37.4786L38.7739 38.638L39.3563 38.1813L39.9475 39.3758L40.0181 40.6581L41.1123 40.7372L41.5182 41.3608L41.4388 41.7209L40.9005 41.7297L40.9887 43.1702L40.3269 43.4776L39.6739 44.3032L39.8857 45.1025L39.6298 45.5241L38.9768 45.647L39.1798 46.1125L38.8533 46.2355L39.0915 47.0963L39.771 47.0436L40.3622 47.6935L40.9534 47.6057L40.8564 48.1678L41.3417 48.0976L42.2506 48.5807L42.3829 49.1428L41.6241 50.188L40.7152 50.1177L40.9093 50.7501L40.724 51.2859L40.4946 51.242L40.3534 51.8041L39.5592 52.1115L39.8857 52.8405L39.2945 53.0777L39.2063 53.4729L41.5799 54.7553L42.2241 54.685L43.8212 53.1128L45.3302 53.8594L45.6655 53.6837L46.8656 54.4567L47.6068 54.5533L47.8892 54.1317L48.4627 54.1405L49.6363 54.9573L50.307 54.0087L52.0806 54.3425L52.3277 56.7227L53.7572 57.8382L54.1455 57.443L55.4602 57.7504L55.8485 57.2761L56.4574 57.8821L57.1192 57.9788L57.2163 57.3727L58.0192 56.6173L58.4516 56.9248L59.1134 56.714L59.484 56.2397L60.2782 56.3363L60.437 55.739L61.5224 54.9397L62.3872 55.0276L63.2343 55.6161L63.3667 56.3187L64.0108 55.7742L64.3108 55.0627L65.8374 55.1066L66.6227 55.4492L66.0492 56.8808L66.2257 57.9348L65.8992 58.2862L66.3139 58.778L66.4198 59.6915L67.3022 60.157L66.9757 60.8421L67.3992 61.3867L67.311 61.8171L66.7816 61.7204L66.5698 62.0893L67.0286 62.0542L67.7699 63.5122L68.4935 63.8109L69.6053 62.915L70.2318 63.2751L70.3024 62.8974L71.2289 62.5548L71.2554 62.3089L72.5084 63.0204L73.3379 62.9062L73.6555 63.4507L74.2203 63.6703L74.3262 64.7594L73.6114 65.0756L73.232 65.629L71.6878 65.2601L72.6584 67.087L71.9525 68.6241L72.1201 69.0369L73.1349 69.1686L73.1614 69.4848L73.8055 69.5727L74.0967 69.9943L74.185 70.5652L73.5232 70.8902L74.0173 71.6016L73.5761 72.0671L74.2203 72.4536L74.6527 73.2441L74.5291 75.3696L75.641 76.2304L76.4087 76.2128L76.7352 76.4851L76.241 77.9695L76.3734 78.3296L75.7292 78.839L75.8174 79.1991L76.1528 79.2694L75.8969 79.9633L76.1616 80.6045L76.9205 81.2193L76.691 82.2294L75.9498 81.7375L74.035 82.405L73.9291 82.976L74.8468 84.6975L73.8938 85.7866L74.9968 86.6298L75.2086 88.0615L76.3998 90.0026L78.9412 91.5923L79.1706 91.1356L79.6295 91.7768L79.603 94.728L80.4677 95.2286L80.203 95.6327L80.8825 96.2914L81.9678 96.309L81.809 96.6252L82.5061 96.8008L82.3473 97.5386L81.9061 97.6704L81.7825 98.1798H81.2531L80.8295 97.8724L80.9531 97.644L79.8942 97.3893L79.2765 97.8548L77.6176 97.969L78.1382 98.6541L77.8293 99.1635L77.2381 98.7771L76.9558 99.0406L75.8792 98.0568L75.3321 98.0041L74.8468 97.2136L74.2909 97.8373L73.4967 97.8548L73.5496 98.9527L72.0319 97.8548L71.0436 99.225L72.0143 99.8838L71.2201 100.42L70.1347 100.367L69.8788 101.737L69.3053 101.719L69.1729 102.097L68.0522 101.57L67.8934 101.992L66.658 101.377L65.5374 102.571L64.2755 103.116L64.3196 103.784L63.4725 104.943L63.0843 104.855L63.049 104.302L62.4313 104.126L62.3254 104.425L62.1313 104.152L61.0194 104.047L61.3459 105.233L60.4282 105.549L57.6486 104.996L57.3045 105.303L56.3074 105.233L56.2015 105.487L54.4896 105.909L54.7014 105.373L54.2337 105.171L53.2542 105.769L53.2454 107.49L52.6189 107.446L52.7336 107.156L52.4777 106.998L52.0453 107.508L51.7806 107.165L51.1629 107.464L49.9187 106.743L49.4334 107.051L48.6304 106.454L48.1539 105.444L48.3657 104.732L47.9245 104.258L49.0363 103.028L49.3981 102.123L48.7627 101.236L48.1804 101.105L48.1098 101.456L47.7833 101.219L47.5627 99.4797L45.7273 99.2338L44.6066 98.2589L44.236 97.8812L44.5448 96.9677L43.6095 96.0015L43.8654 95.5975L40.0534 92.4619L39.7269 88.5445L38.8709 87.8243L38.3415 88.3601L37.4767 88.2196L35.8884 88.9837L35.8354 89.8181L35.2707 90.2924L34.8648 89.906L35.3942 89.1857L34.1942 88.7114L33.0735 89.4756L33.1882 88.931L30.9381 87.2358L29.7998 88.6939L29.0762 87.9034H28.5291L26.6672 88.6939L26.7996 89.0715L27.5849 89.1682L27.832 89.5019L27.6643 89.8533L26.1025 90.4681L25.0965 91.3113L24.4965 91.3552L23.817 90.8458L19.5197 89.6512L18.5314 89.8972L18.0902 90.3363L17.3843 89.5546L16.8636 90.4681L16.696 89.9235L16.2548 89.783L15.4165 90.108L15.39 90.5296L14.9753 90.2134L14.737 89.458L13.687 89.5019L13.5987 88.4567L11.9751 88.4216L11.8692 87.9034L11.3927 87.7628L10.7221 86.9372L9.64552 87.596L9.52197 88.9486L9.02783 89.2121L8.14542 88.9837L7.60716 88.2986L5.95703 89.1418L5.51582 88.606L4.48342 88.4655L3.93633 87.5081L5.38347 85.7251L5.48055 85.163L6.10705 84.9961L5.55996 84.6536L6.08941 83.0199L5.94822 82.5983L6.89241 82.1064L6.98063 80.341L6.57473 79.5505L8.82486 79.0323L9.57492 78.5316L9.37198 78.2857L8.84253 78.3472L8.63076 77.8641H8.08364L7.03357 75.8176L7.46597 75.4487L7.09535 74.1751L7.95128 73.1563L7.50125 72.963L7.82776 72.2516L7.55422 71.3293L7.91598 70.978L8.6484 70.9868L8.33071 69.5815L8.45427 67.8336L7.28948 67.8951L6.92769 68.1761L6.61884 68.0093L5.96586 65.6817L4.79227 66.3668L4.78344 66.8147L3.72453 66.3668L4.20987 64.8209L4.95993 64.2676L4.27165 63.6879L4.57167 62.7744L3.62748 62.59L3.58337 62.1508L1.26263 61.7292L1.13908 61.9576L0.794952 61.6502L2.20679 59.2348L1.31557 58.374L1.98618 57.3464L1.73911 57.118L2.16268 56.6437L3.26569 56.5998L3.66279 56.3275L3.41571 55.2559L4.50989 54.0351L4.22751 53.4729L4.65991 52.3399L3.68042 52.1203L4.22751 51.9973L3.83925 51.6811L4.45695 51.4879L4.81874 50.7062L4.39517 49.6346L3.56571 49.6522L3.62748 48.5719L3.03625 47.2983L3.88339 46.6835L4.15693 46.9118L3.59218 47.5442L4.29812 47.9219L4.28046 48.4577L5.03934 48.6246L5.77173 48.5104L5.70996 47.8868L5.26875 47.8516L5.06581 47.4388L5.77173 47.5003L5.94822 47.9483L6.35413 47.9746L6.48648 47.1841L5.95703 46.8943L6.43354 46.2619L5.86881 45.7349L6.08058 44.3295L6.47768 43.8289L6.34529 43.0823L6.55709 42.5114L6.91005 42.6695L8.18955 41.9844L7.97776 40.4913L7.50125 40.2278L7.11301 39.2879L7.2189 38.919L8.60426 38.963L9.07196 38.4623L8.13658 38.2954L7.06887 37.0746L6.98946 35.555L6.27471 35.3443L6.72475 34.4044L6.48648 31.6201L5.54232 30.5574L5.1717 29.275L4.82755 29.1696L5.07462 28.8007L5.47171 28.8446L6.10705 27.4657L6.79533 27.1582L6.55709 26.4819L6.2306 26.3414L6.07175 24.9273L7.68657 23.9084L7.71304 22.9686L9.02783 22.8632L8.97488 22.4768L9.78671 22.4241L10.122 21.9498L11.0486 22.1781L11.2339 21.5896L11.7898 21.414L12.2133 21.7741L12.9457 21.7565L13.634 19.4553L12.4427 18.0061L11.5339 17.6196L11.8957 16.8379L13.0516 16.873L14.0487 15.9244L14.4723 15.942L15.1782 17.0663L16.4136 16.5217L17.3578 16.4953L17.3754 14.1151L17.1107 14.361L16.1224 14.0185L15.5488 14.1766L15.7253 13.7374L15.4606 13.1226L14.737 12.8679L14.8076 12.376L12.6457 11.3835L12.2398 11.6294L12.681 11.8402L12.0722 11.7524L12.231 10.918L12.5486 10.8213L11.8957 9.86397L11.7986 9.21401L12.3986 8.60796L11.8957 8.0107L12.9104 7.61545L13.4575 6.63173L13.2104 5.9115L13.5987 5.8588L13.9076 5.37572L13.8722 4.73454L14.2429 4.31294L13.9782 3.99674L14.437 3.82986L14.0929 3.03058L14.7988 2.76708L15.2135 1.66918L15.7871 1.84484L15.5665 1.27393L16.1047 0.606399L16.3783 1.04556L17.799 1.10705L17.9931 1.79214L17.7196 2.19617L17.1636 2.284L16.7842 3.21503L19.0873 3.80351L19.2903 3.31165L18.7255 2.74952L19.8109 3.31165L20.5256 2.24009L22.0963 1.95902L22.7228 1.50229L22.8287 1.0807L23.7729 0.834764L24.2494 1.23879L26.0231 0.536133L27.4437 0.896247Z"/>
</mask>
<path d="M27.4437 0.896247L27.9643 2.22252L27.5584 2.89005L28.5291 3.53123L29.4556 3.82108L29.6233 3.47853L29.9145 3.6542L30.6733 4.76967L30.5233 6.41214L31.0616 6.52633L31.1587 7.05332L32.2882 7.29047L32.6058 8.45865L33.8677 8.63431L34.1677 9.53021L34.053 10.3031L35.7472 11.524L35.5884 12.578L34.953 13.2104L35.2354 13.9131L34.15 14.9056L34.6795 14.9495L35.2442 16.3285L35.0501 17.0223L35.2266 17.9797L36.4178 18.3662L36.2149 19.2006L36.5855 19.8769L37.9268 19.833L38.4474 21.1856L39.0386 21.7565L38.8886 22.1869L40.0445 22.6436L40.0357 23.6801L39.7357 24.0665L40.2034 24.1631L40.6446 23.724H41.2358L42.1358 24.6287L43.0271 24.9888L43.3359 25.6739L43.8566 25.8056L44.7125 26.6664L44.4919 28.4494L45.339 29.5561L45.4625 30.6013L44.9066 31.6201L43.2036 32.112L41.527 31.7431L40.9799 32.4721L39.3386 32.8498L38.6503 32.5951L38.3503 32.9903L37.1061 33.3856L36.1266 33.2538L34.7765 34.2903L35.006 34.5713L35.4384 34.4659L35.6325 35.0808L36.1972 35.1247L36.2061 35.4936L37.2649 35.3794L37.7415 37.6016L38.6503 37.4786L38.7739 38.638L39.3563 38.1813L39.9475 39.3758L40.0181 40.6581L41.1123 40.7372L41.5182 41.3608L41.4388 41.7209L40.9005 41.7297L40.9887 43.1702L40.3269 43.4776L39.6739 44.3032L39.8857 45.1025L39.6298 45.5241L38.9768 45.647L39.1798 46.1125L38.8533 46.2355L39.0915 47.0963L39.771 47.0436L40.3622 47.6935L40.9534 47.6057L40.8564 48.1678L41.3417 48.0976L42.2506 48.5807L42.3829 49.1428L41.6241 50.188L40.7152 50.1177L40.9093 50.7501L40.724 51.2859L40.4946 51.242L40.3534 51.8041L39.5592 52.1115L39.8857 52.8405L39.2945 53.0777L39.2063 53.4729L41.5799 54.7553L42.2241 54.685L43.8212 53.1128L45.3302 53.8594L45.6655 53.6837L46.8656 54.4567L47.6068 54.5533L47.8892 54.1317L48.4627 54.1405L49.6363 54.9573L50.307 54.0087L52.0806 54.3425L52.3277 56.7227L53.7572 57.8382L54.1455 57.443L55.4602 57.7504L55.8485 57.2761L56.4574 57.8821L57.1192 57.9788L57.2163 57.3727L58.0192 56.6173L58.4516 56.9248L59.1134 56.714L59.484 56.2397L60.2782 56.3363L60.437 55.739L61.5224 54.9397L62.3872 55.0276L63.2343 55.6161L63.3667 56.3187L64.0108 55.7742L64.3108 55.0627L65.8374 55.1066L66.6227 55.4492L66.0492 56.8808L66.2257 57.9348L65.8992 58.2862L66.3139 58.778L66.4198 59.6915L67.3022 60.157L66.9757 60.8421L67.3992 61.3867L67.311 61.8171L66.7816 61.7204L66.5698 62.0893L67.0286 62.0542L67.7699 63.5122L68.4935 63.8109L69.6053 62.915L70.2318 63.2751L70.3024 62.8974L71.2289 62.5548L71.2554 62.3089L72.5084 63.0204L73.3379 62.9062L73.6555 63.4507L74.2203 63.6703L74.3262 64.7594L73.6114 65.0756L73.232 65.629L71.6878 65.2601L72.6584 67.087L71.9525 68.6241L72.1201 69.0369L73.1349 69.1686L73.1614 69.4848L73.8055 69.5727L74.0967 69.9943L74.185 70.5652L73.5232 70.8902L74.0173 71.6016L73.5761 72.0671L74.2203 72.4536L74.6527 73.2441L74.5291 75.3696L75.641 76.2304L76.4087 76.2128L76.7352 76.4851L76.241 77.9695L76.3734 78.3296L75.7292 78.839L75.8174 79.1991L76.1528 79.2694L75.8969 79.9633L76.1616 80.6045L76.9205 81.2193L76.691 82.2294L75.9498 81.7375L74.035 82.405L73.9291 82.976L74.8468 84.6975L73.8938 85.7866L74.9968 86.6298L75.2086 88.0615L76.3998 90.0026L78.9412 91.5923L79.1706 91.1356L79.6295 91.7768L79.603 94.728L80.4677 95.2286L80.203 95.6327L80.8825 96.2914L81.9678 96.309L81.809 96.6252L82.5061 96.8008L82.3473 97.5386L81.9061 97.6704L81.7825 98.1798H81.2531L80.8295 97.8724L80.9531 97.644L79.8942 97.3893L79.2765 97.8548L77.6176 97.969L78.1382 98.6541L77.8293 99.1635L77.2381 98.7771L76.9558 99.0406L75.8792 98.0568L75.3321 98.0041L74.8468 97.2136L74.2909 97.8373L73.4967 97.8548L73.5496 98.9527L72.0319 97.8548L71.0436 99.225L72.0143 99.8838L71.2201 100.42L70.1347 100.367L69.8788 101.737L69.3053 101.719L69.1729 102.097L68.0522 101.57L67.8934 101.992L66.658 101.377L65.5374 102.571L64.2755 103.116L64.3196 103.784L63.4725 104.943L63.0843 104.855L63.049 104.302L62.4313 104.126L62.3254 104.425L62.1313 104.152L61.0194 104.047L61.3459 105.233L60.4282 105.549L57.6486 104.996L57.3045 105.303L56.3074 105.233L56.2015 105.487L54.4896 105.909L54.7014 105.373L54.2337 105.171L53.2542 105.769L53.2454 107.49L52.6189 107.446L52.7336 107.156L52.4777 106.998L52.0453 107.508L51.7806 107.165L51.1629 107.464L49.9187 106.743L49.4334 107.051L48.6304 106.454L48.1539 105.444L48.3657 104.732L47.9245 104.258L49.0363 103.028L49.3981 102.123L48.7627 101.236L48.1804 101.105L48.1098 101.456L47.7833 101.219L47.5627 99.4797L45.7273 99.2338L44.6066 98.2589L44.236 97.8812L44.5448 96.9677L43.6095 96.0015L43.8654 95.5975L40.0534 92.4619L39.7269 88.5445L38.8709 87.8243L38.3415 88.3601L37.4767 88.2196L35.8884 88.9837L35.8354 89.8181L35.2707 90.2924L34.8648 89.906L35.3942 89.1857L34.1942 88.7114L33.0735 89.4756L33.1882 88.931L30.9381 87.2358L29.7998 88.6939L29.0762 87.9034H28.5291L26.6672 88.6939L26.7996 89.0715L27.5849 89.1682L27.832 89.5019L27.6643 89.8533L26.1025 90.4681L25.0965 91.3113L24.4965 91.3552L23.817 90.8458L19.5197 89.6512L18.5314 89.8972L18.0902 90.3363L17.3843 89.5546L16.8636 90.4681L16.696 89.9235L16.2548 89.783L15.4165 90.108L15.39 90.5296L14.9753 90.2134L14.737 89.458L13.687 89.5019L13.5987 88.4567L11.9751 88.4216L11.8692 87.9034L11.3927 87.7628L10.7221 86.9372L9.64552 87.596L9.52197 88.9486L9.02783 89.2121L8.14542 88.9837L7.60716 88.2986L5.95703 89.1418L5.51582 88.606L4.48342 88.4655L3.93633 87.5081L5.38347 85.7251L5.48055 85.163L6.10705 84.9961L5.55996 84.6536L6.08941 83.0199L5.94822 82.5983L6.89241 82.1064L6.98063 80.341L6.57473 79.5505L8.82486 79.0323L9.57492 78.5316L9.37198 78.2857L8.84253 78.3472L8.63076 77.8641H8.08364L7.03357 75.8176L7.46597 75.4487L7.09535 74.1751L7.95128 73.1563L7.50125 72.963L7.82776 72.2516L7.55422 71.3293L7.91598 70.978L8.6484 70.9868L8.33071 69.5815L8.45427 67.8336L7.28948 67.8951L6.92769 68.1761L6.61884 68.0093L5.96586 65.6817L4.79227 66.3668L4.78344 66.8147L3.72453 66.3668L4.20987 64.8209L4.95993 64.2676L4.27165 63.6879L4.57167 62.7744L3.62748 62.59L3.58337 62.1508L1.26263 61.7292L1.13908 61.9576L0.794952 61.6502L2.20679 59.2348L1.31557 58.374L1.98618 57.3464L1.73911 57.118L2.16268 56.6437L3.26569 56.5998L3.66279 56.3275L3.41571 55.2559L4.50989 54.0351L4.22751 53.4729L4.65991 52.3399L3.68042 52.1203L4.22751 51.9973L3.83925 51.6811L4.45695 51.4879L4.81874 50.7062L4.39517 49.6346L3.56571 49.6522L3.62748 48.5719L3.03625 47.2983L3.88339 46.6835L4.15693 46.9118L3.59218 47.5442L4.29812 47.9219L4.28046 48.4577L5.03934 48.6246L5.77173 48.5104L5.70996 47.8868L5.26875 47.8516L5.06581 47.4388L5.77173 47.5003L5.94822 47.9483L6.35413 47.9746L6.48648 47.1841L5.95703 46.8943L6.43354 46.2619L5.86881 45.7349L6.08058 44.3295L6.47768 43.8289L6.34529 43.0823L6.55709 42.5114L6.91005 42.6695L8.18955 41.9844L7.97776 40.4913L7.50125 40.2278L7.11301 39.2879L7.2189 38.919L8.60426 38.963L9.07196 38.4623L8.13658 38.2954L7.06887 37.0746L6.98946 35.555L6.27471 35.3443L6.72475 34.4044L6.48648 31.6201L5.54232 30.5574L5.1717 29.275L4.82755 29.1696L5.07462 28.8007L5.47171 28.8446L6.10705 27.4657L6.79533 27.1582L6.55709 26.4819L6.2306 26.3414L6.07175 24.9273L7.68657 23.9084L7.71304 22.9686L9.02783 22.8632L8.97488 22.4768L9.78671 22.4241L10.122 21.9498L11.0486 22.1781L11.2339 21.5896L11.7898 21.414L12.2133 21.7741L12.9457 21.7565L13.634 19.4553L12.4427 18.0061L11.5339 17.6196L11.8957 16.8379L13.0516 16.873L14.0487 15.9244L14.4723 15.942L15.1782 17.0663L16.4136 16.5217L17.3578 16.4953L17.3754 14.1151L17.1107 14.361L16.1224 14.0185L15.5488 14.1766L15.7253 13.7374L15.4606 13.1226L14.737 12.8679L14.8076 12.376L12.6457 11.3835L12.2398 11.6294L12.681 11.8402L12.0722 11.7524L12.231 10.918L12.5486 10.8213L11.8957 9.86397L11.7986 9.21401L12.3986 8.60796L11.8957 8.0107L12.9104 7.61545L13.4575 6.63173L13.2104 5.9115L13.5987 5.8588L13.9076 5.37572L13.8722 4.73454L14.2429 4.31294L13.9782 3.99674L14.437 3.82986L14.0929 3.03058L14.7988 2.76708L15.2135 1.66918L15.7871 1.84484L15.5665 1.27393L16.1047 0.606399L16.3783 1.04556L17.799 1.10705L17.9931 1.79214L17.7196 2.19617L17.1636 2.284L16.7842 3.21503L19.0873 3.80351L19.2903 3.31165L18.7255 2.74952L19.8109 3.31165L20.5256 2.24009L22.0963 1.95902L22.7228 1.50229L22.8287 1.0807L23.7729 0.834764L24.2494 1.23879L26.0231 0.536133L27.4437 0.896247Z" fill="#7360F2" stroke="white" stroke-width="0.4" mask="url(#path-1-inside-1_902_2307)"/>
<path d="M50 60.2858C53.0772 60.2858 55.5715 62.7801 55.5715 65.8572C55.5715 68.2115 53.9172 70.7772 50.6515 73.5818C50.4699 73.7378 50.2384 73.8234 49.999 73.8232C49.7596 73.823 49.5282 73.7369 49.3469 73.5806L49.1309 73.3932C46.0098 70.6618 44.4286 68.1589 44.4286 65.8572C44.4286 62.7801 46.9229 60.2858 50 60.2858ZM50 63.7143C49.4317 63.7143 48.8867 63.9401 48.4848 64.342C48.083 64.7438 47.8572 65.2889 47.8572 65.8572C47.8572 66.4255 48.083 66.9706 48.4848 67.3724C48.8867 67.7743 49.4317 68.0001 50 68.0001C50.5684 68.0001 51.1134 67.7743 51.5153 67.3724C51.9171 66.9706 52.1429 66.4255 52.1429 65.8572C52.1429 65.2889 51.9171 64.7438 51.5153 64.342C51.1134 63.9401 50.5684 63.7143 50 63.7143Z" fill="#FBE75E"/>
</svg>
