<svg width="52" height="81" viewBox="0 0 52 81" fill="none" xmlns="http://www.w3.org/2000/svg">
<mask id="path-1-inside-1_903_2318" fill="white">
<path d="M18.9183 12.3997L19.3684 10.4762L21.3626 10.1424L21.5744 9.27288L22.1215 8.78102L22.0156 8.21889L23.0921 7.86756L22.9686 7.31421L22.1303 7.15611L21.9274 6.70816L21.8744 5.65417L22.7127 4.94272L23.4981 5.03934L23.4716 5.42581L25.0776 5.70687L25.7306 4.54748L27.2748 5.58391L28.9955 4.37182L30.072 4.57383L30.2485 3.959L31.3603 4.3279L32.2869 4.02048L33.0281 4.19615L34.1046 3.77455L34.687 2.43949L36.293 0.700405L37.1401 0.69162L37.546 1.20105L38.4902 1.52603L38.6932 1.93884L40.2197 0.726754L43.2376 1.99154L44.1553 0.357851L44.9936 0.27002L44.8524 1.93884L43.9082 1.88615L44.1023 2.55367L43.7405 3.42322L44.9494 4.24006L44.6936 4.50356L44.8877 5.24136L44.6141 5.49607L45.02 5.99672L45.6289 5.97037L45.373 6.49737L46.5378 7.38447V7.89391L44.3671 8.04322L44.3935 9.40463L44.9936 9.81744L45.1348 10.4674H44.8612L44.8436 10.9066L44.2788 10.9329L43.6523 11.4511L44.6582 11.8288L44.3494 12.9267L43.4052 12.8477L43.3699 13.2605L42.7787 13.7172L42.6817 14.6131L43.2552 16.2644L42.3287 17.011V17.3711L43.1052 17.7575L43.1582 18.0562L44.3671 18.6798L43.6611 19.6547L44.7906 21.3411L45.0642 22.6674L45.4965 22.9397L45.6642 24.2747L44.7377 24.8105L44.067 25.8908L45.5407 26.8394L46.4496 27.8671L46.5466 28.4204L46.0878 28.6224L46.0613 29.3251L45.3201 29.2724L45.1259 29.8521L44.3406 30.5372L44.7641 31.5121L44.5612 31.881L44.8965 33.181L44.4465 33.3391L44.2435 32.8736L43.6258 33.2512L42.6287 35.0255L44.0935 36.422L44.1729 38.732L45.3377 40.0934L44.9583 41.121L45.6289 41.5251L45.3112 41.9818L45.6201 42.5615L45.1348 42.4912L45.1259 43.4662L45.7966 44.1074L45.7701 44.7485L46.1407 45.1526L45.823 45.2931L45.9995 45.7586L45.6024 45.6796L46.0525 46.3295L45.6201 46.7423L45.6466 47.2079L44.4288 47.1903L44.3935 48.2004L44.0317 48.2794L44.1729 48.6571L43.8641 49.3334L44.1641 50.0097L44.0229 50.4577L44.6582 50.9232L44.0229 51.0198L44.4465 52.2143L44.217 52.4515L44.4288 53.7865L44.0847 54.8317L44.7818 55.0074L43.8906 55.8067L44.57 56.7026L44.2876 57.212L44.7906 57.9498L44.6141 58.266L44.0935 58.0903L43.6876 58.3978L43.8641 58.7579L44.7112 58.9687L43.6611 59.4693L44.5612 60.3125L44.1465 61.1645L44.2347 61.9111H43.8729L44.217 62.5522L44.6847 62.1921L45.02 62.3063L44.4994 62.8948L44.7553 63.6677L44.42 64.7305L44.87 64.9676L45.3818 66.373L46.0878 66.4959L45.7789 66.8824L45.1171 66.6628L45.3995 67.6992L44.7994 67.1722L44.5788 67.3743L44.8083 68.156L45.426 68.3141L45.2406 68.9904L45.6907 69.3329L45.6113 69.5437L45.0377 69.3856L45.6554 70.0971L45.2671 71.3355L45.5495 71.8449L45.02 72.3193L45.1612 72.5915L45.7083 72.5037L45.7436 73.1976L46.6084 73.1361L46.4672 74.155L47.5879 73.8212L47.0143 74.559L47.8791 74.6644L48.0114 74.9542L47.1202 75.2704L48.0555 75.7974L48.6115 76.9393L49.0791 76.869L48.4261 77.6858L49.2733 78.1514L49.1233 78.8452L49.4762 78.8364L49.8027 77.9054L50.588 78.9067L51.3734 78.652L51.6028 79.0648L50.0674 79.1878L48.9115 80.4174L48.0908 80.0222L47.3761 80.3647L46.379 78.977L44.2523 79.6357L43.3876 79.4952L42.7611 78.5993L42.664 76.2981L41.861 75.3846L41.3757 75.6745L41.2257 76.3157L42.1081 77.7561L42.161 78.4061L41.1992 79.0736L39.6991 76.992L40.3521 75.9907L40.1668 74.4624L39.8932 74.155L39.3108 74.3658L39.002 75.815L37.6343 75.2968L36.4254 76.6231L35.6488 76.8426L34.6605 76.2629L33.9193 76.3771L34.0517 75.2616L32.5339 73.2239L31.9604 72.8902L31.6162 72.8989L31.1397 73.4435L30.4867 74.7874L29.7896 73.4699L27.2748 72.978L27.0189 72.6442L27.9278 71.8625L27.9631 71.4234L26.7983 70.9666L26.6924 70.5714L27.4866 69.9653L27.6101 69.5437L26.3835 68.7796L24.7599 67.1283L23.5863 66.979L22.0774 65.8372L21.9185 65.4595L22.5098 64.7569L22.0244 64.2211L21.4862 63.9927L21.2656 64.1772L21.592 64.9764L21.3273 65.3102L19.5007 64.5987L18.8036 64.6251L19.0772 66.9351L18.7419 67.0229L18.3007 66.4345L17.8947 66.373L17.2771 67.0229L16.8888 68.033L16.077 67.954L15.5828 67.1635L15.7152 66.452L16.3152 66.048L17.8859 66.0304L18.2212 65.4156L17.983 65.1521L17.2859 65.2487L16.8535 64.4407L15.8299 64.1947L15.2475 65.1082H14.7181L15.3269 63.5535L15.4858 61.3314L14.7445 61.7617L14.1533 61.5509L14.3386 62.1482L13.4562 62.9475L13.5445 64.1069L13.2092 64.344L12.6709 64.1596L12.0267 61.6212L12.8738 60.7429L11.7708 59.8558L11.9385 58.4153L11.2061 59.1268L9.05299 57.7829L7.5176 58.5822L7.54407 57.739L5.67336 55.833L6.02633 54.5595L8.25 55.0865L8.20588 54.6561L7.7382 54.5331L8.01175 52.9521L7.34994 52.6008L5.62042 52.4251L4.30563 50.9144L4.28798 50.159L6.44106 47.6382L3.90854 46.3822L3.81147 45.6181L3.44086 45.2316L3.36145 43.8263L4.32327 42.4034L3.64382 41.9379L3.3438 40.9015L2.97319 40.638L2.36432 40.9366L1.88782 40.6995L1.42897 38.407L0.211245 35.6842L0.361253 33.3391L0.0259399 32.2763L2.29373 32.1709L2.45257 31.5824L3.37027 31.2399L3.72323 31.7581L3.65264 30.9676L4.37622 30.9588L4.70271 30.4845L5.68219 30.9764L5.50571 30.5196L5.82338 30.2298L6.65284 30.5021L6.5293 30.1507L7.04992 30.2122L7.4823 29.3075L8.13529 29.0967L8.47943 26.5057L9.12359 24.7402L9.83834 24.9949L10.509 25.9172L11.9826 24.4152L10.756 23.1592L11.2061 22.4127L10.9678 20.577L12.5473 21.0688L12.9533 20.2871L13.6239 20.331L13.871 20.05L15.3887 20.7263L15.8829 20.6472V20.1729L16.2535 20.0763L17.1006 20.5418L17.4182 19.3297L19.6066 18.7588L20.1625 17.3447L19.7037 16.6508L20.0302 15.7022L21.1685 15.3246L20.5155 14.903L20.7361 14.0422L20.4449 13.3044L18.9183 12.3997Z"/>
</mask>
<path d="M18.9183 12.3997L19.3684 10.4762L21.3626 10.1424L21.5744 9.27288L22.1215 8.78102L22.0156 8.21889L23.0921 7.86756L22.9686 7.31421L22.1303 7.15611L21.9274 6.70816L21.8744 5.65417L22.7127 4.94272L23.4981 5.03934L23.4716 5.42581L25.0776 5.70687L25.7306 4.54748L27.2748 5.58391L28.9955 4.37182L30.072 4.57383L30.2485 3.959L31.3603 4.3279L32.2869 4.02048L33.0281 4.19615L34.1046 3.77455L34.687 2.43949L36.293 0.700405L37.1401 0.69162L37.546 1.20105L38.4902 1.52603L38.6932 1.93884L40.2197 0.726754L43.2376 1.99154L44.1553 0.357851L44.9936 0.27002L44.8524 1.93884L43.9082 1.88615L44.1023 2.55367L43.7405 3.42322L44.9494 4.24006L44.6936 4.50356L44.8877 5.24136L44.6141 5.49607L45.02 5.99672L45.6289 5.97037L45.373 6.49737L46.5378 7.38447V7.89391L44.3671 8.04322L44.3935 9.40463L44.9936 9.81744L45.1348 10.4674H44.8612L44.8436 10.9066L44.2788 10.9329L43.6523 11.4511L44.6582 11.8288L44.3494 12.9267L43.4052 12.8477L43.3699 13.2605L42.7787 13.7172L42.6817 14.6131L43.2552 16.2644L42.3287 17.011V17.3711L43.1052 17.7575L43.1582 18.0562L44.3671 18.6798L43.6611 19.6547L44.7906 21.3411L45.0642 22.6674L45.4965 22.9397L45.6642 24.2747L44.7377 24.8105L44.067 25.8908L45.5407 26.8394L46.4496 27.8671L46.5466 28.4204L46.0878 28.6224L46.0613 29.3251L45.3201 29.2724L45.1259 29.8521L44.3406 30.5372L44.7641 31.5121L44.5612 31.881L44.8965 33.181L44.4465 33.3391L44.2435 32.8736L43.6258 33.2512L42.6287 35.0255L44.0935 36.422L44.1729 38.732L45.3377 40.0934L44.9583 41.121L45.6289 41.5251L45.3112 41.9818L45.6201 42.5615L45.1348 42.4912L45.1259 43.4662L45.7966 44.1074L45.7701 44.7485L46.1407 45.1526L45.823 45.2931L45.9995 45.7586L45.6024 45.6796L46.0525 46.3295L45.6201 46.7423L45.6466 47.2079L44.4288 47.1903L44.3935 48.2004L44.0317 48.2794L44.1729 48.6571L43.8641 49.3334L44.1641 50.0097L44.0229 50.4577L44.6582 50.9232L44.0229 51.0198L44.4465 52.2143L44.217 52.4515L44.4288 53.7865L44.0847 54.8317L44.7818 55.0074L43.8906 55.8067L44.57 56.7026L44.2876 57.212L44.7906 57.9498L44.6141 58.266L44.0935 58.0903L43.6876 58.3978L43.8641 58.7579L44.7112 58.9687L43.6611 59.4693L44.5612 60.3125L44.1465 61.1645L44.2347 61.9111H43.8729L44.217 62.5522L44.6847 62.1921L45.02 62.3063L44.4994 62.8948L44.7553 63.6677L44.42 64.7305L44.87 64.9676L45.3818 66.373L46.0878 66.4959L45.7789 66.8824L45.1171 66.6628L45.3995 67.6992L44.7994 67.1722L44.5788 67.3743L44.8083 68.156L45.426 68.3141L45.2406 68.9904L45.6907 69.3329L45.6113 69.5437L45.0377 69.3856L45.6554 70.0971L45.2671 71.3355L45.5495 71.8449L45.02 72.3193L45.1612 72.5915L45.7083 72.5037L45.7436 73.1976L46.6084 73.1361L46.4672 74.155L47.5879 73.8212L47.0143 74.559L47.8791 74.6644L48.0114 74.9542L47.1202 75.2704L48.0555 75.7974L48.6115 76.9393L49.0791 76.869L48.4261 77.6858L49.2733 78.1514L49.1233 78.8452L49.4762 78.8364L49.8027 77.9054L50.588 78.9067L51.3734 78.652L51.6028 79.0648L50.0674 79.1878L48.9115 80.4174L48.0908 80.0222L47.3761 80.3647L46.379 78.977L44.2523 79.6357L43.3876 79.4952L42.7611 78.5993L42.664 76.2981L41.861 75.3846L41.3757 75.6745L41.2257 76.3157L42.1081 77.7561L42.161 78.4061L41.1992 79.0736L39.6991 76.992L40.3521 75.9907L40.1668 74.4624L39.8932 74.155L39.3108 74.3658L39.002 75.815L37.6343 75.2968L36.4254 76.6231L35.6488 76.8426L34.6605 76.2629L33.9193 76.3771L34.0517 75.2616L32.5339 73.2239L31.9604 72.8902L31.6162 72.8989L31.1397 73.4435L30.4867 74.7874L29.7896 73.4699L27.2748 72.978L27.0189 72.6442L27.9278 71.8625L27.9631 71.4234L26.7983 70.9666L26.6924 70.5714L27.4866 69.9653L27.6101 69.5437L26.3835 68.7796L24.7599 67.1283L23.5863 66.979L22.0774 65.8372L21.9185 65.4595L22.5098 64.7569L22.0244 64.2211L21.4862 63.9927L21.2656 64.1772L21.592 64.9764L21.3273 65.3102L19.5007 64.5987L18.8036 64.6251L19.0772 66.9351L18.7419 67.0229L18.3007 66.4345L17.8947 66.373L17.2771 67.0229L16.8888 68.033L16.077 67.954L15.5828 67.1635L15.7152 66.452L16.3152 66.048L17.8859 66.0304L18.2212 65.4156L17.983 65.1521L17.2859 65.2487L16.8535 64.4407L15.8299 64.1947L15.2475 65.1082H14.7181L15.3269 63.5535L15.4858 61.3314L14.7445 61.7617L14.1533 61.5509L14.3386 62.1482L13.4562 62.9475L13.5445 64.1069L13.2092 64.344L12.6709 64.1596L12.0267 61.6212L12.8738 60.7429L11.7708 59.8558L11.9385 58.4153L11.2061 59.1268L9.05299 57.7829L7.5176 58.5822L7.54407 57.739L5.67336 55.833L6.02633 54.5595L8.25 55.0865L8.20588 54.6561L7.7382 54.5331L8.01175 52.9521L7.34994 52.6008L5.62042 52.4251L4.30563 50.9144L4.28798 50.159L6.44106 47.6382L3.90854 46.3822L3.81147 45.6181L3.44086 45.2316L3.36145 43.8263L4.32327 42.4034L3.64382 41.9379L3.3438 40.9015L2.97319 40.638L2.36432 40.9366L1.88782 40.6995L1.42897 38.407L0.211245 35.6842L0.361253 33.3391L0.0259399 32.2763L2.29373 32.1709L2.45257 31.5824L3.37027 31.2399L3.72323 31.7581L3.65264 30.9676L4.37622 30.9588L4.70271 30.4845L5.68219 30.9764L5.50571 30.5196L5.82338 30.2298L6.65284 30.5021L6.5293 30.1507L7.04992 30.2122L7.4823 29.3075L8.13529 29.0967L8.47943 26.5057L9.12359 24.7402L9.83834 24.9949L10.509 25.9172L11.9826 24.4152L10.756 23.1592L11.2061 22.4127L10.9678 20.577L12.5473 21.0688L12.9533 20.2871L13.6239 20.331L13.871 20.05L15.3887 20.7263L15.8829 20.6472V20.1729L16.2535 20.0763L17.1006 20.5418L17.4182 19.3297L19.6066 18.7588L20.1625 17.3447L19.7037 16.6508L20.0302 15.7022L21.1685 15.3246L20.5155 14.903L20.7361 14.0422L20.4449 13.3044L18.9183 12.3997Z" fill="#7360F2" stroke="white" stroke-width="0.4" mask="url(#path-1-inside-1_903_2318)"/>
<path d="M26 18.2858C29.0772 18.2858 31.5714 20.7801 31.5714 23.8572C31.5714 26.2115 29.9172 28.7772 26.6514 31.5818C26.4699 31.7378 26.2383 31.8234 25.9989 31.8232C25.7596 31.823 25.5282 31.7369 25.3469 31.5806L25.1309 31.3932C22.0097 28.6618 20.4286 26.1589 20.4286 23.8572C20.4286 20.7801 22.9229 18.2858 26 18.2858ZM26 21.7143C25.4317 21.7143 24.8867 21.9401 24.4848 22.342C24.0829 22.7438 23.8572 23.2889 23.8572 23.8572C23.8572 24.4255 24.0829 24.9706 24.4848 25.3724C24.8867 25.7743 25.4317 26.0001 26 26.0001C26.5683 26.0001 27.1134 25.7743 27.5152 25.3724C27.9171 24.9706 28.1429 24.4255 28.1429 23.8572C28.1429 23.2889 27.9171 22.7438 27.5152 22.342C27.1134 21.9401 26.5683 21.7143 26 21.7143Z" fill="#FBE75E"/>
</svg>
