<svg width="80" height="83" viewBox="0 0 80 83" fill="none" xmlns="http://www.w3.org/2000/svg">
<mask id="path-1-inside-1_903_2312" fill="white">
<path d="M13.7832 6.54354L13.7744 6.14829L14.2068 6.33273L15.2657 6.09558L15.7598 5.55102L16.6599 5.48955L17.4452 5.06794L20.8867 5.45441L21.972 5.37536L23.2074 4.60243L25.2281 4.50581L25.4752 4.71661L26.0664 4.1984L26.1193 3.48696L26.6664 4.03152L28.7224 4.38284L30.0372 5.00646L30.8844 4.54973L31.3697 3.0478H32.7639L33.2051 3.7241L34.4934 3.22346L35.7729 5.24362L36.6377 4.89228L36.6994 3.64505L37.3259 3.46939L38.9849 3.89976L39.8408 3.68897L40.3261 4.25988L40.635 4.18961L41.2439 2.08163L42.1527 2.11676L42.2498 1.73031L43.9529 1.28235L44.3588 0.0966165L44.8 0L45.4882 0.342547L45.4265 0.983722L47.1736 2.19582L47.006 3.17076L47.4031 3.12684L47.6413 3.90855L46.8472 4.8835L47.5443 5.1909L47.5354 6.14829L48.6826 6.97391L48.409 8.01034L47.0148 9.63525L47.7649 10.3379L48.0472 11.2338L48.9208 11.6905L48.3031 12.6743L48.3296 13.3945L49.1238 13.6755L51.7269 13.5526L52.1946 13.9917L53.0593 13.6316L55.0006 13.7809L55.8477 13.1222L56.1566 13.7107H56.8008L56.9331 11.954L58.4067 11.9979L58.795 12.5864L59.2274 11.9189L59.9686 12.2966L60.7628 10.5926L61.3275 10.9176L61.4687 10.496L63.6747 10.9966L64.5218 11.5939L63.8071 12.2878L63.5688 13.5175L64.4689 15.1951L64.8042 16.8815L65.6337 17.6456L66.1013 17.5402L66.0396 18.0057L64.9542 18.5063L65.0601 19.0421L66.3484 20.0698L65.2984 21.844L63.7012 22.6169L63.56 23.5655L64.1071 24.0135L64.2395 25.3222L64.716 25.9721L65.7131 25.9282L67.1249 26.7363L66.8867 27.4389L67.0102 28.0977L67.3367 28.1416L66.9043 28.651L67.7691 29.4152L68.4574 29.2922L69.1633 29.8104L69.4633 28.9672L69.8781 28.7564L70.134 30.0037L70.5487 30.232L70.2663 30.6097L69.6398 30.4692L70.284 31.5934L69.9045 34.0791L70.1428 34.5797H70.5046L70.5399 35.0979L68.9868 35.5547L69.1633 36.6877L68.0868 36.3364L67.3985 38.2424L67.0191 37.6363V38.0843L66.7543 38.1897L67.7868 40.0869L69.0486 39.5599L69.0751 40.3855L69.3751 40.5699L68.0691 42.5637L68.4133 42.9151L68.0779 43.4245L69.1192 44.5575L69.5516 44.3116L70.4605 44.7771L69.9134 45.3656L70.231 45.6906L70.5222 47.0608L71.2635 47.5351L71.5546 50.293L74.5107 51.2504L74.3695 51.549L75.049 52.5942L74.4666 52.6996L74.1401 53.4199L74.5019 53.6921L74.3431 54.061L74.8637 54.0874L76.0814 55.3171L76.8579 55.3434L76.7962 56.0548L77.7051 56.3447L77.8021 57.0034L78.2786 57.0298L78.058 58.0223L76.9991 58.1628L76.9021 58.804L77.2197 59.3486L78.6139 59.7702L79.0728 62.1944L78.2433 62.168L78.658 62.4227L78.5522 63.2044L77.4933 63.4679L77.5109 64.2672L76.955 65.2861L74.396 66.3664L74.5725 66.7704L72.1635 68.8257L72.8871 69.7743L72.64 70.5297L72.0576 70.6614L71.7841 71.7505L71.4311 72.1195L71.0605 72.0316L71.0429 72.4093L71.7311 73.1822L71.6694 73.8937L72.0047 74.5085L71.7047 75.3693L71.9606 75.9841L71.7135 76.2827L70.2222 76.2652L69.0398 76.9415L68.2456 76.6604L68.8456 77.9515L68.6515 79.84L68.2456 79.9629L68.5986 80.1825L68.4839 80.4723L67.6897 80.323L67.7426 79.7872L66.6132 79.4184L66.4543 80.0683L66.0396 80.2791L66.2249 80.7095L65.766 80.6919L65.6513 80.9291L63.6041 80.7446L62.9158 80.4723L62.6158 79.8048L60.3922 80.2001L60.0657 80.6919L60.1804 81.052L59.7392 81.2628L59.6156 81.0696L59.1744 81.3243L59.0774 81.0257L57.9567 81.4385L57.0302 81.3243L56.5625 81.0696L56.3419 80.3142L55.1506 80.6919L54.683 80.0068L55.6889 79.9014L55.8213 79.5852L56.386 79.4974L56.1125 78.7245L55.6801 79.0231L54.9742 78.9528L54.6653 79.3217L54.0212 78.988L52.8476 79.0582L53.2799 78.6542L52.9623 78.3644L52.5828 78.4785L50.6856 76.6868L50.3503 76.8097L50.4562 77.161L50.015 77.6002L50.1474 78.6279L49.6003 79.3481L49.7944 79.8224L49.3444 80.1122L48.9738 78.6718L48.4708 78.5664L48.162 78.8562L47.006 78.3556L46.4677 81.0959L44.747 81.6493L44.6764 82.1939L44.0676 81.6757L44.3499 80.7973L43.8646 79.7258L43.0793 79.7609L42.8498 79.392L41.8086 79.717L41.3144 79.2163L39.3731 79.6819L39.0908 78.7947L38.1554 78.8738L38.0937 78.5752L37.0171 78.259L36.3994 77.5563L36.0465 77.8022L35.6758 77.4948L34.5022 78.4698L33.814 78.5752L34.2552 79.1549L33.7345 79.594L33.5757 80.3845L33.461 81.904L33.6904 82.3607L32.6404 82.027L31.352 79.8575L31.9168 78.9177L31.555 77.6617L30.1696 77.5651L29.2607 79.2515L28.3871 79.4271L27.9283 79.1109L27.9901 78.1272L29.199 77.3367L29.746 76.3266L29.7637 75.1672L29.296 74.3416L28.3783 74.9565L27.7959 74.6051L24.9281 76.2212L24.3457 75.7821L24.3369 74.1572L23.6574 73.7356L23.0486 73.7004L22.7838 74.4295L22.0338 75.0004L21.469 74.9301L21.1425 74.2187L21.5485 72.1897L21.0984 71.3114L20.3837 70.9249L17.2776 70.6175L15.5922 69.2385L14.8863 67.2799L13.3773 66.6299L12.3008 65.4002L11.0301 64.926L9.17706 65.6725L8.01229 65.5847L6.50336 64.7239L6.90927 63.6963L6.66219 63.3801L4.78266 64.3638L3.75906 63.8017L3.16785 62.6862L3.25608 61.2194L2.37367 58.5756L0 57.2054L0.502967 55.2117L1.26184 54.2016L0.776512 52.8402L1.12948 52.2429L0.5118 51.5315L0.485315 51.0835L1.07654 51.0132L1.00595 50.6971L1.64128 49.7572L1.15596 49.0107L1.34125 48.308V47.7986L1.31478 45.9102L0.582381 44.7859L0.652975 43.2313L1.30596 42.5989L1.33243 41.8611L0.644156 40.9915L0.820635 40.4997L0.264712 40.1483L1.98542 37.408L3.81201 37.3289L3.22961 36.5296L3.87378 35.7567L3.62671 34.9926L4.05026 34.6324L4.91502 35.0101L4.83561 34.1757L6.15922 35.0453L6.77691 34.4392L6.66219 33.4467L7.77403 33.2535L8.02111 32.9548L9.73299 34.2196L10.2536 33.8683L10.9772 34.1845L11.5331 33.6224L11.4449 33.2974L12.1773 32.7879L12.1331 31.6813L12.5655 32.5332L13.2362 31.9975L13.3685 32.3839L13.7744 32.3224L14.4098 32.7704L15.2657 32.5245L15.7069 32.0765L15.5216 31.0401L15.3275 30.7942L14.7804 30.8556L14.4627 29.8192L14.9921 29.3713L14.2509 28.5193L14.648 27.9132L14.6833 27.0876L14.348 26.4816L14.5509 25.7174L14.048 24.7073L13.2097 24.3911L13.1656 23.8817L13.6421 23.7939L13.6332 23.4162L13.1656 23.3372L13.1126 22.9683L13.7568 22.7048L14.2597 21.0799L13.5715 21.3433L12.9273 20.6231L12.5567 20.7724L11.7625 20.4035L11.2772 20.6143L11.0919 20.0522L11.4537 19.5516L11.6919 18.8928L12.0978 18.9192L12.2832 18.4624L10.8978 18.076L10.9066 16.5477L11.4096 16.2666L11.9743 16.9693L12.5038 16.4862L12.592 15.3444L11.5066 14.3255L11.939 13.4823L12.4508 13.2452L12.6979 12.4459L13.0508 12.6655L13.1126 12.156L13.0861 11.2689L11.7714 10.3028L11.6743 8.83597L13.0773 8.64274L12.9361 8.28262L13.845 7.3516L13.7832 6.54354Z"/>
</mask>
<path d="M13.7832 6.54354L13.7744 6.14829L14.2068 6.33273L15.2657 6.09558L15.7598 5.55102L16.6599 5.48955L17.4452 5.06794L20.8867 5.45441L21.972 5.37536L23.2074 4.60243L25.2281 4.50581L25.4752 4.71661L26.0664 4.1984L26.1193 3.48696L26.6664 4.03152L28.7224 4.38284L30.0372 5.00646L30.8844 4.54973L31.3697 3.0478H32.7639L33.2051 3.7241L34.4934 3.22346L35.7729 5.24362L36.6377 4.89228L36.6994 3.64505L37.3259 3.46939L38.9849 3.89976L39.8408 3.68897L40.3261 4.25988L40.635 4.18961L41.2439 2.08163L42.1527 2.11676L42.2498 1.73031L43.9529 1.28235L44.3588 0.0966165L44.8 0L45.4882 0.342547L45.4265 0.983722L47.1736 2.19582L47.006 3.17076L47.4031 3.12684L47.6413 3.90855L46.8472 4.8835L47.5443 5.1909L47.5354 6.14829L48.6826 6.97391L48.409 8.01034L47.0148 9.63525L47.7649 10.3379L48.0472 11.2338L48.9208 11.6905L48.3031 12.6743L48.3296 13.3945L49.1238 13.6755L51.7269 13.5526L52.1946 13.9917L53.0593 13.6316L55.0006 13.7809L55.8477 13.1222L56.1566 13.7107H56.8008L56.9331 11.954L58.4067 11.9979L58.795 12.5864L59.2274 11.9189L59.9686 12.2966L60.7628 10.5926L61.3275 10.9176L61.4687 10.496L63.6747 10.9966L64.5218 11.5939L63.8071 12.2878L63.5688 13.5175L64.4689 15.1951L64.8042 16.8815L65.6337 17.6456L66.1013 17.5402L66.0396 18.0057L64.9542 18.5063L65.0601 19.0421L66.3484 20.0698L65.2984 21.844L63.7012 22.6169L63.56 23.5655L64.1071 24.0135L64.2395 25.3222L64.716 25.9721L65.7131 25.9282L67.1249 26.7363L66.8867 27.4389L67.0102 28.0977L67.3367 28.1416L66.9043 28.651L67.7691 29.4152L68.4574 29.2922L69.1633 29.8104L69.4633 28.9672L69.8781 28.7564L70.134 30.0037L70.5487 30.232L70.2663 30.6097L69.6398 30.4692L70.284 31.5934L69.9045 34.0791L70.1428 34.5797H70.5046L70.5399 35.0979L68.9868 35.5547L69.1633 36.6877L68.0868 36.3364L67.3985 38.2424L67.0191 37.6363V38.0843L66.7543 38.1897L67.7868 40.0869L69.0486 39.5599L69.0751 40.3855L69.3751 40.5699L68.0691 42.5637L68.4133 42.9151L68.0779 43.4245L69.1192 44.5575L69.5516 44.3116L70.4605 44.7771L69.9134 45.3656L70.231 45.6906L70.5222 47.0608L71.2635 47.5351L71.5546 50.293L74.5107 51.2504L74.3695 51.549L75.049 52.5942L74.4666 52.6996L74.1401 53.4199L74.5019 53.6921L74.3431 54.061L74.8637 54.0874L76.0814 55.3171L76.8579 55.3434L76.7962 56.0548L77.7051 56.3447L77.8021 57.0034L78.2786 57.0298L78.058 58.0223L76.9991 58.1628L76.9021 58.804L77.2197 59.3486L78.6139 59.7702L79.0728 62.1944L78.2433 62.168L78.658 62.4227L78.5522 63.2044L77.4933 63.4679L77.5109 64.2672L76.955 65.2861L74.396 66.3664L74.5725 66.7704L72.1635 68.8257L72.8871 69.7743L72.64 70.5297L72.0576 70.6614L71.7841 71.7505L71.4311 72.1195L71.0605 72.0316L71.0429 72.4093L71.7311 73.1822L71.6694 73.8937L72.0047 74.5085L71.7047 75.3693L71.9606 75.9841L71.7135 76.2827L70.2222 76.2652L69.0398 76.9415L68.2456 76.6604L68.8456 77.9515L68.6515 79.84L68.2456 79.9629L68.5986 80.1825L68.4839 80.4723L67.6897 80.323L67.7426 79.7872L66.6132 79.4184L66.4543 80.0683L66.0396 80.2791L66.2249 80.7095L65.766 80.6919L65.6513 80.9291L63.6041 80.7446L62.9158 80.4723L62.6158 79.8048L60.3922 80.2001L60.0657 80.6919L60.1804 81.052L59.7392 81.2628L59.6156 81.0696L59.1744 81.3243L59.0774 81.0257L57.9567 81.4385L57.0302 81.3243L56.5625 81.0696L56.3419 80.3142L55.1506 80.6919L54.683 80.0068L55.6889 79.9014L55.8213 79.5852L56.386 79.4974L56.1125 78.7245L55.6801 79.0231L54.9742 78.9528L54.6653 79.3217L54.0212 78.988L52.8476 79.0582L53.2799 78.6542L52.9623 78.3644L52.5828 78.4785L50.6856 76.6868L50.3503 76.8097L50.4562 77.161L50.015 77.6002L50.1474 78.6279L49.6003 79.3481L49.7944 79.8224L49.3444 80.1122L48.9738 78.6718L48.4708 78.5664L48.162 78.8562L47.006 78.3556L46.4677 81.0959L44.747 81.6493L44.6764 82.1939L44.0676 81.6757L44.3499 80.7973L43.8646 79.7258L43.0793 79.7609L42.8498 79.392L41.8086 79.717L41.3144 79.2163L39.3731 79.6819L39.0908 78.7947L38.1554 78.8738L38.0937 78.5752L37.0171 78.259L36.3994 77.5563L36.0465 77.8022L35.6758 77.4948L34.5022 78.4698L33.814 78.5752L34.2552 79.1549L33.7345 79.594L33.5757 80.3845L33.461 81.904L33.6904 82.3607L32.6404 82.027L31.352 79.8575L31.9168 78.9177L31.555 77.6617L30.1696 77.5651L29.2607 79.2515L28.3871 79.4271L27.9283 79.1109L27.9901 78.1272L29.199 77.3367L29.746 76.3266L29.7637 75.1672L29.296 74.3416L28.3783 74.9565L27.7959 74.6051L24.9281 76.2212L24.3457 75.7821L24.3369 74.1572L23.6574 73.7356L23.0486 73.7004L22.7838 74.4295L22.0338 75.0004L21.469 74.9301L21.1425 74.2187L21.5485 72.1897L21.0984 71.3114L20.3837 70.9249L17.2776 70.6175L15.5922 69.2385L14.8863 67.2799L13.3773 66.6299L12.3008 65.4002L11.0301 64.926L9.17706 65.6725L8.01229 65.5847L6.50336 64.7239L6.90927 63.6963L6.66219 63.3801L4.78266 64.3638L3.75906 63.8017L3.16785 62.6862L3.25608 61.2194L2.37367 58.5756L0 57.2054L0.502967 55.2117L1.26184 54.2016L0.776512 52.8402L1.12948 52.2429L0.5118 51.5315L0.485315 51.0835L1.07654 51.0132L1.00595 50.6971L1.64128 49.7572L1.15596 49.0107L1.34125 48.308V47.7986L1.31478 45.9102L0.582381 44.7859L0.652975 43.2313L1.30596 42.5989L1.33243 41.8611L0.644156 40.9915L0.820635 40.4997L0.264712 40.1483L1.98542 37.408L3.81201 37.3289L3.22961 36.5296L3.87378 35.7567L3.62671 34.9926L4.05026 34.6324L4.91502 35.0101L4.83561 34.1757L6.15922 35.0453L6.77691 34.4392L6.66219 33.4467L7.77403 33.2535L8.02111 32.9548L9.73299 34.2196L10.2536 33.8683L10.9772 34.1845L11.5331 33.6224L11.4449 33.2974L12.1773 32.7879L12.1331 31.6813L12.5655 32.5332L13.2362 31.9975L13.3685 32.3839L13.7744 32.3224L14.4098 32.7704L15.2657 32.5245L15.7069 32.0765L15.5216 31.0401L15.3275 30.7942L14.7804 30.8556L14.4627 29.8192L14.9921 29.3713L14.2509 28.5193L14.648 27.9132L14.6833 27.0876L14.348 26.4816L14.5509 25.7174L14.048 24.7073L13.2097 24.3911L13.1656 23.8817L13.6421 23.7939L13.6332 23.4162L13.1656 23.3372L13.1126 22.9683L13.7568 22.7048L14.2597 21.0799L13.5715 21.3433L12.9273 20.6231L12.5567 20.7724L11.7625 20.4035L11.2772 20.6143L11.0919 20.0522L11.4537 19.5516L11.6919 18.8928L12.0978 18.9192L12.2832 18.4624L10.8978 18.076L10.9066 16.5477L11.4096 16.2666L11.9743 16.9693L12.5038 16.4862L12.592 15.3444L11.5066 14.3255L11.939 13.4823L12.4508 13.2452L12.6979 12.4459L13.0508 12.6655L13.1126 12.156L13.0861 11.2689L11.7714 10.3028L11.6743 8.83597L13.0773 8.64274L12.9361 8.28262L13.845 7.3516L13.7832 6.54354Z" fill="#7360F2" stroke="white" stroke-width="0.4" mask="url(#path-1-inside-1_903_2312)"/>
<path d="M40 19.2858C43.0772 19.2858 45.5714 21.7801 45.5714 24.8572C45.5714 27.2115 43.9172 29.7772 40.6514 32.5818C40.4699 32.7378 40.2383 32.8234 39.9989 32.8232C39.7596 32.823 39.5282 32.7369 39.3469 32.5806L39.1309 32.3932C36.0097 29.6618 34.4286 27.1589 34.4286 24.8572C34.4286 21.7801 36.9229 19.2858 40 19.2858ZM40 22.7143C39.4317 22.7143 38.8867 22.9401 38.4848 23.342C38.0829 23.7438 37.8572 24.2889 37.8572 24.8572C37.8572 25.4255 38.0829 25.9706 38.4848 26.3724C38.8867 26.7743 39.4317 27.0001 40 27.0001C40.5683 27.0001 41.1134 26.7743 41.5152 26.3724C41.9171 25.9706 42.1429 25.4255 42.1429 24.8572C42.1429 24.2889 41.9171 23.7438 41.5152 23.342C41.1134 22.9401 40.5683 22.7143 40 22.7143Z" fill="#FBE75E"/>
</svg>
