<svg width="77" height="99" viewBox="0 0 77 99" fill="none" xmlns="http://www.w3.org/2000/svg">
<mask id="path-1-inside-1_903_2313" fill="white">
<path d="M32.8093 3.51273L33.5594 3.40733L35.4212 5.74368L35.7301 7.42129L36.8507 6.84159L39.1626 4.839L40.5833 4.95319L40.8128 5.32208L41.7216 5.44505L41.7305 5.92813L44.766 6.01596L43.9541 6.40243L44.0512 6.61323L44.6159 6.39364L44.2718 6.74497L45.4984 11.7778L46.0454 12.0149L47.1043 10.8819L47.0955 12.3399L47.5632 13.3061L48.0926 12.7527L48.1897 11.6724L48.4279 11.567L48.2691 10.4867L47.8279 9.90695L49.681 6.42877L50.5634 6.24433L52.187 5.08493L53.9783 5.03223L54.1901 5.83152L54.8872 5.77003L55.7784 5.08493L58.1256 2.09862L59.8905 2.01957L60.164 2.29185L59.7846 3.20531L60.3934 3.46881L60.1905 3.97824L61.0552 4.6809L61.2229 5.83152L62.4759 6.13014L62.6877 7.87802L62.2994 9.49414L62.9171 10.4779V11.119L64.0025 11.4616L64.6025 13.9121L64.5055 15.0627L65.6614 14.7641L65.6702 15.2033L66.7203 15.0452L66.8527 17.6626L65.5644 20.0429L64.7967 20.157L64.8143 19.8672L62.9524 20.4645L63.7642 24.4696L64.4613 26.9553L64.7172 27.0256L64.8761 25.5939L65.3702 25.4709L67.2939 26.7796L68.6616 28.7734L70.1352 30.1085L68.7675 32.2077L68.8469 33.6745L69.1469 33.9907L68.1057 33.5867L67.2762 33.6394L67.2321 35.3433L67.9557 35.5893L68.6881 36.327L69.3234 37.8993L70.2588 38.6546L70.5147 39.1992L69.8529 40.6572L70.6912 41.2193L71.0971 41.0349L71.3177 41.7463L70.0823 41.5092L69.694 41.72L69.7823 42.3875L70.4264 42.7828L70.0558 43.055L70.1794 43.5469L69.0234 43.6962L70.0911 43.9509L70.8235 43.503L72.0324 43.6962L72.0677 44.6624L72.8089 45.6637L72.1824 47.1129L70.8412 48.0791L70.8147 48.7115L70.1088 49.1331L69.6058 48.8871L69.3499 49.054L69.1822 49.2648L69.4558 49.6601L68.9352 50.1958L69.0322 50.4593L68.5469 50.3715L68.6528 50.635L68.2645 50.7931L69.6852 52.0491L70.0205 52.9274L69.9146 54.0429L69.5176 54.6753L68.7057 54.605L68.9263 55.1145L68.7146 55.6854L70.0558 56.3529L70.1794 57.6792L69.3852 58.2677L68.5557 57.7495L68.3528 58.5751L69.747 58.742L69.8617 59.2163L68.9705 60.3317L68.1675 60.279L68.6351 61.0081L69.2352 60.8675L69.5352 60.402L71.5912 60.0155L72.0942 60.4284L72.553 61.1925L72.5883 62.2026L73.1884 62.3519L73.4178 62.7559L73.9825 62.4749L73.3296 63.8363L73.6296 64.3545L75.0061 64.741L75.6503 64.5828L75.1473 65.874L75.5003 66.6557L74.812 66.9192L75.8974 68.9657L75.4738 69.1501L75.1297 70.1866L74.2296 71.1967L75.6503 72.5405L74.662 73.7438L74.6091 74.1391L75.165 74.183L74.3443 74.7627L75.7474 76.3964L75.6768 77.7051L75.165 78.1091L75.7915 79.3563L75.5709 79.7164L76.418 80.6738L76.268 80.9549L76.921 82.123L76.6562 82.7115L75.0326 83.5986L75.7385 83.9851L74.4414 85.1884L74.8385 85.3816L74.4326 85.8208L74.1061 85.6276L73.4884 86.4356L72.9766 86.2512L72.8089 86.7694L71.3265 87.1471L71.1059 87.8849L70.1264 87.1734L69.6587 87.5687L69.8088 87.9991L69.3764 88.649L69.0058 88.122L68.3969 88.649L68.0086 88.5524L68.741 90.5286L68.0439 92.1009L68.3087 92.8123L69.7117 92.8299L69.597 94.7798L70.3294 95.0872L70.0205 95.7108L67.8145 95.2101L67.6733 95.6317L67.1086 95.3068L66.3144 97.0107L65.5732 96.633L65.1408 97.3005L64.7525 96.7121L63.2789 96.6682L63.1466 98.4248H62.5024L62.1936 97.8363L61.3464 98.4951L59.4051 98.3458L58.5404 98.7059L58.0727 98.2667L55.4696 98.3897L54.6754 98.1086L54.6489 97.3884L55.2666 96.4047L54.393 95.9479L54.1107 95.052L53.3606 94.3494L54.7548 92.7245L55.0284 91.688L53.8812 90.8624L53.8901 89.905L53.193 89.5976L53.9871 88.6227L53.7489 87.841L53.3518 87.8849L53.5195 86.9099L51.7723 85.6978L51.8341 85.0567L51.1458 84.7141L50.7046 84.8107L50.2987 85.9965L48.5956 86.4444L48.4985 86.8309L47.5897 86.7958L46.9808 88.9037L46.672 88.974L46.1866 88.4031L45.3307 88.6139L43.6718 88.1835L43.0453 88.3592L42.9835 89.6064L42.1187 89.9577L40.8392 87.9376L39.5509 88.4382L39.1097 87.7619H37.7155L37.2302 89.2639L36.3831 89.7206L35.0683 89.097L33.0123 88.7456L32.4652 88.2011L32.4122 88.9125L31.821 89.4307L31.5739 89.2199L29.5532 89.3166L28.3178 90.0895L27.2325 90.1685L23.7911 89.7821L23.0057 90.2037L22.1057 90.2651L21.6115 90.8097L20.5526 91.0469L20.1203 90.8624L20.1291 91.2577L19.5732 91.3718L19.3879 92.0833L18.7966 92.1799L17.0936 90.4145L16.2112 90.2388L16.97 88.7632L15.1876 88.4558L14.8876 88.9916L13.8022 87.0505L13.9169 86.5059L13.5022 85.3553L13.9169 84.6087L13.0521 84.7229L12.2756 83.8007L11.958 84.152L11.5609 84.0642L11.5432 82.7379L11.8344 82.6852L11.8874 82.1494L12.3639 81.9825L11.6226 79.9887L11.5962 79.0928L11.9227 79.0489L12.0462 78.6888L12.4433 78.7151L13.4669 79.3827L14.3846 77.8895L15.1699 78.4077L15.5582 77.9071L15.1788 76.0362L13.6257 75.5971L14.0316 74.8241L13.9081 74.3499L14.4199 74.2884L13.9346 73.9107L14.1287 72.9094L15.5758 72.2682L15.0993 71.6885L15.064 70.6609L14.2522 70.9156L14.4287 71.6007L13.8728 71.6797L13.3963 69.6069L12.9727 69.6947L13.0786 67.6833L11.455 68.2191L11.0314 69.1062L10.7402 69.1238L9.88429 68.509L9.5931 67.736L8.49008 67.534L8.48126 66.8753L7.88122 66.8226L7.86358 67.0597L6.90174 66.199L7.37825 66.2517L7.25472 65.9706L7.75768 65.7862L6.70761 64.7146L6.18699 64.3106L4.69572 64.2842L4.76631 62.5539L2.71913 61.3243L2.9662 60.0419L3.96332 58.3467L4.18392 56.7569L3.23093 56.8272L2.99267 55.782L1.49258 54.9125L1.06019 53.5159L2.11908 53.2963L1.67788 52.3917L2.07496 51.5397L0.901367 50.6701L1.51905 49.9763L1.57199 49.1858L1.26314 48.8959L1.52787 48.5095L2.51617 48.2811L3.45153 46.0941L3.10739 44.961L3.31034 44.153L2.48087 43.8016L2.49853 42.7564L2.22498 42.4841L2.47206 41.1139L2.1985 40.5694L2.73677 39.7262L2.56912 39.1465L2.80736 38.5844L2.56912 38.3911L2.8603 37.8641L1.71318 36.854L1.81907 36.2129L2.33087 36.0109L2.31321 35.5805L1.13961 32.9894L1.9426 32.6117L1.86319 31.5665L3.46035 31.4436L3.61036 31.0219L5.01339 30.978L4.6869 30.2578L4.86338 29.2829L6.13405 28.4221L6.09876 26.3053L6.53113 26.0858L6.39878 25.6466L7.6518 23.4332L9.36367 21.7819L9.29308 21.3076L8.58715 20.93L9.02835 20.482L8.35773 18.3301L9.96371 17.9964L10.7491 16.8194L10.7314 15.581L9.92842 15.2033L10.3255 11.6197L11.1638 11.5933L11.0314 12.5332L12.2756 13.35L12.6374 14.0087L13.5639 14L13.1404 12.6913H12.5756L12.5315 10.3725L13.8551 10.1705L14.6405 9.22186L15.2317 9.41509L15.0464 8.52798L17.2524 10.3988L17.9319 10.4779L19.1143 7.79897L20.1555 7.64965L20.5879 7.28954L19.8908 5.66463L20.3056 4.17147L19.732 3.74109L20.6762 3.08235L22.5028 3.74988L22.8116 4.31201L22.7145 5.59437L23.4205 5.45383L23.7911 4.81265L24.4088 4.82144L23.3322 6.51661L26.2177 6.1565L27.1795 5.51532L28.0884 5.59437L28.9267 4.25052L29.6944 4.12756L30.1621 3.35463L30.2856 2.30942L32.8181 0.59668L33.1181 0.886529L32.8093 3.51273Z"/>
</mask>
<path d="M32.8093 3.51273L33.5594 3.40733L35.4212 5.74368L35.7301 7.42129L36.8507 6.84159L39.1626 4.839L40.5833 4.95319L40.8128 5.32208L41.7216 5.44505L41.7305 5.92813L44.766 6.01596L43.9541 6.40243L44.0512 6.61323L44.6159 6.39364L44.2718 6.74497L45.4984 11.7778L46.0454 12.0149L47.1043 10.8819L47.0955 12.3399L47.5632 13.3061L48.0926 12.7527L48.1897 11.6724L48.4279 11.567L48.2691 10.4867L47.8279 9.90695L49.681 6.42877L50.5634 6.24433L52.187 5.08493L53.9783 5.03223L54.1901 5.83152L54.8872 5.77003L55.7784 5.08493L58.1256 2.09862L59.8905 2.01957L60.164 2.29185L59.7846 3.20531L60.3934 3.46881L60.1905 3.97824L61.0552 4.6809L61.2229 5.83152L62.4759 6.13014L62.6877 7.87802L62.2994 9.49414L62.9171 10.4779V11.119L64.0025 11.4616L64.6025 13.9121L64.5055 15.0627L65.6614 14.7641L65.6702 15.2033L66.7203 15.0452L66.8527 17.6626L65.5644 20.0429L64.7967 20.157L64.8143 19.8672L62.9524 20.4645L63.7642 24.4696L64.4613 26.9553L64.7172 27.0256L64.8761 25.5939L65.3702 25.4709L67.2939 26.7796L68.6616 28.7734L70.1352 30.1085L68.7675 32.2077L68.8469 33.6745L69.1469 33.9907L68.1057 33.5867L67.2762 33.6394L67.2321 35.3433L67.9557 35.5893L68.6881 36.327L69.3234 37.8993L70.2588 38.6546L70.5147 39.1992L69.8529 40.6572L70.6912 41.2193L71.0971 41.0349L71.3177 41.7463L70.0823 41.5092L69.694 41.72L69.7823 42.3875L70.4264 42.7828L70.0558 43.055L70.1794 43.5469L69.0234 43.6962L70.0911 43.9509L70.8235 43.503L72.0324 43.6962L72.0677 44.6624L72.8089 45.6637L72.1824 47.1129L70.8412 48.0791L70.8147 48.7115L70.1088 49.1331L69.6058 48.8871L69.3499 49.054L69.1822 49.2648L69.4558 49.6601L68.9352 50.1958L69.0322 50.4593L68.5469 50.3715L68.6528 50.635L68.2645 50.7931L69.6852 52.0491L70.0205 52.9274L69.9146 54.0429L69.5176 54.6753L68.7057 54.605L68.9263 55.1145L68.7146 55.6854L70.0558 56.3529L70.1794 57.6792L69.3852 58.2677L68.5557 57.7495L68.3528 58.5751L69.747 58.742L69.8617 59.2163L68.9705 60.3317L68.1675 60.279L68.6351 61.0081L69.2352 60.8675L69.5352 60.402L71.5912 60.0155L72.0942 60.4284L72.553 61.1925L72.5883 62.2026L73.1884 62.3519L73.4178 62.7559L73.9825 62.4749L73.3296 63.8363L73.6296 64.3545L75.0061 64.741L75.6503 64.5828L75.1473 65.874L75.5003 66.6557L74.812 66.9192L75.8974 68.9657L75.4738 69.1501L75.1297 70.1866L74.2296 71.1967L75.6503 72.5405L74.662 73.7438L74.6091 74.1391L75.165 74.183L74.3443 74.7627L75.7474 76.3964L75.6768 77.7051L75.165 78.1091L75.7915 79.3563L75.5709 79.7164L76.418 80.6738L76.268 80.9549L76.921 82.123L76.6562 82.7115L75.0326 83.5986L75.7385 83.9851L74.4414 85.1884L74.8385 85.3816L74.4326 85.8208L74.1061 85.6276L73.4884 86.4356L72.9766 86.2512L72.8089 86.7694L71.3265 87.1471L71.1059 87.8849L70.1264 87.1734L69.6587 87.5687L69.8088 87.9991L69.3764 88.649L69.0058 88.122L68.3969 88.649L68.0086 88.5524L68.741 90.5286L68.0439 92.1009L68.3087 92.8123L69.7117 92.8299L69.597 94.7798L70.3294 95.0872L70.0205 95.7108L67.8145 95.2101L67.6733 95.6317L67.1086 95.3068L66.3144 97.0107L65.5732 96.633L65.1408 97.3005L64.7525 96.7121L63.2789 96.6682L63.1466 98.4248H62.5024L62.1936 97.8363L61.3464 98.4951L59.4051 98.3458L58.5404 98.7059L58.0727 98.2667L55.4696 98.3897L54.6754 98.1086L54.6489 97.3884L55.2666 96.4047L54.393 95.9479L54.1107 95.052L53.3606 94.3494L54.7548 92.7245L55.0284 91.688L53.8812 90.8624L53.8901 89.905L53.193 89.5976L53.9871 88.6227L53.7489 87.841L53.3518 87.8849L53.5195 86.9099L51.7723 85.6978L51.8341 85.0567L51.1458 84.7141L50.7046 84.8107L50.2987 85.9965L48.5956 86.4444L48.4985 86.8309L47.5897 86.7958L46.9808 88.9037L46.672 88.974L46.1866 88.4031L45.3307 88.6139L43.6718 88.1835L43.0453 88.3592L42.9835 89.6064L42.1187 89.9577L40.8392 87.9376L39.5509 88.4382L39.1097 87.7619H37.7155L37.2302 89.2639L36.3831 89.7206L35.0683 89.097L33.0123 88.7456L32.4652 88.2011L32.4122 88.9125L31.821 89.4307L31.5739 89.2199L29.5532 89.3166L28.3178 90.0895L27.2325 90.1685L23.7911 89.7821L23.0057 90.2037L22.1057 90.2651L21.6115 90.8097L20.5526 91.0469L20.1203 90.8624L20.1291 91.2577L19.5732 91.3718L19.3879 92.0833L18.7966 92.1799L17.0936 90.4145L16.2112 90.2388L16.97 88.7632L15.1876 88.4558L14.8876 88.9916L13.8022 87.0505L13.9169 86.5059L13.5022 85.3553L13.9169 84.6087L13.0521 84.7229L12.2756 83.8007L11.958 84.152L11.5609 84.0642L11.5432 82.7379L11.8344 82.6852L11.8874 82.1494L12.3639 81.9825L11.6226 79.9887L11.5962 79.0928L11.9227 79.0489L12.0462 78.6888L12.4433 78.7151L13.4669 79.3827L14.3846 77.8895L15.1699 78.4077L15.5582 77.9071L15.1788 76.0362L13.6257 75.5971L14.0316 74.8241L13.9081 74.3499L14.4199 74.2884L13.9346 73.9107L14.1287 72.9094L15.5758 72.2682L15.0993 71.6885L15.064 70.6609L14.2522 70.9156L14.4287 71.6007L13.8728 71.6797L13.3963 69.6069L12.9727 69.6947L13.0786 67.6833L11.455 68.2191L11.0314 69.1062L10.7402 69.1238L9.88429 68.509L9.5931 67.736L8.49008 67.534L8.48126 66.8753L7.88122 66.8226L7.86358 67.0597L6.90174 66.199L7.37825 66.2517L7.25472 65.9706L7.75768 65.7862L6.70761 64.7146L6.18699 64.3106L4.69572 64.2842L4.76631 62.5539L2.71913 61.3243L2.9662 60.0419L3.96332 58.3467L4.18392 56.7569L3.23093 56.8272L2.99267 55.782L1.49258 54.9125L1.06019 53.5159L2.11908 53.2963L1.67788 52.3917L2.07496 51.5397L0.901367 50.6701L1.51905 49.9763L1.57199 49.1858L1.26314 48.8959L1.52787 48.5095L2.51617 48.2811L3.45153 46.0941L3.10739 44.961L3.31034 44.153L2.48087 43.8016L2.49853 42.7564L2.22498 42.4841L2.47206 41.1139L2.1985 40.5694L2.73677 39.7262L2.56912 39.1465L2.80736 38.5844L2.56912 38.3911L2.8603 37.8641L1.71318 36.854L1.81907 36.2129L2.33087 36.0109L2.31321 35.5805L1.13961 32.9894L1.9426 32.6117L1.86319 31.5665L3.46035 31.4436L3.61036 31.0219L5.01339 30.978L4.6869 30.2578L4.86338 29.2829L6.13405 28.4221L6.09876 26.3053L6.53113 26.0858L6.39878 25.6466L7.6518 23.4332L9.36367 21.7819L9.29308 21.3076L8.58715 20.93L9.02835 20.482L8.35773 18.3301L9.96371 17.9964L10.7491 16.8194L10.7314 15.581L9.92842 15.2033L10.3255 11.6197L11.1638 11.5933L11.0314 12.5332L12.2756 13.35L12.6374 14.0087L13.5639 14L13.1404 12.6913H12.5756L12.5315 10.3725L13.8551 10.1705L14.6405 9.22186L15.2317 9.41509L15.0464 8.52798L17.2524 10.3988L17.9319 10.4779L19.1143 7.79897L20.1555 7.64965L20.5879 7.28954L19.8908 5.66463L20.3056 4.17147L19.732 3.74109L20.6762 3.08235L22.5028 3.74988L22.8116 4.31201L22.7145 5.59437L23.4205 5.45383L23.7911 4.81265L24.4088 4.82144L23.3322 6.51661L26.2177 6.1565L27.1795 5.51532L28.0884 5.59437L28.9267 4.25052L29.6944 4.12756L30.1621 3.35463L30.2856 2.30942L32.8181 0.59668L33.1181 0.886529L32.8093 3.51273Z" fill="#7360F2" stroke="white" stroke-width="0.4" mask="url(#path-1-inside-1_903_2313)"/>
<path d="M46 59.2858C49.0772 59.2858 51.5714 61.7801 51.5714 64.8572C51.5714 67.2115 49.9172 69.7772 46.6514 72.5818C46.4699 72.7378 46.2383 72.8234 45.9989 72.8232C45.7596 72.823 45.5282 72.7369 45.3469 72.5806L45.1309 72.3932C42.0097 69.6618 40.4286 67.1589 40.4286 64.8572C40.4286 61.7801 42.9229 59.2858 46 59.2858ZM46 62.7143C45.4317 62.7143 44.8867 62.9401 44.4848 63.342C44.0829 63.7438 43.8572 64.2889 43.8572 64.8572C43.8572 65.4255 44.0829 65.9706 44.4848 66.3724C44.8867 66.7743 45.4317 67.0001 46 67.0001C46.5683 67.0001 47.1134 66.7743 47.5152 66.3724C47.9171 65.9706 48.1429 65.4255 48.1429 64.8572C48.1429 64.2889 47.9171 63.7438 47.5152 63.342C47.1134 62.9401 46.5683 62.7143 46 62.7143Z" fill="#FBE75E"/>
</svg>
