<svg width="24" height="24" viewBox="0 0 24 24" fill="none" xmlns="http://www.w3.org/2000/svg">
<g clip-path="url(#clip0)">
<path fill-rule="evenodd" clip-rule="evenodd" d="M12 1C12.8371 1 13.5156 1.67857 13.5156 2.51564V8.00982C13.5156 8.84688 12.8371 9.52545 12 9.52545C11.1629 9.52545 10.4844 8.84688 10.4844 8.00982V2.51564C10.4844 1.67857 11.1629 1 12 1Z" fill="#00A0FF"/>
<path fill-rule="evenodd" clip-rule="evenodd" d="M23.5316 9.37823C23.7903 10.1743 23.3546 11.0294 22.5585 11.288L17.3333 12.9858C16.5372 13.2445 15.6821 12.8088 15.4235 12.0127C15.1648 11.2166 15.6005 10.3616 16.3966 10.1029L21.6218 8.40513C22.4179 8.14647 23.273 8.58214 23.5316 9.37823Z" fill="#00A0FF"/>
<path fill-rule="evenodd" clip-rule="evenodd" d="M19.1269 22.9345C18.4497 23.4265 17.5019 23.2764 17.0099 22.5992L13.7805 18.1543C13.2885 17.4771 13.4386 16.5293 14.1158 16.0373C14.793 15.5452 15.7408 15.6954 16.2329 16.3726L19.4623 20.8174C19.9543 21.4946 19.8041 22.4425 19.1269 22.9345Z" fill="#00A0FF"/>
<path fill-rule="evenodd" clip-rule="evenodd" d="M4.87305 22.9345C4.19585 22.4425 4.04573 21.4946 4.53775 20.8174L7.76714 16.3726C8.25916 15.6954 9.20699 15.5452 9.88419 16.0373C10.5614 16.5293 10.7115 17.4771 10.2195 18.1543L6.9901 22.5992C6.49808 23.2764 5.55025 23.4265 4.87305 22.9345Z" fill="#00A0FF"/>
<path fill-rule="evenodd" clip-rule="evenodd" d="M0.468357 9.37823C0.727024 8.58214 1.58208 8.14647 2.37817 8.40513L7.60345 10.1029C8.39954 10.3616 8.83521 11.2166 8.57654 12.0127C8.31788 12.8088 7.46283 13.2445 6.66673 12.9858L1.44146 11.288C0.645362 11.0294 0.209691 10.1743 0.468357 9.37823Z" fill="#00A0FF"/>
</g>
<defs>
<clipPath id="clip0">
<rect width="24" height="24" fill="white"/>
</clipPath>
</defs>
</svg>
