<svg width="24" height="24" viewBox="0 0 24 24" fill="none" xmlns="http://www.w3.org/2000/svg">
<rect width="24" height="24" rx="2" fill="#40B3E0"/>
<path d="M17.839 6.90281L15.6956 17.7093C15.6956 17.7093 15.3959 18.4587 14.5716 18.099L9.6255 14.307L7.827 13.4377L4.79943 12.4185C4.79943 12.4185 4.33481 12.2537 4.28981 11.894C4.24481 11.5342 4.81443 11.3394 4.81443 11.3394L16.8497 6.61818C16.8497 6.61818 17.8389 6.18356 17.8389 6.903" fill="white"/>
<path d="M9.24543 17.5878C9.24543 17.5878 9.10106 17.5743 8.92106 17.0047C8.74134 16.4351 7.827 13.4376 7.827 13.4376L15.0962 8.82132C15.0962 8.82132 15.5159 8.56651 15.5009 8.82132C15.5009 8.82132 15.5758 8.86632 15.3509 9.07613C15.1262 9.28604 9.64059 14.217 9.64059 14.217" fill="#D2E5F1"/>
<path d="M11.522 15.7608L9.56569 17.5445C9.56569 17.5445 9.41269 17.6605 9.24544 17.5878L9.62006 14.2747" fill="#B5CFE4"/>
</svg>
