<svg width="24" height="24" viewBox="0 0 24 24" fill="none" xmlns="http://www.w3.org/2000/svg">
<g clip-path="url(#clip0)">
<path d="M7.6754 0.734141C10.6934 -0.46518 14.2088 -0.382258 17.1464 1.01074C16.3093 0.883945 15.4579 0.979546 14.6294 1.11921C12.3791 1.54294 10.2406 2.59861 8.56907 4.16696C6.96632 5.73771 5.84319 7.82185 5.52597 10.0516C5.31615 11.6316 5.51065 13.2887 6.2217 14.7268C6.95443 16.2356 8.24422 17.4731 9.79876 18.1117C11.2967 18.7438 13.0343 18.7368 14.5516 18.1727C16.8282 17.3396 18.4639 15.0904 18.651 12.6872C18.7687 11.1122 18.3845 9.43673 17.3232 8.22872C16.3101 7.04627 14.8283 6.39494 13.3455 6.0242C13.266 4.5661 13.955 3.12562 15.0476 2.17735C15.6544 1.63182 16.4074 1.2841 17.1861 1.06158L17.2452 1.04123C19.4743 2.10704 21.3684 3.86481 22.5752 6.02274C23.6092 7.85995 24.1485 9.97705 24.0951 12.0859C24.0849 14.8129 23.0625 17.513 21.3101 19.5981C19.6529 21.5867 17.3351 23.017 14.8089 23.5898C12.276 24.1725 9.55092 23.9211 7.18041 22.8478C4.86089 21.8149 2.89579 20.0193 1.64568 17.8106C0.605777 15.9751 0.0556555 13.8588 0.101308 11.7474C0.106268 9.11677 1.04317 6.50639 2.67897 4.44926C3.98561 2.80667 5.71901 1.5006 7.6754 0.734141Z" fill="#E60000"/>
<path d="M14.6294 1.11921C15.4579 0.979548 16.3093 0.88401 17.1464 1.0108L17.2666 1.03109L17.1861 1.06152C16.4074 1.28416 15.6544 1.63183 15.0476 2.17741C13.955 3.12562 13.266 4.56616 13.3455 6.02426C14.8283 6.39494 16.3101 7.0462 17.3232 8.22872C18.3845 9.43673 18.7687 11.1122 18.651 12.6872C18.4639 15.0903 16.8282 17.3396 14.5516 18.1727C13.0343 18.7368 11.2967 18.7437 9.79877 18.1118C8.24416 17.4731 6.95444 16.2357 6.2217 14.7268C5.51065 13.2887 5.31615 11.6316 5.52604 10.0516C5.84319 7.82185 6.96633 5.73772 8.56913 4.16696C10.2406 2.59861 12.3791 1.54295 14.6294 1.11921Z" fill="white"/>
</g>
<defs>
<clipPath id="clip0">
<rect width="24" height="24" fill="white"/>
</clipPath>
</defs>
</svg>
