<svg width="91" height="97" viewBox="0 0 91 97" fill="none" xmlns="http://www.w3.org/2000/svg">
<mask id="path-1-inside-1_902_2308" fill="white">
<path d="M81.3835 0.289848L81.7188 0.193232L84.569 1.40532L84.9749 1.20331L85.5485 1.38776L86.625 0.404031L87.1809 0.439164L87.8516 1.01886L87.7633 1.44924L88.2134 1.66882L87.7986 2.76673L87.0927 3.03023L87.4369 3.82951L86.978 3.99639L87.2427 4.31259L86.8721 4.73419L86.9074 5.37536L86.5985 5.85844L86.2103 5.91114L86.4574 6.63137L85.9103 7.6151L84.8955 8.01035L85.3985 8.60761L84.7984 9.21366L84.8955 9.86362L85.5485 10.821L85.2308 10.9176L85.072 11.752L85.6809 11.8399L85.2397 11.6291L85.6456 11.3831L87.8075 12.3756L87.7369 12.8675L88.4604 13.1222L88.7252 13.737L88.5487 14.1762L89.1223 14.0181L90.1105 14.3607L90.3753 14.1147L90.3576 16.495L89.4134 16.5213L88.1781 17.0659L87.4722 15.9416L87.0486 15.9241L86.0515 16.8727L84.8955 16.8375L84.5337 17.6192L85.4426 18.0057L86.6339 19.455L85.9456 21.7562L85.2132 21.7737L84.7896 21.4136L84.2337 21.5893L84.0484 22.1778L83.1218 21.9494L82.7866 22.4237L81.9747 22.4764L82.0277 22.8629L80.7129 22.9683L80.6864 23.9081L79.0716 24.9269L79.2304 26.341L79.5569 26.4816L79.7952 27.1579L79.1069 27.4653L78.4715 28.8443L78.0745 28.8004L77.8274 29.1693L78.1715 29.2747L78.5422 30.557L79.4863 31.6198L79.7246 34.4041L79.2746 35.3439L79.9893 35.5547L80.0687 37.0742L81.1364 38.2951L82.0718 38.462L81.6041 38.9626L80.2187 38.9187L80.1128 39.2876L80.5011 40.2274L80.9776 40.4909L81.1894 41.9841L79.9099 42.6692L79.5569 42.5111L79.3451 43.082L79.4775 43.8285L79.0804 44.3292L78.8686 45.7345L79.4334 46.2615L78.9569 46.8939L79.4863 47.1838L79.354 47.9743L78.9481 47.9479L78.7716 47.5L78.0657 47.4385L78.2686 47.8513L78.7098 47.8864L78.7716 48.51L78.0392 48.6242L77.2803 48.4573L77.298 47.9216L76.592 47.5439L77.1568 46.9115L76.8832 46.6831L76.0361 47.2979L76.6273 48.5715L76.5655 49.6519L77.395 49.6343L77.8186 50.7058L77.4568 51.4876L76.8391 51.6808L77.2273 51.997L76.6803 52.12L77.6598 52.3395L77.2273 53.4726L77.5097 54.0347L76.4156 55.2556L76.6626 56.3271L76.2655 56.5994L75.1625 56.6433L74.7389 57.1176L74.986 57.346L74.3154 58.3736L75.2066 59.2344L73.7948 61.6498L74.1389 61.9572L74.2625 61.7289L76.5832 62.1505L76.6273 62.5896L77.5715 62.7741L77.2715 63.6875L77.9598 64.2672L77.2097 64.8206L76.7244 66.3664L77.7833 66.8144L77.7921 66.3664L78.9657 65.6813L79.6187 68.0089L79.9275 68.1758L80.2893 67.8947L81.4541 67.8332L81.3306 69.5811L81.6482 70.9864L80.9158 70.9776L80.5541 71.329L80.8276 72.2512L80.5011 72.9627L80.9511 73.1559L80.0952 74.1748L80.4658 75.4483L80.0334 75.8172L81.0835 77.8637H81.6306L81.8424 78.3468L82.3718 78.2853L82.5748 78.5313L81.8247 79.0319L79.5746 79.5501L79.9805 80.3406L79.8923 82.1061L78.9481 82.5979L79.0892 83.0195L78.5598 84.6532L79.1069 84.9958L78.4804 85.1626L78.3833 85.7248L76.9362 87.5078L77.4833 88.4651L76.742 89.2644L76.1685 89.3259L75.8508 90.6873L74.6507 90.6434L74.8184 91.2143L74.4919 91.3461L74.3066 92.0926L73.8742 92.0224L73.4595 92.4001L73.6889 92.7163L72.8506 92.9885L72.9565 93.7L70.5828 95.3161L69.1798 95.4566L69.0739 95.8782L69.4798 96.1329L69.1974 96.5282L68.5709 96.2296L68.3856 96.4491L67.962 95.9836L67.7679 96.2998L67.662 96.0539H65.6413L65.6854 95.4479L64.5206 95.6059L64.4236 96.1329L62.3587 95.9836L61.2557 96.6512L60.0821 95.5005L60.2674 94.1304L58.8379 94.1567L57.5849 93.5594L57.3555 93.7702L56.6672 93.4277L56.5348 92.8129L55.2377 92.9358L55.0171 93.3047L55.2377 93.8669L54.3641 94.2621L54.2582 95.0175L53.1552 95.3249L53.464 95.8343L53.1375 96.5458L52.6699 96.1944L52.3699 96.4491L52.061 96.089L49.8991 96.5721L49.8285 96.2559L50.3403 95.5884L50.2344 95.2107L49.1226 95.0087L48.1166 95.2985L47.8784 94.4466L48.5402 93.4189L47.0577 94.104L46.2989 91.4251L44.6046 90.8366L44.9135 90.3184L44.4899 90.0901L45.0723 90.1603L45.1429 89.6245L45.5929 89.5806L45.8135 90.0549L46.8901 89.7124L47.4372 88.9219L47.1371 88.3685L47.4372 87.5253L46.5812 87.4726L44.6046 87.5429L44.1458 87.376L43.2281 85.0309L42.0633 84.46L41.3309 83.3533L39.9102 83.7398L39.9014 84.4336L39.1337 84.5829L39.2749 85.6984L38.9396 85.8829L39.019 86.6821L36.2217 86.5328L35.6393 87.1301L35.0393 86.9456L35.0305 87.8679L34.5628 88.4037L32.7627 88.1665L32.3038 88.5705L31.3155 88.0699L31.1655 88.4212L30.3978 88.4037L28.8271 89.405L28.1653 89.3347L28.0418 88.6408L26.7446 87.8503L25.5093 89.405L25.2004 88.2017L23.365 87.5166L23.3827 86.7436L23.1356 86.77L23.0209 86.243L21.309 85.9356L21.3002 85.312L20.709 85.2944L20.7266 84.3634L22.209 84.4688L22.4738 84.1789L22.2355 83.8539L22.4385 83.5289L21.6619 82.7648L22.3238 81.5L22.2002 80.367L21.8649 80.2528L21.8473 79.8575L21.3796 80.0156L21.3443 78.9792L20.6472 78.9177L20.6736 78.4874L19.3765 77.6881L19.4383 76.5726L17.9911 76.3354L17.6911 77.0732L14.435 77.1084L14.2232 77.3982L12.7408 76.9854L12.4143 76.6429L12.0172 76.8976L11.9113 77.8813L11.2495 78.0043L10.7554 77.9691L10.6318 77.4597L11.0289 77.53L11.0554 77.0381L11.9201 76.353L10.7289 77.2489L8.9817 76.4233L7.87869 76.7043L7.80811 76.1246L8.18754 75.3956L7.71986 74.6491L8.12576 74.4997L8.58461 74.8511L8.69933 74.2187L9.11406 73.8586L8.75227 71.8121L7.87869 71.3114L7.71986 70.8986L6.3433 70.5297L5.64619 68.4568L5.09027 67.6927L5.07263 65.9975L3.90784 65.5232L3.79312 64.7591L0.828238 64.9435L0.634106 63.5382L1.04884 62.5194L0.342896 61.5356L1.17236 61.1404L1.30472 60.7803L0.589969 59.7351L0.492917 58.075L0.810572 57.6271L1.5871 57.7413L1.95772 57.4953L1.26061 57.144L1.69298 56.3271L0.907651 55.2819L1.17236 54.9921L2.21363 55.0975L2.48717 54.8779L2.44304 54.1665L1.93125 53.578L4.16375 52.4625L4.42846 51.5139L3.83726 51.7686L4.11081 51.4436L3.55488 51.1274L4.44613 50.2667L5.25793 49.9241L4.85203 48.8965L5.38148 48.0182L4.30494 45.7872L3.59019 45.9717L3.32545 45.6994L3.19309 44.6454L4.38435 44.1974L4.41966 43.89L3.46664 43.3542L3.25487 42.1773L2.8313 41.7733L3.2284 40.0605L2.87544 39.8497L2.19596 40.3152L1.64004 39.2788L1.65771 38.8748L2.39893 38.5059L1.6224 38.2863L1.06648 37.6627L1.3665 37.3026L2.17832 37.5046L2.4607 37.2323L1.79889 36.7931L1.83417 36.4594L1.03117 36.2486L1.11062 35.704L1.82537 34.8257L1.28708 34.2196L1.67534 33.9298L2.28421 34.5183L2.89308 34.5798L3.06954 33.8244L2.69894 32.4718L4.49024 32.0941L4.63143 31.0489L5.24029 29.8895L5.01086 29.6611L4.27847 29.8719L4.18139 29.5118L4.72848 29.178L5.45206 29.222L5.37265 28.7916L5.84032 28.168L5.31087 26.7978L6.60802 26.2269L6.9257 24.804L7.88752 23.9608L8.15224 23.0649L9.77587 23.2669L10.4465 22.1514L10.0053 20.8339L10.3936 20.5002L11.0289 20.8954L11.3024 20.5529L10.8612 20.5353L10.8701 20.2015L11.5936 19.7272L11.8672 19.9644L12.3702 19.8326L12.2554 19.1563L12.9879 18.9894L12.476 18.5591L12.7496 18.1375L13.1908 18.7347L13.6497 18.6205L13.6408 18.1375L13.1202 17.9442L13.3232 17.6105L13.129 17.3118L13.6144 17.2152L13.3938 16.7497L13.7644 16.8024L13.4026 16.4599L13.8703 16.1964L13.4202 15.5464L13.6761 15.4322L13.8438 15.9241L14.1438 15.9504L13.7026 14.835L14.2585 14.7559L14.2056 14.0532L14.585 13.983L14.5497 14.3519L15.2998 14.6154L17.6823 13.9918L18.6264 14.0181L19.9236 13.4384L20.4972 14.5275L22.0679 14.8964L22.0237 15.3795L22.4561 15.9065L23.2944 16.3193L24.5739 15.8275L25.2357 14.4397L25.0239 14.1762L25.3857 13.2891L27.2123 12.525L26.9829 11.9365L27.777 11.5324L29.1801 11.55L29.7095 12.604L30.3361 12.727L31.2361 12.2878L33.7951 12.8411L35.7982 12.8236L37.0424 13.1925L37.2806 13.7458L39.0543 12.9114L40.1043 13.6229L41.6133 13.0519L42.6545 13.4208L44.3311 14.6242L44.2428 15.116L43.8193 15.5903L43.184 15.7308L43.4222 16.0558L43.0516 16.1964L44.7193 15.7835L48.399 16.697L48.5314 16.17L49.555 16.2315L49.9962 14.9579L51.4433 14.9052L52.2816 14.2465L53.1552 14.0884L54.2935 13.3506L54.3729 12.5425L55.07 12.4196L55.1494 11.8926L56.5525 11.2777L56.4642 10.8034L55.3436 11.0054L55.9701 9.16096L55.2818 7.6678L55.9171 6.60502L56.976 6.71042L57.4525 6.37666L57.126 5.85844L57.329 4.9362H56.7113L56.1907 3.21468L56.2348 2.47688L56.5701 2.12555L57.6731 2.09042L58.6614 2.77551L59.4203 2.56472L60.1527 3.2059L60.7792 2.53837L61.997 2.64377L62.897 3.86464L63.7265 3.62749L65.9854 5.32266L66.5237 6.31518L68.1562 5.44563L68.4385 5.86723L69.4004 5.54225L69.9475 5.7794L70.5828 4.87472L71.9417 5.10308L72.03 6.31518L72.6476 6.46449L74.2977 5.13822L75.2684 5.16457L75.5155 4.42677L76.6891 3.53966L77.2185 2.51202L77.5538 2.6789L77.598 3.1005L77.2715 3.28495L77.4656 3.68019L78.8422 2.56472L79.4157 1.66004L80.4393 1.8884L80.5011 0.342548L81.0305 0.281065L81.1541 0L81.3835 0.289848Z"/>
</mask>
<path d="M81.3835 0.289848L81.7188 0.193232L84.569 1.40532L84.9749 1.20331L85.5485 1.38776L86.625 0.404031L87.1809 0.439164L87.8516 1.01886L87.7633 1.44924L88.2134 1.66882L87.7986 2.76673L87.0927 3.03023L87.4369 3.82951L86.978 3.99639L87.2427 4.31259L86.8721 4.73419L86.9074 5.37536L86.5985 5.85844L86.2103 5.91114L86.4574 6.63137L85.9103 7.6151L84.8955 8.01035L85.3985 8.60761L84.7984 9.21366L84.8955 9.86362L85.5485 10.821L85.2308 10.9176L85.072 11.752L85.6809 11.8399L85.2397 11.6291L85.6456 11.3831L87.8075 12.3756L87.7369 12.8675L88.4604 13.1222L88.7252 13.737L88.5487 14.1762L89.1223 14.0181L90.1105 14.3607L90.3753 14.1147L90.3576 16.495L89.4134 16.5213L88.1781 17.0659L87.4722 15.9416L87.0486 15.9241L86.0515 16.8727L84.8955 16.8375L84.5337 17.6192L85.4426 18.0057L86.6339 19.455L85.9456 21.7562L85.2132 21.7737L84.7896 21.4136L84.2337 21.5893L84.0484 22.1778L83.1218 21.9494L82.7866 22.4237L81.9747 22.4764L82.0277 22.8629L80.7129 22.9683L80.6864 23.9081L79.0716 24.9269L79.2304 26.341L79.5569 26.4816L79.7952 27.1579L79.1069 27.4653L78.4715 28.8443L78.0745 28.8004L77.8274 29.1693L78.1715 29.2747L78.5422 30.557L79.4863 31.6198L79.7246 34.4041L79.2746 35.3439L79.9893 35.5547L80.0687 37.0742L81.1364 38.2951L82.0718 38.462L81.6041 38.9626L80.2187 38.9187L80.1128 39.2876L80.5011 40.2274L80.9776 40.4909L81.1894 41.9841L79.9099 42.6692L79.5569 42.5111L79.3451 43.082L79.4775 43.8285L79.0804 44.3292L78.8686 45.7345L79.4334 46.2615L78.9569 46.8939L79.4863 47.1838L79.354 47.9743L78.9481 47.9479L78.7716 47.5L78.0657 47.4385L78.2686 47.8513L78.7098 47.8864L78.7716 48.51L78.0392 48.6242L77.2803 48.4573L77.298 47.9216L76.592 47.5439L77.1568 46.9115L76.8832 46.6831L76.0361 47.2979L76.6273 48.5715L76.5655 49.6519L77.395 49.6343L77.8186 50.7058L77.4568 51.4876L76.8391 51.6808L77.2273 51.997L76.6803 52.12L77.6598 52.3395L77.2273 53.4726L77.5097 54.0347L76.4156 55.2556L76.6626 56.3271L76.2655 56.5994L75.1625 56.6433L74.7389 57.1176L74.986 57.346L74.3154 58.3736L75.2066 59.2344L73.7948 61.6498L74.1389 61.9572L74.2625 61.7289L76.5832 62.1505L76.6273 62.5896L77.5715 62.7741L77.2715 63.6875L77.9598 64.2672L77.2097 64.8206L76.7244 66.3664L77.7833 66.8144L77.7921 66.3664L78.9657 65.6813L79.6187 68.0089L79.9275 68.1758L80.2893 67.8947L81.4541 67.8332L81.3306 69.5811L81.6482 70.9864L80.9158 70.9776L80.5541 71.329L80.8276 72.2512L80.5011 72.9627L80.9511 73.1559L80.0952 74.1748L80.4658 75.4483L80.0334 75.8172L81.0835 77.8637H81.6306L81.8424 78.3468L82.3718 78.2853L82.5748 78.5313L81.8247 79.0319L79.5746 79.5501L79.9805 80.3406L79.8923 82.1061L78.9481 82.5979L79.0892 83.0195L78.5598 84.6532L79.1069 84.9958L78.4804 85.1626L78.3833 85.7248L76.9362 87.5078L77.4833 88.4651L76.742 89.2644L76.1685 89.3259L75.8508 90.6873L74.6507 90.6434L74.8184 91.2143L74.4919 91.3461L74.3066 92.0926L73.8742 92.0224L73.4595 92.4001L73.6889 92.7163L72.8506 92.9885L72.9565 93.7L70.5828 95.3161L69.1798 95.4566L69.0739 95.8782L69.4798 96.1329L69.1974 96.5282L68.5709 96.2296L68.3856 96.4491L67.962 95.9836L67.7679 96.2998L67.662 96.0539H65.6413L65.6854 95.4479L64.5206 95.6059L64.4236 96.1329L62.3587 95.9836L61.2557 96.6512L60.0821 95.5005L60.2674 94.1304L58.8379 94.1567L57.5849 93.5594L57.3555 93.7702L56.6672 93.4277L56.5348 92.8129L55.2377 92.9358L55.0171 93.3047L55.2377 93.8669L54.3641 94.2621L54.2582 95.0175L53.1552 95.3249L53.464 95.8343L53.1375 96.5458L52.6699 96.1944L52.3699 96.4491L52.061 96.089L49.8991 96.5721L49.8285 96.2559L50.3403 95.5884L50.2344 95.2107L49.1226 95.0087L48.1166 95.2985L47.8784 94.4466L48.5402 93.4189L47.0577 94.104L46.2989 91.4251L44.6046 90.8366L44.9135 90.3184L44.4899 90.0901L45.0723 90.1603L45.1429 89.6245L45.5929 89.5806L45.8135 90.0549L46.8901 89.7124L47.4372 88.9219L47.1371 88.3685L47.4372 87.5253L46.5812 87.4726L44.6046 87.5429L44.1458 87.376L43.2281 85.0309L42.0633 84.46L41.3309 83.3533L39.9102 83.7398L39.9014 84.4336L39.1337 84.5829L39.2749 85.6984L38.9396 85.8829L39.019 86.6821L36.2217 86.5328L35.6393 87.1301L35.0393 86.9456L35.0305 87.8679L34.5628 88.4037L32.7627 88.1665L32.3038 88.5705L31.3155 88.0699L31.1655 88.4212L30.3978 88.4037L28.8271 89.405L28.1653 89.3347L28.0418 88.6408L26.7446 87.8503L25.5093 89.405L25.2004 88.2017L23.365 87.5166L23.3827 86.7436L23.1356 86.77L23.0209 86.243L21.309 85.9356L21.3002 85.312L20.709 85.2944L20.7266 84.3634L22.209 84.4688L22.4738 84.1789L22.2355 83.8539L22.4385 83.5289L21.6619 82.7648L22.3238 81.5L22.2002 80.367L21.8649 80.2528L21.8473 79.8575L21.3796 80.0156L21.3443 78.9792L20.6472 78.9177L20.6736 78.4874L19.3765 77.6881L19.4383 76.5726L17.9911 76.3354L17.6911 77.0732L14.435 77.1084L14.2232 77.3982L12.7408 76.9854L12.4143 76.6429L12.0172 76.8976L11.9113 77.8813L11.2495 78.0043L10.7554 77.9691L10.6318 77.4597L11.0289 77.53L11.0554 77.0381L11.9201 76.353L10.7289 77.2489L8.9817 76.4233L7.87869 76.7043L7.80811 76.1246L8.18754 75.3956L7.71986 74.6491L8.12576 74.4997L8.58461 74.8511L8.69933 74.2187L9.11406 73.8586L8.75227 71.8121L7.87869 71.3114L7.71986 70.8986L6.3433 70.5297L5.64619 68.4568L5.09027 67.6927L5.07263 65.9975L3.90784 65.5232L3.79312 64.7591L0.828238 64.9435L0.634106 63.5382L1.04884 62.5194L0.342896 61.5356L1.17236 61.1404L1.30472 60.7803L0.589969 59.7351L0.492917 58.075L0.810572 57.6271L1.5871 57.7413L1.95772 57.4953L1.26061 57.144L1.69298 56.3271L0.907651 55.2819L1.17236 54.9921L2.21363 55.0975L2.48717 54.8779L2.44304 54.1665L1.93125 53.578L4.16375 52.4625L4.42846 51.5139L3.83726 51.7686L4.11081 51.4436L3.55488 51.1274L4.44613 50.2667L5.25793 49.9241L4.85203 48.8965L5.38148 48.0182L4.30494 45.7872L3.59019 45.9717L3.32545 45.6994L3.19309 44.6454L4.38435 44.1974L4.41966 43.89L3.46664 43.3542L3.25487 42.1773L2.8313 41.7733L3.2284 40.0605L2.87544 39.8497L2.19596 40.3152L1.64004 39.2788L1.65771 38.8748L2.39893 38.5059L1.6224 38.2863L1.06648 37.6627L1.3665 37.3026L2.17832 37.5046L2.4607 37.2323L1.79889 36.7931L1.83417 36.4594L1.03117 36.2486L1.11062 35.704L1.82537 34.8257L1.28708 34.2196L1.67534 33.9298L2.28421 34.5183L2.89308 34.5798L3.06954 33.8244L2.69894 32.4718L4.49024 32.0941L4.63143 31.0489L5.24029 29.8895L5.01086 29.6611L4.27847 29.8719L4.18139 29.5118L4.72848 29.178L5.45206 29.222L5.37265 28.7916L5.84032 28.168L5.31087 26.7978L6.60802 26.2269L6.9257 24.804L7.88752 23.9608L8.15224 23.0649L9.77587 23.2669L10.4465 22.1514L10.0053 20.8339L10.3936 20.5002L11.0289 20.8954L11.3024 20.5529L10.8612 20.5353L10.8701 20.2015L11.5936 19.7272L11.8672 19.9644L12.3702 19.8326L12.2554 19.1563L12.9879 18.9894L12.476 18.5591L12.7496 18.1375L13.1908 18.7347L13.6497 18.6205L13.6408 18.1375L13.1202 17.9442L13.3232 17.6105L13.129 17.3118L13.6144 17.2152L13.3938 16.7497L13.7644 16.8024L13.4026 16.4599L13.8703 16.1964L13.4202 15.5464L13.6761 15.4322L13.8438 15.9241L14.1438 15.9504L13.7026 14.835L14.2585 14.7559L14.2056 14.0532L14.585 13.983L14.5497 14.3519L15.2998 14.6154L17.6823 13.9918L18.6264 14.0181L19.9236 13.4384L20.4972 14.5275L22.0679 14.8964L22.0237 15.3795L22.4561 15.9065L23.2944 16.3193L24.5739 15.8275L25.2357 14.4397L25.0239 14.1762L25.3857 13.2891L27.2123 12.525L26.9829 11.9365L27.777 11.5324L29.1801 11.55L29.7095 12.604L30.3361 12.727L31.2361 12.2878L33.7951 12.8411L35.7982 12.8236L37.0424 13.1925L37.2806 13.7458L39.0543 12.9114L40.1043 13.6229L41.6133 13.0519L42.6545 13.4208L44.3311 14.6242L44.2428 15.116L43.8193 15.5903L43.184 15.7308L43.4222 16.0558L43.0516 16.1964L44.7193 15.7835L48.399 16.697L48.5314 16.17L49.555 16.2315L49.9962 14.9579L51.4433 14.9052L52.2816 14.2465L53.1552 14.0884L54.2935 13.3506L54.3729 12.5425L55.07 12.4196L55.1494 11.8926L56.5525 11.2777L56.4642 10.8034L55.3436 11.0054L55.9701 9.16096L55.2818 7.6678L55.9171 6.60502L56.976 6.71042L57.4525 6.37666L57.126 5.85844L57.329 4.9362H56.7113L56.1907 3.21468L56.2348 2.47688L56.5701 2.12555L57.6731 2.09042L58.6614 2.77551L59.4203 2.56472L60.1527 3.2059L60.7792 2.53837L61.997 2.64377L62.897 3.86464L63.7265 3.62749L65.9854 5.32266L66.5237 6.31518L68.1562 5.44563L68.4385 5.86723L69.4004 5.54225L69.9475 5.7794L70.5828 4.87472L71.9417 5.10308L72.03 6.31518L72.6476 6.46449L74.2977 5.13822L75.2684 5.16457L75.5155 4.42677L76.6891 3.53966L77.2185 2.51202L77.5538 2.6789L77.598 3.1005L77.2715 3.28495L77.4656 3.68019L78.8422 2.56472L79.4157 1.66004L80.4393 1.8884L80.5011 0.342548L81.0305 0.281065L81.1541 0L81.3835 0.289848Z" fill="#7360F2" stroke="white" stroke-width="0.4" mask="url(#path-1-inside-1_902_2308)"/>
<path d="M25 41.2858C28.0771 41.2858 30.5714 43.7801 30.5714 46.8572C30.5714 49.2115 28.9171 51.7772 25.6514 54.5818C25.4698 54.7378 25.2383 54.8234 24.9989 54.8232C24.7595 54.823 24.5282 54.7369 24.3468 54.5806L24.1308 54.3932C21.0097 51.6618 19.4286 49.1589 19.4286 46.8572C19.4286 43.7801 21.9228 41.2858 25 41.2858ZM25 44.7143C24.4317 44.7143 23.8866 44.9401 23.4848 45.342C23.0829 45.7438 22.8571 46.2889 22.8571 46.8572C22.8571 47.4255 23.0829 47.9706 23.4848 48.3724C23.8866 48.7743 24.4317 49.0001 25 49.0001C25.5683 49.0001 26.1134 48.7743 26.5152 48.3724C26.9171 47.9706 27.1428 47.4255 27.1428 46.8572C27.1428 46.2889 26.9171 45.7438 26.5152 45.342C26.1134 44.9401 25.5683 44.7143 25 44.7143Z" fill="#FBE75E"/>
</svg>
