<svg width="64" height="84" viewBox="0 0 64 84" fill="none" xmlns="http://www.w3.org/2000/svg">
<mask id="path-1-inside-1_903_2319" fill="white">
<path d="M1.17075 38.5185L0.994263 37.8861L2.06198 36.0065L1.33841 34.1884L1.90315 33.1607L1.94727 32.2824L2.95322 31.8169L2.82968 31.4831L1.86785 31.1406L1.55901 30.3149L2.3267 28.3914L1.70902 27.4428L3.30618 25.7037L3.45619 25.0977L3.76503 24.8517L4.20624 25.1328L4.78863 24.6936L5.41514 21.9269L6.01518 21.6019L6.37697 21.8391L7.43586 20.6446L7.89471 20.9783L8.14179 20.8466L8.65359 21.4351L9.84484 21.0837L11.7244 21.681L11.9715 21.2067L13.7539 19.9507L14.9011 20.4074L15.1922 20.9783L16.4188 19.573L18.7925 19.9243L19.1101 20.425L19.5602 20.4952L19.7808 19.7487L20.5132 19.9946L20.8132 19.5291L21.528 19.7223L22.9663 18.598L25.2958 17.8427L26.0106 17.7285L27.0077 18.5893L27.546 18.3609L27.5283 17.5177L27.9254 16.7887L27.7225 16.4725L28.0666 15.7962L26.1253 15.9279L25.0135 15.6732L24.7223 15.1814L25.1194 14.8125L25.4723 13.5565L24.6693 13.1963L23.6546 13.3808L23.5751 12.5464L23.6104 11.8964L24.8017 12.195L25.3488 11.6768L25.8694 12.116L26.5489 11.0093L26.3371 10.1661L27.5989 9.04185L26.2047 8.39189L25.6665 6.71428L26.0194 6.18729L26.8665 6.03797L27.0518 4.80831L26.6459 3.81581L26.9636 3.3415L27.9607 3.26246L27.6607 1.88348L28.5696 1.31257L28.5961 1.04029L28.9579 1.16325L28.8343 0.855835L29.6197 1.02272L30.2373 1.6112L29.805 1.89227L30.1226 2.41926L30.8286 2.48952L31.7374 1.93619L32.4434 2.83207L33.6964 3.55231L34.217 3.20976L35.5318 3.78945L36.2113 3.68405L37.429 6.40687L37.8878 8.69931L38.3643 8.93644L38.9732 8.63782L39.3438 8.90132L39.6438 9.93774L40.3233 10.4033L39.3615 11.8261L39.4409 13.2315L39.8115 13.6179L39.9086 14.3821L42.4411 15.6381L40.288 18.1589L40.3057 18.9142L41.6204 20.425L43.35 20.6006L44.0118 20.952L43.7382 22.533L44.2059 22.6559L44.25 23.0863L42.0263 22.5593L41.6734 23.8329L43.5441 25.7389L43.5176 26.5821L45.053 25.7828L47.2061 27.1266L47.9385 26.4152L47.7709 27.8556L48.8739 28.7427L48.0267 29.6211L48.6709 32.1594L49.2092 32.3439L49.5445 32.1067L49.4562 30.9473L50.3387 30.1481L50.1534 29.5508L50.7446 29.7616L51.4858 29.3312L51.327 31.5534L50.7181 33.108H51.2475L51.8299 32.1946L52.8535 32.4405L53.2859 33.2486L53.983 33.1519L54.2213 33.4154L53.886 34.0303L52.3153 34.0478L51.7152 34.4519L51.5829 35.1633L52.077 35.9538L52.8888 36.0329L53.2771 35.0228L53.8948 34.3728L54.3007 34.4343L54.7419 35.0228L55.0772 34.9349L54.8037 32.6249L55.5008 32.5986L57.3274 33.31L57.5921 32.9763L57.2656 32.177L57.4862 31.9925L58.0245 32.2209L58.5098 32.7567L57.9186 33.4594L58.0774 33.837L59.5863 34.9789L60.7599 35.1282L62.3836 36.7794L63.6101 37.5436L63.4866 37.9652L62.6924 38.5712L62.7983 38.9665L63.9631 39.4232L63.9278 39.8624L63.0189 40.6441L63.2748 40.9778L61.9247 42.9014L62.1453 43.2L62.1012 44.7371L62.5336 45.5715L62.4895 51.0523L63.1336 53.2481L62.8248 53.9946H60.8129L60.0981 53.3359L58.4921 53.0724L57.5391 53.4413L56.4008 53.4237L54.4772 54.2318L52.2976 56.454L49.9504 59.818L48.7856 60.0375L47.6826 61.0037L48.0179 61.2321L47.9385 61.7064L48.6444 62.2861L48.5738 62.8745L48.2826 63.0238L47.4885 62.7076L47.0208 62.9185L47.2414 63.7353L46.4825 63.9197L46.4561 65.0791L45.6442 65.2812L45.5295 66.0365L44.5324 65.6413L44.0471 65.8433L43.8882 66.1595L44.303 67.1256L41.8763 69.7694L42.0881 70.5687L41.7175 71.1835L42.1499 72.5888L41.9999 72.9402L42.2822 73.0807L42.0352 73.3793L43.1647 74.6178L43.2617 75.2853L42.8293 75.461L42.9264 75.9001L44.0118 76.8926L43.9324 77.2176L44.3824 77.3845L43.9677 78.5966L42.8911 80.1073L42.1411 83.0497L40.9939 83.1903L40.7822 81.9079L39.5556 80.7046L39.5732 80.1425L39.132 79.5891L39.3262 78.9655L38.0026 78.7459L37.8437 78.2277L37.4908 78.1135L37.0672 78.5175L36.5731 77.9291L35.673 78.0345L35.5759 77.4811L34.6582 76.9893L34.4906 76.4623L34.7112 75.6103L34.0582 74.5651L33.617 74.3543L33.3434 73.23L32.7875 73.1598L32.5051 73.4057L32.011 72.5361L31.4815 72.4132L31.8345 70.0944L33.3258 68.812L32.5051 67.0993L31.3315 66.3615L31.1374 65.7115L30.4668 65.4568L29.6373 63.9373L30.1579 63.182L29.8932 62.7076L30.2991 62.3388L30.202 62.0577L30.9345 61.276L30.3521 60.5997L29.1255 60.0902L29.3373 58.8957L29.1079 58.4478L27.8284 57.4728L27.0165 56.252L25.5341 55.479L25.1017 54.952L25.2517 54.223L24.7399 53.7751L23.1692 53.4501L23.2222 54.0649L22.2692 55.4439L21.8986 55.0574L19.9837 54.6622L20.0014 54.346L19.1013 53.7399L19.1807 53.1515L18.8101 52.7826L18.9337 51.6934L18.4748 51.1928L18.3954 50.3496L18.8719 49.6557L18.4219 49.1463L18.3778 48.0659L18.6601 47.5916L18.2719 47.1876L17.3542 47.5653L16.9482 48.1713L16.6218 47.9605L15.704 48.6369L14.5657 48.4261L13.9392 49.8489L14.0275 50.2618L13.7098 50.5165L12.2626 50.1476L11.8567 49.3922L12.3685 46.7221L11.795 45.9492L10.1272 46.2829L8.52123 44.6492L8.34474 42.6115L5.87399 42.4798L3.8621 40.5123L3.81798 39.7833L3.43854 39.4495L2.71496 39.432L2.45906 38.8523L1.17075 38.5185Z"/>
</mask>
<path d="M1.17075 38.5185L0.994263 37.8861L2.06198 36.0065L1.33841 34.1884L1.90315 33.1607L1.94727 32.2824L2.95322 31.8169L2.82968 31.4831L1.86785 31.1406L1.55901 30.3149L2.3267 28.3914L1.70902 27.4428L3.30618 25.7037L3.45619 25.0977L3.76503 24.8517L4.20624 25.1328L4.78863 24.6936L5.41514 21.9269L6.01518 21.6019L6.37697 21.8391L7.43586 20.6446L7.89471 20.9783L8.14179 20.8466L8.65359 21.4351L9.84484 21.0837L11.7244 21.681L11.9715 21.2067L13.7539 19.9507L14.9011 20.4074L15.1922 20.9783L16.4188 19.573L18.7925 19.9243L19.1101 20.425L19.5602 20.4952L19.7808 19.7487L20.5132 19.9946L20.8132 19.5291L21.528 19.7223L22.9663 18.598L25.2958 17.8427L26.0106 17.7285L27.0077 18.5893L27.546 18.3609L27.5283 17.5177L27.9254 16.7887L27.7225 16.4725L28.0666 15.7962L26.1253 15.9279L25.0135 15.6732L24.7223 15.1814L25.1194 14.8125L25.4723 13.5565L24.6693 13.1963L23.6546 13.3808L23.5751 12.5464L23.6104 11.8964L24.8017 12.195L25.3488 11.6768L25.8694 12.116L26.5489 11.0093L26.3371 10.1661L27.5989 9.04185L26.2047 8.39189L25.6665 6.71428L26.0194 6.18729L26.8665 6.03797L27.0518 4.80831L26.6459 3.81581L26.9636 3.3415L27.9607 3.26246L27.6607 1.88348L28.5696 1.31257L28.5961 1.04029L28.9579 1.16325L28.8343 0.855835L29.6197 1.02272L30.2373 1.6112L29.805 1.89227L30.1226 2.41926L30.8286 2.48952L31.7374 1.93619L32.4434 2.83207L33.6964 3.55231L34.217 3.20976L35.5318 3.78945L36.2113 3.68405L37.429 6.40687L37.8878 8.69931L38.3643 8.93644L38.9732 8.63782L39.3438 8.90132L39.6438 9.93774L40.3233 10.4033L39.3615 11.8261L39.4409 13.2315L39.8115 13.6179L39.9086 14.3821L42.4411 15.6381L40.288 18.1589L40.3057 18.9142L41.6204 20.425L43.35 20.6006L44.0118 20.952L43.7382 22.533L44.2059 22.6559L44.25 23.0863L42.0263 22.5593L41.6734 23.8329L43.5441 25.7389L43.5176 26.5821L45.053 25.7828L47.2061 27.1266L47.9385 26.4152L47.7709 27.8556L48.8739 28.7427L48.0267 29.6211L48.6709 32.1594L49.2092 32.3439L49.5445 32.1067L49.4562 30.9473L50.3387 30.1481L50.1534 29.5508L50.7446 29.7616L51.4858 29.3312L51.327 31.5534L50.7181 33.108H51.2475L51.8299 32.1946L52.8535 32.4405L53.2859 33.2486L53.983 33.1519L54.2213 33.4154L53.886 34.0303L52.3153 34.0478L51.7152 34.4519L51.5829 35.1633L52.077 35.9538L52.8888 36.0329L53.2771 35.0228L53.8948 34.3728L54.3007 34.4343L54.7419 35.0228L55.0772 34.9349L54.8037 32.6249L55.5008 32.5986L57.3274 33.31L57.5921 32.9763L57.2656 32.177L57.4862 31.9925L58.0245 32.2209L58.5098 32.7567L57.9186 33.4594L58.0774 33.837L59.5863 34.9789L60.7599 35.1282L62.3836 36.7794L63.6101 37.5436L63.4866 37.9652L62.6924 38.5712L62.7983 38.9665L63.9631 39.4232L63.9278 39.8624L63.0189 40.6441L63.2748 40.9778L61.9247 42.9014L62.1453 43.2L62.1012 44.7371L62.5336 45.5715L62.4895 51.0523L63.1336 53.2481L62.8248 53.9946H60.8129L60.0981 53.3359L58.4921 53.0724L57.5391 53.4413L56.4008 53.4237L54.4772 54.2318L52.2976 56.454L49.9504 59.818L48.7856 60.0375L47.6826 61.0037L48.0179 61.2321L47.9385 61.7064L48.6444 62.2861L48.5738 62.8745L48.2826 63.0238L47.4885 62.7076L47.0208 62.9185L47.2414 63.7353L46.4825 63.9197L46.4561 65.0791L45.6442 65.2812L45.5295 66.0365L44.5324 65.6413L44.0471 65.8433L43.8882 66.1595L44.303 67.1256L41.8763 69.7694L42.0881 70.5687L41.7175 71.1835L42.1499 72.5888L41.9999 72.9402L42.2822 73.0807L42.0352 73.3793L43.1647 74.6178L43.2617 75.2853L42.8293 75.461L42.9264 75.9001L44.0118 76.8926L43.9324 77.2176L44.3824 77.3845L43.9677 78.5966L42.8911 80.1073L42.1411 83.0497L40.9939 83.1903L40.7822 81.9079L39.5556 80.7046L39.5732 80.1425L39.132 79.5891L39.3262 78.9655L38.0026 78.7459L37.8437 78.2277L37.4908 78.1135L37.0672 78.5175L36.5731 77.9291L35.673 78.0345L35.5759 77.4811L34.6582 76.9893L34.4906 76.4623L34.7112 75.6103L34.0582 74.5651L33.617 74.3543L33.3434 73.23L32.7875 73.1598L32.5051 73.4057L32.011 72.5361L31.4815 72.4132L31.8345 70.0944L33.3258 68.812L32.5051 67.0993L31.3315 66.3615L31.1374 65.7115L30.4668 65.4568L29.6373 63.9373L30.1579 63.182L29.8932 62.7076L30.2991 62.3388L30.202 62.0577L30.9345 61.276L30.3521 60.5997L29.1255 60.0902L29.3373 58.8957L29.1079 58.4478L27.8284 57.4728L27.0165 56.252L25.5341 55.479L25.1017 54.952L25.2517 54.223L24.7399 53.7751L23.1692 53.4501L23.2222 54.0649L22.2692 55.4439L21.8986 55.0574L19.9837 54.6622L20.0014 54.346L19.1013 53.7399L19.1807 53.1515L18.8101 52.7826L18.9337 51.6934L18.4748 51.1928L18.3954 50.3496L18.8719 49.6557L18.4219 49.1463L18.3778 48.0659L18.6601 47.5916L18.2719 47.1876L17.3542 47.5653L16.9482 48.1713L16.6218 47.9605L15.704 48.6369L14.5657 48.4261L13.9392 49.8489L14.0275 50.2618L13.7098 50.5165L12.2626 50.1476L11.8567 49.3922L12.3685 46.7221L11.795 45.9492L10.1272 46.2829L8.52123 44.6492L8.34474 42.6115L5.87399 42.4798L3.8621 40.5123L3.81798 39.7833L3.43854 39.4495L2.71496 39.432L2.45906 38.8523L1.17075 38.5185Z" fill="#7360F2" stroke="white" stroke-width="0.4" mask="url(#path-1-inside-1_903_2319)"/>
<path d="M34 13.2858C37.0772 13.2858 39.5714 15.7801 39.5714 18.8572C39.5714 21.2115 37.9172 23.7772 34.6514 26.5818C34.4699 26.7378 34.2383 26.8234 33.9989 26.8232C33.7596 26.823 33.5282 26.7369 33.3469 26.5806L33.1309 26.3932C30.0097 23.6618 28.4286 21.1589 28.4286 18.8572C28.4286 15.7801 30.9229 13.2858 34 13.2858ZM34 16.7143C33.4317 16.7143 32.8867 16.9401 32.4848 17.342C32.0829 17.7438 31.8572 18.2889 31.8572 18.8572C31.8572 19.4255 32.0829 19.9706 32.4848 20.3724C32.8867 20.7743 33.4317 21.0001 34 21.0001C34.5683 21.0001 35.1134 20.7743 35.5152 20.3724C35.9171 19.9706 36.1429 19.4255 36.1429 18.8572C36.1429 18.2889 35.9171 17.7438 35.5152 17.342C35.1134 16.9401 34.5683 16.7143 34 16.7143Z" fill="#FBE75E"/>
</svg>
