<svg width="98" height="89" viewBox="0 0 98 89" fill="none" xmlns="http://www.w3.org/2000/svg">
<mask id="path-1-inside-1_902_2297" fill="white">
<path d="M79.2097 0.372314L79.5009 0.49528L79.342 1.54927L78.7684 1.80399L78.7949 3.86805L79.3861 5.09771L79.9685 5.33487L80.498 6.09901L81.5216 6.44155L82.0775 7.38136L82.8717 6.95977L83.9394 7.23205L83.6305 8.12795L83.6394 10.5697L83.2687 11.5271L84.0629 12.7567L84.107 13.5384L86.0748 15.664L87.4778 17.974L88.722 17.7368L90.3633 18.9314L91.5016 19.2037L92.4899 19.8712L93.7694 22.6116L94.6695 23.2527L94.9254 23.121L96.0814 24.7196L95.4813 25.0621L95.4284 25.7208L95.7549 26.2039L97.5197 28.6281L96.9814 29.1375L95.4195 29.1463L95.0931 30.2442L96.4078 31.1753L96.399 31.5178L95.8431 31.6056L94.7401 32.9846L94.0871 32.3347L93.3812 33.9596L94.0606 34.9872L94.5283 34.6886L95.2166 34.7676L95.3225 35.1277L94.8372 35.3825L95.1989 35.646L95.6137 37.104L96.1431 37.3411L94.3165 37.8418L94.7225 38.7289L94.1048 38.9221L94.0165 39.4315L93.1429 39.493L92.9841 40.2659L93.3106 41.3463L91.8281 41.2233L91.3869 42.2158L92.6399 42.4003L92.5164 42.8043L91.3958 43.6475L90.3192 43.5685L89.9839 44.7981L90.3633 45.1494L90.1869 47.0027L91.1575 46.9939L91.1399 48.2675L91.7222 48.9175L91.1487 52.3605L91.3163 53.1686L93.2223 53.5814L93.5223 54.407L91.784 55.0658L92.1458 55.5401L90.7781 56.1725L90.928 56.5853L90.3722 57.2001L90.1692 58.2541L89.5956 58.2014L89.578 57.973L88.6956 58.1663L83.3129 56.7785L81.6363 57.0157L81.2392 57.4636L79.9067 58.7635L83.1011 59.9493L83.8864 60.8539L81.1862 62.2944L79.7215 62.5403L79.4655 62.7863L79.8891 63.1903L80.0391 64.1477L79.1655 64.5429L79.2449 64.7625L78.8126 64.6044L78.389 64.903L78.3449 64.6483L77.3831 64.5253L77.0389 64.9821L76.4389 65.0963L76.5801 66.2117L76.1212 66.1678L76.0418 67.6083L75.6447 67.6522L75.1682 67.1164L75.0446 67.5204L74.224 67.8893L74.5505 68.0738L74.3476 68.3812L74.0828 68.2231L73.7387 68.6272L74.4799 69.2683L74.1711 69.9446L74.8329 70.1027L74.6917 70.902L72.9269 70.8405L72.8563 71.552L71.6915 71.5256L71.2768 72.3776L70.6591 72.808L70.6238 75.7065L69.159 74.872L69.2825 74.4417L67.8442 74.064L67.4736 74.916L67.0941 74.8369L66.9265 75.724L65.6205 75.5396L65.4705 76.2335L65.1617 76.2071L64.7911 76.778L65.5941 77.4368L65.6293 77.7881L66.2117 77.8496L65.8588 78.5786L63.944 76.5848L60.5996 76.251L60.1055 77.4983L59.5936 77.5509L59.4083 77.2523L58.1288 77.1821L57.4582 76.8307L57.4229 76.2862L56.5405 76.0929L55.6493 77.4543L55.7463 77.7266H56.2758L56.3993 78.8772L57.0523 80.5636L56.7964 81.0643L56.4258 81.1345L56.6552 82.9175L57.1582 84.0857L55.1993 84.1735L55.2169 84.4897L54.5992 84.5951L54.6698 84.9026L52.7109 85.2188L52.3226 84.5864L51.9079 84.56L49.4636 82.4696L48.3341 83.7783L47.9017 83.708L47.7782 83.91L48.2547 84.0857L47.9458 84.5336L48.4223 84.6215L47.6458 84.885L46.4193 86.6241L46.7899 86.8788L45.6339 88.2578L45.6075 87.9504L44.7427 87.318L43.922 88.3719L43.1543 87.8098L44.5574 85.7897L42.6072 84.3404L43.5073 82.6101L39.3247 79.6677L39.8806 78.5786L39.2011 77.8057L40.2953 77.7091L40.5777 77.0152L40.2424 76.7605L39.7747 76.8922L38.707 75.8558H36.9598L37.2687 74.6613L35.6362 73.8356L36.2274 72.9573L35.4332 72.2986L36.3156 71.0074L34.3037 69.0487L34.6303 68.6272L33.2184 67.2745L32.4772 68.5832L31.5683 68.3636L31.4006 68.8731L30.7124 69.0927L30.4564 69.4967L29.7946 69.5406L29.1946 70.498L28.8946 70.3135L28.6652 69.3474L27.9239 69.1541L27.3062 69.3386L27.165 68.8819L26.768 68.8906L26.3268 69.5582L25.5414 68.6535L23.9707 68.7589L23.9001 67.986L22.9206 67.9772L21.9765 68.513L20.5029 68.2758L20.3264 67.9069L20.2293 68.3285L19.6293 68.5481L19.7263 68.0826L19.4175 68.1265L18.7998 67.459L17.1232 66.5455V65.9746L16.7791 66.1766L15.4114 65.0963L15.4731 64.7449L14.1495 64.1038L14.4495 63.77L14.3613 63.3133L13.3553 63.0234L12.8259 62.1363L12.2082 62.0397L11.9788 62.5579L10.8404 62.2856L10.8052 61.7938L12.0052 61.5566L10.9375 60.8012L10.9728 60.5202L11.4317 60.3709L10.9375 60.0107L10.0551 59.9405L9.42861 60.4499L8.83738 59.7473L7.95497 60.1513L7.70789 60.7398L7.54023 59.9317L6.76371 59.352L6.45486 60.1776L5.72247 60.4851L4.61945 56.0144L5.9166 52.5713L6.26956 52.299L7.40788 52.87L7.88439 53.6165L9.03151 53.5463L9.86098 53.8712L12.3582 53.5814L12.57 53.7483L12.2258 54.0206L13.4612 54.7671L13.823 53.9503L13.5848 52.8348L16.4085 49.3127L15.6055 48.979L15.9937 47.0203L14.6084 46.546L15.2084 44.4468L19.5675 45.2812L19.6646 43.9286L17.9968 43.3401L17.9615 42.2334L17.2821 42.0841L17.4762 41.7415L19.6999 41.2585L18.4733 38.1228L17.8733 37.3235L18.1203 36.6648L15.7114 37.0249L15.0848 36.3047L13.1877 36.0939L12.4288 35.6723L12.8171 34.9696L12.42 34.7764L12.8612 34.4953L12.7729 33.8278L11.9611 33.7312L11.4405 33.1603L11.4934 31.5354L11.2022 30.8239L11.8111 30.5956L11.6611 29.4186L9.46388 28.1362L8.89032 28.3822L7.24022 28.1187L6.80784 26.889L6.15484 26.8715L5.45776 27.5214L4.80475 26.7836L4.28413 26.889L3.43703 26.1951L2.63403 24.5878L2.01633 24.7547L1.73398 24.4824L0.92215 22.1988L4.09 18.0355L3.21642 16.8497L3.12818 15.5059L3.42819 14.5485L4.34591 14.2323L4.01942 13.0466L5.13124 13.152L5.32537 13.4243L5.43126 13.1256L6.04896 13.3013L6.08426 13.8546L6.47252 13.9425L7.31963 12.7831L7.27552 12.1156L8.53736 11.571L9.65801 10.3765L10.8934 10.9913L11.0522 10.5697L12.1729 11.0967L12.3052 10.719L12.8788 10.7366L13.1347 9.36639L14.2201 9.41909L15.0143 8.88331L14.0436 8.22456L15.0319 6.85437L16.5496 7.95228L16.4967 6.85437L17.2909 6.83681L17.8468 6.21319L18.3321 7.00369L18.8792 7.05639L19.9558 8.04011L20.2381 7.77662L20.8293 8.16308L21.1382 7.65365L20.6176 6.96856L22.2765 6.85437L22.8942 6.38886L23.9531 6.64357L23.8295 6.87194L24.2531 7.17935H24.7826L24.9061 6.66992L25.3473 6.53817L25.5061 5.80038L24.809 5.62471L24.9678 5.30852L27.2621 5.14163L29.1681 3.1654L29.2652 2.61205L28.974 2.3222L30.0858 1.57563L30.2447 1.95331L30.6859 1.7425L31.1712 2.03235L31.7624 1.18037L32.8831 1.55806L37.0304 0.732425L39.8453 1.65467L40.313 3.0073L40.7542 2.80528L42.1308 4.90448L43.4279 5.92334L43.1455 6.59965L43.922 8.07524L46.0222 8.27726L46.3751 8.05768L46.2075 7.74148L47.1781 7.28475L47.9723 6.38007L48.2812 7.21449H49.5165L49.9665 7.82931L50.7695 7.97863L50.8048 8.38266L51.449 8.57589L52.5608 8.40023L52.755 8.84818L52.2432 8.90087L52.3667 9.463L51.8549 10.0251L53.3109 11.1933L54.4668 11.4392L55.2875 10.6048L55.6493 9.23464L55.9846 9.34882L56.4435 8.78669L57.3876 8.58467L58.0406 7.61852L59.929 7.06517L60.7937 6.21319L62.8762 5.48418L65.6029 5.4227L66.3088 5.71255L68.0295 5.4227L67.9942 5.06258L68.9384 4.93961L69.3796 5.22068L73.5887 3.13026L74.2064 1.9006L74.877 1.39996L77.2419 1.60197L79.2097 0.372314Z"/>
</mask>
<path d="M79.2097 0.372314L79.5009 0.49528L79.342 1.54927L78.7684 1.80399L78.7949 3.86805L79.3861 5.09771L79.9685 5.33487L80.498 6.09901L81.5216 6.44155L82.0775 7.38136L82.8717 6.95977L83.9394 7.23205L83.6305 8.12795L83.6394 10.5697L83.2687 11.5271L84.0629 12.7567L84.107 13.5384L86.0748 15.664L87.4778 17.974L88.722 17.7368L90.3633 18.9314L91.5016 19.2037L92.4899 19.8712L93.7694 22.6116L94.6695 23.2527L94.9254 23.121L96.0814 24.7196L95.4813 25.0621L95.4284 25.7208L95.7549 26.2039L97.5197 28.6281L96.9814 29.1375L95.4195 29.1463L95.0931 30.2442L96.4078 31.1753L96.399 31.5178L95.8431 31.6056L94.7401 32.9846L94.0871 32.3347L93.3812 33.9596L94.0606 34.9872L94.5283 34.6886L95.2166 34.7676L95.3225 35.1277L94.8372 35.3825L95.1989 35.646L95.6137 37.104L96.1431 37.3411L94.3165 37.8418L94.7225 38.7289L94.1048 38.9221L94.0165 39.4315L93.1429 39.493L92.9841 40.2659L93.3106 41.3463L91.8281 41.2233L91.3869 42.2158L92.6399 42.4003L92.5164 42.8043L91.3958 43.6475L90.3192 43.5685L89.9839 44.7981L90.3633 45.1494L90.1869 47.0027L91.1575 46.9939L91.1399 48.2675L91.7222 48.9175L91.1487 52.3605L91.3163 53.1686L93.2223 53.5814L93.5223 54.407L91.784 55.0658L92.1458 55.5401L90.7781 56.1725L90.928 56.5853L90.3722 57.2001L90.1692 58.2541L89.5956 58.2014L89.578 57.973L88.6956 58.1663L83.3129 56.7785L81.6363 57.0157L81.2392 57.4636L79.9067 58.7635L83.1011 59.9493L83.8864 60.8539L81.1862 62.2944L79.7215 62.5403L79.4655 62.7863L79.8891 63.1903L80.0391 64.1477L79.1655 64.5429L79.2449 64.7625L78.8126 64.6044L78.389 64.903L78.3449 64.6483L77.3831 64.5253L77.0389 64.9821L76.4389 65.0963L76.5801 66.2117L76.1212 66.1678L76.0418 67.6083L75.6447 67.6522L75.1682 67.1164L75.0446 67.5204L74.224 67.8893L74.5505 68.0738L74.3476 68.3812L74.0828 68.2231L73.7387 68.6272L74.4799 69.2683L74.1711 69.9446L74.8329 70.1027L74.6917 70.902L72.9269 70.8405L72.8563 71.552L71.6915 71.5256L71.2768 72.3776L70.6591 72.808L70.6238 75.7065L69.159 74.872L69.2825 74.4417L67.8442 74.064L67.4736 74.916L67.0941 74.8369L66.9265 75.724L65.6205 75.5396L65.4705 76.2335L65.1617 76.2071L64.7911 76.778L65.5941 77.4368L65.6293 77.7881L66.2117 77.8496L65.8588 78.5786L63.944 76.5848L60.5996 76.251L60.1055 77.4983L59.5936 77.5509L59.4083 77.2523L58.1288 77.1821L57.4582 76.8307L57.4229 76.2862L56.5405 76.0929L55.6493 77.4543L55.7463 77.7266H56.2758L56.3993 78.8772L57.0523 80.5636L56.7964 81.0643L56.4258 81.1345L56.6552 82.9175L57.1582 84.0857L55.1993 84.1735L55.2169 84.4897L54.5992 84.5951L54.6698 84.9026L52.7109 85.2188L52.3226 84.5864L51.9079 84.56L49.4636 82.4696L48.3341 83.7783L47.9017 83.708L47.7782 83.91L48.2547 84.0857L47.9458 84.5336L48.4223 84.6215L47.6458 84.885L46.4193 86.6241L46.7899 86.8788L45.6339 88.2578L45.6075 87.9504L44.7427 87.318L43.922 88.3719L43.1543 87.8098L44.5574 85.7897L42.6072 84.3404L43.5073 82.6101L39.3247 79.6677L39.8806 78.5786L39.2011 77.8057L40.2953 77.7091L40.5777 77.0152L40.2424 76.7605L39.7747 76.8922L38.707 75.8558H36.9598L37.2687 74.6613L35.6362 73.8356L36.2274 72.9573L35.4332 72.2986L36.3156 71.0074L34.3037 69.0487L34.6303 68.6272L33.2184 67.2745L32.4772 68.5832L31.5683 68.3636L31.4006 68.8731L30.7124 69.0927L30.4564 69.4967L29.7946 69.5406L29.1946 70.498L28.8946 70.3135L28.6652 69.3474L27.9239 69.1541L27.3062 69.3386L27.165 68.8819L26.768 68.8906L26.3268 69.5582L25.5414 68.6535L23.9707 68.7589L23.9001 67.986L22.9206 67.9772L21.9765 68.513L20.5029 68.2758L20.3264 67.9069L20.2293 68.3285L19.6293 68.5481L19.7263 68.0826L19.4175 68.1265L18.7998 67.459L17.1232 66.5455V65.9746L16.7791 66.1766L15.4114 65.0963L15.4731 64.7449L14.1495 64.1038L14.4495 63.77L14.3613 63.3133L13.3553 63.0234L12.8259 62.1363L12.2082 62.0397L11.9788 62.5579L10.8404 62.2856L10.8052 61.7938L12.0052 61.5566L10.9375 60.8012L10.9728 60.5202L11.4317 60.3709L10.9375 60.0107L10.0551 59.9405L9.42861 60.4499L8.83738 59.7473L7.95497 60.1513L7.70789 60.7398L7.54023 59.9317L6.76371 59.352L6.45486 60.1776L5.72247 60.4851L4.61945 56.0144L5.9166 52.5713L6.26956 52.299L7.40788 52.87L7.88439 53.6165L9.03151 53.5463L9.86098 53.8712L12.3582 53.5814L12.57 53.7483L12.2258 54.0206L13.4612 54.7671L13.823 53.9503L13.5848 52.8348L16.4085 49.3127L15.6055 48.979L15.9937 47.0203L14.6084 46.546L15.2084 44.4468L19.5675 45.2812L19.6646 43.9286L17.9968 43.3401L17.9615 42.2334L17.2821 42.0841L17.4762 41.7415L19.6999 41.2585L18.4733 38.1228L17.8733 37.3235L18.1203 36.6648L15.7114 37.0249L15.0848 36.3047L13.1877 36.0939L12.4288 35.6723L12.8171 34.9696L12.42 34.7764L12.8612 34.4953L12.7729 33.8278L11.9611 33.7312L11.4405 33.1603L11.4934 31.5354L11.2022 30.8239L11.8111 30.5956L11.6611 29.4186L9.46388 28.1362L8.89032 28.3822L7.24022 28.1187L6.80784 26.889L6.15484 26.8715L5.45776 27.5214L4.80475 26.7836L4.28413 26.889L3.43703 26.1951L2.63403 24.5878L2.01633 24.7547L1.73398 24.4824L0.92215 22.1988L4.09 18.0355L3.21642 16.8497L3.12818 15.5059L3.42819 14.5485L4.34591 14.2323L4.01942 13.0466L5.13124 13.152L5.32537 13.4243L5.43126 13.1256L6.04896 13.3013L6.08426 13.8546L6.47252 13.9425L7.31963 12.7831L7.27552 12.1156L8.53736 11.571L9.65801 10.3765L10.8934 10.9913L11.0522 10.5697L12.1729 11.0967L12.3052 10.719L12.8788 10.7366L13.1347 9.36639L14.2201 9.41909L15.0143 8.88331L14.0436 8.22456L15.0319 6.85437L16.5496 7.95228L16.4967 6.85437L17.2909 6.83681L17.8468 6.21319L18.3321 7.00369L18.8792 7.05639L19.9558 8.04011L20.2381 7.77662L20.8293 8.16308L21.1382 7.65365L20.6176 6.96856L22.2765 6.85437L22.8942 6.38886L23.9531 6.64357L23.8295 6.87194L24.2531 7.17935H24.7826L24.9061 6.66992L25.3473 6.53817L25.5061 5.80038L24.809 5.62471L24.9678 5.30852L27.2621 5.14163L29.1681 3.1654L29.2652 2.61205L28.974 2.3222L30.0858 1.57563L30.2447 1.95331L30.6859 1.7425L31.1712 2.03235L31.7624 1.18037L32.8831 1.55806L37.0304 0.732425L39.8453 1.65467L40.313 3.0073L40.7542 2.80528L42.1308 4.90448L43.4279 5.92334L43.1455 6.59965L43.922 8.07524L46.0222 8.27726L46.3751 8.05768L46.2075 7.74148L47.1781 7.28475L47.9723 6.38007L48.2812 7.21449H49.5165L49.9665 7.82931L50.7695 7.97863L50.8048 8.38266L51.449 8.57589L52.5608 8.40023L52.755 8.84818L52.2432 8.90087L52.3667 9.463L51.8549 10.0251L53.3109 11.1933L54.4668 11.4392L55.2875 10.6048L55.6493 9.23464L55.9846 9.34882L56.4435 8.78669L57.3876 8.58467L58.0406 7.61852L59.929 7.06517L60.7937 6.21319L62.8762 5.48418L65.6029 5.4227L66.3088 5.71255L68.0295 5.4227L67.9942 5.06258L68.9384 4.93961L69.3796 5.22068L73.5887 3.13026L74.2064 1.9006L74.877 1.39996L77.2419 1.60197L79.2097 0.372314Z" fill="#7360F2" stroke="white" stroke-width="0.4" mask="url(#path-1-inside-1_902_2297)"/>
<path d="M43 14.2858C46.0772 14.2858 48.5714 16.7801 48.5714 19.8572C48.5714 22.2115 46.9172 24.7772 43.6514 27.5818C43.4699 27.7378 43.2383 27.8234 42.9989 27.8232C42.7596 27.823 42.5282 27.7369 42.3469 27.5806L42.1309 27.3932C39.0097 24.6618 37.4286 22.1589 37.4286 19.8572C37.4286 16.7801 39.9229 14.2858 43 14.2858ZM43 17.7143C42.4317 17.7143 41.8867 17.9401 41.4848 18.342C41.0829 18.7438 40.8572 19.2889 40.8572 19.8572C40.8572 20.4255 41.0829 20.9706 41.4848 21.3724C41.8867 21.7743 42.4317 22.0001 43 22.0001C43.5683 22.0001 44.1134 21.7743 44.5152 21.3724C44.9171 20.9706 45.1429 20.4255 45.1429 19.8572C45.1429 19.2889 44.9171 18.7438 44.5152 18.342C44.1134 17.9401 43.5683 17.7143 43 17.7143Z" fill="#FBE75E"/>
</svg>
