<svg width="54" height="98" viewBox="0 0 54 98" fill="none" xmlns="http://www.w3.org/2000/svg">
<mask id="path-1-inside-1_903_2314" fill="white">
<path d="M2.94968 19.2405L3.285 19.5567L4.96157 19.223L5.45573 18.4676L5.49984 17.642L6.07342 16.9569L7.16759 15.9819L7.74999 15.9292L8.21766 15.3408L11.4561 15.4198L11.1208 15.2441L11.0855 14.6117L11.7297 14.5678L11.5355 14.1726L11.9944 13.8125L12.1091 13.2064L12.6562 13.3294L12.6385 12.899L13.0621 12.8902L12.9033 12.3017L13.9092 11.8626L14.3504 10.5627L15.7358 10.712L16.1064 9.43839L16.7417 9.56136L17.0947 8.14725L17.633 8.28779L17.8006 6.89124L18.3918 6.97908L18.1095 6.35546L18.3477 5.44201L18.6478 5.35417L18.5242 6.18858L19.8743 5.88995L19.9802 5.52105L19.1684 5.77577L19.2831 4.88866L19.5566 4.87988L19.7949 4.28261L20.8097 4.25626L21.0303 3.43941L21.3126 3.35158L21.9215 3.99276L23.2804 2.28881L24.2158 2.92999L25.6806 3.31645L25.8923 2.8158L26.51 2.56109L26.7836 1.63007L28.3366 1.97262L28.416 0.865921L29.7132 0.0578613L30.1544 0.356489L30.1632 1.60371L32.0604 1.51588L32.4928 2.91242L33.9929 3.78197L34.2311 4.82717L35.1841 4.75691L34.9635 6.34668L33.9664 8.04186L33.7193 9.32421L35.7665 10.5539L35.6959 12.2842L37.1872 12.3105L37.7078 12.7146L38.7579 13.7861L38.2549 13.9706L38.3784 14.2516L37.9019 14.1989L38.8638 15.0597L38.8814 14.8225L39.4815 14.8752L39.4903 15.534L40.5933 15.736L40.8845 16.5089L41.7404 17.1238L42.0316 17.1062L42.4552 16.2191L44.0788 15.6833L43.9729 17.6947L44.3965 17.6068L44.873 19.6797L45.4289 19.6006L45.2524 18.9155L46.0642 18.6608L46.0995 19.6885L46.576 20.2682L45.1289 20.9094L44.9347 21.9106L45.4201 22.2883L44.9083 22.3498L45.0318 22.8241L44.6259 23.597L46.1789 24.0362L46.5584 25.907L46.1701 26.4077L45.3848 25.8895L44.4671 27.3826L43.4435 26.7151L43.0464 26.6887L42.9228 27.0489L42.5964 27.0928L42.6228 27.9887L43.3641 29.9825L42.8876 30.1494L42.8346 30.6851L42.5434 30.7378L42.5611 32.0641L42.9581 32.152L43.2758 31.8006L44.0523 32.7229L44.9171 32.6087L44.5024 33.3553L44.9171 34.5059L44.8024 35.0504L45.8877 36.9915L46.1878 36.4557L47.9702 36.7632L47.2114 38.2388L48.0938 38.4144L49.7968 40.1799L50.388 40.0832L50.5733 39.3718L51.1293 39.2576L51.191 40.0657L50.2821 40.9967L50.4233 41.3568L49.0203 41.5501L49.1174 43.0169L50.4322 43.983L50.4586 44.8701L50.3969 45.3796L50.0439 45.16L49.7968 45.9592L49.285 46.1964L48.8526 47.0396L49.938 48.0585L49.8498 49.2003L49.3203 49.6834L48.7556 48.9807L48.2526 49.2618L48.2438 50.7901L49.6292 51.1765L49.4439 51.6333L49.038 51.6069L48.7997 52.2656L48.4379 52.7839L48.6232 53.3284L49.1085 53.1176L49.9027 53.4865L50.2733 53.3372L50.9175 54.0574L51.6058 53.7939L51.1028 55.4188L50.4586 55.6823L50.5116 56.0512L50.9793 56.1303L50.9881 56.508L50.5116 56.5958L50.5557 57.1052L51.394 57.4214L51.897 58.4315L51.694 59.1956L52.0293 59.8017L51.994 60.6273L51.5969 61.2334L52.3382 62.0853L51.8087 62.5333L52.1264 63.5697L52.6735 63.5082L52.8676 63.7542L53.0529 64.7906L52.6117 65.2385L51.7558 65.4845L51.1204 65.0365L50.7145 65.098L50.5822 64.7115L49.9115 65.2473L49.4792 64.3953L49.5233 65.502L48.7909 66.0115L48.8791 66.3365L48.3232 66.8986L47.5996 66.5824L47.079 66.9337L45.3671 65.6689L45.1201 65.9676L44.0082 66.1608L44.1229 67.1533L43.5052 67.7593L42.1816 66.8898L42.261 67.7242L41.3963 67.3465L40.9727 67.7066L41.2198 68.4708L40.5756 69.2437L41.158 70.043L39.3314 70.122L37.6107 72.8624L38.1667 73.2138L37.9902 73.7056L38.6785 74.5752L38.652 75.313L37.999 75.9454L37.9284 77.5L38.6608 78.6243L38.6873 80.5127V81.0221L38.502 81.7247L38.9873 82.4713L38.352 83.4111L38.4226 83.7273L37.8313 83.7976L37.8578 84.2456L38.4755 84.957L38.1225 85.5543L38.6079 86.9157L37.849 87.9258L37.346 89.9195L36.746 89.9722L36.4813 90.9735L35.7842 91.2985L34.6105 90.2445L33.5605 90.2621L33.3222 90.9384L34.1252 92.0363L33.5605 92.8356L31.125 92.0539L30.4103 92.3525L29.7396 93.143L28.769 93.1869L26.2188 92.5809L25.9365 91.7904L25.257 92.3525L24.0746 92.414L23.3069 93.5997L22.6274 93.9072L21.4538 93.1255L20.8626 92.0539L21.0391 91.0526L20.3949 90.8067L19.6361 91.4566L20.1655 92.7653L19.6625 93.67L19.0625 93.5822L18.7536 92.1944L18.1536 91.7992L17.8889 92.1856L18.4448 92.7302L18.5772 93.3802L18.4801 94.0038L18.1183 94.3112L17.3859 94.2848L16.0446 92.9937L15.3475 92.9849L14.9063 93.3187L14.7828 93.7842L15.0652 94.1531L16.5211 93.9335L16.68 94.6274L17.5536 95.4179L17.73 96.0151L17.2359 96.3753L16.0358 96.4016L15.3299 95.4706L14.6416 95.4267L14.5445 95.9976L15.0916 97.438L14.2975 97.8948L12.8768 97.6049L10.8825 93.7578L9.60306 94.0653L9.37362 93.6524L8.58827 93.9072L7.80293 92.9059L7.47644 93.8369L7.12349 93.8457L7.27349 93.1518L6.42637 92.6863L7.07936 91.8694L6.61169 91.9397L6.05576 90.7979L5.12041 90.2709L6.01164 89.9547L5.87928 89.6648L5.01453 89.5594L5.58809 88.8216L4.46742 89.1554L4.60861 88.1365L3.74385 88.198L3.70855 87.5041L3.16146 87.592L3.02027 87.3197L3.54972 86.8454L3.26734 86.336L3.65561 85.0975L3.03792 84.3861L3.61148 84.5442L3.69091 84.3334L3.24087 83.9908L3.42619 83.3145L2.8085 83.1564L2.57907 82.3747L2.79967 82.1727L3.39971 82.6997L3.11734 81.6633L3.77914 81.8829L4.08799 81.4964L3.38206 81.3734L2.87026 79.9681L2.42024 79.7309L2.75555 78.6682L2.49965 77.8952L3.02027 77.3068L2.68496 77.1926L2.21728 77.5527L1.87314 76.9115H2.23493L2.14669 76.1649L2.56143 75.313L1.66137 74.4698L2.71144 73.9691L1.86432 73.7583L1.68784 73.3982L2.09374 73.0908L2.61437 73.2665L2.79085 72.9503L2.28787 72.2125L2.57025 71.703L1.89079 70.8071L2.78203 70.0079L2.08492 69.8322L2.42906 68.787L2.21728 67.4519L2.44671 67.2148L2.02316 66.0203L2.65848 65.9236L2.02316 65.4581L2.16433 65.0102L1.86432 64.3339L2.17317 63.6576L2.03198 63.2799L2.39377 63.2008L2.42906 62.1908L3.64679 62.2083L3.62032 61.7428L4.05269 61.33L3.60266 60.68L3.99975 60.7591L3.82327 60.2936L4.14094 60.153L3.77032 59.749L3.7968 59.1078L3.12617 58.4666L3.13499 57.4917L3.62032 57.562L3.31147 56.9823L3.62914 56.5255L2.95851 56.1215L3.33794 55.0939L2.17317 53.7325L2.09374 51.4224L0.628948 50.0259L1.62606 48.2517L2.24376 47.874L2.44671 48.3395L2.89673 48.1814L2.56143 46.8815L2.76438 46.5126L2.34083 45.5377L3.12617 44.8526L3.32029 44.2729L4.06152 44.3256L4.08799 43.6229L4.54685 43.4209L4.44978 42.8675L3.54089 41.8399L2.06727 40.8913L2.73791 39.811L3.66444 39.2752L3.49678 37.9401L3.06439 37.6678L2.79085 36.3416L1.66137 34.6552L2.3673 33.6802L1.15839 33.0566L1.10544 32.758L0.328918 32.3715V32.0114L1.25545 31.2648L0.68189 29.6136L0.778956 28.7177L1.37017 28.261L1.40546 27.8481L2.34964 27.9272L2.65848 26.8293L1.65253 26.4516L2.27905 25.9334L2.84379 25.907L2.86144 25.4679H3.13499L2.9938 24.8179L2.39377 24.4051L2.3673 23.0437L4.53802 22.8944V22.3849L3.37324 21.4978L3.62914 20.9708L3.02027 20.9972L2.61437 20.4965L2.88792 20.2418L2.69378 19.504L2.94968 19.2405Z"/>
</mask>
<path d="M2.94968 19.2405L3.285 19.5567L4.96157 19.223L5.45573 18.4676L5.49984 17.642L6.07342 16.9569L7.16759 15.9819L7.74999 15.9292L8.21766 15.3408L11.4561 15.4198L11.1208 15.2441L11.0855 14.6117L11.7297 14.5678L11.5355 14.1726L11.9944 13.8125L12.1091 13.2064L12.6562 13.3294L12.6385 12.899L13.0621 12.8902L12.9033 12.3017L13.9092 11.8626L14.3504 10.5627L15.7358 10.712L16.1064 9.43839L16.7417 9.56136L17.0947 8.14725L17.633 8.28779L17.8006 6.89124L18.3918 6.97908L18.1095 6.35546L18.3477 5.44201L18.6478 5.35417L18.5242 6.18858L19.8743 5.88995L19.9802 5.52105L19.1684 5.77577L19.2831 4.88866L19.5566 4.87988L19.7949 4.28261L20.8097 4.25626L21.0303 3.43941L21.3126 3.35158L21.9215 3.99276L23.2804 2.28881L24.2158 2.92999L25.6806 3.31645L25.8923 2.8158L26.51 2.56109L26.7836 1.63007L28.3366 1.97262L28.416 0.865921L29.7132 0.0578613L30.1544 0.356489L30.1632 1.60371L32.0604 1.51588L32.4928 2.91242L33.9929 3.78197L34.2311 4.82717L35.1841 4.75691L34.9635 6.34668L33.9664 8.04186L33.7193 9.32421L35.7665 10.5539L35.6959 12.2842L37.1872 12.3105L37.7078 12.7146L38.7579 13.7861L38.2549 13.9706L38.3784 14.2516L37.9019 14.1989L38.8638 15.0597L38.8814 14.8225L39.4815 14.8752L39.4903 15.534L40.5933 15.736L40.8845 16.5089L41.7404 17.1238L42.0316 17.1062L42.4552 16.2191L44.0788 15.6833L43.9729 17.6947L44.3965 17.6068L44.873 19.6797L45.4289 19.6006L45.2524 18.9155L46.0642 18.6608L46.0995 19.6885L46.576 20.2682L45.1289 20.9094L44.9347 21.9106L45.4201 22.2883L44.9083 22.3498L45.0318 22.8241L44.6259 23.597L46.1789 24.0362L46.5584 25.907L46.1701 26.4077L45.3848 25.8895L44.4671 27.3826L43.4435 26.7151L43.0464 26.6887L42.9228 27.0489L42.5964 27.0928L42.6228 27.9887L43.3641 29.9825L42.8876 30.1494L42.8346 30.6851L42.5434 30.7378L42.5611 32.0641L42.9581 32.152L43.2758 31.8006L44.0523 32.7229L44.9171 32.6087L44.5024 33.3553L44.9171 34.5059L44.8024 35.0504L45.8877 36.9915L46.1878 36.4557L47.9702 36.7632L47.2114 38.2388L48.0938 38.4144L49.7968 40.1799L50.388 40.0832L50.5733 39.3718L51.1293 39.2576L51.191 40.0657L50.2821 40.9967L50.4233 41.3568L49.0203 41.5501L49.1174 43.0169L50.4322 43.983L50.4586 44.8701L50.3969 45.3796L50.0439 45.16L49.7968 45.9592L49.285 46.1964L48.8526 47.0396L49.938 48.0585L49.8498 49.2003L49.3203 49.6834L48.7556 48.9807L48.2526 49.2618L48.2438 50.7901L49.6292 51.1765L49.4439 51.6333L49.038 51.6069L48.7997 52.2656L48.4379 52.7839L48.6232 53.3284L49.1085 53.1176L49.9027 53.4865L50.2733 53.3372L50.9175 54.0574L51.6058 53.7939L51.1028 55.4188L50.4586 55.6823L50.5116 56.0512L50.9793 56.1303L50.9881 56.508L50.5116 56.5958L50.5557 57.1052L51.394 57.4214L51.897 58.4315L51.694 59.1956L52.0293 59.8017L51.994 60.6273L51.5969 61.2334L52.3382 62.0853L51.8087 62.5333L52.1264 63.5697L52.6735 63.5082L52.8676 63.7542L53.0529 64.7906L52.6117 65.2385L51.7558 65.4845L51.1204 65.0365L50.7145 65.098L50.5822 64.7115L49.9115 65.2473L49.4792 64.3953L49.5233 65.502L48.7909 66.0115L48.8791 66.3365L48.3232 66.8986L47.5996 66.5824L47.079 66.9337L45.3671 65.6689L45.1201 65.9676L44.0082 66.1608L44.1229 67.1533L43.5052 67.7593L42.1816 66.8898L42.261 67.7242L41.3963 67.3465L40.9727 67.7066L41.2198 68.4708L40.5756 69.2437L41.158 70.043L39.3314 70.122L37.6107 72.8624L38.1667 73.2138L37.9902 73.7056L38.6785 74.5752L38.652 75.313L37.999 75.9454L37.9284 77.5L38.6608 78.6243L38.6873 80.5127V81.0221L38.502 81.7247L38.9873 82.4713L38.352 83.4111L38.4226 83.7273L37.8313 83.7976L37.8578 84.2456L38.4755 84.957L38.1225 85.5543L38.6079 86.9157L37.849 87.9258L37.346 89.9195L36.746 89.9722L36.4813 90.9735L35.7842 91.2985L34.6105 90.2445L33.5605 90.2621L33.3222 90.9384L34.1252 92.0363L33.5605 92.8356L31.125 92.0539L30.4103 92.3525L29.7396 93.143L28.769 93.1869L26.2188 92.5809L25.9365 91.7904L25.257 92.3525L24.0746 92.414L23.3069 93.5997L22.6274 93.9072L21.4538 93.1255L20.8626 92.0539L21.0391 91.0526L20.3949 90.8067L19.6361 91.4566L20.1655 92.7653L19.6625 93.67L19.0625 93.5822L18.7536 92.1944L18.1536 91.7992L17.8889 92.1856L18.4448 92.7302L18.5772 93.3802L18.4801 94.0038L18.1183 94.3112L17.3859 94.2848L16.0446 92.9937L15.3475 92.9849L14.9063 93.3187L14.7828 93.7842L15.0652 94.1531L16.5211 93.9335L16.68 94.6274L17.5536 95.4179L17.73 96.0151L17.2359 96.3753L16.0358 96.4016L15.3299 95.4706L14.6416 95.4267L14.5445 95.9976L15.0916 97.438L14.2975 97.8948L12.8768 97.6049L10.8825 93.7578L9.60306 94.0653L9.37362 93.6524L8.58827 93.9072L7.80293 92.9059L7.47644 93.8369L7.12349 93.8457L7.27349 93.1518L6.42637 92.6863L7.07936 91.8694L6.61169 91.9397L6.05576 90.7979L5.12041 90.2709L6.01164 89.9547L5.87928 89.6648L5.01453 89.5594L5.58809 88.8216L4.46742 89.1554L4.60861 88.1365L3.74385 88.198L3.70855 87.5041L3.16146 87.592L3.02027 87.3197L3.54972 86.8454L3.26734 86.336L3.65561 85.0975L3.03792 84.3861L3.61148 84.5442L3.69091 84.3334L3.24087 83.9908L3.42619 83.3145L2.8085 83.1564L2.57907 82.3747L2.79967 82.1727L3.39971 82.6997L3.11734 81.6633L3.77914 81.8829L4.08799 81.4964L3.38206 81.3734L2.87026 79.9681L2.42024 79.7309L2.75555 78.6682L2.49965 77.8952L3.02027 77.3068L2.68496 77.1926L2.21728 77.5527L1.87314 76.9115H2.23493L2.14669 76.1649L2.56143 75.313L1.66137 74.4698L2.71144 73.9691L1.86432 73.7583L1.68784 73.3982L2.09374 73.0908L2.61437 73.2665L2.79085 72.9503L2.28787 72.2125L2.57025 71.703L1.89079 70.8071L2.78203 70.0079L2.08492 69.8322L2.42906 68.787L2.21728 67.4519L2.44671 67.2148L2.02316 66.0203L2.65848 65.9236L2.02316 65.4581L2.16433 65.0102L1.86432 64.3339L2.17317 63.6576L2.03198 63.2799L2.39377 63.2008L2.42906 62.1908L3.64679 62.2083L3.62032 61.7428L4.05269 61.33L3.60266 60.68L3.99975 60.7591L3.82327 60.2936L4.14094 60.153L3.77032 59.749L3.7968 59.1078L3.12617 58.4666L3.13499 57.4917L3.62032 57.562L3.31147 56.9823L3.62914 56.5255L2.95851 56.1215L3.33794 55.0939L2.17317 53.7325L2.09374 51.4224L0.628948 50.0259L1.62606 48.2517L2.24376 47.874L2.44671 48.3395L2.89673 48.1814L2.56143 46.8815L2.76438 46.5126L2.34083 45.5377L3.12617 44.8526L3.32029 44.2729L4.06152 44.3256L4.08799 43.6229L4.54685 43.4209L4.44978 42.8675L3.54089 41.8399L2.06727 40.8913L2.73791 39.811L3.66444 39.2752L3.49678 37.9401L3.06439 37.6678L2.79085 36.3416L1.66137 34.6552L2.3673 33.6802L1.15839 33.0566L1.10544 32.758L0.328918 32.3715V32.0114L1.25545 31.2648L0.68189 29.6136L0.778956 28.7177L1.37017 28.261L1.40546 27.8481L2.34964 27.9272L2.65848 26.8293L1.65253 26.4516L2.27905 25.9334L2.84379 25.907L2.86144 25.4679H3.13499L2.9938 24.8179L2.39377 24.4051L2.3673 23.0437L4.53802 22.8944V22.3849L3.37324 21.4978L3.62914 20.9708L3.02027 20.9972L2.61437 20.4965L2.88792 20.2418L2.69378 19.504L2.94968 19.2405Z" fill="#7360F2" stroke="white" stroke-width="0.4" mask="url(#path-1-inside-1_903_2314)"/>
<path d="M24 45.2858C27.0772 45.2858 29.5714 47.7801 29.5714 50.8572C29.5714 53.2115 27.9172 55.7772 24.6514 58.5818C24.4699 58.7378 24.2383 58.8234 23.9989 58.8232C23.7596 58.823 23.5282 58.7369 23.3469 58.5806L23.1309 58.3932C20.0097 55.6618 18.4286 53.1589 18.4286 50.8572C18.4286 47.7801 20.9229 45.2858 24 45.2858ZM24 48.7143C23.4317 48.7143 22.8867 48.9401 22.4848 49.342C22.0829 49.7438 21.8572 50.2889 21.8572 50.8572C21.8572 51.4255 22.0829 51.9706 22.4848 52.3724C22.8867 52.7743 23.4317 53.0001 24 53.0001C24.5683 53.0001 25.1134 52.7743 25.5152 52.3724C25.9171 51.9706 26.1429 51.4255 26.1429 50.8572C26.1429 50.2889 25.9171 49.7438 25.5152 49.342C25.1134 48.9401 24.5683 48.7143 24 48.7143Z" fill="#FBE75E"/>
</svg>
