<svg width="125" height="68" viewBox="0 0 125 68" fill="none" xmlns="http://www.w3.org/2000/svg">
<mask id="path-1-inside-1_902_2306" fill="white">
<path d="M93.1388 0.128784L94.1448 0.611867L95.336 0.743611L96.6331 0.181482L97.0567 0.567948L96.942 1.58681L97.242 2.05232L97.9126 2.13137L98.4686 2.86038L100.745 2.957L102.016 4.94203L101.76 5.53929L102.095 6.06629L102.21 7.53309L102.978 7.39256L103.445 7.86685L104.778 7.76145L104.76 4.81027L104.487 3.89682L104.69 3.86168L105.272 4.57312L105.36 5.26701L105.634 5.14404L106.437 5.88183L106.057 6.848L105.343 7.09393L105.837 7.54187L106.578 7.69118L106.472 7.98103L107.01 8.43777L106.869 9.08772L107.319 10.0715L106.375 11.0903L107.257 13.0051L106.807 13.172L106.975 13.5057L107.937 13.3564L109.41 14.4982L109.578 13.1983L110.108 13.1895L110.125 13.4706L110.328 13.2159L111.475 13.3564L111.678 13.4091L111.59 15.0428L113.47 14.3665L113.796 15.1833L114.52 15.2185L114.334 14.9374L115.164 14.8408L115.702 14.0239L115.349 13.8307L116.381 12.9524L116.452 12.4166L117.282 12.197L117.855 13.1895L118.746 13.9361L120.132 13.6902L121.782 14.0591L124.12 15.6401L123.573 18.3541L123.255 18.5122L122.805 20.1986L122.814 21.5336L121.826 21.4194L121.632 20.1371L121.146 20.2513L121.182 20.5148L120.52 20.6289L120.211 20.3655L119.391 20.7519L119.09 20.6904L118.888 19.8033L118.085 19.8385L117.82 19.5223L117.034 20.5938L115.914 20.7607L115.437 20.304L114.846 20.4182L114.934 22.3329L115.137 22.6228L115.596 22.4383L115.914 23.4923L116.867 23.8349L117.837 23.747L119.249 25.1172L119.743 25.0557L119.849 25.5915L121.482 25.3192L121.349 26.5138L120.017 26.7685L120.193 28.086L119.593 28.4988L117.114 29.8865L116.849 29.3068L115.693 29.3332L116.02 30.7297L115.031 31.0371L114.864 30.3784L112.649 30.6682L112.675 31.1425L111.855 31.1689L111.881 31.5553L111.555 31.6959L112.305 38.4941L111.431 38.7401L111.502 39.6799L111.175 40.2596L111.616 40.5231L111.625 41.3926L112.843 41.3311L112.781 43.6323L113.302 43.7114L113.743 45.389L112.419 45.7667L112.314 46.8997L111.793 47.1017L111.775 47.374L110.258 47.6551L110.319 48.4104L106.878 48.9462L106.843 49.2712L106.181 49.3503L106.896 50.6853L106.507 50.6765L106.128 51.4582L105.696 51.3616L105.572 49.1746L104.778 49.2449L104.707 48.2963L103.825 48.3578L104.24 50.3867L102.872 50.7205L102.978 51.3265L104.451 50.9488L104.495 51.265L104.125 51.3177L104.195 51.8535L101.689 52.5386L102.016 54.0757L101.751 53.0919L100.789 53.2237L100.604 53.0217L100.71 54.1459L98.6715 54.3831L98.5215 55.279L98.1156 55.6127L98.0538 56.6843L97.5508 56.4911L97.1802 53.7946L96.0155 54.4182L95.7066 54.1547L94.9036 54.3392L94.9477 54.5939H93.5447L94.0212 55.1472L94.1977 56.6579L91.5505 57.1147L91.1887 56.3066L88.2238 56.8073L88.365 58.3707L89.5033 58.1423L89.7857 59.0031L87.0502 59.5037L87.1561 60.1361L87.7649 60.0922L88.0032 61.5327L87.3943 61.6381L87.5267 62.3407L87.8267 62.5515L87.1208 63.9305L80.8027 65.1953L80.3262 65.2216L80.1232 64.6683L78.4555 65.2041L76.5495 63.6846L74.6788 64.1501L74.6876 65.0372L74.167 65.1689L74.3787 66.5391L72.3845 66.9432L72.208 66.4777L71.7315 67.0925L71.4492 66.6709L71.0168 66.7324L70.8403 65.4588L70.2314 65.5378L69.8343 64.5365L69.3755 64.5717L69.1902 64.0535L66.4371 64.4224L66.49 64.9669L62.6956 65.4764L62.4309 64.0359L63.6575 63.7724L63.2427 62.9292L63.2957 62.0245L64.0987 61.9806L63.8957 59.6003L63.1722 59.7497L62.8721 57.589L61.0808 57.9403L60.8867 57.7734L60.1278 58.4146L59.5013 54.831L59.5543 54.4094L61.0367 54.0405L60.6308 51.4056L58.4689 51.8008L58.1689 50.659L56.8541 50.8346L56.5894 49.9739L55.1334 50.2462L55.0893 51.2826L54.6216 51.5197L54.3392 51.1245L53.8804 51.1947L54.1098 52.9251L52.9097 52.9865L52.8568 53.3906L52.4156 53.6716L52.3097 53.0392L51.8067 53.0744L52.0185 52.2663L52.6185 52.0292L52.2391 50.2286L50.2095 50.6063L50.2272 50.984L49.486 51.1508L49.133 50.1056L48.63 50.659L47.4123 50.9312L47.2446 49.9475L44.7298 50.7644L44.2533 48.3753L43.6532 48.4631L43.062 47.9713L43.4238 47.3565L42.5943 46.241L41.9237 46.1268L41.8531 45.7228L39.3471 46.1092L39.2324 45.6789L37.0881 46.1092L37.3969 47.6727L35.7116 47.7868L35.5086 48.5949L34.7321 48.9111L34.335 48.6037L33.4438 48.8496L33.179 47.8571L32.6143 47.901L32.2437 47.5321L32.2172 48.4456L31.5907 48.5334L31.3171 47.5058L29.4023 47.6727L29.2699 47.2511L27.161 47.7693L27.3816 48.3753L26.4551 48.6213L26.3139 49.0868L24.3549 49.1131L23.4902 48.1382L22.7931 49.0077L22.546 48.4719L18.8487 48.1469L16.8809 49.5435L15.7426 49.359L15.0367 49.6401L13.1042 49.0077L11.507 48.9902L10.9776 49.4908L9.44218 49.1043L8.73627 47.822L7.95974 47.7956L8.0921 46.7328L7.5009 45.7403L7.02439 46.3376L5.74488 45.6525L4.50068 47.7605L3.23001 46.5045L1.70345 47.1105L1.30636 46.6977L1.05048 46.0829L1.3505 45.2221L1.01518 44.6073L1.07695 43.8958L0.388672 43.1229L0.40631 42.7452L0.776908 42.8331L1.12989 42.4642L1.40344 41.3751L1.98583 41.2433L2.23291 40.4879L1.50932 39.5393L3.91831 37.4841L3.74182 37.08L6.3008 35.9997L6.85673 34.9808L9.26572 34.5768L10.5717 35.8328L11.1982 35.8943L12.1953 34.8403L12.3453 33.8653L12.7159 33.5228L14.4013 34.5768L14.7366 34.5241L15.5132 34.2342L15.4779 33.514L16.9691 33.1978L17.5604 32.7235L19.4311 32.4337L19.9076 30.4047L21.3989 30.0183L22.2018 30.8615L24.7167 30.7122L24.7961 29.6669L24.5402 29.4474L24.8844 29.0258L23.6843 28.0157L24.4344 26.8563L25.6609 26.4259L26.0403 24.9415L25.0167 23.8612L26.0138 23.9139L26.4639 22.8863L26.7992 23.0092L26.8521 22.491L28.5817 21.7532L29.6935 22.1133L30.2847 22.0606L30.373 21.6829L31.8378 22.2363L32.0848 21.6566L32.729 22.4295L34.2026 22.6842L34.5379 22.5525L34.5909 21.9904L36.0998 22.1221L36.0204 21.6127L36.2498 21.5863L36.6204 21.964L37.5646 21.8235L37.7764 22.1309L38.4117 21.964L39.1088 22.412L39.4 22.2802L39.8236 23.1058L40.3618 23.3342L40.5383 23.0268L41.1736 23.5187L41.4472 22.9302L41.6413 23.0971L41.9502 22.693L42.2943 22.9214L42.8767 22.0343L43.8915 22.2451L44.218 21.6654L45.2504 21.8147L45.5592 22.5876L46.9534 22.1836L47.5447 23.545L48.2682 23.5187L48.3476 23.0092L49.0889 23.4747L49.5213 22.614L49.4595 23.2025L50.0507 22.7194V22.2714L50.5272 22.5701L50.6949 22.3153L50.386 21.9289L51.2508 21.1647L53.4833 20.1459L53.5009 19.5223L54.4628 18.9162L54.198 18.6439L54.6569 17.8271L54.4275 17.5285L55.0716 16.9751L54.701 16.1934L54.9569 15.9475L54.6128 15.7454L55.1246 15.2097L55.4775 15.4732L55.0187 16.3778L56.2629 15.5434L58.213 15.9123L58.663 14.3665L60.0661 14.5597L61.4956 13.98L61.7691 13.5408L62.378 14.1908L62.9251 14.2259L65.0958 15.4468L65.0782 16.5447L65.9606 15.4732L67.7342 15.1218L68.3872 14.3226L69.0667 14.9462L70.2844 14.9198L70.1873 15.5171L70.5226 15.6313L70.7256 15.2624L71.8992 15.2097L72.1374 14.9901L72.1727 13.8746L71.5551 13.4091L71.5903 12.8294L72.8787 12.4517L73.1257 11.3538L74.0699 11.872L74.5199 8.62221L75.3318 8.5783L75.367 7.71753L76.0112 7.69998L76.073 7.44525L76.4966 7.97226L78.0408 7.63849L78.1378 8.13914L78.5173 8.02495L78.7908 8.99111L78.6143 9.55325L78.9761 9.77283L80.2115 9.94849L80.8292 8.92085L81.1027 9.50933L81.738 9.72012L81.5263 9.94849L81.7469 10.9586L82.4793 10.6248L83.1676 14.0151L83.9529 13.98L83.7058 12.7767L84.7383 13.128L84.9765 13.5057L85.6736 12.8997L85.753 13.3125L87.8532 13.172L87.509 12.4429L87.7738 11.9774L88.3473 12.0653L88.4356 12.399L89.3974 12.2936L89.5033 12.8294L92.8035 12.1267L92.8123 11.6876L93.6418 11.5997L93.6065 11.3099L92.3358 10.7653L92.7241 10.0451L92.3446 8.27966L91.8946 7.91956L94.1889 6.92704L94.1977 5.93453L90.721 4.7488L90.2092 3.97586L90.6681 2.88673L92.8476 0.866576L93.1388 0.128784Z"/>
</mask>
<path d="M93.1388 0.128784L94.1448 0.611867L95.336 0.743611L96.6331 0.181482L97.0567 0.567948L96.942 1.58681L97.242 2.05232L97.9126 2.13137L98.4686 2.86038L100.745 2.957L102.016 4.94203L101.76 5.53929L102.095 6.06629L102.21 7.53309L102.978 7.39256L103.445 7.86685L104.778 7.76145L104.76 4.81027L104.487 3.89682L104.69 3.86168L105.272 4.57312L105.36 5.26701L105.634 5.14404L106.437 5.88183L106.057 6.848L105.343 7.09393L105.837 7.54187L106.578 7.69118L106.472 7.98103L107.01 8.43777L106.869 9.08772L107.319 10.0715L106.375 11.0903L107.257 13.0051L106.807 13.172L106.975 13.5057L107.937 13.3564L109.41 14.4982L109.578 13.1983L110.108 13.1895L110.125 13.4706L110.328 13.2159L111.475 13.3564L111.678 13.4091L111.59 15.0428L113.47 14.3665L113.796 15.1833L114.52 15.2185L114.334 14.9374L115.164 14.8408L115.702 14.0239L115.349 13.8307L116.381 12.9524L116.452 12.4166L117.282 12.197L117.855 13.1895L118.746 13.9361L120.132 13.6902L121.782 14.0591L124.12 15.6401L123.573 18.3541L123.255 18.5122L122.805 20.1986L122.814 21.5336L121.826 21.4194L121.632 20.1371L121.146 20.2513L121.182 20.5148L120.52 20.6289L120.211 20.3655L119.391 20.7519L119.09 20.6904L118.888 19.8033L118.085 19.8385L117.82 19.5223L117.034 20.5938L115.914 20.7607L115.437 20.304L114.846 20.4182L114.934 22.3329L115.137 22.6228L115.596 22.4383L115.914 23.4923L116.867 23.8349L117.837 23.747L119.249 25.1172L119.743 25.0557L119.849 25.5915L121.482 25.3192L121.349 26.5138L120.017 26.7685L120.193 28.086L119.593 28.4988L117.114 29.8865L116.849 29.3068L115.693 29.3332L116.02 30.7297L115.031 31.0371L114.864 30.3784L112.649 30.6682L112.675 31.1425L111.855 31.1689L111.881 31.5553L111.555 31.6959L112.305 38.4941L111.431 38.7401L111.502 39.6799L111.175 40.2596L111.616 40.5231L111.625 41.3926L112.843 41.3311L112.781 43.6323L113.302 43.7114L113.743 45.389L112.419 45.7667L112.314 46.8997L111.793 47.1017L111.775 47.374L110.258 47.6551L110.319 48.4104L106.878 48.9462L106.843 49.2712L106.181 49.3503L106.896 50.6853L106.507 50.6765L106.128 51.4582L105.696 51.3616L105.572 49.1746L104.778 49.2449L104.707 48.2963L103.825 48.3578L104.24 50.3867L102.872 50.7205L102.978 51.3265L104.451 50.9488L104.495 51.265L104.125 51.3177L104.195 51.8535L101.689 52.5386L102.016 54.0757L101.751 53.0919L100.789 53.2237L100.604 53.0217L100.71 54.1459L98.6715 54.3831L98.5215 55.279L98.1156 55.6127L98.0538 56.6843L97.5508 56.4911L97.1802 53.7946L96.0155 54.4182L95.7066 54.1547L94.9036 54.3392L94.9477 54.5939H93.5447L94.0212 55.1472L94.1977 56.6579L91.5505 57.1147L91.1887 56.3066L88.2238 56.8073L88.365 58.3707L89.5033 58.1423L89.7857 59.0031L87.0502 59.5037L87.1561 60.1361L87.7649 60.0922L88.0032 61.5327L87.3943 61.6381L87.5267 62.3407L87.8267 62.5515L87.1208 63.9305L80.8027 65.1953L80.3262 65.2216L80.1232 64.6683L78.4555 65.2041L76.5495 63.6846L74.6788 64.1501L74.6876 65.0372L74.167 65.1689L74.3787 66.5391L72.3845 66.9432L72.208 66.4777L71.7315 67.0925L71.4492 66.6709L71.0168 66.7324L70.8403 65.4588L70.2314 65.5378L69.8343 64.5365L69.3755 64.5717L69.1902 64.0535L66.4371 64.4224L66.49 64.9669L62.6956 65.4764L62.4309 64.0359L63.6575 63.7724L63.2427 62.9292L63.2957 62.0245L64.0987 61.9806L63.8957 59.6003L63.1722 59.7497L62.8721 57.589L61.0808 57.9403L60.8867 57.7734L60.1278 58.4146L59.5013 54.831L59.5543 54.4094L61.0367 54.0405L60.6308 51.4056L58.4689 51.8008L58.1689 50.659L56.8541 50.8346L56.5894 49.9739L55.1334 50.2462L55.0893 51.2826L54.6216 51.5197L54.3392 51.1245L53.8804 51.1947L54.1098 52.9251L52.9097 52.9865L52.8568 53.3906L52.4156 53.6716L52.3097 53.0392L51.8067 53.0744L52.0185 52.2663L52.6185 52.0292L52.2391 50.2286L50.2095 50.6063L50.2272 50.984L49.486 51.1508L49.133 50.1056L48.63 50.659L47.4123 50.9312L47.2446 49.9475L44.7298 50.7644L44.2533 48.3753L43.6532 48.4631L43.062 47.9713L43.4238 47.3565L42.5943 46.241L41.9237 46.1268L41.8531 45.7228L39.3471 46.1092L39.2324 45.6789L37.0881 46.1092L37.3969 47.6727L35.7116 47.7868L35.5086 48.5949L34.7321 48.9111L34.335 48.6037L33.4438 48.8496L33.179 47.8571L32.6143 47.901L32.2437 47.5321L32.2172 48.4456L31.5907 48.5334L31.3171 47.5058L29.4023 47.6727L29.2699 47.2511L27.161 47.7693L27.3816 48.3753L26.4551 48.6213L26.3139 49.0868L24.3549 49.1131L23.4902 48.1382L22.7931 49.0077L22.546 48.4719L18.8487 48.1469L16.8809 49.5435L15.7426 49.359L15.0367 49.6401L13.1042 49.0077L11.507 48.9902L10.9776 49.4908L9.44218 49.1043L8.73627 47.822L7.95974 47.7956L8.0921 46.7328L7.5009 45.7403L7.02439 46.3376L5.74488 45.6525L4.50068 47.7605L3.23001 46.5045L1.70345 47.1105L1.30636 46.6977L1.05048 46.0829L1.3505 45.2221L1.01518 44.6073L1.07695 43.8958L0.388672 43.1229L0.40631 42.7452L0.776908 42.8331L1.12989 42.4642L1.40344 41.3751L1.98583 41.2433L2.23291 40.4879L1.50932 39.5393L3.91831 37.4841L3.74182 37.08L6.3008 35.9997L6.85673 34.9808L9.26572 34.5768L10.5717 35.8328L11.1982 35.8943L12.1953 34.8403L12.3453 33.8653L12.7159 33.5228L14.4013 34.5768L14.7366 34.5241L15.5132 34.2342L15.4779 33.514L16.9691 33.1978L17.5604 32.7235L19.4311 32.4337L19.9076 30.4047L21.3989 30.0183L22.2018 30.8615L24.7167 30.7122L24.7961 29.6669L24.5402 29.4474L24.8844 29.0258L23.6843 28.0157L24.4344 26.8563L25.6609 26.4259L26.0403 24.9415L25.0167 23.8612L26.0138 23.9139L26.4639 22.8863L26.7992 23.0092L26.8521 22.491L28.5817 21.7532L29.6935 22.1133L30.2847 22.0606L30.373 21.6829L31.8378 22.2363L32.0848 21.6566L32.729 22.4295L34.2026 22.6842L34.5379 22.5525L34.5909 21.9904L36.0998 22.1221L36.0204 21.6127L36.2498 21.5863L36.6204 21.964L37.5646 21.8235L37.7764 22.1309L38.4117 21.964L39.1088 22.412L39.4 22.2802L39.8236 23.1058L40.3618 23.3342L40.5383 23.0268L41.1736 23.5187L41.4472 22.9302L41.6413 23.0971L41.9502 22.693L42.2943 22.9214L42.8767 22.0343L43.8915 22.2451L44.218 21.6654L45.2504 21.8147L45.5592 22.5876L46.9534 22.1836L47.5447 23.545L48.2682 23.5187L48.3476 23.0092L49.0889 23.4747L49.5213 22.614L49.4595 23.2025L50.0507 22.7194V22.2714L50.5272 22.5701L50.6949 22.3153L50.386 21.9289L51.2508 21.1647L53.4833 20.1459L53.5009 19.5223L54.4628 18.9162L54.198 18.6439L54.6569 17.8271L54.4275 17.5285L55.0716 16.9751L54.701 16.1934L54.9569 15.9475L54.6128 15.7454L55.1246 15.2097L55.4775 15.4732L55.0187 16.3778L56.2629 15.5434L58.213 15.9123L58.663 14.3665L60.0661 14.5597L61.4956 13.98L61.7691 13.5408L62.378 14.1908L62.9251 14.2259L65.0958 15.4468L65.0782 16.5447L65.9606 15.4732L67.7342 15.1218L68.3872 14.3226L69.0667 14.9462L70.2844 14.9198L70.1873 15.5171L70.5226 15.6313L70.7256 15.2624L71.8992 15.2097L72.1374 14.9901L72.1727 13.8746L71.5551 13.4091L71.5903 12.8294L72.8787 12.4517L73.1257 11.3538L74.0699 11.872L74.5199 8.62221L75.3318 8.5783L75.367 7.71753L76.0112 7.69998L76.073 7.44525L76.4966 7.97226L78.0408 7.63849L78.1378 8.13914L78.5173 8.02495L78.7908 8.99111L78.6143 9.55325L78.9761 9.77283L80.2115 9.94849L80.8292 8.92085L81.1027 9.50933L81.738 9.72012L81.5263 9.94849L81.7469 10.9586L82.4793 10.6248L83.1676 14.0151L83.9529 13.98L83.7058 12.7767L84.7383 13.128L84.9765 13.5057L85.6736 12.8997L85.753 13.3125L87.8532 13.172L87.509 12.4429L87.7738 11.9774L88.3473 12.0653L88.4356 12.399L89.3974 12.2936L89.5033 12.8294L92.8035 12.1267L92.8123 11.6876L93.6418 11.5997L93.6065 11.3099L92.3358 10.7653L92.7241 10.0451L92.3446 8.27966L91.8946 7.91956L94.1889 6.92704L94.1977 5.93453L90.721 4.7488L90.2092 3.97586L90.6681 2.88673L92.8476 0.866576L93.1388 0.128784Z" fill="#7360F2" stroke="white" stroke-width="0.4" mask="url(#path-1-inside-1_902_2306)"/>
<path d="M78 25.2858C81.0771 25.2858 83.5714 27.7801 83.5714 30.8572C83.5714 33.2115 81.9171 35.7772 78.6514 38.5818C78.4698 38.7378 78.2383 38.8234 77.9989 38.8232C77.7595 38.823 77.5282 38.7369 77.3468 38.5806L77.1308 38.3932C74.0097 35.6618 72.4286 33.1589 72.4286 30.8572C72.4286 27.7801 74.9228 25.2858 78 25.2858ZM78 28.7143C77.4317 28.7143 76.8866 28.9401 76.4848 29.342C76.0829 29.7438 75.8571 30.2889 75.8571 30.8572C75.8571 31.4255 76.0829 31.9706 76.4848 32.3724C76.8866 32.7743 77.4317 33.0001 78 33.0001C78.5683 33.0001 79.1134 32.7743 79.5152 32.3724C79.9171 31.9706 80.1428 31.4255 80.1428 30.8572C80.1428 30.2889 79.9171 29.7438 79.5152 29.342C79.1134 28.9401 78.5683 28.7143 78 28.7143Z" fill="#FBE75E"/>
</svg>
