<svg width="19" height="19" viewBox="0 0 19 19" fill="none" xmlns="http://www.w3.org/2000/svg">
<path d="M16.0637 4.01665L16.0555 4.03231L16.0531 4.04986L15.8854 5.2883L15.8798 5.32959L15.9052 5.36264L16.2287 5.78364V6.54894V6.59347L16.2618 6.62326L17.7069 7.92387L17.8664 9.43658L16.7136 10.9835L15.0834 11.7402L13.7619 10.8916L13.7318 10.8722L13.6961 10.8764L12.9549 10.9642L12.9143 10.969L12.8887 11.0009L12.6064 11.3522L12.5873 11.3759L12.5847 11.4063L12.47 12.7325L12.4652 12.7872L12.5088 12.8205L12.8189 13.058L12.9255 14.0456L12.4831 14.8077L12.4696 14.831V14.8579V15.745V15.757L12.4724 15.7687L12.8041 17.1313L12.0915 17.9194L11.2771 17.6046L10.4452 16.3156L9.77308 14.3954L9.48324 12.2011L9.4706 12.1053L9.37449 12.1146L8.50927 12.1982L7.74776 11.5161L7.72632 11.4968L7.69795 11.492L7.24509 11.4143L6.52285 9.25756L6.49999 9.18932H6.42802H5.55356L5.15887 8.8812L4.7696 7.14193L4.75469 7.07535L4.68726 7.06494L3.54897 6.88927L3.52622 6.88576L3.50423 6.89255L2.36591 7.24388L2.35302 7.24786L2.34164 7.25512L1.77691 7.61523L1.74869 7.63323L1.73699 7.66459L1.52837 8.22361L1.04663 8.29115L0.850996 7.61711L1.80865 5.2514L1.81596 5.23335V5.21388V4.35574L2.24421 3.6787L3.10602 2.83753L3.84744 3.00152L3.92042 3.01767L3.95657 2.95225L4.24775 2.42525L4.27139 2.38246L4.25215 2.33752L4.02271 1.80174L4.01107 1.77455L3.98651 1.75807L2.83249 0.983763L2.78571 0.644514L2.99206 0.516143L5.34683 0.343165L7.40185 0.686948L10.0524 3.50813L10.107 3.56619L10.1758 3.526L11.5201 2.74038H14.052H14.0869L14.1142 2.71873L14.6789 2.27079L14.6964 2.25696L14.7063 2.23705L15.2618 1.12271L16.2152 0.787274L17.8092 1.30482L18.2759 1.79336V2.93642L17.7866 3.24358L17.2028 3.07988L17.1667 3.06978L17.1329 3.0858L16.3917 3.43713L16.3616 3.4514L16.3461 3.48087L16.0637 4.01665Z" fill="#7360F2" stroke="white" stroke-width="0.2"/>
</svg>
