<svg width="76" height="81" viewBox="0 0 76 81" fill="none" xmlns="http://www.w3.org/2000/svg">
<mask id="path-1-inside-1_903_2316" fill="white">
<path d="M49.2733 1.30709L50.3057 0.938192L52.5823 2.48405L54.5501 2.8793L54.806 3.23941H56.7297L57.0561 2.72998L57.7974 3.14279L58.3268 2.28203L60.1534 2.98469L60.3211 3.44143L61.3535 4.12652L62.5271 4.06504L63.5683 4.44272L63.1977 5.03998L62.3065 5.58455L61.5917 6.80542L62.0065 7.89455L61.6006 8.17561L61.3888 8.90462L62.2624 9.862L61.9535 10.591L62.2535 10.7315L62.6242 10.4066L62.9242 11.1883L62.3506 12.374L62.43 12.9186L61.9712 13.3665L61.6623 14.7367L60.577 16.5988L60.0652 16.4407L59.721 17.3893L59.3945 17.3102L59.4916 16.9852L58.3797 17.0819V17.8196L59.0239 17.4332L59.2886 18.373L59.8622 18.3027L60.4975 19.3392L60.2858 20.4019L59.7651 20.6654L59.4298 21.4384L60.2416 21.8073L60.2505 22.2376L58.9357 22.7383L59.0416 23.2389L60.577 23.072L60.4358 23.6693L61.1064 23.6869L60.9917 24.249L61.6535 24.2139L61.6447 26.884L62.9506 27.8589L63.1536 28.4825L63.4271 28.4562L63.3742 29.2116L63.6919 28.8954L64.1772 29.0535L63.8772 28.6406L64.2301 28.0785L65.2008 28.0697L65.0861 28.9393L65.7744 29.3082L66.0567 29.1149L66.5509 29.2994L67.3274 28.7021L67.6892 29.3697L67.0715 29.6332L67.3009 29.8264L67.2215 31.1614L67.9363 31.9256L68.9775 32.4087L69.2069 33.4275L69.7452 33.4627L70.5129 34.0775L70.3188 34.6835L70.6982 35.1754L70.7335 35.9747L72.366 36.3436L74.219 38.3813L74.4573 39.7251L73.9278 39.7339L73.919 40.2434L72.6483 40.7967L72.5248 40.4102L72.1101 40.3663L72.1012 41.1568L71.0776 41.0163L70.3717 41.3588L70.7688 42.0351L70.5394 42.931L71.6512 43.256L72.8954 43.0979L74.9955 44.4945L75.5073 46.7518L74.872 46.9801L74.7661 48.3591L72.2954 48.5962L71.2894 48.9915L72.463 49.9313L72.1277 53.1899L72.7454 53.2689L73.4955 53.9628L73.5219 54.4108L73.0013 55.4384L69.657 54.9114L69.004 56.4661L68.9863 57.9153L68.5363 59.0308L68.7304 60.6206L68.5098 61.5428L67.1509 63.5717L67.7157 64.3183L67.4421 64.6521L67.0803 64.5203L66.2156 62.5529L65.642 62.1576L64.6272 62.4914L63.6919 62.386L64.1154 61.8766L63.1712 60.8489L63.1536 59.8827L61.3711 60.4097L60.3211 60.3658L60.4269 61.2617L60.0475 61.0421L57.8327 61.8414L56.3149 62.5353L56.4208 62.913L54.5766 62.5529L53.9589 61.6921L54.2413 62.6671L53.8089 63.3609L53.4118 63.2995L53.1029 63.765L53.4294 63.6947L53.5265 64.2217L54.506 65.2054L53.1206 65.3372L52.9882 65.0473L52.2382 64.9771L51.7264 64.3534L51.0469 64.3447L51.6028 65.9081L51.3469 66.8655L51.9823 66.5844L52.2205 67.4012L51.8058 67.7174L51.3911 68.7363L49.9616 68.8856L49.6615 68.5694L48.382 68.4113L48.2056 68.0336L46.2466 68.0688L46.1848 68.991L47.0761 69.6849L47.2967 70.2031L47.0143 71.8719L45.0995 71.5733L46.9878 72.6536L46.6172 73.8306L47.2261 73.6637L47.5614 74.2171L47.632 75.271L48.3556 75.2798L48.788 76.0088L48.4173 76.8169L47.8614 76.9223L47.5261 76.044L46.8025 76.5007L46.9702 77.6074L47.4908 78.3188L46.3172 78.8634L46.3437 79.2411L45.8054 79.2235L45.5495 79.733L45.876 80.3214L44.2347 79.6539L44.3318 78.4769L44.0582 77.8182L43.0788 77.7831L40.7757 75.6487L40.4315 76.1494L40.608 77.6601L39.1167 77.6513L39.1344 77.0365L38.5608 76.9838L38.2961 77.3439L36.2312 77.5811L35.7989 77.9148L33.9017 77.6689L34.1488 76.1669L32.128 74.9548V74.6386L30.3985 74.4893L30.4779 72.4253L30.2044 72.232L30.522 72.0037L30.2309 70.8091L30.4515 70.5456L30.1426 70.3788L30.0455 70.8091L29.4367 70.9585L29.1455 70.695L29.1984 69.4741L28.3778 67.9546L27.866 67.7789L26.5777 68.4904L26.0129 68.4728L24.7776 67.612L24.5834 66.9182L24.8834 66.3472L24.001 65.4074L23.5863 65.8905L22.448 65.8817L22.0333 66.9445L19.9419 66.5668L18.786 65.7588L18.4771 64.9507L17.9212 64.7926L16.8094 62.7549L15.2652 62.8515L15.1152 62.2367L14.5416 62.061L14.7887 60.1287L13.9592 60.3044L13.1739 59.953L13.1033 58.8375L13.3327 58.6443L13.0062 58.5389L13.3415 57.9856L13.015 57.6869L12.0179 57.8802L11.6914 57.5464L11.3561 56.6769L11.5061 55.7195L12.212 54.727L12.7503 54.4371L13.968 54.4986L13.9592 54.7445L15.8123 54.5162L16.8094 53.7345L17.0035 53.1548L16.1388 53.0581L15.2475 52.1886L14.2327 52.0656L11.7532 49.2726L11.3384 47.4456L10.0413 46.4619L10.6855 46.2862L10.3148 46.1984L10.1031 45.6538L10.5531 45.1708L10.0501 44.9951L9.9354 43.4932L9.203 43.1067L8.92063 43.3526L8.75297 42.5358L8.38236 42.2723L8.47943 41.6838L8.09117 41.2534L8.24117 40.823L8.66473 40.8055L8.75297 39.8569L7.93233 39.2069L7.34994 39.2948L6.87344 38.2408L6.20281 38.0387L5.33805 36.9321L4.85272 36.8794L4.94096 36.2733L4.46446 35.7727L4.44681 34.5957L3.59087 33.5856L3.57322 33.1816L3.44969 33.3924L2.56728 33.164L2.39962 33.4187L2.04665 33.1816L2.24078 32.7864L1.88782 32.3296L1.78193 31.2317L2.32903 30.854L2.15254 30.6784L2.60257 29.6068L3.19379 29.5453L2.99966 29.0447L3.27321 28.6055L2.93789 28.3596L3.71441 27.9468L3.69676 27.49L3.40556 27.3407L3.72323 27.1475L3.37909 27.1387L2.98201 26.5678L3.20261 26.032L2.14372 25.8563L2.07313 25.2591L2.88494 24.6618L2.74376 24.1173L2.44374 23.7659L1.82605 23.9679L1.25248 23.4409L1.19072 22.7295L1.32308 23.0896L2.60257 23.3355L2.94671 23.0193L1.76428 20.8235L2.44374 20.0594L2.55845 19.3831L1.62309 18.8561L0.873047 17.3717L2.56728 16.5461L2.98201 15.9576L3.92619 16.1333L6.06162 15.3252L6.37047 15.6765L6.40576 16.6427L7.44701 16.3265L9.97952 17.0028L8.9824 18.1446L9.07064 18.9439L10.2972 18.6014L12.512 19.4446L13.2621 18.4696L14.8681 17.5386L16.2358 15.3691L20.6743 12.9361L22.0862 11.3903L21.4067 8.87827L22.8274 6.64732L22.6862 6.10276L24.1422 5.0312L26.8336 5.05755L29.6396 4.65352L31.4045 4.06504L32.6751 4.54812L34.0076 4.36367L34.7841 4.98728H35.2429L37.2372 3.57317L37.5902 3.64344L37.8108 4.33732L40.0433 3.66101L40.4315 4.3461H41.4286L42.4081 3.39751L43.0788 3.30089L45.3377 1.72869L46.6437 1.7199L48.285 0.876709L49.2733 1.30709Z"/>
</mask>
<path d="M49.2733 1.30709L50.3057 0.938192L52.5823 2.48405L54.5501 2.8793L54.806 3.23941H56.7297L57.0561 2.72998L57.7974 3.14279L58.3268 2.28203L60.1534 2.98469L60.3211 3.44143L61.3535 4.12652L62.5271 4.06504L63.5683 4.44272L63.1977 5.03998L62.3065 5.58455L61.5917 6.80542L62.0065 7.89455L61.6006 8.17561L61.3888 8.90462L62.2624 9.862L61.9535 10.591L62.2535 10.7315L62.6242 10.4066L62.9242 11.1883L62.3506 12.374L62.43 12.9186L61.9712 13.3665L61.6623 14.7367L60.577 16.5988L60.0652 16.4407L59.721 17.3893L59.3945 17.3102L59.4916 16.9852L58.3797 17.0819V17.8196L59.0239 17.4332L59.2886 18.373L59.8622 18.3027L60.4975 19.3392L60.2858 20.4019L59.7651 20.6654L59.4298 21.4384L60.2416 21.8073L60.2505 22.2376L58.9357 22.7383L59.0416 23.2389L60.577 23.072L60.4358 23.6693L61.1064 23.6869L60.9917 24.249L61.6535 24.2139L61.6447 26.884L62.9506 27.8589L63.1536 28.4825L63.4271 28.4562L63.3742 29.2116L63.6919 28.8954L64.1772 29.0535L63.8772 28.6406L64.2301 28.0785L65.2008 28.0697L65.0861 28.9393L65.7744 29.3082L66.0567 29.1149L66.5509 29.2994L67.3274 28.7021L67.6892 29.3697L67.0715 29.6332L67.3009 29.8264L67.2215 31.1614L67.9363 31.9256L68.9775 32.4087L69.2069 33.4275L69.7452 33.4627L70.5129 34.0775L70.3188 34.6835L70.6982 35.1754L70.7335 35.9747L72.366 36.3436L74.219 38.3813L74.4573 39.7251L73.9278 39.7339L73.919 40.2434L72.6483 40.7967L72.5248 40.4102L72.1101 40.3663L72.1012 41.1568L71.0776 41.0163L70.3717 41.3588L70.7688 42.0351L70.5394 42.931L71.6512 43.256L72.8954 43.0979L74.9955 44.4945L75.5073 46.7518L74.872 46.9801L74.7661 48.3591L72.2954 48.5962L71.2894 48.9915L72.463 49.9313L72.1277 53.1899L72.7454 53.2689L73.4955 53.9628L73.5219 54.4108L73.0013 55.4384L69.657 54.9114L69.004 56.4661L68.9863 57.9153L68.5363 59.0308L68.7304 60.6206L68.5098 61.5428L67.1509 63.5717L67.7157 64.3183L67.4421 64.6521L67.0803 64.5203L66.2156 62.5529L65.642 62.1576L64.6272 62.4914L63.6919 62.386L64.1154 61.8766L63.1712 60.8489L63.1536 59.8827L61.3711 60.4097L60.3211 60.3658L60.4269 61.2617L60.0475 61.0421L57.8327 61.8414L56.3149 62.5353L56.4208 62.913L54.5766 62.5529L53.9589 61.6921L54.2413 62.6671L53.8089 63.3609L53.4118 63.2995L53.1029 63.765L53.4294 63.6947L53.5265 64.2217L54.506 65.2054L53.1206 65.3372L52.9882 65.0473L52.2382 64.9771L51.7264 64.3534L51.0469 64.3447L51.6028 65.9081L51.3469 66.8655L51.9823 66.5844L52.2205 67.4012L51.8058 67.7174L51.3911 68.7363L49.9616 68.8856L49.6615 68.5694L48.382 68.4113L48.2056 68.0336L46.2466 68.0688L46.1848 68.991L47.0761 69.6849L47.2967 70.2031L47.0143 71.8719L45.0995 71.5733L46.9878 72.6536L46.6172 73.8306L47.2261 73.6637L47.5614 74.2171L47.632 75.271L48.3556 75.2798L48.788 76.0088L48.4173 76.8169L47.8614 76.9223L47.5261 76.044L46.8025 76.5007L46.9702 77.6074L47.4908 78.3188L46.3172 78.8634L46.3437 79.2411L45.8054 79.2235L45.5495 79.733L45.876 80.3214L44.2347 79.6539L44.3318 78.4769L44.0582 77.8182L43.0788 77.7831L40.7757 75.6487L40.4315 76.1494L40.608 77.6601L39.1167 77.6513L39.1344 77.0365L38.5608 76.9838L38.2961 77.3439L36.2312 77.5811L35.7989 77.9148L33.9017 77.6689L34.1488 76.1669L32.128 74.9548V74.6386L30.3985 74.4893L30.4779 72.4253L30.2044 72.232L30.522 72.0037L30.2309 70.8091L30.4515 70.5456L30.1426 70.3788L30.0455 70.8091L29.4367 70.9585L29.1455 70.695L29.1984 69.4741L28.3778 67.9546L27.866 67.7789L26.5777 68.4904L26.0129 68.4728L24.7776 67.612L24.5834 66.9182L24.8834 66.3472L24.001 65.4074L23.5863 65.8905L22.448 65.8817L22.0333 66.9445L19.9419 66.5668L18.786 65.7588L18.4771 64.9507L17.9212 64.7926L16.8094 62.7549L15.2652 62.8515L15.1152 62.2367L14.5416 62.061L14.7887 60.1287L13.9592 60.3044L13.1739 59.953L13.1033 58.8375L13.3327 58.6443L13.0062 58.5389L13.3415 57.9856L13.015 57.6869L12.0179 57.8802L11.6914 57.5464L11.3561 56.6769L11.5061 55.7195L12.212 54.727L12.7503 54.4371L13.968 54.4986L13.9592 54.7445L15.8123 54.5162L16.8094 53.7345L17.0035 53.1548L16.1388 53.0581L15.2475 52.1886L14.2327 52.0656L11.7532 49.2726L11.3384 47.4456L10.0413 46.4619L10.6855 46.2862L10.3148 46.1984L10.1031 45.6538L10.5531 45.1708L10.0501 44.9951L9.9354 43.4932L9.203 43.1067L8.92063 43.3526L8.75297 42.5358L8.38236 42.2723L8.47943 41.6838L8.09117 41.2534L8.24117 40.823L8.66473 40.8055L8.75297 39.8569L7.93233 39.2069L7.34994 39.2948L6.87344 38.2408L6.20281 38.0387L5.33805 36.9321L4.85272 36.8794L4.94096 36.2733L4.46446 35.7727L4.44681 34.5957L3.59087 33.5856L3.57322 33.1816L3.44969 33.3924L2.56728 33.164L2.39962 33.4187L2.04665 33.1816L2.24078 32.7864L1.88782 32.3296L1.78193 31.2317L2.32903 30.854L2.15254 30.6784L2.60257 29.6068L3.19379 29.5453L2.99966 29.0447L3.27321 28.6055L2.93789 28.3596L3.71441 27.9468L3.69676 27.49L3.40556 27.3407L3.72323 27.1475L3.37909 27.1387L2.98201 26.5678L3.20261 26.032L2.14372 25.8563L2.07313 25.2591L2.88494 24.6618L2.74376 24.1173L2.44374 23.7659L1.82605 23.9679L1.25248 23.4409L1.19072 22.7295L1.32308 23.0896L2.60257 23.3355L2.94671 23.0193L1.76428 20.8235L2.44374 20.0594L2.55845 19.3831L1.62309 18.8561L0.873047 17.3717L2.56728 16.5461L2.98201 15.9576L3.92619 16.1333L6.06162 15.3252L6.37047 15.6765L6.40576 16.6427L7.44701 16.3265L9.97952 17.0028L8.9824 18.1446L9.07064 18.9439L10.2972 18.6014L12.512 19.4446L13.2621 18.4696L14.8681 17.5386L16.2358 15.3691L20.6743 12.9361L22.0862 11.3903L21.4067 8.87827L22.8274 6.64732L22.6862 6.10276L24.1422 5.0312L26.8336 5.05755L29.6396 4.65352L31.4045 4.06504L32.6751 4.54812L34.0076 4.36367L34.7841 4.98728H35.2429L37.2372 3.57317L37.5902 3.64344L37.8108 4.33732L40.0433 3.66101L40.4315 4.3461H41.4286L42.4081 3.39751L43.0788 3.30089L45.3377 1.72869L46.6437 1.7199L48.285 0.876709L49.2733 1.30709Z" fill="#7360F2" stroke="white" stroke-width="0.4" mask="url(#path-1-inside-1_903_2316)"/>
<path d="M55 43.2858C58.0772 43.2858 60.5714 45.7801 60.5714 48.8572C60.5714 51.2115 58.9172 53.7772 55.6514 56.5818C55.4699 56.7378 55.2383 56.8234 54.9989 56.8232C54.7596 56.823 54.5282 56.7369 54.3469 56.5806L54.1309 56.3932C51.0097 53.6618 49.4286 51.1589 49.4286 48.8572C49.4286 45.7801 51.9229 43.2858 55 43.2858ZM55 46.7143C54.4317 46.7143 53.8867 46.9401 53.4848 47.342C53.0829 47.7438 52.8572 48.2889 52.8572 48.8572C52.8572 49.4255 53.0829 49.9706 53.4848 50.3724C53.8867 50.7743 54.4317 51.0001 55 51.0001C55.5683 51.0001 56.1134 50.7743 56.5152 50.3724C56.9171 49.9706 57.1429 49.4255 57.1429 48.8572C57.1429 48.2889 56.9171 47.7438 56.5152 47.342C56.1134 46.9401 55.5683 46.7143 55 46.7143Z" fill="#FBE75E"/>
</svg>
