<svg width="89" height="80" viewBox="0 0 89 80" fill="none" xmlns="http://www.w3.org/2000/svg">
<mask id="path-1-inside-1_902_2304" fill="white">
<path d="M40.9831 74.8805L43.2067 74.9156L46.2511 74.4765L47.7159 75.3636L49.2777 75.7852L48.9424 76.5669L48.2365 76.6021L47.76 77.4101L46.2334 77.0061L45.2716 77.2257L44.5657 77.9634L44.4333 78.6661L44.8833 79.1843H44.6716L42.3684 76.7338L40.1183 74.8893L38.83 73.0273L39.5977 74.0988L40.9831 74.8805ZM2.88056 4.54409L4.84834 3.15633L8.53682 3.47253L8.78389 4.00831L9.481 3.13876L10.3369 4.1137L12.2959 4.08735L12.4371 3.62184L13.3636 3.37591L13.143 2.76986L15.252 2.25165L15.3843 2.67325L17.308 2.50636L17.5815 3.534L18.2081 3.44618L18.2345 2.53271L18.6051 2.90161L19.1699 2.85769L19.4346 3.85899L20.3258 3.60427L20.7317 3.92047L21.4994 3.59549L21.7112 2.79621L23.3966 2.68203L23.0878 1.1186L25.232 0.688232L25.3468 1.10983L27.8528 0.732138L27.9234 1.1274L28.594 1.25036L29.4235 2.36583L29.0617 2.98067L29.6529 3.47253L30.253 3.38469L30.7295 5.77374L33.2443 4.9569L33.4032 5.94063L34.6209 5.66835L35.1239 5.115L35.4768 6.16021L36.2269 5.99332L36.2092 5.61565L38.23 5.23796L38.6094 7.03853L38.0094 7.27569L37.8064 8.08375L38.3094 8.04861L38.4241 8.681L38.8653 8.39994L38.9182 7.99591L40.1183 7.93443L39.8889 6.20413L40.3389 6.13386L40.6213 6.5291L41.089 6.29195L41.1331 5.25553L42.589 4.98325L42.8538 5.84401L44.1597 5.66835L44.4686 6.81016L46.6305 6.42371L47.0276 9.05869L45.5451 9.42759L45.4922 9.8404L46.1187 13.4328L46.8776 12.7828L47.0717 12.9585L48.863 12.6071L49.163 14.7678L49.8866 14.6185L50.0895 16.9988L49.2866 17.0427L49.2336 17.9561L49.6483 18.7993L48.4306 19.0716L48.6865 20.5121L52.4897 20.0026L52.4368 19.4493L55.1899 19.0804L55.3752 19.5986L55.834 19.5635L56.2311 20.5648L56.8488 20.4945L57.0253 21.7681L57.4577 21.7066L57.7401 22.137L58.2166 21.5221L58.393 21.9877L60.3961 21.5836L60.1755 20.2047L60.7049 20.0729L60.6873 19.1858L62.558 18.7203L64.464 20.2398L66.1318 19.704L66.3347 20.2574L66.8024 20.231L73.1205 18.9662L73.8352 17.5785L73.5264 17.3764L73.394 16.665L74.0029 16.5596L73.7646 15.1191L73.1558 15.1718L73.0587 14.5307L75.7942 14.03L75.503 13.1693L74.3647 13.3976L74.2323 11.8342L77.1884 11.3336L77.5502 12.1416L80.1974 11.6937L80.0209 10.1829L79.5444 9.6296H80.9474L80.9033 9.37489L81.7063 9.19043L82.0152 9.45393L83.1711 8.83032L83.5417 11.5268L83.2329 12.0889L83.6212 13.828L83.2064 13.9949L83.5682 14.7678L83.9565 14.9523L85.8007 14.6097L85.9596 16.1029L85.5007 16.2961L85.8448 18.2811L85.1477 18.4831L85.4301 20.4594L84.9271 20.6965L85.1124 21.5309L85.4213 21.5836L85.5448 22.5761L82.6064 23.3315L83.3211 27.8988L82.2623 28.9879L86.2154 28.7683L86.1713 29.6203L86.2154 31.9742L87.5567 31.1662L87.6803 31.4297L87.8214 32.4222L87.1508 32.7823L87.5391 36.603L85.5713 36.9016L85.4478 34.2491L84.9801 34.4336L85.0065 35.2328L84.3447 35.4436L84.4683 38.0259L84.6183 38.3597L87.1067 37.9644L87.4773 40.3974L86.5155 40.8278L86.5684 42.6371L86.9655 42.6196L87.5655 43.1026L88.8274 44.5343L87.3714 44.7539L87.3273 45.4302L87.7156 45.7728L87.3185 46.0363L86.8243 45.9572L86.3743 45.1931L85.4124 45.3336L85.3948 46.1856L84.5212 46.7389L84.5653 47.1342L83.9212 47.0288L83.5859 46.3349L83.5241 46.6159H82.1828L81.9269 47.7226L80.7004 49.409L81.4416 51.4467L85.4919 53.9149L84.133 56.0316L81.9887 54.8547L81.3887 55.3905L81.9446 57.1735L82.7564 57.0856L82.8888 57.7619L81.1681 57.9815L81.274 58.6842L78.6267 59.2814L78.715 60.0456L79.0944 60.2125L80.9386 59.8963L81.0798 60.6516L81.8387 60.5199L81.9181 61.0117L77.8678 61.7407L77.8325 62.0657L76.6413 62.2063L76.5178 62.663L76.2001 62.3731L74.4176 62.6542L74.1882 60.9415L71.038 61.1698L70.6762 60.3706L69.8556 60.5023L69.7762 59.9577L69.4496 60.0017L69.6879 61.3806L69.2996 61.4685L69.4849 62.5664L67.6407 62.8035L67.4377 61.732L64.5434 62.2063L64.764 63.717L63.961 63.7961L60.2814 61.4685L61.0138 62.7333L59.9196 63.2866L60.1049 64.7973L58.6754 65.1135L58.5077 65.5878L56.9988 65.8425L56.7253 65.6054L55.2693 65.9655L55.4281 66.677L55.8252 66.6155L56.1076 68.539L54.1045 68.864L54.4487 69.3471L53.1956 69.4173L53.0456 69.8302L50.7514 69.6457L50.0719 70.7436L47.46 71.7976L46.8335 71.1916L45.5187 71.0159L43.7009 70.243L42.0155 70.2078L41.0096 70.8314L40.1624 72.2104L39.2006 71.4199L38.2388 71.0949L36.2886 70.972L35.8563 71.3584L34.6827 71.2267L34.1885 72.1929L32.3531 71.6834L30.6853 71.7449L29.0264 71.0247L29.3794 70.1551L28.9911 69.9443L29.5912 69.6018L28.9558 69.1802L29.1853 67.5641L28.1087 66.15L28.9558 64.9115L28.2234 63.5765L28.347 62.136L27.5351 61.5826L26.9616 61.6353L26.3527 59.949L25.4438 59.2726L24.8702 59.2287L24.2084 56.585L26.3086 56.0229L26.3351 55.5924L27.694 55.3553L27.9234 55.7769L30.9765 55.2675L30.5441 53.9324L31.5942 53.6953L32.3796 53.8534L32.4237 52.9048L32.7414 52.7994L32.4678 51.394L32.7061 51.2799L31.7089 47.4328L31.1354 47.5294L30.9412 47.1517L29.7147 47.3977L29.5647 48.0916L26.9969 48.1091L26.9704 46.6511L27.2528 46.5984L27.4028 47.1517L28.3911 46.9849L28.0646 45.3775L28.9558 45.1667L28.8323 43.3047L24.2702 44.4729L23.9173 43.1554L23.3172 43.2344L23.5907 42.2946L20.9259 42.8304L20.4847 40.9771L20.0082 41.0649L19.8317 40.3798L20.9259 39.8265L20.6788 39.238L20.2641 39.2731L20.1317 38.8955L19.9023 37.4726L20.5023 37.332L20.2552 36.3307L19.1611 36.5064L19.1169 35.5403L19.6199 35.4349L19.2405 32.9316L20.1493 32.7296L19.8317 31.2013L18.6404 31.3945L18.4904 30.929L16.9021 30.973L16.2491 30.446L16.152 30.0156L16.0726 29.6115L17.0874 29.392L16.9374 27.7056L17.5021 27.0995L17.3786 26.5198L14.9872 26.9853L15.3138 28.2765L13.9813 28.6366H13.5048L13.6371 27.1874L12.2783 27.565L12.0841 27.1347L7.98089 27.89L7.75148 26.8712L6.42787 27.1083L5.47485 21.8998L6.51611 21.5485L6.25137 20.433L6.87788 20.3452L6.86024 19.8358L6.622 19.8094L6.44551 18.9223L3.69239 19.2912L2.77467 14.4428L3.01294 14.1705L2.28936 13.178L1.19518 12.5369L1.30987 11.9308L0.64806 10.4289L1.54814 9.96337L0.903967 8.55804L0.109802 8.06618L0.798082 7.92564L1.33634 7.12636L2.29819 7.28447L2.44819 6.77503L3.49826 6.80138L3.17177 6.61694L3.26882 6.34465L3.66592 6.67842L4.44244 6.48518V6.05481L3.1806 5.88793L2.88056 4.54409Z"/>
</mask>
<path d="M40.9831 74.8805L43.2067 74.9156L46.2511 74.4765L47.7159 75.3636L49.2777 75.7852L48.9424 76.5669L48.2365 76.6021L47.76 77.4101L46.2334 77.0061L45.2716 77.2257L44.5657 77.9634L44.4333 78.6661L44.8833 79.1843H44.6716L42.3684 76.7338L40.1183 74.8893L38.83 73.0273L39.5977 74.0988L40.9831 74.8805ZM2.88056 4.54409L4.84834 3.15633L8.53682 3.47253L8.78389 4.00831L9.481 3.13876L10.3369 4.1137L12.2959 4.08735L12.4371 3.62184L13.3636 3.37591L13.143 2.76986L15.252 2.25165L15.3843 2.67325L17.308 2.50636L17.5815 3.534L18.2081 3.44618L18.2345 2.53271L18.6051 2.90161L19.1699 2.85769L19.4346 3.85899L20.3258 3.60427L20.7317 3.92047L21.4994 3.59549L21.7112 2.79621L23.3966 2.68203L23.0878 1.1186L25.232 0.688232L25.3468 1.10983L27.8528 0.732138L27.9234 1.1274L28.594 1.25036L29.4235 2.36583L29.0617 2.98067L29.6529 3.47253L30.253 3.38469L30.7295 5.77374L33.2443 4.9569L33.4032 5.94063L34.6209 5.66835L35.1239 5.115L35.4768 6.16021L36.2269 5.99332L36.2092 5.61565L38.23 5.23796L38.6094 7.03853L38.0094 7.27569L37.8064 8.08375L38.3094 8.04861L38.4241 8.681L38.8653 8.39994L38.9182 7.99591L40.1183 7.93443L39.8889 6.20413L40.3389 6.13386L40.6213 6.5291L41.089 6.29195L41.1331 5.25553L42.589 4.98325L42.8538 5.84401L44.1597 5.66835L44.4686 6.81016L46.6305 6.42371L47.0276 9.05869L45.5451 9.42759L45.4922 9.8404L46.1187 13.4328L46.8776 12.7828L47.0717 12.9585L48.863 12.6071L49.163 14.7678L49.8866 14.6185L50.0895 16.9988L49.2866 17.0427L49.2336 17.9561L49.6483 18.7993L48.4306 19.0716L48.6865 20.5121L52.4897 20.0026L52.4368 19.4493L55.1899 19.0804L55.3752 19.5986L55.834 19.5635L56.2311 20.5648L56.8488 20.4945L57.0253 21.7681L57.4577 21.7066L57.7401 22.137L58.2166 21.5221L58.393 21.9877L60.3961 21.5836L60.1755 20.2047L60.7049 20.0729L60.6873 19.1858L62.558 18.7203L64.464 20.2398L66.1318 19.704L66.3347 20.2574L66.8024 20.231L73.1205 18.9662L73.8352 17.5785L73.5264 17.3764L73.394 16.665L74.0029 16.5596L73.7646 15.1191L73.1558 15.1718L73.0587 14.5307L75.7942 14.03L75.503 13.1693L74.3647 13.3976L74.2323 11.8342L77.1884 11.3336L77.5502 12.1416L80.1974 11.6937L80.0209 10.1829L79.5444 9.6296H80.9474L80.9033 9.37489L81.7063 9.19043L82.0152 9.45393L83.1711 8.83032L83.5417 11.5268L83.2329 12.0889L83.6212 13.828L83.2064 13.9949L83.5682 14.7678L83.9565 14.9523L85.8007 14.6097L85.9596 16.1029L85.5007 16.2961L85.8448 18.2811L85.1477 18.4831L85.4301 20.4594L84.9271 20.6965L85.1124 21.5309L85.4213 21.5836L85.5448 22.5761L82.6064 23.3315L83.3211 27.8988L82.2623 28.9879L86.2154 28.7683L86.1713 29.6203L86.2154 31.9742L87.5567 31.1662L87.6803 31.4297L87.8214 32.4222L87.1508 32.7823L87.5391 36.603L85.5713 36.9016L85.4478 34.2491L84.9801 34.4336L85.0065 35.2328L84.3447 35.4436L84.4683 38.0259L84.6183 38.3597L87.1067 37.9644L87.4773 40.3974L86.5155 40.8278L86.5684 42.6371L86.9655 42.6196L87.5655 43.1026L88.8274 44.5343L87.3714 44.7539L87.3273 45.4302L87.7156 45.7728L87.3185 46.0363L86.8243 45.9572L86.3743 45.1931L85.4124 45.3336L85.3948 46.1856L84.5212 46.7389L84.5653 47.1342L83.9212 47.0288L83.5859 46.3349L83.5241 46.6159H82.1828L81.9269 47.7226L80.7004 49.409L81.4416 51.4467L85.4919 53.9149L84.133 56.0316L81.9887 54.8547L81.3887 55.3905L81.9446 57.1735L82.7564 57.0856L82.8888 57.7619L81.1681 57.9815L81.274 58.6842L78.6267 59.2814L78.715 60.0456L79.0944 60.2125L80.9386 59.8963L81.0798 60.6516L81.8387 60.5199L81.9181 61.0117L77.8678 61.7407L77.8325 62.0657L76.6413 62.2063L76.5178 62.663L76.2001 62.3731L74.4176 62.6542L74.1882 60.9415L71.038 61.1698L70.6762 60.3706L69.8556 60.5023L69.7762 59.9577L69.4496 60.0017L69.6879 61.3806L69.2996 61.4685L69.4849 62.5664L67.6407 62.8035L67.4377 61.732L64.5434 62.2063L64.764 63.717L63.961 63.7961L60.2814 61.4685L61.0138 62.7333L59.9196 63.2866L60.1049 64.7973L58.6754 65.1135L58.5077 65.5878L56.9988 65.8425L56.7253 65.6054L55.2693 65.9655L55.4281 66.677L55.8252 66.6155L56.1076 68.539L54.1045 68.864L54.4487 69.3471L53.1956 69.4173L53.0456 69.8302L50.7514 69.6457L50.0719 70.7436L47.46 71.7976L46.8335 71.1916L45.5187 71.0159L43.7009 70.243L42.0155 70.2078L41.0096 70.8314L40.1624 72.2104L39.2006 71.4199L38.2388 71.0949L36.2886 70.972L35.8563 71.3584L34.6827 71.2267L34.1885 72.1929L32.3531 71.6834L30.6853 71.7449L29.0264 71.0247L29.3794 70.1551L28.9911 69.9443L29.5912 69.6018L28.9558 69.1802L29.1853 67.5641L28.1087 66.15L28.9558 64.9115L28.2234 63.5765L28.347 62.136L27.5351 61.5826L26.9616 61.6353L26.3527 59.949L25.4438 59.2726L24.8702 59.2287L24.2084 56.585L26.3086 56.0229L26.3351 55.5924L27.694 55.3553L27.9234 55.7769L30.9765 55.2675L30.5441 53.9324L31.5942 53.6953L32.3796 53.8534L32.4237 52.9048L32.7414 52.7994L32.4678 51.394L32.7061 51.2799L31.7089 47.4328L31.1354 47.5294L30.9412 47.1517L29.7147 47.3977L29.5647 48.0916L26.9969 48.1091L26.9704 46.6511L27.2528 46.5984L27.4028 47.1517L28.3911 46.9849L28.0646 45.3775L28.9558 45.1667L28.8323 43.3047L24.2702 44.4729L23.9173 43.1554L23.3172 43.2344L23.5907 42.2946L20.9259 42.8304L20.4847 40.9771L20.0082 41.0649L19.8317 40.3798L20.9259 39.8265L20.6788 39.238L20.2641 39.2731L20.1317 38.8955L19.9023 37.4726L20.5023 37.332L20.2552 36.3307L19.1611 36.5064L19.1169 35.5403L19.6199 35.4349L19.2405 32.9316L20.1493 32.7296L19.8317 31.2013L18.6404 31.3945L18.4904 30.929L16.9021 30.973L16.2491 30.446L16.152 30.0156L16.0726 29.6115L17.0874 29.392L16.9374 27.7056L17.5021 27.0995L17.3786 26.5198L14.9872 26.9853L15.3138 28.2765L13.9813 28.6366H13.5048L13.6371 27.1874L12.2783 27.565L12.0841 27.1347L7.98089 27.89L7.75148 26.8712L6.42787 27.1083L5.47485 21.8998L6.51611 21.5485L6.25137 20.433L6.87788 20.3452L6.86024 19.8358L6.622 19.8094L6.44551 18.9223L3.69239 19.2912L2.77467 14.4428L3.01294 14.1705L2.28936 13.178L1.19518 12.5369L1.30987 11.9308L0.64806 10.4289L1.54814 9.96337L0.903967 8.55804L0.109802 8.06618L0.798082 7.92564L1.33634 7.12636L2.29819 7.28447L2.44819 6.77503L3.49826 6.80138L3.17177 6.61694L3.26882 6.34465L3.66592 6.67842L4.44244 6.48518V6.05481L3.1806 5.88793L2.88056 4.54409Z" fill="#7360F2" stroke="white" stroke-width="0.4" mask="url(#path-1-inside-1_902_2304)"/>
<path d="M51 46.2858C54.0771 46.2858 56.5714 48.7801 56.5714 51.8572C56.5714 54.2115 54.9171 56.7772 51.6514 59.5818C51.4698 59.7378 51.2383 59.8234 50.9989 59.8232C50.7595 59.823 50.5282 59.7369 50.3468 59.5806L50.1308 59.3932C47.0097 56.6618 45.4286 54.1589 45.4286 51.8572C45.4286 48.7801 47.9228 46.2858 51 46.2858ZM51 49.7143C50.4317 49.7143 49.8866 49.9401 49.4848 50.342C49.0829 50.7438 48.8571 51.2889 48.8571 51.8572C48.8571 52.4255 49.0829 52.9706 49.4848 53.3724C49.8866 53.7743 50.4317 54.0001 51 54.0001C51.5683 54.0001 52.1134 53.7743 52.5152 53.3724C52.9171 52.9706 53.1428 52.4255 53.1428 51.8572C53.1428 51.2889 52.9171 50.7438 52.5152 50.342C52.1134 49.9401 51.5683 49.7143 51 49.7143Z" fill="#FBE75E"/>
</svg>
