<svg width="93" height="132" viewBox="0 0 93 132" fill="none" xmlns="http://www.w3.org/2000/svg">
<mask id="path-1-inside-1_902_2305" fill="white">
<path d="M47.3062 1.69757L47.7033 2.11916L49.2299 1.51311L50.5005 2.76913L51.7447 0.661133L53.0243 1.34624L53.5008 0.748971L54.092 1.74149L53.9684 2.79548L54.7449 2.82183L55.442 4.10419L56.9775 4.49943L57.5069 3.99L59.104 4.01635L61.0277 4.64875L61.7336 4.3589L62.872 4.54335L63.1808 5.88719L64.4426 6.05408V6.48445L63.6661 6.67768L63.269 6.34391L63.172 6.61621L63.4985 6.80065L62.4484 6.7743L62.2984 7.28373L61.3365 7.12563L60.7983 7.92491L60.11 8.06544L60.9042 8.5573L61.5483 9.96263L60.6483 10.4281L61.3101 11.9301L61.1954 12.5361L62.2896 13.1773L63.0131 14.1698L62.7749 14.4421L63.6926 19.2905L66.4457 18.9216L66.6222 19.8087L66.8604 19.835L66.8781 20.3445L66.2516 20.4323L66.5163 21.5478L65.4751 21.8991L66.4281 27.1076L67.7517 26.8704L67.9811 27.8893L72.0843 27.1339L72.2785 27.5643L73.6373 27.1866L73.505 28.6359H73.9815L75.3139 28.2758L74.9874 26.9846L77.3788 26.5191L77.5023 27.0988L76.9376 27.7049L77.0876 29.3912L76.0728 29.6108L76.1522 30.0149L76.2493 30.4452L76.9023 30.9722L78.4906 30.9283L78.6406 31.3938L79.8319 31.2006L80.1495 32.7289L79.2407 32.9309L79.6201 35.4341L79.1171 35.5395L79.1612 36.5057L80.2554 36.33L80.5025 37.3313L79.9025 37.4719L80.1319 38.8948L80.2643 39.2724L80.679 39.2373L80.9261 39.8258L79.8319 40.3791L80.0084 41.0642L80.4849 40.9764L80.9261 42.8296L83.5909 42.2939L83.3174 43.2337L83.9174 43.1546L84.2704 44.4721L88.8325 43.304L88.956 45.166L88.0648 45.3768L88.3913 46.9841L87.403 47.151L87.253 46.5977L86.9706 46.6504L86.9971 48.1084L89.5649 48.0908L89.7149 47.397L90.9414 47.151L91.1356 47.5287L91.7091 47.4321L92.7062 51.2792L92.468 51.3933L92.7416 52.7987L92.4239 52.9041L92.3798 53.8527L91.5944 53.6946L90.5443 53.9317L90.9767 55.2668L87.9236 55.7762L87.6942 55.3546L86.3352 55.5917L86.3088 56.0221L84.2086 56.5843L84.8704 59.228L85.444 59.2719L86.3529 59.9483L86.9617 61.6346L87.5353 61.5819L88.3471 62.1353L88.2236 63.5758L88.956 64.9108L88.1089 66.1493L89.1854 67.5634L88.956 69.1795L89.5913 69.6011L88.9913 69.9436L89.3795 70.1544L89.0266 71.024L84.191 72.2185L78.8612 74.2562L77.5729 73.9927L76.2758 74.5724L75.5963 76.1007L75.8434 76.7946L76.2934 77.0844L76.4522 76.8736L76.9023 78.9465L76.2405 81.845L75.2875 82.5125L74.1756 84.0496L72.1902 88.1514L70.3812 91.2519L69.0312 92.7714L68.1576 94.5632L65.0515 97.7954L60.313 103.777L45.162 115.924L42.8589 118.568L42.5236 119.841L42.0735 119.718L42.0118 120.008L43.2383 121.203L43.6442 120.86L43.4148 120.5L43.6883 120.087L44.1648 120.527L44.156 121.08L44.4119 120.623L45.6208 120.439L46.3797 120.852L46.6091 120.553L46.7856 120.737L46.3885 121.405L46.6974 122.31L46.2385 123.399L46.6974 126.482L45.9385 129.055L46.0973 130.645L45.3561 130.724L45.259 131.33L44.359 131.514L44.0942 131.26L43.5913 129.696L44.1296 128.879L43.856 127.228L43.4501 126.104L41.7735 124.022L40.2911 123.012L38.1821 122.432L36.6644 121.572L34.4319 121.835L33.6818 121.343L32.5523 122.248L31.0699 122.002L30.4875 122.555L29.5168 122.845L29.2609 123.407L28.4579 123.891L26.4372 124.523L23.5782 126.227L22.8988 126.315L22.387 127.114L22.5193 128.001L22.1575 128.475L21.3634 128.186L20.128 126.921L19.2721 126.886L18.5308 126.13L17.8602 126.157L17.366 126.648L18.072 127.167L17.9396 127.65L16.4836 128.37L16.8366 129.117L17.6661 129.644L17.6925 130.056L15.4953 130.794L13.1481 130.004L10.8539 129.784L4.37696 126.675L2.50626 123.513L2.42683 121.458L0.423767 120.632L1.39441 118.946L3.23866 117.25L5.63882 118.164L6.81241 117.935L6.65358 118.506L6.97125 119.762L9.4067 119.165L8.72725 116.188L10.4126 115.792L9.55671 112.174L8.47135 112.156L9.46847 110.031L10.2715 109.214L11.7627 109.416L11.9039 108.906L11.5863 107.685L12.7422 107.949L15.2747 107.281L15.0012 105.762L17.5249 105.042L16.7131 101.133L16.9072 100.615L16.7219 99.7541L17.3925 99.6048L17.2249 99.1832L23.34 97.813L24.1165 95.907L22.4576 93.8254L25.8548 89.6094L22.5105 86.8515L23.8076 83.7685L21.884 78.3492L24.7253 78.1384L24.6636 77.4358L23.6576 77.4533L23.6047 77.0405L24.8665 76.9L25.1136 76.3027L25.8901 76.0129L28.7668 75.8899L28.8197 74.6515L30.964 74.0191L31.0787 76.5311L31.3699 76.5487L31.5552 77.1723L30.5051 78.1033L31.2464 80.1147L30.0992 81.4937L31.0963 81.8362L31.8993 81.0808L31.8552 80.6065L32.817 80.1059L33.0818 80.466L33.6112 80.2289L33.0818 78.9816L33.4965 78.6742L33.223 78.0242L34.0348 77.6378L33.9024 76.6892L34.3524 76.373L35.8172 79.737L35.5525 78.806L37.4674 76.7419L39.0028 78.279L38.3233 79.1222L39.0292 79.7897L40.7499 80.0971L41.2264 82.4862L41.8706 82.372L42.0206 82.7672L44.1031 82.4686L43.7325 79.3242L44.1472 79.087L44.4913 79.7106L45.8944 79.3944L46.1503 78.9553L45.665 77.9891L46.0885 77.7608L47.1474 78.4722L47.5798 80.2201L48.5593 80.9667L48.1357 81.4673L50.43 82.855L50.3859 81.9855L51.9389 80.7559L53.3948 81.5551L53.7743 81.2301L54.4891 81.4937L55.6362 80.8437L56.5892 81.6254L58.6452 80.264L58.504 79.5525L57.8334 80.3518L57.5687 79.7194L57.251 79.4823L56.9863 79.6316L56.7039 79.0958L56.748 79.6931L56.298 79.3066L56.1656 79.7897L55.5479 79.6316L55.7685 78.9816L54.5508 78.9992L54.6038 78.5249L53.6772 78.2263L54.5243 77.831L53.7919 77.7432L53.5449 77.4094L53.8714 76.6892L53.4478 76.7595L53.4655 76.1007L53.3154 76.5399L52.9889 76.3993L52.6889 76.8648H52.4154L52.636 76.0568L51.983 76.7243L52.0889 76.3642L51.6389 76.373L51.63 75.9338L51.0388 75.8636L51.2153 75.5298L50.7211 75.2751L50.8888 75.0467L50.5005 74.467L50.1211 74.4846L52.3271 73.94L51.9301 73.5184L51.9124 72.9387L52.6536 72.157L52.3007 70.172L53.0772 68.3011L53.0596 65.5959L51.9301 63.2771L52.6889 62.7589L53.1654 62.8028L52.8742 62.109L52.2477 61.7576L51.0124 62.6447L50.3859 61.3448L50.6153 61.1691L50.3682 59.8165L49.3181 59.9922L49.1417 60.3611L46.4591 60.9056L45.5149 57.8754L45.2237 58.174L43.3619 58.2707L43.0795 56.8478L41.1117 57.4011L40.6529 56.6809L41.8176 56.4613L41.9853 53.2115L42.7265 52.8953L42.2853 50.5502L40.3264 50.717L40.3705 51.5163L39.8675 51.6481L39.4175 49.9441L38.8616 50.0671L38.8086 49.5137L41.3588 48.8813L40.4852 43.9276L41.8882 43.5675L41.1117 38.6312L39.0822 38.9738L38.5351 39.3251L38.5439 39.9751L38.8351 40.1244L38.4204 40.3791L38.4292 41.4243L36.832 42.1621L36.6467 41.4682L35.8878 41.6703L35.4555 39.7379L35.8702 39.413L35.6319 38.2009L34.0701 38.6312L33.4789 35.2673L32.1376 35.8557L31.3787 36.6901L31.2287 34.7139L29.6845 36.2949L29.3845 35.1794L29.8521 34.6349L29.7286 34.3889L28.9344 35.0213L28.7403 34.7929L29.6139 34.0552L29.6492 32.3688L29.4992 32.158L28.5285 32.5971L27.4167 30.5594L29.4815 29.7953L29.5345 29.2771L30.4787 28.065L30.2757 27.3711L30.9375 26.7563L30.161 26.7914L30.5845 25.9745L30.5669 24.9908L30.8846 24.903L30.1522 23.2781L30.4257 22.4788L31.4228 21.864L32.1817 19.6418L31.414 19.3168L30.611 19.9492L29.9933 19.0709L30.0022 18.5966L30.6993 17.3757L32.1376 16.2954L32.2964 15.7859L30.4875 15.9616L30.5051 15.54L30.3463 16.0407H30.0551L29.2521 11.2801L27.8226 11.2362L27.9373 11.7456L26.7814 11.7632L26.5431 11.9916L26.8961 12.176L26.9667 12.7118L26.3755 12.299L26.5872 13.2476L25.9519 13.4935L24.8312 13.3618L22.9782 11.8423L21.6987 12.7381L20.3927 10.9551L20.4015 10.3667L19.1838 9.40928L19.5456 8.25868L19.4574 7.74924L19.025 7.65263L19.4662 7.31886L20.075 7.83708L20.1545 7.29251L21.8663 6.73038L22.4046 3.99L23.5694 4.49943L23.8782 4.20958L24.3812 4.31498L24.7518 5.75544L25.2019 5.46559L24.9989 4.9913L25.546 4.26228L25.4136 3.24342L25.8548 2.80425L25.7401 2.45293L26.0754 2.32996L27.9726 4.11297L28.3521 3.99878L28.6697 4.27985L28.2373 4.69267L29.4109 4.6224L30.0551 4.95617L30.3639 4.58726L31.0699 4.65753L31.5023 4.3589L31.7758 5.13183L31.2199 5.21966L31.0875 5.53585L30.0816 5.64126L30.5404 6.32636L31.7317 5.94867L31.9523 6.70403L32.4288 6.95876L33.3553 7.07293L34.476 6.66011L34.5642 6.96753L35.0054 6.71282L35.129 6.90604L35.5702 6.68646L35.4555 6.32636L35.7819 5.8345L38.0056 5.43924L38.3056 6.10678L38.9939 6.37906L41.0499 6.57229L41.1647 6.32636L41.6235 6.35271L41.4382 5.91354L41.8529 5.71152L42.0029 5.05277L43.1324 5.42168L43.0795 5.95746L43.8736 6.11555L43.9972 5.81693L43.6442 5.60612L44.0413 5.48316L44.2443 3.59476L43.6442 2.31239L44.4384 2.59346L45.6208 1.91715L47.1121 1.93472L47.3062 1.69757Z"/>
</mask>
<path d="M47.3062 1.69757L47.7033 2.11916L49.2299 1.51311L50.5005 2.76913L51.7447 0.661133L53.0243 1.34624L53.5008 0.748971L54.092 1.74149L53.9684 2.79548L54.7449 2.82183L55.442 4.10419L56.9775 4.49943L57.5069 3.99L59.104 4.01635L61.0277 4.64875L61.7336 4.3589L62.872 4.54335L63.1808 5.88719L64.4426 6.05408V6.48445L63.6661 6.67768L63.269 6.34391L63.172 6.61621L63.4985 6.80065L62.4484 6.7743L62.2984 7.28373L61.3365 7.12563L60.7983 7.92491L60.11 8.06544L60.9042 8.5573L61.5483 9.96263L60.6483 10.4281L61.3101 11.9301L61.1954 12.5361L62.2896 13.1773L63.0131 14.1698L62.7749 14.4421L63.6926 19.2905L66.4457 18.9216L66.6222 19.8087L66.8604 19.835L66.8781 20.3445L66.2516 20.4323L66.5163 21.5478L65.4751 21.8991L66.4281 27.1076L67.7517 26.8704L67.9811 27.8893L72.0843 27.1339L72.2785 27.5643L73.6373 27.1866L73.505 28.6359H73.9815L75.3139 28.2758L74.9874 26.9846L77.3788 26.5191L77.5023 27.0988L76.9376 27.7049L77.0876 29.3912L76.0728 29.6108L76.1522 30.0149L76.2493 30.4452L76.9023 30.9722L78.4906 30.9283L78.6406 31.3938L79.8319 31.2006L80.1495 32.7289L79.2407 32.9309L79.6201 35.4341L79.1171 35.5395L79.1612 36.5057L80.2554 36.33L80.5025 37.3313L79.9025 37.4719L80.1319 38.8948L80.2643 39.2724L80.679 39.2373L80.9261 39.8258L79.8319 40.3791L80.0084 41.0642L80.4849 40.9764L80.9261 42.8296L83.5909 42.2939L83.3174 43.2337L83.9174 43.1546L84.2704 44.4721L88.8325 43.304L88.956 45.166L88.0648 45.3768L88.3913 46.9841L87.403 47.151L87.253 46.5977L86.9706 46.6504L86.9971 48.1084L89.5649 48.0908L89.7149 47.397L90.9414 47.151L91.1356 47.5287L91.7091 47.4321L92.7062 51.2792L92.468 51.3933L92.7416 52.7987L92.4239 52.9041L92.3798 53.8527L91.5944 53.6946L90.5443 53.9317L90.9767 55.2668L87.9236 55.7762L87.6942 55.3546L86.3352 55.5917L86.3088 56.0221L84.2086 56.5843L84.8704 59.228L85.444 59.2719L86.3529 59.9483L86.9617 61.6346L87.5353 61.5819L88.3471 62.1353L88.2236 63.5758L88.956 64.9108L88.1089 66.1493L89.1854 67.5634L88.956 69.1795L89.5913 69.6011L88.9913 69.9436L89.3795 70.1544L89.0266 71.024L84.191 72.2185L78.8612 74.2562L77.5729 73.9927L76.2758 74.5724L75.5963 76.1007L75.8434 76.7946L76.2934 77.0844L76.4522 76.8736L76.9023 78.9465L76.2405 81.845L75.2875 82.5125L74.1756 84.0496L72.1902 88.1514L70.3812 91.2519L69.0312 92.7714L68.1576 94.5632L65.0515 97.7954L60.313 103.777L45.162 115.924L42.8589 118.568L42.5236 119.841L42.0735 119.718L42.0118 120.008L43.2383 121.203L43.6442 120.86L43.4148 120.5L43.6883 120.087L44.1648 120.527L44.156 121.08L44.4119 120.623L45.6208 120.439L46.3797 120.852L46.6091 120.553L46.7856 120.737L46.3885 121.405L46.6974 122.31L46.2385 123.399L46.6974 126.482L45.9385 129.055L46.0973 130.645L45.3561 130.724L45.259 131.33L44.359 131.514L44.0942 131.26L43.5913 129.696L44.1296 128.879L43.856 127.228L43.4501 126.104L41.7735 124.022L40.2911 123.012L38.1821 122.432L36.6644 121.572L34.4319 121.835L33.6818 121.343L32.5523 122.248L31.0699 122.002L30.4875 122.555L29.5168 122.845L29.2609 123.407L28.4579 123.891L26.4372 124.523L23.5782 126.227L22.8988 126.315L22.387 127.114L22.5193 128.001L22.1575 128.475L21.3634 128.186L20.128 126.921L19.2721 126.886L18.5308 126.13L17.8602 126.157L17.366 126.648L18.072 127.167L17.9396 127.65L16.4836 128.37L16.8366 129.117L17.6661 129.644L17.6925 130.056L15.4953 130.794L13.1481 130.004L10.8539 129.784L4.37696 126.675L2.50626 123.513L2.42683 121.458L0.423767 120.632L1.39441 118.946L3.23866 117.25L5.63882 118.164L6.81241 117.935L6.65358 118.506L6.97125 119.762L9.4067 119.165L8.72725 116.188L10.4126 115.792L9.55671 112.174L8.47135 112.156L9.46847 110.031L10.2715 109.214L11.7627 109.416L11.9039 108.906L11.5863 107.685L12.7422 107.949L15.2747 107.281L15.0012 105.762L17.5249 105.042L16.7131 101.133L16.9072 100.615L16.7219 99.7541L17.3925 99.6048L17.2249 99.1832L23.34 97.813L24.1165 95.907L22.4576 93.8254L25.8548 89.6094L22.5105 86.8515L23.8076 83.7685L21.884 78.3492L24.7253 78.1384L24.6636 77.4358L23.6576 77.4533L23.6047 77.0405L24.8665 76.9L25.1136 76.3027L25.8901 76.0129L28.7668 75.8899L28.8197 74.6515L30.964 74.0191L31.0787 76.5311L31.3699 76.5487L31.5552 77.1723L30.5051 78.1033L31.2464 80.1147L30.0992 81.4937L31.0963 81.8362L31.8993 81.0808L31.8552 80.6065L32.817 80.1059L33.0818 80.466L33.6112 80.2289L33.0818 78.9816L33.4965 78.6742L33.223 78.0242L34.0348 77.6378L33.9024 76.6892L34.3524 76.373L35.8172 79.737L35.5525 78.806L37.4674 76.7419L39.0028 78.279L38.3233 79.1222L39.0292 79.7897L40.7499 80.0971L41.2264 82.4862L41.8706 82.372L42.0206 82.7672L44.1031 82.4686L43.7325 79.3242L44.1472 79.087L44.4913 79.7106L45.8944 79.3944L46.1503 78.9553L45.665 77.9891L46.0885 77.7608L47.1474 78.4722L47.5798 80.2201L48.5593 80.9667L48.1357 81.4673L50.43 82.855L50.3859 81.9855L51.9389 80.7559L53.3948 81.5551L53.7743 81.2301L54.4891 81.4937L55.6362 80.8437L56.5892 81.6254L58.6452 80.264L58.504 79.5525L57.8334 80.3518L57.5687 79.7194L57.251 79.4823L56.9863 79.6316L56.7039 79.0958L56.748 79.6931L56.298 79.3066L56.1656 79.7897L55.5479 79.6316L55.7685 78.9816L54.5508 78.9992L54.6038 78.5249L53.6772 78.2263L54.5243 77.831L53.7919 77.7432L53.5449 77.4094L53.8714 76.6892L53.4478 76.7595L53.4655 76.1007L53.3154 76.5399L52.9889 76.3993L52.6889 76.8648H52.4154L52.636 76.0568L51.983 76.7243L52.0889 76.3642L51.6389 76.373L51.63 75.9338L51.0388 75.8636L51.2153 75.5298L50.7211 75.2751L50.8888 75.0467L50.5005 74.467L50.1211 74.4846L52.3271 73.94L51.9301 73.5184L51.9124 72.9387L52.6536 72.157L52.3007 70.172L53.0772 68.3011L53.0596 65.5959L51.9301 63.2771L52.6889 62.7589L53.1654 62.8028L52.8742 62.109L52.2477 61.7576L51.0124 62.6447L50.3859 61.3448L50.6153 61.1691L50.3682 59.8165L49.3181 59.9922L49.1417 60.3611L46.4591 60.9056L45.5149 57.8754L45.2237 58.174L43.3619 58.2707L43.0795 56.8478L41.1117 57.4011L40.6529 56.6809L41.8176 56.4613L41.9853 53.2115L42.7265 52.8953L42.2853 50.5502L40.3264 50.717L40.3705 51.5163L39.8675 51.6481L39.4175 49.9441L38.8616 50.0671L38.8086 49.5137L41.3588 48.8813L40.4852 43.9276L41.8882 43.5675L41.1117 38.6312L39.0822 38.9738L38.5351 39.3251L38.5439 39.9751L38.8351 40.1244L38.4204 40.3791L38.4292 41.4243L36.832 42.1621L36.6467 41.4682L35.8878 41.6703L35.4555 39.7379L35.8702 39.413L35.6319 38.2009L34.0701 38.6312L33.4789 35.2673L32.1376 35.8557L31.3787 36.6901L31.2287 34.7139L29.6845 36.2949L29.3845 35.1794L29.8521 34.6349L29.7286 34.3889L28.9344 35.0213L28.7403 34.7929L29.6139 34.0552L29.6492 32.3688L29.4992 32.158L28.5285 32.5971L27.4167 30.5594L29.4815 29.7953L29.5345 29.2771L30.4787 28.065L30.2757 27.3711L30.9375 26.7563L30.161 26.7914L30.5845 25.9745L30.5669 24.9908L30.8846 24.903L30.1522 23.2781L30.4257 22.4788L31.4228 21.864L32.1817 19.6418L31.414 19.3168L30.611 19.9492L29.9933 19.0709L30.0022 18.5966L30.6993 17.3757L32.1376 16.2954L32.2964 15.7859L30.4875 15.9616L30.5051 15.54L30.3463 16.0407H30.0551L29.2521 11.2801L27.8226 11.2362L27.9373 11.7456L26.7814 11.7632L26.5431 11.9916L26.8961 12.176L26.9667 12.7118L26.3755 12.299L26.5872 13.2476L25.9519 13.4935L24.8312 13.3618L22.9782 11.8423L21.6987 12.7381L20.3927 10.9551L20.4015 10.3667L19.1838 9.40928L19.5456 8.25868L19.4574 7.74924L19.025 7.65263L19.4662 7.31886L20.075 7.83708L20.1545 7.29251L21.8663 6.73038L22.4046 3.99L23.5694 4.49943L23.8782 4.20958L24.3812 4.31498L24.7518 5.75544L25.2019 5.46559L24.9989 4.9913L25.546 4.26228L25.4136 3.24342L25.8548 2.80425L25.7401 2.45293L26.0754 2.32996L27.9726 4.11297L28.3521 3.99878L28.6697 4.27985L28.2373 4.69267L29.4109 4.6224L30.0551 4.95617L30.3639 4.58726L31.0699 4.65753L31.5023 4.3589L31.7758 5.13183L31.2199 5.21966L31.0875 5.53585L30.0816 5.64126L30.5404 6.32636L31.7317 5.94867L31.9523 6.70403L32.4288 6.95876L33.3553 7.07293L34.476 6.66011L34.5642 6.96753L35.0054 6.71282L35.129 6.90604L35.5702 6.68646L35.4555 6.32636L35.7819 5.8345L38.0056 5.43924L38.3056 6.10678L38.9939 6.37906L41.0499 6.57229L41.1647 6.32636L41.6235 6.35271L41.4382 5.91354L41.8529 5.71152L42.0029 5.05277L43.1324 5.42168L43.0795 5.95746L43.8736 6.11555L43.9972 5.81693L43.6442 5.60612L44.0413 5.48316L44.2443 3.59476L43.6442 2.31239L44.4384 2.59346L45.6208 1.91715L47.1121 1.93472L47.3062 1.69757Z" fill="#7360F2" stroke="white" stroke-width="0.4" mask="url(#path-1-inside-1_902_2305)"/>
<path d="M76 59.2858C79.0771 59.2858 81.5714 61.7801 81.5714 64.8572C81.5714 67.2115 79.9171 69.7772 76.6514 72.5818C76.4698 72.7378 76.2383 72.8234 75.9989 72.8232C75.7595 72.823 75.5282 72.7369 75.3468 72.5806L75.1308 72.3932C72.0097 69.6618 70.4286 67.1589 70.4286 64.8572C70.4286 61.7801 72.9228 59.2858 76 59.2858ZM76 62.7143C75.4317 62.7143 74.8866 62.9401 74.4848 63.342C74.0829 63.7438 73.8571 64.2889 73.8571 64.8572C73.8571 65.4255 74.0829 65.9706 74.4848 66.3724C74.8866 66.7743 75.4317 67.0001 76 67.0001C76.5683 67.0001 77.1134 66.7743 77.5152 66.3724C77.9171 65.9706 78.1428 65.4255 78.1428 64.8572C78.1428 64.2889 77.9171 63.7438 77.5152 63.342C77.1134 62.9401 76.5683 62.7143 76 62.7143Z" fill="#FBE75E"/>
</svg>
