<svg width="79" height="93" viewBox="0 0 79 93" fill="none" xmlns="http://www.w3.org/2000/svg">
<mask id="path-1-inside-1_903_2315" fill="white">
<path d="M22.2663 2.02896L25.39 2.48569L26.9343 1.67763L27.6225 1.62493L28.7079 1.96747L28.8403 2.45934L30.1374 2.67892L31.5316 4.29504L32.0081 4.20721L32.0611 4.84839L32.6788 4.72542L33.0141 4.9977L33.9494 4.52341L36.0054 4.67272L36.4731 5.06797L38.2821 4.95379L39.1115 4.37409L39.1998 6.3152L39.9322 6.2098L40.5675 7.17596L41.3264 7.36919L41.4234 8.02793L43.55 8.10698L43.9207 7.36041L44.9266 7.01786L45.0325 6.60504L45.6943 6.86854L47.9709 6.79828L48.5092 7.39554L49.7534 7.84349L50.0093 8.23873L49.8416 9.09949L50.8829 9.60893L51.0682 10.0657L52.6565 9.63527L53.6095 10.4521L54.7125 10.5136L55.6391 11.1021L57.0156 9.51231L63.2631 9.26638L63.4661 14.4924L64.6926 14.3607L65.4074 14.9667L64.5514 16.5038L64.5249 17.4173L67.4193 17.2943L68.0193 16.7322L68.937 17.2065L69.9606 17.3294L70.0047 16.943L70.7459 16.5565L71.0901 17.1713L71.646 16.7849L71.8225 17.0571L71.5313 17.7335L72.2813 18.1638L72.9696 17.1977L72.5284 17.224L72.4225 16.1612L72.6961 15.8275L73.2873 16.4862L73.6667 15.8275L75.7845 17.3206L76.5257 16.8024L77.567 16.9957L77.8935 17.347L78.8112 17.3646L78.9876 18.0584L78.7141 19.2617L77.4964 20.4299L77.4258 21.3609L77.0463 21.5278L77.2317 22.4149L76.6404 22.2217L75.8551 23.1703L74.5315 23.3723L74.5756 25.6911H75.1403L75.5639 26.9998L74.6374 27.0086L74.2756 26.3498L73.0314 25.533L73.1637 24.5932L72.3254 24.6195L71.9284 28.2031L72.7314 28.5808L72.749 29.8192L71.9637 30.9962L70.3577 31.33L71.0283 33.4819L70.5871 33.9298L71.293 34.3075L71.3636 34.7818L69.6517 36.433L68.3987 38.6464L68.5311 39.0856L68.0987 39.3052L68.134 41.422L66.8633 42.2827L66.6868 43.2577L67.0133 43.9779L65.6103 44.0218L65.4603 44.4434L63.8631 44.5664L63.9426 45.6116L63.1396 45.9893L64.3132 48.5803L64.3308 49.0107L63.819 49.2127L63.7131 49.8539L64.8603 50.864L64.5691 51.391L64.8073 51.5842L64.5691 52.1463L64.7367 52.726L64.1984 53.5692L64.472 54.1138L64.2249 55.484L64.4985 55.7563L64.4808 56.8015L65.3103 57.1528L65.1073 57.9609L65.4515 59.0939L64.5161 61.2809L63.5278 61.5093L63.2631 61.8958L63.5719 62.1856L63.519 62.9761L62.9013 63.67L64.0749 64.5395L63.6778 65.3915L64.119 66.2962L63.0601 66.5158L61.163 66.6036L61.1541 65.3564L60.7129 65.0577L59.4158 65.8658L59.3364 66.9725L57.7833 66.63L57.5098 67.561L56.8921 67.8157L56.6803 68.3163L55.2155 67.9299L54.2802 67.2887L52.9212 68.9927L52.3124 68.3515L52.03 68.4393L51.8094 69.2561L50.7946 69.2825L50.5564 69.8798L50.2828 69.8885L50.1681 70.7757L50.9799 70.5209L50.8741 70.8898L49.524 71.1885L49.6475 70.3541L49.3475 70.4419L49.1092 71.3553L49.3916 71.979L48.8004 71.8911L48.6327 73.2877L48.0945 73.1471L47.7415 74.5612L47.1062 74.4383L46.7355 75.7119L45.3502 75.5625L44.909 76.8625L43.903 77.3016L44.0618 77.8901L43.6383 77.8989L43.6559 78.3293L43.1088 78.2063L42.9941 78.8124L42.5353 79.1725L42.7294 79.5677L42.0852 79.6116L42.1205 80.244L42.4559 80.4197L39.2174 80.3406L38.7497 80.9291L38.1673 80.9818L37.0732 81.9568L36.4996 82.6419L36.4555 83.4675L35.9613 84.2228L34.2847 84.5566L33.9494 84.2404L32.7405 83.4236L33.1023 82.554L32.9082 81.8865L33.8523 81.9392L33.9935 80.2704L33.1553 80.3582L32.2376 81.9919L29.2197 80.7271L27.6931 81.9392L27.4902 81.5264L26.546 81.2014L26.1401 80.692L25.293 80.7008L23.687 82.4398L23.1046 83.7749L22.0281 84.1965L21.2868 84.0208L20.3603 84.3283L19.2485 83.9594L19.072 84.5742L17.9954 84.3722L16.2747 85.5843L14.7305 84.5478L14.0775 85.7072L12.4715 85.4262L12.498 85.0397L11.7127 84.9431L10.8744 85.6545L10.9273 86.7085L11.1303 87.1565L11.9686 87.3146L12.0921 87.8679L11.0156 88.2192L11.1215 88.7814L10.5744 89.2732L10.3626 90.1428L8.36834 90.4765L7.91832 92.4001L6.8153 91.5305L3.38273 86.6207L3.55038 84.8992L3.95629 84.2931L2.59738 83.3094L2.52679 82.5365L2.91505 82.2905L2.77386 81.8074L3.19742 81.1838H3.6298L3.67392 79.6731L2.50914 79.1286L1.25611 79.5062L0.876677 79.3218L0.55019 78.7333L0.806083 78.2239L1.34435 78.2414L1.31788 77.8638L2.49149 77.3192L1.97086 76.6077L1.80321 75.5011L2.52679 75.0443L2.8621 75.9227L3.41802 75.8173L3.78863 75.0092L3.35626 74.2802L2.63267 74.2714L2.56208 73.2174L2.22676 72.6641L1.61791 72.8309L1.98852 71.654L0.100159 70.5736L2.01499 70.8723L2.29736 69.2035L2.07676 68.6852L1.18552 67.9914L1.24729 67.0691L3.20624 67.034L3.38273 67.4117L4.66222 67.5698L4.96224 67.886L6.39174 67.7366L6.80648 66.7178L7.22121 66.4016L6.98296 65.5847L6.34763 65.8658L6.60352 64.9084L6.0476 63.345L6.72706 63.3538L7.23886 63.9774L7.98891 64.0477L8.12127 64.3375L9.50665 64.2058L8.52717 63.222L8.43011 62.695L8.10362 62.7653L8.41246 62.2998L8.80955 62.3613L9.24193 61.6674L8.95956 60.6925L9.57724 61.5532L11.4215 61.9133L11.3156 61.5357L12.8333 60.8418L15.0482 60.0425L15.4276 60.2621L15.3217 59.3662L16.3718 59.4101L18.1543 58.8831L18.1719 59.8493L19.1161 60.8769L18.6925 61.3863L19.6279 61.4917L20.6427 61.158L21.2162 61.5532L22.081 63.5207L22.4428 63.6524L22.7163 63.3187L22.1516 62.5721L23.5105 60.5431L23.7311 59.6209L23.537 58.0311L23.987 56.9156L24.0047 55.4664L24.6576 53.9118L28.002 54.4388L28.5226 53.4111L28.4961 52.9632L27.7461 52.2693L27.1284 52.1902L27.4637 48.9317L26.2901 47.9918L27.296 47.5966L29.7668 47.3594L29.8727 45.9805L30.508 45.7521L29.9962 43.4948L27.8961 42.0983L26.6519 42.2564L25.54 41.9314L25.7695 41.0355L25.3724 40.3592L26.0783 40.0166L27.1019 40.1572L27.1107 39.3667L27.5255 39.4106L27.649 39.797L28.9197 39.2437L28.9285 38.7343L29.458 38.7255L29.2197 37.3816L27.3666 35.3439L25.7342 34.975L25.6989 34.1757L25.3194 33.6839L25.5136 33.0778L24.7459 32.463L24.2076 32.4279L23.9782 31.409L22.9369 30.9259L22.2222 30.1618L22.3016 28.8267L22.0722 28.6335L22.6899 28.37L22.3281 27.7025L21.5516 28.2997L21.0574 28.1153L20.775 28.3085L20.0868 27.9396L20.2015 27.0701L19.2308 27.0789L18.8779 27.641L19.1779 28.0538L18.6925 27.8957L18.3749 28.2119L18.4278 27.4565L18.1543 27.4829L17.9513 26.8593L16.6454 25.8843L16.6542 23.2142L15.9924 23.2494L16.1071 22.6872L15.4364 22.6697L15.5776 22.0724L14.0422 22.2393L13.9364 21.7386L15.2511 21.238L15.2423 20.8076L14.4305 20.4387L14.7658 19.6658L15.2864 19.4023L15.4982 18.3395L14.8629 17.3031L14.2893 17.3733L14.0246 16.4335L13.3804 16.82V16.0822L14.4923 15.9856L14.3952 16.3106L14.7217 16.3896L15.0658 15.441L15.5776 15.5991L16.663 13.7371L16.9718 12.3669L17.4307 11.9189L17.3513 11.3744L17.9248 10.1886L17.6248 9.40691L17.2542 9.73189L16.9542 9.59136L17.263 8.86235L16.3895 7.90497L16.6012 7.17596L17.0071 6.89489L16.5924 5.80577L17.3072 4.58489L18.1984 4.04033L18.569 3.44306L17.5278 3.06538L16.3542 3.12687L15.3217 2.44177L15.1541 1.98504L18.6661 2.38907L20.1926 1.99382L20.8103 2.11679L20.4221 0.878348L20.7927 0.772949L22.0986 1.1155L21.9839 1.79181L22.2663 2.02896Z"/>
</mask>
<path d="M22.2663 2.02896L25.39 2.48569L26.9343 1.67763L27.6225 1.62493L28.7079 1.96747L28.8403 2.45934L30.1374 2.67892L31.5316 4.29504L32.0081 4.20721L32.0611 4.84839L32.6788 4.72542L33.0141 4.9977L33.9494 4.52341L36.0054 4.67272L36.4731 5.06797L38.2821 4.95379L39.1115 4.37409L39.1998 6.3152L39.9322 6.2098L40.5675 7.17596L41.3264 7.36919L41.4234 8.02793L43.55 8.10698L43.9207 7.36041L44.9266 7.01786L45.0325 6.60504L45.6943 6.86854L47.9709 6.79828L48.5092 7.39554L49.7534 7.84349L50.0093 8.23873L49.8416 9.09949L50.8829 9.60893L51.0682 10.0657L52.6565 9.63527L53.6095 10.4521L54.7125 10.5136L55.6391 11.1021L57.0156 9.51231L63.2631 9.26638L63.4661 14.4924L64.6926 14.3607L65.4074 14.9667L64.5514 16.5038L64.5249 17.4173L67.4193 17.2943L68.0193 16.7322L68.937 17.2065L69.9606 17.3294L70.0047 16.943L70.7459 16.5565L71.0901 17.1713L71.646 16.7849L71.8225 17.0571L71.5313 17.7335L72.2813 18.1638L72.9696 17.1977L72.5284 17.224L72.4225 16.1612L72.6961 15.8275L73.2873 16.4862L73.6667 15.8275L75.7845 17.3206L76.5257 16.8024L77.567 16.9957L77.8935 17.347L78.8112 17.3646L78.9876 18.0584L78.7141 19.2617L77.4964 20.4299L77.4258 21.3609L77.0463 21.5278L77.2317 22.4149L76.6404 22.2217L75.8551 23.1703L74.5315 23.3723L74.5756 25.6911H75.1403L75.5639 26.9998L74.6374 27.0086L74.2756 26.3498L73.0314 25.533L73.1637 24.5932L72.3254 24.6195L71.9284 28.2031L72.7314 28.5808L72.749 29.8192L71.9637 30.9962L70.3577 31.33L71.0283 33.4819L70.5871 33.9298L71.293 34.3075L71.3636 34.7818L69.6517 36.433L68.3987 38.6464L68.5311 39.0856L68.0987 39.3052L68.134 41.422L66.8633 42.2827L66.6868 43.2577L67.0133 43.9779L65.6103 44.0218L65.4603 44.4434L63.8631 44.5664L63.9426 45.6116L63.1396 45.9893L64.3132 48.5803L64.3308 49.0107L63.819 49.2127L63.7131 49.8539L64.8603 50.864L64.5691 51.391L64.8073 51.5842L64.5691 52.1463L64.7367 52.726L64.1984 53.5692L64.472 54.1138L64.2249 55.484L64.4985 55.7563L64.4808 56.8015L65.3103 57.1528L65.1073 57.9609L65.4515 59.0939L64.5161 61.2809L63.5278 61.5093L63.2631 61.8958L63.5719 62.1856L63.519 62.9761L62.9013 63.67L64.0749 64.5395L63.6778 65.3915L64.119 66.2962L63.0601 66.5158L61.163 66.6036L61.1541 65.3564L60.7129 65.0577L59.4158 65.8658L59.3364 66.9725L57.7833 66.63L57.5098 67.561L56.8921 67.8157L56.6803 68.3163L55.2155 67.9299L54.2802 67.2887L52.9212 68.9927L52.3124 68.3515L52.03 68.4393L51.8094 69.2561L50.7946 69.2825L50.5564 69.8798L50.2828 69.8885L50.1681 70.7757L50.9799 70.5209L50.8741 70.8898L49.524 71.1885L49.6475 70.3541L49.3475 70.4419L49.1092 71.3553L49.3916 71.979L48.8004 71.8911L48.6327 73.2877L48.0945 73.1471L47.7415 74.5612L47.1062 74.4383L46.7355 75.7119L45.3502 75.5625L44.909 76.8625L43.903 77.3016L44.0618 77.8901L43.6383 77.8989L43.6559 78.3293L43.1088 78.2063L42.9941 78.8124L42.5353 79.1725L42.7294 79.5677L42.0852 79.6116L42.1205 80.244L42.4559 80.4197L39.2174 80.3406L38.7497 80.9291L38.1673 80.9818L37.0732 81.9568L36.4996 82.6419L36.4555 83.4675L35.9613 84.2228L34.2847 84.5566L33.9494 84.2404L32.7405 83.4236L33.1023 82.554L32.9082 81.8865L33.8523 81.9392L33.9935 80.2704L33.1553 80.3582L32.2376 81.9919L29.2197 80.7271L27.6931 81.9392L27.4902 81.5264L26.546 81.2014L26.1401 80.692L25.293 80.7008L23.687 82.4398L23.1046 83.7749L22.0281 84.1965L21.2868 84.0208L20.3603 84.3283L19.2485 83.9594L19.072 84.5742L17.9954 84.3722L16.2747 85.5843L14.7305 84.5478L14.0775 85.7072L12.4715 85.4262L12.498 85.0397L11.7127 84.9431L10.8744 85.6545L10.9273 86.7085L11.1303 87.1565L11.9686 87.3146L12.0921 87.8679L11.0156 88.2192L11.1215 88.7814L10.5744 89.2732L10.3626 90.1428L8.36834 90.4765L7.91832 92.4001L6.8153 91.5305L3.38273 86.6207L3.55038 84.8992L3.95629 84.2931L2.59738 83.3094L2.52679 82.5365L2.91505 82.2905L2.77386 81.8074L3.19742 81.1838H3.6298L3.67392 79.6731L2.50914 79.1286L1.25611 79.5062L0.876677 79.3218L0.55019 78.7333L0.806083 78.2239L1.34435 78.2414L1.31788 77.8638L2.49149 77.3192L1.97086 76.6077L1.80321 75.5011L2.52679 75.0443L2.8621 75.9227L3.41802 75.8173L3.78863 75.0092L3.35626 74.2802L2.63267 74.2714L2.56208 73.2174L2.22676 72.6641L1.61791 72.8309L1.98852 71.654L0.100159 70.5736L2.01499 70.8723L2.29736 69.2035L2.07676 68.6852L1.18552 67.9914L1.24729 67.0691L3.20624 67.034L3.38273 67.4117L4.66222 67.5698L4.96224 67.886L6.39174 67.7366L6.80648 66.7178L7.22121 66.4016L6.98296 65.5847L6.34763 65.8658L6.60352 64.9084L6.0476 63.345L6.72706 63.3538L7.23886 63.9774L7.98891 64.0477L8.12127 64.3375L9.50665 64.2058L8.52717 63.222L8.43011 62.695L8.10362 62.7653L8.41246 62.2998L8.80955 62.3613L9.24193 61.6674L8.95956 60.6925L9.57724 61.5532L11.4215 61.9133L11.3156 61.5357L12.8333 60.8418L15.0482 60.0425L15.4276 60.2621L15.3217 59.3662L16.3718 59.4101L18.1543 58.8831L18.1719 59.8493L19.1161 60.8769L18.6925 61.3863L19.6279 61.4917L20.6427 61.158L21.2162 61.5532L22.081 63.5207L22.4428 63.6524L22.7163 63.3187L22.1516 62.5721L23.5105 60.5431L23.7311 59.6209L23.537 58.0311L23.987 56.9156L24.0047 55.4664L24.6576 53.9118L28.002 54.4388L28.5226 53.4111L28.4961 52.9632L27.7461 52.2693L27.1284 52.1902L27.4637 48.9317L26.2901 47.9918L27.296 47.5966L29.7668 47.3594L29.8727 45.9805L30.508 45.7521L29.9962 43.4948L27.8961 42.0983L26.6519 42.2564L25.54 41.9314L25.7695 41.0355L25.3724 40.3592L26.0783 40.0166L27.1019 40.1572L27.1107 39.3667L27.5255 39.4106L27.649 39.797L28.9197 39.2437L28.9285 38.7343L29.458 38.7255L29.2197 37.3816L27.3666 35.3439L25.7342 34.975L25.6989 34.1757L25.3194 33.6839L25.5136 33.0778L24.7459 32.463L24.2076 32.4279L23.9782 31.409L22.9369 30.9259L22.2222 30.1618L22.3016 28.8267L22.0722 28.6335L22.6899 28.37L22.3281 27.7025L21.5516 28.2997L21.0574 28.1153L20.775 28.3085L20.0868 27.9396L20.2015 27.0701L19.2308 27.0789L18.8779 27.641L19.1779 28.0538L18.6925 27.8957L18.3749 28.2119L18.4278 27.4565L18.1543 27.4829L17.9513 26.8593L16.6454 25.8843L16.6542 23.2142L15.9924 23.2494L16.1071 22.6872L15.4364 22.6697L15.5776 22.0724L14.0422 22.2393L13.9364 21.7386L15.2511 21.238L15.2423 20.8076L14.4305 20.4387L14.7658 19.6658L15.2864 19.4023L15.4982 18.3395L14.8629 17.3031L14.2893 17.3733L14.0246 16.4335L13.3804 16.82V16.0822L14.4923 15.9856L14.3952 16.3106L14.7217 16.3896L15.0658 15.441L15.5776 15.5991L16.663 13.7371L16.9718 12.3669L17.4307 11.9189L17.3513 11.3744L17.9248 10.1886L17.6248 9.40691L17.2542 9.73189L16.9542 9.59136L17.263 8.86235L16.3895 7.90497L16.6012 7.17596L17.0071 6.89489L16.5924 5.80577L17.3072 4.58489L18.1984 4.04033L18.569 3.44306L17.5278 3.06538L16.3542 3.12687L15.3217 2.44177L15.1541 1.98504L18.6661 2.38907L20.1926 1.99382L20.8103 2.11679L20.4221 0.878348L20.7927 0.772949L22.0986 1.1155L21.9839 1.79181L22.2663 2.02896Z" fill="#7360F2" stroke="white" stroke-width="0.4" mask="url(#path-1-inside-1_903_2315)"/>
<path d="M42 50.2858C45.0772 50.2858 47.5714 52.7801 47.5714 55.8572C47.5714 58.2115 45.9172 60.7772 42.6514 63.5818C42.4699 63.7378 42.2383 63.8234 41.9989 63.8232C41.7596 63.823 41.5282 63.7369 41.3469 63.5806L41.1309 63.3932C38.0097 60.6618 36.4286 58.1589 36.4286 55.8572C36.4286 52.7801 38.9229 50.2858 42 50.2858ZM42 53.7143C41.4317 53.7143 40.8867 53.9401 40.4848 54.342C40.0829 54.7438 39.8572 55.2889 39.8572 55.8572C39.8572 56.4255 40.0829 56.9706 40.4848 57.3724C40.8867 57.7743 41.4317 58.0001 42 58.0001C42.5683 58.0001 43.1134 57.7743 43.5152 57.3724C43.9171 56.9706 44.1429 56.4255 44.1429 55.8572C44.1429 55.2889 43.9171 54.7438 43.5152 54.342C43.1134 53.9401 42.5683 53.7143 42 53.7143Z" fill="#FBE75E"/>
</svg>
