<svg width="75" height="55" viewBox="0 0 75 55" fill="none" xmlns="http://www.w3.org/2000/svg">
<mask id="path-1-inside-1_903_2321" fill="white">
<path d="M15.5304 3.04325L16.3687 3.44727L16.907 2.92906L18.46 3.28918L18.9012 2.82367L20.2425 4.08845L20.7808 4.05332L21.2043 5.12488L22.4926 4.86138L22.5809 4.3783L22.0338 3.82496L22.2279 3.47362L23.9221 4.42222L22.8544 5.16001L23.3398 6.60926L22.7397 6.61803L22.025 7.16259L21.9985 7.90918L22.6162 9.38477L23.7545 10.3421L24.7604 10.7462L24.9987 12.1427L25.4399 12.6961L25.8193 12.8366L26.34 12.1603L27.0018 11.9143L27.5312 12.0988L28.7048 11.3786L29.7284 11.9495L29.7725 12.6609L30.2843 12.7663L31.8021 16.0073L33.6728 15.9371L34.2993 15.3662L35.4994 16.3323L36.5936 15.6209L37.0436 16.8154L38.4113 17.4566L39.832 17.887L40.935 17.2634L42.1704 17.5181L43.4587 17.8518L43.7146 18.4315L44.4382 18.4491L44.8176 18.7829L44.8617 19.5119L46.8736 21.4793L49.3444 21.6111L49.5209 23.6488L51.1269 25.2825L52.7946 24.9487L53.3682 25.7216L52.8564 28.3918L53.2623 29.1471L54.7094 29.516L55.0271 29.2613L54.9389 28.8485L55.5654 27.4256L56.7037 27.6364L57.6214 26.9601L57.9479 27.1709L58.3538 26.5648L59.2715 26.1872L59.6598 26.5912L59.3774 27.0655L59.4215 28.1458L59.8715 28.6553L59.395 29.3491L59.4745 30.1923L59.9333 30.693L59.8098 31.7821L60.1804 32.151L60.101 32.7395L61.001 33.3455L60.9834 33.6617L62.8982 34.057L63.2688 34.4434L64.2218 33.0645L64.1689 32.4496L65.7396 32.7746L66.2514 33.2226L66.1014 33.9516L66.5337 34.4786L68.0162 35.2515L68.828 36.4724L70.1075 37.4473L70.3369 37.8953L70.1252 39.0898L71.3517 39.5992L71.9341 40.2755L71.2017 41.0572L71.2988 41.3383L70.8928 41.7072L71.1576 42.1815L70.6369 42.9369L71.4664 44.4564L72.1371 44.7111L72.3312 45.361L73.5048 46.0988L74.3254 47.8116L72.8342 49.0939L72.4812 51.4127L72.1282 51.8255L71.2988 51.7552L70.8487 52.1681L68.5986 51.3249L67.3456 52.0539L67.0014 53.2484L66.0396 53.7666L65.2984 53.266L63.9836 54.1443L63.2865 54.1004L62.4305 54.5571L61.3452 53.6349L58.945 53.7754L58.4332 52.7829L57.4537 52.1154L56.5713 52.2647L55.8654 51.4742L55.1154 51.8255L54.93 51.5093L54.1976 51.6674L53.8712 52.3349L52.0975 52.5721L51.6034 53.0025L51.0474 52.6511L50.3239 50.9823L49.0003 50.2533L48.109 50.1655L45.6559 50.7188L44.1117 49.656L42.6469 49.8669L41.5527 49.1466L41.3321 50.2006L40.5379 51.4478L39.2231 51.0702L38.7113 50.4729L38.129 50.5432L37.6789 49.9371L36.9818 49.8581L36.2053 49.1115L35.667 49.1203L35.7729 48.3386L34.4758 47.9872L34.114 47.5832L34.4405 46.7839L33.7787 46.1867L33.7081 45.5894L33.3198 45.5367L33.0904 45.9056L31.4756 45.6772L31.1138 44.7813L30.7344 44.6759L30.2226 45.0361L29.9049 45.7914L29.1548 46.1252L29.4284 46.5556L28.8901 47.065L29.0754 47.6183L28.696 48.1014L28.9784 48.4352L28.4577 49.1466L28.6783 49.3135L28.5019 49.7527L26.7547 49.8405L26.2164 50.4553L24.9281 49.5155L24.6016 49.6736L23.6221 49.1818L23.3662 49.7439L23.9221 50.104L24.2222 51.5005L22.6691 51.9924L22.4397 51.3951L20.9837 50.8242L20.8602 50.4817L21.7338 49.5155L22.2014 47.6535L21.8132 47.7677L21.6102 46.8103L20.9043 46.4062L20.4896 45.6333L20.5425 44.8165L20.2601 44.755L19.9689 45.2644L19.8278 44.5705L19.5277 44.7813L18.9718 44.5881L19.0865 44.9834L18.8306 45.159L18.4865 44.6847L17.8688 44.6672L15.8922 45.9232L13.5009 45.1854L13.7303 44.755L13.4038 43.7186L13.695 43.6132L13.2626 42.9017L13.0067 42.9544L12.6802 42.0937L12.892 41.2417L11.7272 40.6883L11.2243 39.9242L11.2419 39.4235L10.7036 39.3094L10.8272 38.9317L10.3948 38.6858L9.50356 39.2215L8.77116 38.7648L7.81816 38.8614L7.21812 39.5026L5.97392 37.5527L5.88568 36.3231L5.18857 35.5326L5.35623 34.3292L3.82966 33.9955L3.04432 32.88L3.75907 31.7821L2.92078 31.7294L2.04719 31.0443L0.202954 32.0807L0 30.5964L0.661808 24.7379L1.34126 23.113L2.31192 22.2698L2.77077 22.261L3.39728 21.1368L4.95032 19.8193L6.03569 19.4767L6.69749 17.2634L6.67102 16.9032L6.14158 16.4816L6.22099 15.981L7.44754 14.2595L7.11223 12.6961L7.30636 11.5367L7.72992 10.8252L8.44467 10.4124L8.76233 8.82264L8.5682 8.44495L10.0507 6.31063L10.183 5.59917L10.8713 5.26542L11.4537 5.39716L12.1949 4.94922L11.9478 4.29925L12.3537 3.93036L12.4067 1.73454L12.9979 1.05822L13.4568 0.86499L14.5951 1.61157L15.5304 3.04325Z"/>
</mask>
<path d="M15.5304 3.04325L16.3687 3.44727L16.907 2.92906L18.46 3.28918L18.9012 2.82367L20.2425 4.08845L20.7808 4.05332L21.2043 5.12488L22.4926 4.86138L22.5809 4.3783L22.0338 3.82496L22.2279 3.47362L23.9221 4.42222L22.8544 5.16001L23.3398 6.60926L22.7397 6.61803L22.025 7.16259L21.9985 7.90918L22.6162 9.38477L23.7545 10.3421L24.7604 10.7462L24.9987 12.1427L25.4399 12.6961L25.8193 12.8366L26.34 12.1603L27.0018 11.9143L27.5312 12.0988L28.7048 11.3786L29.7284 11.9495L29.7725 12.6609L30.2843 12.7663L31.8021 16.0073L33.6728 15.9371L34.2993 15.3662L35.4994 16.3323L36.5936 15.6209L37.0436 16.8154L38.4113 17.4566L39.832 17.887L40.935 17.2634L42.1704 17.5181L43.4587 17.8518L43.7146 18.4315L44.4382 18.4491L44.8176 18.7829L44.8617 19.5119L46.8736 21.4793L49.3444 21.6111L49.5209 23.6488L51.1269 25.2825L52.7946 24.9487L53.3682 25.7216L52.8564 28.3918L53.2623 29.1471L54.7094 29.516L55.0271 29.2613L54.9389 28.8485L55.5654 27.4256L56.7037 27.6364L57.6214 26.9601L57.9479 27.1709L58.3538 26.5648L59.2715 26.1872L59.6598 26.5912L59.3774 27.0655L59.4215 28.1458L59.8715 28.6553L59.395 29.3491L59.4745 30.1923L59.9333 30.693L59.8098 31.7821L60.1804 32.151L60.101 32.7395L61.001 33.3455L60.9834 33.6617L62.8982 34.057L63.2688 34.4434L64.2218 33.0645L64.1689 32.4496L65.7396 32.7746L66.2514 33.2226L66.1014 33.9516L66.5337 34.4786L68.0162 35.2515L68.828 36.4724L70.1075 37.4473L70.3369 37.8953L70.1252 39.0898L71.3517 39.5992L71.9341 40.2755L71.2017 41.0572L71.2988 41.3383L70.8928 41.7072L71.1576 42.1815L70.6369 42.9369L71.4664 44.4564L72.1371 44.7111L72.3312 45.361L73.5048 46.0988L74.3254 47.8116L72.8342 49.0939L72.4812 51.4127L72.1282 51.8255L71.2988 51.7552L70.8487 52.1681L68.5986 51.3249L67.3456 52.0539L67.0014 53.2484L66.0396 53.7666L65.2984 53.266L63.9836 54.1443L63.2865 54.1004L62.4305 54.5571L61.3452 53.6349L58.945 53.7754L58.4332 52.7829L57.4537 52.1154L56.5713 52.2647L55.8654 51.4742L55.1154 51.8255L54.93 51.5093L54.1976 51.6674L53.8712 52.3349L52.0975 52.5721L51.6034 53.0025L51.0474 52.6511L50.3239 50.9823L49.0003 50.2533L48.109 50.1655L45.6559 50.7188L44.1117 49.656L42.6469 49.8669L41.5527 49.1466L41.3321 50.2006L40.5379 51.4478L39.2231 51.0702L38.7113 50.4729L38.129 50.5432L37.6789 49.9371L36.9818 49.8581L36.2053 49.1115L35.667 49.1203L35.7729 48.3386L34.4758 47.9872L34.114 47.5832L34.4405 46.7839L33.7787 46.1867L33.7081 45.5894L33.3198 45.5367L33.0904 45.9056L31.4756 45.6772L31.1138 44.7813L30.7344 44.6759L30.2226 45.0361L29.9049 45.7914L29.1548 46.1252L29.4284 46.5556L28.8901 47.065L29.0754 47.6183L28.696 48.1014L28.9784 48.4352L28.4577 49.1466L28.6783 49.3135L28.5019 49.7527L26.7547 49.8405L26.2164 50.4553L24.9281 49.5155L24.6016 49.6736L23.6221 49.1818L23.3662 49.7439L23.9221 50.104L24.2222 51.5005L22.6691 51.9924L22.4397 51.3951L20.9837 50.8242L20.8602 50.4817L21.7338 49.5155L22.2014 47.6535L21.8132 47.7677L21.6102 46.8103L20.9043 46.4062L20.4896 45.6333L20.5425 44.8165L20.2601 44.755L19.9689 45.2644L19.8278 44.5705L19.5277 44.7813L18.9718 44.5881L19.0865 44.9834L18.8306 45.159L18.4865 44.6847L17.8688 44.6672L15.8922 45.9232L13.5009 45.1854L13.7303 44.755L13.4038 43.7186L13.695 43.6132L13.2626 42.9017L13.0067 42.9544L12.6802 42.0937L12.892 41.2417L11.7272 40.6883L11.2243 39.9242L11.2419 39.4235L10.7036 39.3094L10.8272 38.9317L10.3948 38.6858L9.50356 39.2215L8.77116 38.7648L7.81816 38.8614L7.21812 39.5026L5.97392 37.5527L5.88568 36.3231L5.18857 35.5326L5.35623 34.3292L3.82966 33.9955L3.04432 32.88L3.75907 31.7821L2.92078 31.7294L2.04719 31.0443L0.202954 32.0807L0 30.5964L0.661808 24.7379L1.34126 23.113L2.31192 22.2698L2.77077 22.261L3.39728 21.1368L4.95032 19.8193L6.03569 19.4767L6.69749 17.2634L6.67102 16.9032L6.14158 16.4816L6.22099 15.981L7.44754 14.2595L7.11223 12.6961L7.30636 11.5367L7.72992 10.8252L8.44467 10.4124L8.76233 8.82264L8.5682 8.44495L10.0507 6.31063L10.183 5.59917L10.8713 5.26542L11.4537 5.39716L12.1949 4.94922L11.9478 4.29925L12.3537 3.93036L12.4067 1.73454L12.9979 1.05822L13.4568 0.86499L14.5951 1.61157L15.5304 3.04325Z" fill="#7360F2" stroke="white" stroke-width="0.4" mask="url(#path-1-inside-1_903_2321)"/>
<path d="M10 11.2858C13.0772 11.2858 15.5714 13.7801 15.5714 16.8572C15.5714 19.2115 13.9172 21.7772 10.6514 24.5818C10.4699 24.7378 10.2383 24.8234 9.99895 24.8232C9.75956 24.823 9.52819 24.7369 9.34687 24.5806L9.13087 24.3932C6.00973 21.6618 4.42859 19.1589 4.42859 16.8572C4.42859 13.7801 6.92287 11.2858 10 11.2858ZM10 14.7143C9.4317 14.7143 8.88665 14.9401 8.48479 15.342C8.08292 15.7438 7.85716 16.2889 7.85716 16.8572C7.85716 17.4255 8.08292 17.9706 8.48479 18.3724C8.88665 18.7743 9.4317 19.0001 10 19.0001C10.5683 19.0001 11.1134 18.7743 11.5152 18.3724C11.9171 17.9706 12.1429 17.4255 12.1429 16.8572C12.1429 16.2889 11.9171 15.7438 11.5152 15.342C11.1134 14.9401 10.5683 14.7143 10 14.7143Z" fill="#FBE75E"/>
</svg>
