<svg width="94" height="91" viewBox="0 0 94 91" fill="none" xmlns="http://www.w3.org/2000/svg">
<mask id="path-1-inside-1_901_2294" fill="white">
<path d="M0.479431 30.0028L3.01194 29.3792L5.80036 28.1496L9.61235 27.7455L14.2009 26.226L16.0893 26.3578L18.1364 27.1658L22.3014 28.1232L23.6956 28.0705L24.8428 27.5172L25.0987 26.7794L24.8692 25.9362L24.1721 26.0504L24.5163 25.62L23.7839 25.2686L24.1104 25.1281L24.0751 24.6714L24.2604 24.9173L24.4986 24.5045L24.128 23.0289L23.6603 23.0553L23.3691 21.4743L24.3486 21.1932L24.128 19.7176L24.8604 19.6298L24.8075 18.4704L25.0634 18.3738L24.8781 17.2056L22.9721 17.5394L22.575 14.9219L23.2544 14.4301L23.1397 13.4815L22.3102 13.5166L22.0102 12.3221L20.7131 12.9194L20.263 10.6796L21.7455 10.4688L21.6749 9.91548L22.4161 9.63441L22.6014 10.1263L23.6692 9.88913L23.3515 7.65817L22.2573 7.73721L21.9926 6.35825L21.6573 6.34068L21.4455 4.77725L22.5044 4.54889L21.9131 1.09706L22.575 1.0795L22.6367 1.32543L23.6692 1.1849L23.6603 2.95912L25.7252 2.69562L25.884 2.99425L27.2517 2.64293L27.94 1.60649L29.2019 1.14098L31.2932 1.20247L32.758 0.613977L33.561 1.00044L34.8934 0.561279L36.2347 1.51867L41.6615 2.78345L41.7762 3.58273L47.2119 0.80721L48.359 2.72197L50.265 2.57266L50.5121 3.97797L55.0212 2.81859L55.5418 3.18748L55.5683 3.53003L55.1624 3.78474L55.2065 4.34687L55.4447 4.15365L55.6565 4.35566L55.3124 4.88265L57.6066 4.35566L57.9949 5.89273L57.0507 6.25285L57.2625 6.80619L57.9155 6.97307L58.1537 8.19395L57.536 8.51893L57.5802 8.7473L58.2155 8.52772L58.5508 10.0824L59.2744 9.60806L59.6009 10.0911L59.2832 10.3722L59.8568 11.2769L59.4862 12.9545H58.1449L58.2508 13.7538L60.6157 13.7362L61.7981 13.2356L61.5687 14.149L61.8863 14.4301L63.9512 14.4389L64.2953 15.1152L65.8307 14.8956L65.8042 14.0348L67.2514 14.149L67.3396 14.5267L69.7663 14.7726L71.6105 14.5443L71.6811 14.1754L73.49 13.7186L74.0636 13.5869L74.1783 14.0085L73.9401 15.0273L73.5783 15.1064L73.6047 16.4766L76.0755 16.134L76.5343 19.015L76.9667 19.0413L77.3197 21.1844L79.6404 20.9385L79.1286 21.808L78.5462 21.6499L78.4756 21.9486L77.4609 22.1067L77.655 23.3275L78.811 23.1431L78.8374 23.5735L78.2109 23.7052L78.2903 24.32L78.8374 24.5748L80.7611 23.6525L82.7024 26.9902L84.2554 25.7517L84.8643 26.6213L85.2967 26.3139L85.9408 27.3415L86.5497 26.6915L88.1557 29.3704L88.3763 29.1596L90.5029 31.0392L91.2088 29.7393L91.6412 29.9326L91.5441 30.3629L93.1148 30.4332L93.0354 31.821L92.7883 31.8385L91.6412 34.6228L91.8883 35.3958L90.7058 35.993L89.947 34.2979L89.0822 34.5174L89.4793 36.0545L88.2351 36.845L88.2969 37.1788L87.0173 37.7497L86.7085 37.1612L84.3437 37.3105L84.2025 36.9153L83.673 37.0031L84.7672 42.1062L82.4288 41.8954L82.5524 42.1325L81.52 42.194L82.5524 43.3973L82.8788 43.2831L83.1524 43.7311L83.4789 43.3622L83.576 43.8804L83.9466 43.6433L84.0701 43.9946L84.3084 43.898L85.3496 45.4263L85.9055 45.2857L86.2409 46.9633L85.4467 47.4464L88.3057 48.7903L88.8969 48.316L89.6205 49.1328L88.5969 50.5733L90.097 51.7326L88.8616 52.4529L88.6763 52.2509L86.5497 53.9636L87.8027 55.9398L86.9027 56.5283L85.5702 56.7567L83.0906 58.8735L81.8376 61.1747L80.5493 64.5826L78.9168 66.7696L78.308 66.7433L79.1904 66.1372L79.3404 65.5488L80.5493 64.442L80.7964 63.8097L80.1875 62.4746L79.0492 61.3503L77.3815 60.4105L74.3107 60.5159L73.0841 61.1835L68.3809 62.7557L67.2337 63.5374L65.1248 66.0845L61.9304 71.5565L61.1098 72.47L60.4921 72.3294L59.4685 72.9706L59.2038 72.9443L59.2656 72.549L59.7421 72.7247L60.2362 72.3821L60.5715 71.5389L61.1363 71.495L62.3893 70.5376L63.66 68.377L63.6864 67.0507L62.9099 65.9264L61.5245 65.1096L60.5009 65.1623L59.2038 65.6805L56.6625 65.2325L53.8299 65.5751L52.2328 66.2338L47.8737 68.7634L43.8763 73.0672L39.5878 75.1313L36.8171 78.7764L31.4344 87.709L29.7225 89.0528L25.7958 90.4845V89.4305L27.0841 88.4555L27.0135 87.8934L27.9224 87.4191L30.2343 86.9887L32.5021 85.9084L32.7933 84.4767L34.814 81.6661L35.0611 80.4452L35.6523 80.3222L36.7818 78.5304L36.5523 78.3635L36.0758 78.6095L35.6787 79.602L35.1317 78.7412L34.0375 78.6358L33.6933 76.7299L34.2404 75.9306L34.2139 75.2104L33.9228 74.7624L32.4315 74.209L31.8403 73.1375L31.4608 73.0057L31.7608 72.1713L30.9137 72.6632L31.5667 74.5692L32.2903 75.2016L32.3432 77.0285L31.7167 78.1176L29.9078 79.2682L29.1489 81.0161L28.293 81.0952L27.7547 73.2429L26.7576 73.3746L24.4722 71.9693L22.8838 72.2065L22.6103 70.889L23.0162 70.7748L22.8573 69.6066L18.86 70.239L18.6218 68.8776L17.8364 68.904L17.5629 67.3493L18.8335 66.9892L18.5512 64.5211L16.6893 64.7583L16.6011 64.1786L15.1892 64.3367L14.9509 62.7381L15.9304 62.5976L15.8775 62.0266L18.2335 61.7017L18.2247 61.3152L18.6394 61.2889L18.6482 60.3578L19.0895 60.3403L18.8512 58.4782L20.6513 58.2059L20.2895 55.8608L18.763 55.9925L18.2512 52.4265L16.7952 52.6549L16.6805 51.7414L14.8451 51.9698L14.7392 51.109L14.1656 51.0827L13.892 49.7564L13.2214 49.8442L12.7979 46.1816L11.8184 46.2694L10.9536 40.1212L12.1096 39.9104L12.0037 39.1989L11.7654 38.505L10.9183 38.6368L10.6183 37.1788L11.5801 36.8889L11.7125 36.1687L8.69467 36.7572L8.80938 37.7497L8.20932 37.8726L8.29757 38.3294L7.49457 38.4963L6.99159 38.0835L6.13565 38.1976L5.45621 38.8915L5.05914 38.5665L4.46791 35.0357L4.07082 35.0532L3.52373 31.8561L3.01194 31.294L0.479431 30.0028Z"/>
</mask>
<path d="M0.479431 30.0028L3.01194 29.3792L5.80036 28.1496L9.61235 27.7455L14.2009 26.226L16.0893 26.3578L18.1364 27.1658L22.3014 28.1232L23.6956 28.0705L24.8428 27.5172L25.0987 26.7794L24.8692 25.9362L24.1721 26.0504L24.5163 25.62L23.7839 25.2686L24.1104 25.1281L24.0751 24.6714L24.2604 24.9173L24.4986 24.5045L24.128 23.0289L23.6603 23.0553L23.3691 21.4743L24.3486 21.1932L24.128 19.7176L24.8604 19.6298L24.8075 18.4704L25.0634 18.3738L24.8781 17.2056L22.9721 17.5394L22.575 14.9219L23.2544 14.4301L23.1397 13.4815L22.3102 13.5166L22.0102 12.3221L20.7131 12.9194L20.263 10.6796L21.7455 10.4688L21.6749 9.91548L22.4161 9.63441L22.6014 10.1263L23.6692 9.88913L23.3515 7.65817L22.2573 7.73721L21.9926 6.35825L21.6573 6.34068L21.4455 4.77725L22.5044 4.54889L21.9131 1.09706L22.575 1.0795L22.6367 1.32543L23.6692 1.1849L23.6603 2.95912L25.7252 2.69562L25.884 2.99425L27.2517 2.64293L27.94 1.60649L29.2019 1.14098L31.2932 1.20247L32.758 0.613977L33.561 1.00044L34.8934 0.561279L36.2347 1.51867L41.6615 2.78345L41.7762 3.58273L47.2119 0.80721L48.359 2.72197L50.265 2.57266L50.5121 3.97797L55.0212 2.81859L55.5418 3.18748L55.5683 3.53003L55.1624 3.78474L55.2065 4.34687L55.4447 4.15365L55.6565 4.35566L55.3124 4.88265L57.6066 4.35566L57.9949 5.89273L57.0507 6.25285L57.2625 6.80619L57.9155 6.97307L58.1537 8.19395L57.536 8.51893L57.5802 8.7473L58.2155 8.52772L58.5508 10.0824L59.2744 9.60806L59.6009 10.0911L59.2832 10.3722L59.8568 11.2769L59.4862 12.9545H58.1449L58.2508 13.7538L60.6157 13.7362L61.7981 13.2356L61.5687 14.149L61.8863 14.4301L63.9512 14.4389L64.2953 15.1152L65.8307 14.8956L65.8042 14.0348L67.2514 14.149L67.3396 14.5267L69.7663 14.7726L71.6105 14.5443L71.6811 14.1754L73.49 13.7186L74.0636 13.5869L74.1783 14.0085L73.9401 15.0273L73.5783 15.1064L73.6047 16.4766L76.0755 16.134L76.5343 19.015L76.9667 19.0413L77.3197 21.1844L79.6404 20.9385L79.1286 21.808L78.5462 21.6499L78.4756 21.9486L77.4609 22.1067L77.655 23.3275L78.811 23.1431L78.8374 23.5735L78.2109 23.7052L78.2903 24.32L78.8374 24.5748L80.7611 23.6525L82.7024 26.9902L84.2554 25.7517L84.8643 26.6213L85.2967 26.3139L85.9408 27.3415L86.5497 26.6915L88.1557 29.3704L88.3763 29.1596L90.5029 31.0392L91.2088 29.7393L91.6412 29.9326L91.5441 30.3629L93.1148 30.4332L93.0354 31.821L92.7883 31.8385L91.6412 34.6228L91.8883 35.3958L90.7058 35.993L89.947 34.2979L89.0822 34.5174L89.4793 36.0545L88.2351 36.845L88.2969 37.1788L87.0173 37.7497L86.7085 37.1612L84.3437 37.3105L84.2025 36.9153L83.673 37.0031L84.7672 42.1062L82.4288 41.8954L82.5524 42.1325L81.52 42.194L82.5524 43.3973L82.8788 43.2831L83.1524 43.7311L83.4789 43.3622L83.576 43.8804L83.9466 43.6433L84.0701 43.9946L84.3084 43.898L85.3496 45.4263L85.9055 45.2857L86.2409 46.9633L85.4467 47.4464L88.3057 48.7903L88.8969 48.316L89.6205 49.1328L88.5969 50.5733L90.097 51.7326L88.8616 52.4529L88.6763 52.2509L86.5497 53.9636L87.8027 55.9398L86.9027 56.5283L85.5702 56.7567L83.0906 58.8735L81.8376 61.1747L80.5493 64.5826L78.9168 66.7696L78.308 66.7433L79.1904 66.1372L79.3404 65.5488L80.5493 64.442L80.7964 63.8097L80.1875 62.4746L79.0492 61.3503L77.3815 60.4105L74.3107 60.5159L73.0841 61.1835L68.3809 62.7557L67.2337 63.5374L65.1248 66.0845L61.9304 71.5565L61.1098 72.47L60.4921 72.3294L59.4685 72.9706L59.2038 72.9443L59.2656 72.549L59.7421 72.7247L60.2362 72.3821L60.5715 71.5389L61.1363 71.495L62.3893 70.5376L63.66 68.377L63.6864 67.0507L62.9099 65.9264L61.5245 65.1096L60.5009 65.1623L59.2038 65.6805L56.6625 65.2325L53.8299 65.5751L52.2328 66.2338L47.8737 68.7634L43.8763 73.0672L39.5878 75.1313L36.8171 78.7764L31.4344 87.709L29.7225 89.0528L25.7958 90.4845V89.4305L27.0841 88.4555L27.0135 87.8934L27.9224 87.4191L30.2343 86.9887L32.5021 85.9084L32.7933 84.4767L34.814 81.6661L35.0611 80.4452L35.6523 80.3222L36.7818 78.5304L36.5523 78.3635L36.0758 78.6095L35.6787 79.602L35.1317 78.7412L34.0375 78.6358L33.6933 76.7299L34.2404 75.9306L34.2139 75.2104L33.9228 74.7624L32.4315 74.209L31.8403 73.1375L31.4608 73.0057L31.7608 72.1713L30.9137 72.6632L31.5667 74.5692L32.2903 75.2016L32.3432 77.0285L31.7167 78.1176L29.9078 79.2682L29.1489 81.0161L28.293 81.0952L27.7547 73.2429L26.7576 73.3746L24.4722 71.9693L22.8838 72.2065L22.6103 70.889L23.0162 70.7748L22.8573 69.6066L18.86 70.239L18.6218 68.8776L17.8364 68.904L17.5629 67.3493L18.8335 66.9892L18.5512 64.5211L16.6893 64.7583L16.6011 64.1786L15.1892 64.3367L14.9509 62.7381L15.9304 62.5976L15.8775 62.0266L18.2335 61.7017L18.2247 61.3152L18.6394 61.2889L18.6482 60.3578L19.0895 60.3403L18.8512 58.4782L20.6513 58.2059L20.2895 55.8608L18.763 55.9925L18.2512 52.4265L16.7952 52.6549L16.6805 51.7414L14.8451 51.9698L14.7392 51.109L14.1656 51.0827L13.892 49.7564L13.2214 49.8442L12.7979 46.1816L11.8184 46.2694L10.9536 40.1212L12.1096 39.9104L12.0037 39.1989L11.7654 38.505L10.9183 38.6368L10.6183 37.1788L11.5801 36.8889L11.7125 36.1687L8.69467 36.7572L8.80938 37.7497L8.20932 37.8726L8.29757 38.3294L7.49457 38.4963L6.99159 38.0835L6.13565 38.1976L5.45621 38.8915L5.05914 38.5665L4.46791 35.0357L4.07082 35.0532L3.52373 31.8561L3.01194 31.294L0.479431 30.0028Z" fill="#7360F2" stroke="white" stroke-width="0.4" mask="url(#path-1-inside-1_901_2294)"/>
<path d="M29 9.28577C32.0772 9.28577 34.5714 11.7801 34.5714 14.8572C34.5714 17.2115 32.9172 19.7772 29.6514 22.5818C29.4699 22.7378 29.2383 22.8234 28.9989 22.8232C28.7596 22.823 28.5282 22.7369 28.3469 22.5806L28.1309 22.3932C25.0097 19.6618 23.4286 17.1589 23.4286 14.8572C23.4286 11.7801 25.9229 9.28577 29 9.28577ZM29 12.7143C28.4317 12.7143 27.8867 12.9401 27.4848 13.342C27.0829 13.7438 26.8572 14.2889 26.8572 14.8572C26.8572 15.4255 27.0829 15.9706 27.4848 16.3724C27.8867 16.7743 28.4317 17.0001 29 17.0001C29.5683 17.0001 30.1134 16.7743 30.5152 16.3724C30.9171 15.9706 31.1429 15.4255 31.1429 14.8572C31.1429 14.2889 30.9171 13.7438 30.5152 13.342C30.1134 12.9401 29.5683 12.7143 29 12.7143Z" fill="#FBE75E"/>
</svg>
